M48
; DRILL file {KiCad (5.1.5-0)} date 2020 March 21, Saturday 21:07:48
; FORMAT={-:-/ absolute / inch / decimal}
; #@! TF.CreationDate,2020-03-21T21:07:48+01:00
; #@! TF.GenerationSoftware,Kicad,Pcbnew,(5.1.5-0)
; #@! TF.FileFunction,Plated,1,2,PTH
FMAT,2
INCH
T1C0.0300
T2C0.0472
%
G90
G05
T1
X3.85Y-6.6937
X3.95Y-5.9063
X3.95Y-6.6937
X4.05Y-5.9063
X4.05Y-6.6937
X4.15Y-5.9063
X4.15Y-6.6937
X4.25Y-5.9063
X4.25Y-6.6937
X4.35Y-6.6937
X6.55Y-6.6937
X6.65Y-5.9063
X6.65Y-6.6937
X6.75Y-5.9063
X6.75Y-6.6937
X6.85Y-5.9063
X6.85Y-6.6937
X6.95Y-5.9063
X6.95Y-6.6937
X7.05Y-6.6937
X3.95Y-1.9063
X4.05Y-1.9063
X4.05Y-2.6937
X4.15Y-1.9063
X4.15Y-2.6937
X4.25Y-1.9063
X4.25Y-2.6937
X4.35Y-1.9063
X4.35Y-2.6937
X4.45Y-1.9063
X6.55Y-1.9063
X6.65Y-1.9063
X6.65Y-2.6937
X6.75Y-1.9063
X6.75Y-2.6937
X6.85Y-1.9063
X6.85Y-2.6937
X6.95Y-1.9063
X6.95Y-2.6937
X7.05Y-1.9063
T2
X4.04Y-1.4961
X4.14Y-1.4961
X4.24Y-1.4961
X4.34Y-1.4961
X6.66Y-1.4961
X6.76Y-1.4961
X6.86Y-1.4961
X6.96Y-1.4961
X5.06Y-4.32
X5.16Y-4.32
X5.26Y-4.32
X5.36Y-4.32
X5.46Y-4.32
X5.56Y-4.32
X5.66Y-4.32
X5.76Y-4.32
X5.86Y-4.32
X5.96Y-4.32
X3.94Y-7.1
X4.04Y-7.1
X4.14Y-7.1
X4.24Y-7.1
X6.66Y-7.1
X6.76Y-7.1
X6.86Y-7.1
X6.96Y-7.1
T0
M30
