G04 #@! TF.GenerationSoftware,KiCad,Pcbnew,(5.1.5-0)*
G04 #@! TF.CreationDate,2020-03-21T21:07:46+01:00*
G04 #@! TF.ProjectId,load_cells_connector_board,6c6f6164-5f63-4656-9c6c-735f636f6e6e,v01*
G04 #@! TF.SameCoordinates,Original*
G04 #@! TF.FileFunction,Copper,L2,Bot*
G04 #@! TF.FilePolarity,Positive*
%FSLAX46Y46*%
G04 Gerber Fmt 4.6, Leading zero omitted, Abs format (unit mm)*
G04 Created by KiCad (PCBNEW (5.1.5-0)) date 2020-03-21 21:07:46*
%MOMM*%
%LPD*%
G04 APERTURE LIST*
%ADD10C,0.100000*%
%ADD11O,1.740000X2.200000*%
%ADD12C,1.524000*%
%ADD13C,0.250000*%
%ADD14C,0.254000*%
G04 APERTURE END LIST*
G04 #@! TA.AperFunction,ComponentPad*
D10*
G36*
X129168505Y-108629204D02*
G01*
X129192773Y-108632804D01*
X129216572Y-108638765D01*
X129239671Y-108647030D01*
X129261850Y-108657520D01*
X129282893Y-108670132D01*
X129302599Y-108684747D01*
X129320777Y-108701223D01*
X129337253Y-108719401D01*
X129351868Y-108739107D01*
X129364480Y-108760150D01*
X129374970Y-108782329D01*
X129383235Y-108805428D01*
X129389196Y-108829227D01*
X129392796Y-108853495D01*
X129394000Y-108877999D01*
X129394000Y-110578001D01*
X129392796Y-110602505D01*
X129389196Y-110626773D01*
X129383235Y-110650572D01*
X129374970Y-110673671D01*
X129364480Y-110695850D01*
X129351868Y-110716893D01*
X129337253Y-110736599D01*
X129320777Y-110754777D01*
X129302599Y-110771253D01*
X129282893Y-110785868D01*
X129261850Y-110798480D01*
X129239671Y-110808970D01*
X129216572Y-110817235D01*
X129192773Y-110823196D01*
X129168505Y-110826796D01*
X129144001Y-110828000D01*
X127903999Y-110828000D01*
X127879495Y-110826796D01*
X127855227Y-110823196D01*
X127831428Y-110817235D01*
X127808329Y-110808970D01*
X127786150Y-110798480D01*
X127765107Y-110785868D01*
X127745401Y-110771253D01*
X127727223Y-110754777D01*
X127710747Y-110736599D01*
X127696132Y-110716893D01*
X127683520Y-110695850D01*
X127673030Y-110673671D01*
X127664765Y-110650572D01*
X127658804Y-110626773D01*
X127655204Y-110602505D01*
X127654000Y-110578001D01*
X127654000Y-108877999D01*
X127655204Y-108853495D01*
X127658804Y-108829227D01*
X127664765Y-108805428D01*
X127673030Y-108782329D01*
X127683520Y-108760150D01*
X127696132Y-108739107D01*
X127710747Y-108719401D01*
X127727223Y-108701223D01*
X127745401Y-108684747D01*
X127765107Y-108670132D01*
X127786150Y-108657520D01*
X127808329Y-108647030D01*
X127831428Y-108638765D01*
X127855227Y-108632804D01*
X127879495Y-108629204D01*
X127903999Y-108628000D01*
X129144001Y-108628000D01*
X129168505Y-108629204D01*
G37*
G04 #@! TD.AperFunction*
D11*
X131064000Y-109728000D03*
X133604000Y-109728000D03*
X136144000Y-109728000D03*
X138684000Y-109728000D03*
X141224000Y-109728000D03*
X143764000Y-109728000D03*
X146304000Y-109728000D03*
X148844000Y-109728000D03*
X151384000Y-109728000D03*
G04 #@! TA.AperFunction,ComponentPad*
D10*
G36*
X110880505Y-36901204D02*
G01*
X110904773Y-36904804D01*
X110928572Y-36910765D01*
X110951671Y-36919030D01*
X110973850Y-36929520D01*
X110994893Y-36942132D01*
X111014599Y-36956747D01*
X111032777Y-36973223D01*
X111049253Y-36991401D01*
X111063868Y-37011107D01*
X111076480Y-37032150D01*
X111086970Y-37054329D01*
X111095235Y-37077428D01*
X111101196Y-37101227D01*
X111104796Y-37125495D01*
X111106000Y-37149999D01*
X111106000Y-38850001D01*
X111104796Y-38874505D01*
X111101196Y-38898773D01*
X111095235Y-38922572D01*
X111086970Y-38945671D01*
X111076480Y-38967850D01*
X111063868Y-38988893D01*
X111049253Y-39008599D01*
X111032777Y-39026777D01*
X111014599Y-39043253D01*
X110994893Y-39057868D01*
X110973850Y-39070480D01*
X110951671Y-39080970D01*
X110928572Y-39089235D01*
X110904773Y-39095196D01*
X110880505Y-39098796D01*
X110856001Y-39100000D01*
X109615999Y-39100000D01*
X109591495Y-39098796D01*
X109567227Y-39095196D01*
X109543428Y-39089235D01*
X109520329Y-39080970D01*
X109498150Y-39070480D01*
X109477107Y-39057868D01*
X109457401Y-39043253D01*
X109439223Y-39026777D01*
X109422747Y-39008599D01*
X109408132Y-38988893D01*
X109395520Y-38967850D01*
X109385030Y-38945671D01*
X109376765Y-38922572D01*
X109370804Y-38898773D01*
X109367204Y-38874505D01*
X109366000Y-38850001D01*
X109366000Y-37149999D01*
X109367204Y-37125495D01*
X109370804Y-37101227D01*
X109376765Y-37077428D01*
X109385030Y-37054329D01*
X109395520Y-37032150D01*
X109408132Y-37011107D01*
X109422747Y-36991401D01*
X109439223Y-36973223D01*
X109457401Y-36956747D01*
X109477107Y-36942132D01*
X109498150Y-36929520D01*
X109520329Y-36919030D01*
X109543428Y-36910765D01*
X109567227Y-36904804D01*
X109591495Y-36901204D01*
X109615999Y-36900000D01*
X110856001Y-36900000D01*
X110880505Y-36901204D01*
G37*
G04 #@! TD.AperFunction*
D11*
X107696000Y-38000000D03*
X105156000Y-38000000D03*
X102616000Y-38000000D03*
X169164000Y-38000000D03*
X171704000Y-38000000D03*
X174244000Y-38000000D03*
G04 #@! TA.AperFunction,ComponentPad*
D10*
G36*
X177428505Y-36901204D02*
G01*
X177452773Y-36904804D01*
X177476572Y-36910765D01*
X177499671Y-36919030D01*
X177521850Y-36929520D01*
X177542893Y-36942132D01*
X177562599Y-36956747D01*
X177580777Y-36973223D01*
X177597253Y-36991401D01*
X177611868Y-37011107D01*
X177624480Y-37032150D01*
X177634970Y-37054329D01*
X177643235Y-37077428D01*
X177649196Y-37101227D01*
X177652796Y-37125495D01*
X177654000Y-37149999D01*
X177654000Y-38850001D01*
X177652796Y-38874505D01*
X177649196Y-38898773D01*
X177643235Y-38922572D01*
X177634970Y-38945671D01*
X177624480Y-38967850D01*
X177611868Y-38988893D01*
X177597253Y-39008599D01*
X177580777Y-39026777D01*
X177562599Y-39043253D01*
X177542893Y-39057868D01*
X177521850Y-39070480D01*
X177499671Y-39080970D01*
X177476572Y-39089235D01*
X177452773Y-39095196D01*
X177428505Y-39098796D01*
X177404001Y-39100000D01*
X176163999Y-39100000D01*
X176139495Y-39098796D01*
X176115227Y-39095196D01*
X176091428Y-39089235D01*
X176068329Y-39080970D01*
X176046150Y-39070480D01*
X176025107Y-39057868D01*
X176005401Y-39043253D01*
X175987223Y-39026777D01*
X175970747Y-39008599D01*
X175956132Y-38988893D01*
X175943520Y-38967850D01*
X175933030Y-38945671D01*
X175924765Y-38922572D01*
X175918804Y-38898773D01*
X175915204Y-38874505D01*
X175914000Y-38850001D01*
X175914000Y-37149999D01*
X175915204Y-37125495D01*
X175918804Y-37101227D01*
X175924765Y-37077428D01*
X175933030Y-37054329D01*
X175943520Y-37032150D01*
X175956132Y-37011107D01*
X175970747Y-36991401D01*
X175987223Y-36973223D01*
X176005401Y-36956747D01*
X176025107Y-36942132D01*
X176046150Y-36929520D01*
X176068329Y-36919030D01*
X176091428Y-36910765D01*
X176115227Y-36904804D01*
X176139495Y-36901204D01*
X176163999Y-36900000D01*
X177404001Y-36900000D01*
X177428505Y-36901204D01*
G37*
G04 #@! TD.AperFunction*
G04 #@! TA.AperFunction,ComponentPad*
G36*
X100720505Y-179241204D02*
G01*
X100744773Y-179244804D01*
X100768572Y-179250765D01*
X100791671Y-179259030D01*
X100813850Y-179269520D01*
X100834893Y-179282132D01*
X100854599Y-179296747D01*
X100872777Y-179313223D01*
X100889253Y-179331401D01*
X100903868Y-179351107D01*
X100916480Y-179372150D01*
X100926970Y-179394329D01*
X100935235Y-179417428D01*
X100941196Y-179441227D01*
X100944796Y-179465495D01*
X100946000Y-179489999D01*
X100946000Y-181190001D01*
X100944796Y-181214505D01*
X100941196Y-181238773D01*
X100935235Y-181262572D01*
X100926970Y-181285671D01*
X100916480Y-181307850D01*
X100903868Y-181328893D01*
X100889253Y-181348599D01*
X100872777Y-181366777D01*
X100854599Y-181383253D01*
X100834893Y-181397868D01*
X100813850Y-181410480D01*
X100791671Y-181420970D01*
X100768572Y-181429235D01*
X100744773Y-181435196D01*
X100720505Y-181438796D01*
X100696001Y-181440000D01*
X99455999Y-181440000D01*
X99431495Y-181438796D01*
X99407227Y-181435196D01*
X99383428Y-181429235D01*
X99360329Y-181420970D01*
X99338150Y-181410480D01*
X99317107Y-181397868D01*
X99297401Y-181383253D01*
X99279223Y-181366777D01*
X99262747Y-181348599D01*
X99248132Y-181328893D01*
X99235520Y-181307850D01*
X99225030Y-181285671D01*
X99216765Y-181262572D01*
X99210804Y-181238773D01*
X99207204Y-181214505D01*
X99206000Y-181190001D01*
X99206000Y-179489999D01*
X99207204Y-179465495D01*
X99210804Y-179441227D01*
X99216765Y-179417428D01*
X99225030Y-179394329D01*
X99235520Y-179372150D01*
X99248132Y-179351107D01*
X99262747Y-179331401D01*
X99279223Y-179313223D01*
X99297401Y-179296747D01*
X99317107Y-179282132D01*
X99338150Y-179269520D01*
X99360329Y-179259030D01*
X99383428Y-179250765D01*
X99407227Y-179244804D01*
X99431495Y-179241204D01*
X99455999Y-179240000D01*
X100696001Y-179240000D01*
X100720505Y-179241204D01*
G37*
G04 #@! TD.AperFunction*
D11*
X102616000Y-180340000D03*
X105156000Y-180340000D03*
X107696000Y-180340000D03*
X176784000Y-180340000D03*
X174244000Y-180340000D03*
X171704000Y-180340000D03*
G04 #@! TA.AperFunction,ComponentPad*
D10*
G36*
X169808505Y-179241204D02*
G01*
X169832773Y-179244804D01*
X169856572Y-179250765D01*
X169879671Y-179259030D01*
X169901850Y-179269520D01*
X169922893Y-179282132D01*
X169942599Y-179296747D01*
X169960777Y-179313223D01*
X169977253Y-179331401D01*
X169991868Y-179351107D01*
X170004480Y-179372150D01*
X170014970Y-179394329D01*
X170023235Y-179417428D01*
X170029196Y-179441227D01*
X170032796Y-179465495D01*
X170034000Y-179489999D01*
X170034000Y-181190001D01*
X170032796Y-181214505D01*
X170029196Y-181238773D01*
X170023235Y-181262572D01*
X170014970Y-181285671D01*
X170004480Y-181307850D01*
X169991868Y-181328893D01*
X169977253Y-181348599D01*
X169960777Y-181366777D01*
X169942599Y-181383253D01*
X169922893Y-181397868D01*
X169901850Y-181410480D01*
X169879671Y-181420970D01*
X169856572Y-181429235D01*
X169832773Y-181435196D01*
X169808505Y-181438796D01*
X169784001Y-181440000D01*
X168543999Y-181440000D01*
X168519495Y-181438796D01*
X168495227Y-181435196D01*
X168471428Y-181429235D01*
X168448329Y-181420970D01*
X168426150Y-181410480D01*
X168405107Y-181397868D01*
X168385401Y-181383253D01*
X168367223Y-181366777D01*
X168350747Y-181348599D01*
X168336132Y-181328893D01*
X168323520Y-181307850D01*
X168313030Y-181285671D01*
X168304765Y-181262572D01*
X168298804Y-181238773D01*
X168295204Y-181214505D01*
X168294000Y-181190001D01*
X168294000Y-179489999D01*
X168295204Y-179465495D01*
X168298804Y-179441227D01*
X168304765Y-179417428D01*
X168313030Y-179394329D01*
X168323520Y-179372150D01*
X168336132Y-179351107D01*
X168350747Y-179331401D01*
X168367223Y-179313223D01*
X168385401Y-179296747D01*
X168405107Y-179282132D01*
X168426150Y-179269520D01*
X168448329Y-179259030D01*
X168471428Y-179250765D01*
X168495227Y-179244804D01*
X168519495Y-179241204D01*
X168543999Y-179240000D01*
X169784001Y-179240000D01*
X169808505Y-179241204D01*
G37*
G04 #@! TD.AperFunction*
D12*
X113030000Y-48420000D03*
X110490000Y-48420000D03*
X107950000Y-48420000D03*
X105410000Y-48420000D03*
X102870000Y-48420000D03*
X100330000Y-48420000D03*
X102870000Y-68420000D03*
X105410000Y-68420000D03*
X107950000Y-68420000D03*
X110490000Y-68420000D03*
X176530000Y-68420000D03*
X173990000Y-68420000D03*
X171450000Y-68420000D03*
X168910000Y-68420000D03*
X166370000Y-48420000D03*
X168910000Y-48420000D03*
X171450000Y-48420000D03*
X173990000Y-48420000D03*
X176530000Y-48420000D03*
X179070000Y-48420000D03*
X97790000Y-170020000D03*
X100330000Y-170020000D03*
X102870000Y-170020000D03*
X105410000Y-170020000D03*
X107950000Y-170020000D03*
X110490000Y-170020000D03*
X107950000Y-150020000D03*
X105410000Y-150020000D03*
X102870000Y-150020000D03*
X100330000Y-150020000D03*
X168910000Y-150020000D03*
X171450000Y-150020000D03*
X173990000Y-150020000D03*
X176530000Y-150020000D03*
X179070000Y-170020000D03*
X176530000Y-170020000D03*
X173990000Y-170020000D03*
X171450000Y-170020000D03*
X168910000Y-170020000D03*
X166370000Y-170020000D03*
D13*
X168910000Y-93322000D02*
X168910000Y-68420000D01*
X152504000Y-109728000D02*
X168910000Y-93322000D01*
X151384000Y-109728000D02*
X152504000Y-109728000D01*
X103957001Y-69507001D02*
X102870000Y-68420000D01*
X112513001Y-69507001D02*
X103957001Y-69507001D01*
X151384000Y-108378000D02*
X112513001Y-69507001D01*
X151384000Y-109728000D02*
X151384000Y-108378000D01*
X111322000Y-150020000D02*
X107950000Y-150020000D01*
X151384000Y-109958000D02*
X111322000Y-150020000D01*
X151384000Y-109728000D02*
X151384000Y-109958000D01*
X176530000Y-136224000D02*
X176530000Y-150020000D01*
X151384000Y-111078000D02*
X176530000Y-136224000D01*
X151384000Y-109728000D02*
X151384000Y-111078000D01*
D14*
G36*
X185741000Y-188281000D02*
G01*
X92135000Y-188281000D01*
X92135000Y-179489999D01*
X98567928Y-179489999D01*
X98567928Y-181190001D01*
X98584992Y-181363255D01*
X98635528Y-181529851D01*
X98717595Y-181683387D01*
X98828038Y-181817962D01*
X98962613Y-181928405D01*
X99116149Y-182010472D01*
X99282745Y-182061008D01*
X99455999Y-182078072D01*
X100696001Y-182078072D01*
X100869255Y-182061008D01*
X101035851Y-182010472D01*
X101189387Y-181928405D01*
X101323962Y-181817962D01*
X101434405Y-181683387D01*
X101492934Y-181573886D01*
X101546655Y-181639345D01*
X101775822Y-181827417D01*
X102037276Y-181967166D01*
X102320969Y-182053224D01*
X102616000Y-182082282D01*
X102911032Y-182053224D01*
X103194725Y-181967166D01*
X103456179Y-181827417D01*
X103685345Y-181639345D01*
X103873417Y-181410179D01*
X103886000Y-181386638D01*
X103898583Y-181410179D01*
X104086655Y-181639345D01*
X104315822Y-181827417D01*
X104577276Y-181967166D01*
X104860969Y-182053224D01*
X105156000Y-182082282D01*
X105451032Y-182053224D01*
X105734725Y-181967166D01*
X105996179Y-181827417D01*
X106225345Y-181639345D01*
X106413417Y-181410179D01*
X106426000Y-181386638D01*
X106438583Y-181410179D01*
X106626655Y-181639345D01*
X106855822Y-181827417D01*
X107117276Y-181967166D01*
X107400969Y-182053224D01*
X107696000Y-182082282D01*
X107991032Y-182053224D01*
X108274725Y-181967166D01*
X108536179Y-181827417D01*
X108765345Y-181639345D01*
X108953417Y-181410179D01*
X109093166Y-181148724D01*
X109179224Y-180865031D01*
X109201000Y-180643935D01*
X109201000Y-180036064D01*
X109179224Y-179814968D01*
X109093166Y-179531275D01*
X109071104Y-179489999D01*
X167655928Y-179489999D01*
X167655928Y-181190001D01*
X167672992Y-181363255D01*
X167723528Y-181529851D01*
X167805595Y-181683387D01*
X167916038Y-181817962D01*
X168050613Y-181928405D01*
X168204149Y-182010472D01*
X168370745Y-182061008D01*
X168543999Y-182078072D01*
X169784001Y-182078072D01*
X169957255Y-182061008D01*
X170123851Y-182010472D01*
X170277387Y-181928405D01*
X170411962Y-181817962D01*
X170522405Y-181683387D01*
X170580934Y-181573886D01*
X170634655Y-181639345D01*
X170863822Y-181827417D01*
X171125276Y-181967166D01*
X171408969Y-182053224D01*
X171704000Y-182082282D01*
X171999032Y-182053224D01*
X172282725Y-181967166D01*
X172544179Y-181827417D01*
X172773345Y-181639345D01*
X172961417Y-181410179D01*
X172974000Y-181386638D01*
X172986583Y-181410179D01*
X173174655Y-181639345D01*
X173403822Y-181827417D01*
X173665276Y-181967166D01*
X173948969Y-182053224D01*
X174244000Y-182082282D01*
X174539032Y-182053224D01*
X174822725Y-181967166D01*
X175084179Y-181827417D01*
X175313345Y-181639345D01*
X175501417Y-181410179D01*
X175514000Y-181386638D01*
X175526583Y-181410179D01*
X175714655Y-181639345D01*
X175943822Y-181827417D01*
X176205276Y-181967166D01*
X176488969Y-182053224D01*
X176784000Y-182082282D01*
X177079032Y-182053224D01*
X177362725Y-181967166D01*
X177624179Y-181827417D01*
X177853345Y-181639345D01*
X178041417Y-181410179D01*
X178181166Y-181148724D01*
X178267224Y-180865031D01*
X178289000Y-180643935D01*
X178289000Y-180036064D01*
X178267224Y-179814968D01*
X178181166Y-179531275D01*
X178041417Y-179269821D01*
X177853345Y-179040655D01*
X177624178Y-178852583D01*
X177362724Y-178712834D01*
X177079031Y-178626776D01*
X176784000Y-178597718D01*
X176488968Y-178626776D01*
X176205275Y-178712834D01*
X175943821Y-178852583D01*
X175714655Y-179040655D01*
X175526583Y-179269822D01*
X175514000Y-179293363D01*
X175501417Y-179269821D01*
X175313345Y-179040655D01*
X175084178Y-178852583D01*
X174822724Y-178712834D01*
X174539031Y-178626776D01*
X174244000Y-178597718D01*
X173948968Y-178626776D01*
X173665275Y-178712834D01*
X173403821Y-178852583D01*
X173174655Y-179040655D01*
X172986583Y-179269822D01*
X172974000Y-179293363D01*
X172961417Y-179269821D01*
X172773345Y-179040655D01*
X172544178Y-178852583D01*
X172282724Y-178712834D01*
X171999031Y-178626776D01*
X171704000Y-178597718D01*
X171408968Y-178626776D01*
X171125275Y-178712834D01*
X170863821Y-178852583D01*
X170634655Y-179040655D01*
X170580935Y-179106114D01*
X170522405Y-178996613D01*
X170411962Y-178862038D01*
X170277387Y-178751595D01*
X170123851Y-178669528D01*
X169957255Y-178618992D01*
X169784001Y-178601928D01*
X168543999Y-178601928D01*
X168370745Y-178618992D01*
X168204149Y-178669528D01*
X168050613Y-178751595D01*
X167916038Y-178862038D01*
X167805595Y-178996613D01*
X167723528Y-179150149D01*
X167672992Y-179316745D01*
X167655928Y-179489999D01*
X109071104Y-179489999D01*
X108953417Y-179269821D01*
X108765345Y-179040655D01*
X108536178Y-178852583D01*
X108274724Y-178712834D01*
X107991031Y-178626776D01*
X107696000Y-178597718D01*
X107400968Y-178626776D01*
X107117275Y-178712834D01*
X106855821Y-178852583D01*
X106626655Y-179040655D01*
X106438583Y-179269822D01*
X106426000Y-179293363D01*
X106413417Y-179269821D01*
X106225345Y-179040655D01*
X105996178Y-178852583D01*
X105734724Y-178712834D01*
X105451031Y-178626776D01*
X105156000Y-178597718D01*
X104860968Y-178626776D01*
X104577275Y-178712834D01*
X104315821Y-178852583D01*
X104086655Y-179040655D01*
X103898583Y-179269822D01*
X103886000Y-179293363D01*
X103873417Y-179269821D01*
X103685345Y-179040655D01*
X103456178Y-178852583D01*
X103194724Y-178712834D01*
X102911031Y-178626776D01*
X102616000Y-178597718D01*
X102320968Y-178626776D01*
X102037275Y-178712834D01*
X101775821Y-178852583D01*
X101546655Y-179040655D01*
X101492935Y-179106114D01*
X101434405Y-178996613D01*
X101323962Y-178862038D01*
X101189387Y-178751595D01*
X101035851Y-178669528D01*
X100869255Y-178618992D01*
X100696001Y-178601928D01*
X99455999Y-178601928D01*
X99282745Y-178618992D01*
X99116149Y-178669528D01*
X98962613Y-178751595D01*
X98828038Y-178862038D01*
X98717595Y-178996613D01*
X98635528Y-179150149D01*
X98584992Y-179316745D01*
X98567928Y-179489999D01*
X92135000Y-179489999D01*
X92135000Y-169882408D01*
X96393000Y-169882408D01*
X96393000Y-170157592D01*
X96446686Y-170427490D01*
X96551995Y-170681727D01*
X96704880Y-170910535D01*
X96899465Y-171105120D01*
X97128273Y-171258005D01*
X97382510Y-171363314D01*
X97652408Y-171417000D01*
X97927592Y-171417000D01*
X98197490Y-171363314D01*
X98451727Y-171258005D01*
X98680535Y-171105120D01*
X98875120Y-170910535D01*
X99028005Y-170681727D01*
X99060000Y-170604485D01*
X99091995Y-170681727D01*
X99244880Y-170910535D01*
X99439465Y-171105120D01*
X99668273Y-171258005D01*
X99922510Y-171363314D01*
X100192408Y-171417000D01*
X100467592Y-171417000D01*
X100737490Y-171363314D01*
X100991727Y-171258005D01*
X101220535Y-171105120D01*
X101415120Y-170910535D01*
X101568005Y-170681727D01*
X101600000Y-170604485D01*
X101631995Y-170681727D01*
X101784880Y-170910535D01*
X101979465Y-171105120D01*
X102208273Y-171258005D01*
X102462510Y-171363314D01*
X102732408Y-171417000D01*
X103007592Y-171417000D01*
X103277490Y-171363314D01*
X103531727Y-171258005D01*
X103760535Y-171105120D01*
X103955120Y-170910535D01*
X104108005Y-170681727D01*
X104140000Y-170604485D01*
X104171995Y-170681727D01*
X104324880Y-170910535D01*
X104519465Y-171105120D01*
X104748273Y-171258005D01*
X105002510Y-171363314D01*
X105272408Y-171417000D01*
X105547592Y-171417000D01*
X105817490Y-171363314D01*
X106071727Y-171258005D01*
X106300535Y-171105120D01*
X106495120Y-170910535D01*
X106648005Y-170681727D01*
X106680000Y-170604485D01*
X106711995Y-170681727D01*
X106864880Y-170910535D01*
X107059465Y-171105120D01*
X107288273Y-171258005D01*
X107542510Y-171363314D01*
X107812408Y-171417000D01*
X108087592Y-171417000D01*
X108357490Y-171363314D01*
X108611727Y-171258005D01*
X108840535Y-171105120D01*
X109035120Y-170910535D01*
X109188005Y-170681727D01*
X109220000Y-170604485D01*
X109251995Y-170681727D01*
X109404880Y-170910535D01*
X109599465Y-171105120D01*
X109828273Y-171258005D01*
X110082510Y-171363314D01*
X110352408Y-171417000D01*
X110627592Y-171417000D01*
X110897490Y-171363314D01*
X111151727Y-171258005D01*
X111380535Y-171105120D01*
X111575120Y-170910535D01*
X111728005Y-170681727D01*
X111833314Y-170427490D01*
X111887000Y-170157592D01*
X111887000Y-169882408D01*
X164973000Y-169882408D01*
X164973000Y-170157592D01*
X165026686Y-170427490D01*
X165131995Y-170681727D01*
X165284880Y-170910535D01*
X165479465Y-171105120D01*
X165708273Y-171258005D01*
X165962510Y-171363314D01*
X166232408Y-171417000D01*
X166507592Y-171417000D01*
X166777490Y-171363314D01*
X167031727Y-171258005D01*
X167260535Y-171105120D01*
X167455120Y-170910535D01*
X167608005Y-170681727D01*
X167640000Y-170604485D01*
X167671995Y-170681727D01*
X167824880Y-170910535D01*
X168019465Y-171105120D01*
X168248273Y-171258005D01*
X168502510Y-171363314D01*
X168772408Y-171417000D01*
X169047592Y-171417000D01*
X169317490Y-171363314D01*
X169571727Y-171258005D01*
X169800535Y-171105120D01*
X169995120Y-170910535D01*
X170148005Y-170681727D01*
X170180000Y-170604485D01*
X170211995Y-170681727D01*
X170364880Y-170910535D01*
X170559465Y-171105120D01*
X170788273Y-171258005D01*
X171042510Y-171363314D01*
X171312408Y-171417000D01*
X171587592Y-171417000D01*
X171857490Y-171363314D01*
X172111727Y-171258005D01*
X172340535Y-171105120D01*
X172535120Y-170910535D01*
X172688005Y-170681727D01*
X172720000Y-170604485D01*
X172751995Y-170681727D01*
X172904880Y-170910535D01*
X173099465Y-171105120D01*
X173328273Y-171258005D01*
X173582510Y-171363314D01*
X173852408Y-171417000D01*
X174127592Y-171417000D01*
X174397490Y-171363314D01*
X174651727Y-171258005D01*
X174880535Y-171105120D01*
X175075120Y-170910535D01*
X175228005Y-170681727D01*
X175260000Y-170604485D01*
X175291995Y-170681727D01*
X175444880Y-170910535D01*
X175639465Y-171105120D01*
X175868273Y-171258005D01*
X176122510Y-171363314D01*
X176392408Y-171417000D01*
X176667592Y-171417000D01*
X176937490Y-171363314D01*
X177191727Y-171258005D01*
X177420535Y-171105120D01*
X177615120Y-170910535D01*
X177768005Y-170681727D01*
X177800000Y-170604485D01*
X177831995Y-170681727D01*
X177984880Y-170910535D01*
X178179465Y-171105120D01*
X178408273Y-171258005D01*
X178662510Y-171363314D01*
X178932408Y-171417000D01*
X179207592Y-171417000D01*
X179477490Y-171363314D01*
X179731727Y-171258005D01*
X179960535Y-171105120D01*
X180155120Y-170910535D01*
X180308005Y-170681727D01*
X180413314Y-170427490D01*
X180467000Y-170157592D01*
X180467000Y-169882408D01*
X180413314Y-169612510D01*
X180308005Y-169358273D01*
X180155120Y-169129465D01*
X179960535Y-168934880D01*
X179731727Y-168781995D01*
X179477490Y-168676686D01*
X179207592Y-168623000D01*
X178932408Y-168623000D01*
X178662510Y-168676686D01*
X178408273Y-168781995D01*
X178179465Y-168934880D01*
X177984880Y-169129465D01*
X177831995Y-169358273D01*
X177800000Y-169435515D01*
X177768005Y-169358273D01*
X177615120Y-169129465D01*
X177420535Y-168934880D01*
X177191727Y-168781995D01*
X176937490Y-168676686D01*
X176667592Y-168623000D01*
X176392408Y-168623000D01*
X176122510Y-168676686D01*
X175868273Y-168781995D01*
X175639465Y-168934880D01*
X175444880Y-169129465D01*
X175291995Y-169358273D01*
X175260000Y-169435515D01*
X175228005Y-169358273D01*
X175075120Y-169129465D01*
X174880535Y-168934880D01*
X174651727Y-168781995D01*
X174397490Y-168676686D01*
X174127592Y-168623000D01*
X173852408Y-168623000D01*
X173582510Y-168676686D01*
X173328273Y-168781995D01*
X173099465Y-168934880D01*
X172904880Y-169129465D01*
X172751995Y-169358273D01*
X172720000Y-169435515D01*
X172688005Y-169358273D01*
X172535120Y-169129465D01*
X172340535Y-168934880D01*
X172111727Y-168781995D01*
X171857490Y-168676686D01*
X171587592Y-168623000D01*
X171312408Y-168623000D01*
X171042510Y-168676686D01*
X170788273Y-168781995D01*
X170559465Y-168934880D01*
X170364880Y-169129465D01*
X170211995Y-169358273D01*
X170180000Y-169435515D01*
X170148005Y-169358273D01*
X169995120Y-169129465D01*
X169800535Y-168934880D01*
X169571727Y-168781995D01*
X169317490Y-168676686D01*
X169047592Y-168623000D01*
X168772408Y-168623000D01*
X168502510Y-168676686D01*
X168248273Y-168781995D01*
X168019465Y-168934880D01*
X167824880Y-169129465D01*
X167671995Y-169358273D01*
X167640000Y-169435515D01*
X167608005Y-169358273D01*
X167455120Y-169129465D01*
X167260535Y-168934880D01*
X167031727Y-168781995D01*
X166777490Y-168676686D01*
X166507592Y-168623000D01*
X166232408Y-168623000D01*
X165962510Y-168676686D01*
X165708273Y-168781995D01*
X165479465Y-168934880D01*
X165284880Y-169129465D01*
X165131995Y-169358273D01*
X165026686Y-169612510D01*
X164973000Y-169882408D01*
X111887000Y-169882408D01*
X111833314Y-169612510D01*
X111728005Y-169358273D01*
X111575120Y-169129465D01*
X111380535Y-168934880D01*
X111151727Y-168781995D01*
X110897490Y-168676686D01*
X110627592Y-168623000D01*
X110352408Y-168623000D01*
X110082510Y-168676686D01*
X109828273Y-168781995D01*
X109599465Y-168934880D01*
X109404880Y-169129465D01*
X109251995Y-169358273D01*
X109220000Y-169435515D01*
X109188005Y-169358273D01*
X109035120Y-169129465D01*
X108840535Y-168934880D01*
X108611727Y-168781995D01*
X108357490Y-168676686D01*
X108087592Y-168623000D01*
X107812408Y-168623000D01*
X107542510Y-168676686D01*
X107288273Y-168781995D01*
X107059465Y-168934880D01*
X106864880Y-169129465D01*
X106711995Y-169358273D01*
X106680000Y-169435515D01*
X106648005Y-169358273D01*
X106495120Y-169129465D01*
X106300535Y-168934880D01*
X106071727Y-168781995D01*
X105817490Y-168676686D01*
X105547592Y-168623000D01*
X105272408Y-168623000D01*
X105002510Y-168676686D01*
X104748273Y-168781995D01*
X104519465Y-168934880D01*
X104324880Y-169129465D01*
X104171995Y-169358273D01*
X104140000Y-169435515D01*
X104108005Y-169358273D01*
X103955120Y-169129465D01*
X103760535Y-168934880D01*
X103531727Y-168781995D01*
X103277490Y-168676686D01*
X103007592Y-168623000D01*
X102732408Y-168623000D01*
X102462510Y-168676686D01*
X102208273Y-168781995D01*
X101979465Y-168934880D01*
X101784880Y-169129465D01*
X101631995Y-169358273D01*
X101600000Y-169435515D01*
X101568005Y-169358273D01*
X101415120Y-169129465D01*
X101220535Y-168934880D01*
X100991727Y-168781995D01*
X100737490Y-168676686D01*
X100467592Y-168623000D01*
X100192408Y-168623000D01*
X99922510Y-168676686D01*
X99668273Y-168781995D01*
X99439465Y-168934880D01*
X99244880Y-169129465D01*
X99091995Y-169358273D01*
X99060000Y-169435515D01*
X99028005Y-169358273D01*
X98875120Y-169129465D01*
X98680535Y-168934880D01*
X98451727Y-168781995D01*
X98197490Y-168676686D01*
X97927592Y-168623000D01*
X97652408Y-168623000D01*
X97382510Y-168676686D01*
X97128273Y-168781995D01*
X96899465Y-168934880D01*
X96704880Y-169129465D01*
X96551995Y-169358273D01*
X96446686Y-169612510D01*
X96393000Y-169882408D01*
X92135000Y-169882408D01*
X92135000Y-150985565D01*
X99544040Y-150985565D01*
X99611020Y-151225656D01*
X99860048Y-151342756D01*
X100127135Y-151409023D01*
X100402017Y-151421910D01*
X100674133Y-151380922D01*
X100933023Y-151287636D01*
X101048980Y-151225656D01*
X101115960Y-150985565D01*
X100330000Y-150199605D01*
X99544040Y-150985565D01*
X92135000Y-150985565D01*
X92135000Y-150092017D01*
X98928090Y-150092017D01*
X98969078Y-150364133D01*
X99062364Y-150623023D01*
X99124344Y-150738980D01*
X99364435Y-150805960D01*
X100150395Y-150020000D01*
X100509605Y-150020000D01*
X101295565Y-150805960D01*
X101535656Y-150738980D01*
X101599485Y-150603240D01*
X101631995Y-150681727D01*
X101784880Y-150910535D01*
X101979465Y-151105120D01*
X102208273Y-151258005D01*
X102462510Y-151363314D01*
X102732408Y-151417000D01*
X103007592Y-151417000D01*
X103277490Y-151363314D01*
X103531727Y-151258005D01*
X103760535Y-151105120D01*
X103955120Y-150910535D01*
X104108005Y-150681727D01*
X104140000Y-150604485D01*
X104171995Y-150681727D01*
X104324880Y-150910535D01*
X104519465Y-151105120D01*
X104748273Y-151258005D01*
X105002510Y-151363314D01*
X105272408Y-151417000D01*
X105547592Y-151417000D01*
X105817490Y-151363314D01*
X106071727Y-151258005D01*
X106300535Y-151105120D01*
X106495120Y-150910535D01*
X106648005Y-150681727D01*
X106680000Y-150604485D01*
X106711995Y-150681727D01*
X106864880Y-150910535D01*
X107059465Y-151105120D01*
X107288273Y-151258005D01*
X107542510Y-151363314D01*
X107812408Y-151417000D01*
X108087592Y-151417000D01*
X108357490Y-151363314D01*
X108611727Y-151258005D01*
X108840535Y-151105120D01*
X108960090Y-150985565D01*
X168124040Y-150985565D01*
X168191020Y-151225656D01*
X168440048Y-151342756D01*
X168707135Y-151409023D01*
X168982017Y-151421910D01*
X169254133Y-151380922D01*
X169513023Y-151287636D01*
X169628980Y-151225656D01*
X169695960Y-150985565D01*
X168910000Y-150199605D01*
X168124040Y-150985565D01*
X108960090Y-150985565D01*
X109035120Y-150910535D01*
X109122341Y-150780000D01*
X111284678Y-150780000D01*
X111322000Y-150783676D01*
X111359322Y-150780000D01*
X111359333Y-150780000D01*
X111470986Y-150769003D01*
X111614247Y-150725546D01*
X111746276Y-150654974D01*
X111862001Y-150560001D01*
X111885804Y-150530997D01*
X112324784Y-150092017D01*
X167508090Y-150092017D01*
X167549078Y-150364133D01*
X167642364Y-150623023D01*
X167704344Y-150738980D01*
X167944435Y-150805960D01*
X168730395Y-150020000D01*
X167944435Y-149234040D01*
X167704344Y-149301020D01*
X167587244Y-149550048D01*
X167520977Y-149817135D01*
X167508090Y-150092017D01*
X112324784Y-150092017D01*
X113362366Y-149054435D01*
X168124040Y-149054435D01*
X168910000Y-149840395D01*
X169695960Y-149054435D01*
X169628980Y-148814344D01*
X169379952Y-148697244D01*
X169112865Y-148630977D01*
X168837983Y-148618090D01*
X168565867Y-148659078D01*
X168306977Y-148752364D01*
X168191020Y-148814344D01*
X168124040Y-149054435D01*
X113362366Y-149054435D01*
X150823626Y-111593176D01*
X150844000Y-111618001D01*
X150872998Y-111641799D01*
X175770000Y-136538802D01*
X175770001Y-148847658D01*
X175639465Y-148934880D01*
X175444880Y-149129465D01*
X175291995Y-149358273D01*
X175260000Y-149435515D01*
X175228005Y-149358273D01*
X175075120Y-149129465D01*
X174880535Y-148934880D01*
X174651727Y-148781995D01*
X174397490Y-148676686D01*
X174127592Y-148623000D01*
X173852408Y-148623000D01*
X173582510Y-148676686D01*
X173328273Y-148781995D01*
X173099465Y-148934880D01*
X172904880Y-149129465D01*
X172751995Y-149358273D01*
X172720000Y-149435515D01*
X172688005Y-149358273D01*
X172535120Y-149129465D01*
X172340535Y-148934880D01*
X172111727Y-148781995D01*
X171857490Y-148676686D01*
X171587592Y-148623000D01*
X171312408Y-148623000D01*
X171042510Y-148676686D01*
X170788273Y-148781995D01*
X170559465Y-148934880D01*
X170364880Y-149129465D01*
X170211995Y-149358273D01*
X170182308Y-149429943D01*
X170177636Y-149416977D01*
X170115656Y-149301020D01*
X169875565Y-149234040D01*
X169089605Y-150020000D01*
X169875565Y-150805960D01*
X170115656Y-150738980D01*
X170179485Y-150603240D01*
X170211995Y-150681727D01*
X170364880Y-150910535D01*
X170559465Y-151105120D01*
X170788273Y-151258005D01*
X171042510Y-151363314D01*
X171312408Y-151417000D01*
X171587592Y-151417000D01*
X171857490Y-151363314D01*
X172111727Y-151258005D01*
X172340535Y-151105120D01*
X172535120Y-150910535D01*
X172688005Y-150681727D01*
X172720000Y-150604485D01*
X172751995Y-150681727D01*
X172904880Y-150910535D01*
X173099465Y-151105120D01*
X173328273Y-151258005D01*
X173582510Y-151363314D01*
X173852408Y-151417000D01*
X174127592Y-151417000D01*
X174397490Y-151363314D01*
X174651727Y-151258005D01*
X174880535Y-151105120D01*
X175075120Y-150910535D01*
X175228005Y-150681727D01*
X175260000Y-150604485D01*
X175291995Y-150681727D01*
X175444880Y-150910535D01*
X175639465Y-151105120D01*
X175868273Y-151258005D01*
X176122510Y-151363314D01*
X176392408Y-151417000D01*
X176667592Y-151417000D01*
X176937490Y-151363314D01*
X177191727Y-151258005D01*
X177420535Y-151105120D01*
X177615120Y-150910535D01*
X177768005Y-150681727D01*
X177873314Y-150427490D01*
X177927000Y-150157592D01*
X177927000Y-149882408D01*
X177873314Y-149612510D01*
X177768005Y-149358273D01*
X177615120Y-149129465D01*
X177420535Y-148934880D01*
X177290000Y-148847659D01*
X177290000Y-136261322D01*
X177293676Y-136223999D01*
X177290000Y-136186676D01*
X177290000Y-136186667D01*
X177279003Y-136075014D01*
X177235546Y-135931753D01*
X177164974Y-135799724D01*
X177070001Y-135683999D01*
X177041004Y-135660202D01*
X152428520Y-111047719D01*
X152453345Y-111027345D01*
X152641417Y-110798179D01*
X152781166Y-110536724D01*
X152815604Y-110423200D01*
X152928276Y-110362974D01*
X153044001Y-110268001D01*
X153067804Y-110238997D01*
X169421004Y-93885798D01*
X169450001Y-93862001D01*
X169544974Y-93746276D01*
X169615546Y-93614247D01*
X169659003Y-93470986D01*
X169670000Y-93359333D01*
X169670000Y-93359325D01*
X169673676Y-93322000D01*
X169670000Y-93284675D01*
X169670000Y-69592341D01*
X169800535Y-69505120D01*
X169995120Y-69310535D01*
X170148005Y-69081727D01*
X170180000Y-69004485D01*
X170211995Y-69081727D01*
X170364880Y-69310535D01*
X170559465Y-69505120D01*
X170788273Y-69658005D01*
X171042510Y-69763314D01*
X171312408Y-69817000D01*
X171587592Y-69817000D01*
X171857490Y-69763314D01*
X172111727Y-69658005D01*
X172340535Y-69505120D01*
X172535120Y-69310535D01*
X172688005Y-69081727D01*
X172720000Y-69004485D01*
X172751995Y-69081727D01*
X172904880Y-69310535D01*
X173099465Y-69505120D01*
X173328273Y-69658005D01*
X173582510Y-69763314D01*
X173852408Y-69817000D01*
X174127592Y-69817000D01*
X174397490Y-69763314D01*
X174651727Y-69658005D01*
X174880535Y-69505120D01*
X175000090Y-69385565D01*
X175744040Y-69385565D01*
X175811020Y-69625656D01*
X176060048Y-69742756D01*
X176327135Y-69809023D01*
X176602017Y-69821910D01*
X176874133Y-69780922D01*
X177133023Y-69687636D01*
X177248980Y-69625656D01*
X177315960Y-69385565D01*
X176530000Y-68599605D01*
X175744040Y-69385565D01*
X175000090Y-69385565D01*
X175075120Y-69310535D01*
X175228005Y-69081727D01*
X175257692Y-69010057D01*
X175262364Y-69023023D01*
X175324344Y-69138980D01*
X175564435Y-69205960D01*
X176350395Y-68420000D01*
X176709605Y-68420000D01*
X177495565Y-69205960D01*
X177735656Y-69138980D01*
X177852756Y-68889952D01*
X177919023Y-68622865D01*
X177931910Y-68347983D01*
X177890922Y-68075867D01*
X177797636Y-67816977D01*
X177735656Y-67701020D01*
X177495565Y-67634040D01*
X176709605Y-68420000D01*
X176350395Y-68420000D01*
X175564435Y-67634040D01*
X175324344Y-67701020D01*
X175260515Y-67836760D01*
X175228005Y-67758273D01*
X175075120Y-67529465D01*
X175000090Y-67454435D01*
X175744040Y-67454435D01*
X176530000Y-68240395D01*
X177315960Y-67454435D01*
X177248980Y-67214344D01*
X176999952Y-67097244D01*
X176732865Y-67030977D01*
X176457983Y-67018090D01*
X176185867Y-67059078D01*
X175926977Y-67152364D01*
X175811020Y-67214344D01*
X175744040Y-67454435D01*
X175000090Y-67454435D01*
X174880535Y-67334880D01*
X174651727Y-67181995D01*
X174397490Y-67076686D01*
X174127592Y-67023000D01*
X173852408Y-67023000D01*
X173582510Y-67076686D01*
X173328273Y-67181995D01*
X173099465Y-67334880D01*
X172904880Y-67529465D01*
X172751995Y-67758273D01*
X172720000Y-67835515D01*
X172688005Y-67758273D01*
X172535120Y-67529465D01*
X172340535Y-67334880D01*
X172111727Y-67181995D01*
X171857490Y-67076686D01*
X171587592Y-67023000D01*
X171312408Y-67023000D01*
X171042510Y-67076686D01*
X170788273Y-67181995D01*
X170559465Y-67334880D01*
X170364880Y-67529465D01*
X170211995Y-67758273D01*
X170180000Y-67835515D01*
X170148005Y-67758273D01*
X169995120Y-67529465D01*
X169800535Y-67334880D01*
X169571727Y-67181995D01*
X169317490Y-67076686D01*
X169047592Y-67023000D01*
X168772408Y-67023000D01*
X168502510Y-67076686D01*
X168248273Y-67181995D01*
X168019465Y-67334880D01*
X167824880Y-67529465D01*
X167671995Y-67758273D01*
X167566686Y-68012510D01*
X167513000Y-68282408D01*
X167513000Y-68557592D01*
X167566686Y-68827490D01*
X167671995Y-69081727D01*
X167824880Y-69310535D01*
X168019465Y-69505120D01*
X168150001Y-69592342D01*
X168150000Y-93007198D01*
X152577392Y-108579807D01*
X152453345Y-108428655D01*
X152224178Y-108240583D01*
X152119548Y-108184657D01*
X152089546Y-108085753D01*
X152064287Y-108038498D01*
X152018974Y-107953723D01*
X151947799Y-107866997D01*
X151924001Y-107837999D01*
X151895003Y-107814201D01*
X113076805Y-68996004D01*
X113053002Y-68967000D01*
X112937277Y-68872027D01*
X112805248Y-68801455D01*
X112661987Y-68757998D01*
X112550334Y-68747001D01*
X112550323Y-68747001D01*
X112513001Y-68743325D01*
X112475679Y-68747001D01*
X111848224Y-68747001D01*
X111879023Y-68622865D01*
X111891910Y-68347983D01*
X111850922Y-68075867D01*
X111757636Y-67816977D01*
X111695656Y-67701020D01*
X111455565Y-67634040D01*
X110669605Y-68420000D01*
X110683748Y-68434143D01*
X110504143Y-68613748D01*
X110490000Y-68599605D01*
X110475858Y-68613748D01*
X110296253Y-68434143D01*
X110310395Y-68420000D01*
X109524435Y-67634040D01*
X109284344Y-67701020D01*
X109220515Y-67836760D01*
X109188005Y-67758273D01*
X109035120Y-67529465D01*
X108960090Y-67454435D01*
X109704040Y-67454435D01*
X110490000Y-68240395D01*
X111275960Y-67454435D01*
X111208980Y-67214344D01*
X110959952Y-67097244D01*
X110692865Y-67030977D01*
X110417983Y-67018090D01*
X110145867Y-67059078D01*
X109886977Y-67152364D01*
X109771020Y-67214344D01*
X109704040Y-67454435D01*
X108960090Y-67454435D01*
X108840535Y-67334880D01*
X108611727Y-67181995D01*
X108357490Y-67076686D01*
X108087592Y-67023000D01*
X107812408Y-67023000D01*
X107542510Y-67076686D01*
X107288273Y-67181995D01*
X107059465Y-67334880D01*
X106864880Y-67529465D01*
X106711995Y-67758273D01*
X106680000Y-67835515D01*
X106648005Y-67758273D01*
X106495120Y-67529465D01*
X106300535Y-67334880D01*
X106071727Y-67181995D01*
X105817490Y-67076686D01*
X105547592Y-67023000D01*
X105272408Y-67023000D01*
X105002510Y-67076686D01*
X104748273Y-67181995D01*
X104519465Y-67334880D01*
X104324880Y-67529465D01*
X104171995Y-67758273D01*
X104140000Y-67835515D01*
X104108005Y-67758273D01*
X103955120Y-67529465D01*
X103760535Y-67334880D01*
X103531727Y-67181995D01*
X103277490Y-67076686D01*
X103007592Y-67023000D01*
X102732408Y-67023000D01*
X102462510Y-67076686D01*
X102208273Y-67181995D01*
X101979465Y-67334880D01*
X101784880Y-67529465D01*
X101631995Y-67758273D01*
X101526686Y-68012510D01*
X101473000Y-68282408D01*
X101473000Y-68557592D01*
X101526686Y-68827490D01*
X101631995Y-69081727D01*
X101784880Y-69310535D01*
X101979465Y-69505120D01*
X102208273Y-69658005D01*
X102462510Y-69763314D01*
X102732408Y-69817000D01*
X103007592Y-69817000D01*
X103161570Y-69786372D01*
X103393201Y-70018003D01*
X103417000Y-70047002D01*
X103445998Y-70070800D01*
X103532725Y-70141975D01*
X103664754Y-70212547D01*
X103808015Y-70256004D01*
X103957001Y-70270678D01*
X103994334Y-70267001D01*
X112198200Y-70267001D01*
X150339480Y-108408282D01*
X150314655Y-108428655D01*
X150126583Y-108657822D01*
X150114000Y-108681363D01*
X150101417Y-108657821D01*
X149913345Y-108428655D01*
X149684178Y-108240583D01*
X149422724Y-108100834D01*
X149139031Y-108014776D01*
X148844000Y-107985718D01*
X148548968Y-108014776D01*
X148265275Y-108100834D01*
X148003821Y-108240583D01*
X147774655Y-108428655D01*
X147586583Y-108657822D01*
X147574000Y-108681363D01*
X147561417Y-108657821D01*
X147373345Y-108428655D01*
X147144178Y-108240583D01*
X146882724Y-108100834D01*
X146599031Y-108014776D01*
X146304000Y-107985718D01*
X146008968Y-108014776D01*
X145725275Y-108100834D01*
X145463821Y-108240583D01*
X145234655Y-108428655D01*
X145046583Y-108657822D01*
X145034000Y-108681363D01*
X145021417Y-108657821D01*
X144833345Y-108428655D01*
X144604178Y-108240583D01*
X144342724Y-108100834D01*
X144059031Y-108014776D01*
X143764000Y-107985718D01*
X143468968Y-108014776D01*
X143185275Y-108100834D01*
X142923821Y-108240583D01*
X142694655Y-108428655D01*
X142506583Y-108657822D01*
X142494000Y-108681363D01*
X142481417Y-108657821D01*
X142293345Y-108428655D01*
X142064178Y-108240583D01*
X141802724Y-108100834D01*
X141519031Y-108014776D01*
X141224000Y-107985718D01*
X140928968Y-108014776D01*
X140645275Y-108100834D01*
X140383821Y-108240583D01*
X140154655Y-108428655D01*
X139966583Y-108657822D01*
X139954000Y-108681363D01*
X139941417Y-108657821D01*
X139753345Y-108428655D01*
X139524178Y-108240583D01*
X139262724Y-108100834D01*
X138979031Y-108014776D01*
X138684000Y-107985718D01*
X138388968Y-108014776D01*
X138105275Y-108100834D01*
X137843821Y-108240583D01*
X137614655Y-108428655D01*
X137426583Y-108657822D01*
X137414000Y-108681363D01*
X137401417Y-108657821D01*
X137213345Y-108428655D01*
X136984178Y-108240583D01*
X136722724Y-108100834D01*
X136439031Y-108014776D01*
X136144000Y-107985718D01*
X135848968Y-108014776D01*
X135565275Y-108100834D01*
X135303821Y-108240583D01*
X135074655Y-108428655D01*
X134886583Y-108657822D01*
X134874000Y-108681363D01*
X134861417Y-108657821D01*
X134673345Y-108428655D01*
X134444178Y-108240583D01*
X134182724Y-108100834D01*
X133899031Y-108014776D01*
X133604000Y-107985718D01*
X133308968Y-108014776D01*
X133025275Y-108100834D01*
X132763821Y-108240583D01*
X132534655Y-108428655D01*
X132346583Y-108657822D01*
X132334000Y-108681363D01*
X132321417Y-108657821D01*
X132133345Y-108428655D01*
X131904178Y-108240583D01*
X131642724Y-108100834D01*
X131359031Y-108014776D01*
X131064000Y-107985718D01*
X130768968Y-108014776D01*
X130485275Y-108100834D01*
X130223821Y-108240583D01*
X129996615Y-108427047D01*
X129983502Y-108383820D01*
X129924537Y-108273506D01*
X129845185Y-108176815D01*
X129748494Y-108097463D01*
X129638180Y-108038498D01*
X129518482Y-108002188D01*
X129394000Y-107989928D01*
X128809750Y-107993000D01*
X128651000Y-108151750D01*
X128651000Y-109601000D01*
X128671000Y-109601000D01*
X128671000Y-109855000D01*
X128651000Y-109855000D01*
X128651000Y-111304250D01*
X128809750Y-111463000D01*
X129394000Y-111466072D01*
X129518482Y-111453812D01*
X129638180Y-111417502D01*
X129748494Y-111358537D01*
X129845185Y-111279185D01*
X129924537Y-111182494D01*
X129983502Y-111072180D01*
X129996615Y-111028953D01*
X130223822Y-111215417D01*
X130485276Y-111355166D01*
X130768969Y-111441224D01*
X131064000Y-111470282D01*
X131359032Y-111441224D01*
X131642725Y-111355166D01*
X131904179Y-111215417D01*
X132133345Y-111027345D01*
X132321417Y-110798179D01*
X132334000Y-110774638D01*
X132346583Y-110798179D01*
X132534655Y-111027345D01*
X132763822Y-111215417D01*
X133025276Y-111355166D01*
X133308969Y-111441224D01*
X133604000Y-111470282D01*
X133899032Y-111441224D01*
X134182725Y-111355166D01*
X134444179Y-111215417D01*
X134673345Y-111027345D01*
X134861417Y-110798179D01*
X134874000Y-110774638D01*
X134886583Y-110798179D01*
X135074655Y-111027345D01*
X135303822Y-111215417D01*
X135565276Y-111355166D01*
X135848969Y-111441224D01*
X136144000Y-111470282D01*
X136439032Y-111441224D01*
X136722725Y-111355166D01*
X136984179Y-111215417D01*
X137213345Y-111027345D01*
X137401417Y-110798179D01*
X137414000Y-110774638D01*
X137426583Y-110798179D01*
X137614655Y-111027345D01*
X137843822Y-111215417D01*
X138105276Y-111355166D01*
X138388969Y-111441224D01*
X138684000Y-111470282D01*
X138979032Y-111441224D01*
X139262725Y-111355166D01*
X139524179Y-111215417D01*
X139753345Y-111027345D01*
X139941417Y-110798179D01*
X139954000Y-110774638D01*
X139966583Y-110798179D01*
X140154655Y-111027345D01*
X140383822Y-111215417D01*
X140645276Y-111355166D01*
X140928969Y-111441224D01*
X141224000Y-111470282D01*
X141519032Y-111441224D01*
X141802725Y-111355166D01*
X142064179Y-111215417D01*
X142293345Y-111027345D01*
X142481417Y-110798179D01*
X142494000Y-110774638D01*
X142506583Y-110798179D01*
X142694655Y-111027345D01*
X142923822Y-111215417D01*
X143185276Y-111355166D01*
X143468969Y-111441224D01*
X143764000Y-111470282D01*
X144059032Y-111441224D01*
X144342725Y-111355166D01*
X144604179Y-111215417D01*
X144833345Y-111027345D01*
X145021417Y-110798179D01*
X145034000Y-110774638D01*
X145046583Y-110798179D01*
X145234655Y-111027345D01*
X145463822Y-111215417D01*
X145725276Y-111355166D01*
X146008969Y-111441224D01*
X146304000Y-111470282D01*
X146599032Y-111441224D01*
X146882725Y-111355166D01*
X147144179Y-111215417D01*
X147373345Y-111027345D01*
X147561417Y-110798179D01*
X147574000Y-110774638D01*
X147586583Y-110798179D01*
X147774655Y-111027345D01*
X148003822Y-111215417D01*
X148265276Y-111355166D01*
X148548969Y-111441224D01*
X148801138Y-111466060D01*
X111007199Y-149260000D01*
X109122341Y-149260000D01*
X109035120Y-149129465D01*
X108840535Y-148934880D01*
X108611727Y-148781995D01*
X108357490Y-148676686D01*
X108087592Y-148623000D01*
X107812408Y-148623000D01*
X107542510Y-148676686D01*
X107288273Y-148781995D01*
X107059465Y-148934880D01*
X106864880Y-149129465D01*
X106711995Y-149358273D01*
X106680000Y-149435515D01*
X106648005Y-149358273D01*
X106495120Y-149129465D01*
X106300535Y-148934880D01*
X106071727Y-148781995D01*
X105817490Y-148676686D01*
X105547592Y-148623000D01*
X105272408Y-148623000D01*
X105002510Y-148676686D01*
X104748273Y-148781995D01*
X104519465Y-148934880D01*
X104324880Y-149129465D01*
X104171995Y-149358273D01*
X104140000Y-149435515D01*
X104108005Y-149358273D01*
X103955120Y-149129465D01*
X103760535Y-148934880D01*
X103531727Y-148781995D01*
X103277490Y-148676686D01*
X103007592Y-148623000D01*
X102732408Y-148623000D01*
X102462510Y-148676686D01*
X102208273Y-148781995D01*
X101979465Y-148934880D01*
X101784880Y-149129465D01*
X101631995Y-149358273D01*
X101602308Y-149429943D01*
X101597636Y-149416977D01*
X101535656Y-149301020D01*
X101295565Y-149234040D01*
X100509605Y-150020000D01*
X100150395Y-150020000D01*
X99364435Y-149234040D01*
X99124344Y-149301020D01*
X99007244Y-149550048D01*
X98940977Y-149817135D01*
X98928090Y-150092017D01*
X92135000Y-150092017D01*
X92135000Y-149054435D01*
X99544040Y-149054435D01*
X100330000Y-149840395D01*
X101115960Y-149054435D01*
X101048980Y-148814344D01*
X100799952Y-148697244D01*
X100532865Y-148630977D01*
X100257983Y-148618090D01*
X99985867Y-148659078D01*
X99726977Y-148752364D01*
X99611020Y-148814344D01*
X99544040Y-149054435D01*
X92135000Y-149054435D01*
X92135000Y-110828000D01*
X127015928Y-110828000D01*
X127028188Y-110952482D01*
X127064498Y-111072180D01*
X127123463Y-111182494D01*
X127202815Y-111279185D01*
X127299506Y-111358537D01*
X127409820Y-111417502D01*
X127529518Y-111453812D01*
X127654000Y-111466072D01*
X128238250Y-111463000D01*
X128397000Y-111304250D01*
X128397000Y-109855000D01*
X127177750Y-109855000D01*
X127019000Y-110013750D01*
X127015928Y-110828000D01*
X92135000Y-110828000D01*
X92135000Y-108628000D01*
X127015928Y-108628000D01*
X127019000Y-109442250D01*
X127177750Y-109601000D01*
X128397000Y-109601000D01*
X128397000Y-108151750D01*
X128238250Y-107993000D01*
X127654000Y-107989928D01*
X127529518Y-108002188D01*
X127409820Y-108038498D01*
X127299506Y-108097463D01*
X127202815Y-108176815D01*
X127123463Y-108273506D01*
X127064498Y-108383820D01*
X127028188Y-108503518D01*
X127015928Y-108628000D01*
X92135000Y-108628000D01*
X92135000Y-48282408D01*
X98933000Y-48282408D01*
X98933000Y-48557592D01*
X98986686Y-48827490D01*
X99091995Y-49081727D01*
X99244880Y-49310535D01*
X99439465Y-49505120D01*
X99668273Y-49658005D01*
X99922510Y-49763314D01*
X100192408Y-49817000D01*
X100467592Y-49817000D01*
X100737490Y-49763314D01*
X100991727Y-49658005D01*
X101220535Y-49505120D01*
X101415120Y-49310535D01*
X101568005Y-49081727D01*
X101600000Y-49004485D01*
X101631995Y-49081727D01*
X101784880Y-49310535D01*
X101979465Y-49505120D01*
X102208273Y-49658005D01*
X102462510Y-49763314D01*
X102732408Y-49817000D01*
X103007592Y-49817000D01*
X103277490Y-49763314D01*
X103531727Y-49658005D01*
X103760535Y-49505120D01*
X103955120Y-49310535D01*
X104108005Y-49081727D01*
X104140000Y-49004485D01*
X104171995Y-49081727D01*
X104324880Y-49310535D01*
X104519465Y-49505120D01*
X104748273Y-49658005D01*
X105002510Y-49763314D01*
X105272408Y-49817000D01*
X105547592Y-49817000D01*
X105817490Y-49763314D01*
X106071727Y-49658005D01*
X106300535Y-49505120D01*
X106495120Y-49310535D01*
X106648005Y-49081727D01*
X106680000Y-49004485D01*
X106711995Y-49081727D01*
X106864880Y-49310535D01*
X107059465Y-49505120D01*
X107288273Y-49658005D01*
X107542510Y-49763314D01*
X107812408Y-49817000D01*
X108087592Y-49817000D01*
X108357490Y-49763314D01*
X108611727Y-49658005D01*
X108840535Y-49505120D01*
X109035120Y-49310535D01*
X109188005Y-49081727D01*
X109220000Y-49004485D01*
X109251995Y-49081727D01*
X109404880Y-49310535D01*
X109599465Y-49505120D01*
X109828273Y-49658005D01*
X110082510Y-49763314D01*
X110352408Y-49817000D01*
X110627592Y-49817000D01*
X110897490Y-49763314D01*
X111151727Y-49658005D01*
X111380535Y-49505120D01*
X111575120Y-49310535D01*
X111728005Y-49081727D01*
X111760000Y-49004485D01*
X111791995Y-49081727D01*
X111944880Y-49310535D01*
X112139465Y-49505120D01*
X112368273Y-49658005D01*
X112622510Y-49763314D01*
X112892408Y-49817000D01*
X113167592Y-49817000D01*
X113437490Y-49763314D01*
X113691727Y-49658005D01*
X113920535Y-49505120D01*
X114115120Y-49310535D01*
X114268005Y-49081727D01*
X114373314Y-48827490D01*
X114427000Y-48557592D01*
X114427000Y-48282408D01*
X164973000Y-48282408D01*
X164973000Y-48557592D01*
X165026686Y-48827490D01*
X165131995Y-49081727D01*
X165284880Y-49310535D01*
X165479465Y-49505120D01*
X165708273Y-49658005D01*
X165962510Y-49763314D01*
X166232408Y-49817000D01*
X166507592Y-49817000D01*
X166777490Y-49763314D01*
X167031727Y-49658005D01*
X167260535Y-49505120D01*
X167455120Y-49310535D01*
X167608005Y-49081727D01*
X167640000Y-49004485D01*
X167671995Y-49081727D01*
X167824880Y-49310535D01*
X168019465Y-49505120D01*
X168248273Y-49658005D01*
X168502510Y-49763314D01*
X168772408Y-49817000D01*
X169047592Y-49817000D01*
X169317490Y-49763314D01*
X169571727Y-49658005D01*
X169800535Y-49505120D01*
X169995120Y-49310535D01*
X170148005Y-49081727D01*
X170180000Y-49004485D01*
X170211995Y-49081727D01*
X170364880Y-49310535D01*
X170559465Y-49505120D01*
X170788273Y-49658005D01*
X171042510Y-49763314D01*
X171312408Y-49817000D01*
X171587592Y-49817000D01*
X171857490Y-49763314D01*
X172111727Y-49658005D01*
X172340535Y-49505120D01*
X172535120Y-49310535D01*
X172688005Y-49081727D01*
X172720000Y-49004485D01*
X172751995Y-49081727D01*
X172904880Y-49310535D01*
X173099465Y-49505120D01*
X173328273Y-49658005D01*
X173582510Y-49763314D01*
X173852408Y-49817000D01*
X174127592Y-49817000D01*
X174397490Y-49763314D01*
X174651727Y-49658005D01*
X174880535Y-49505120D01*
X175075120Y-49310535D01*
X175228005Y-49081727D01*
X175260000Y-49004485D01*
X175291995Y-49081727D01*
X175444880Y-49310535D01*
X175639465Y-49505120D01*
X175868273Y-49658005D01*
X176122510Y-49763314D01*
X176392408Y-49817000D01*
X176667592Y-49817000D01*
X176937490Y-49763314D01*
X177191727Y-49658005D01*
X177420535Y-49505120D01*
X177615120Y-49310535D01*
X177768005Y-49081727D01*
X177800000Y-49004485D01*
X177831995Y-49081727D01*
X177984880Y-49310535D01*
X178179465Y-49505120D01*
X178408273Y-49658005D01*
X178662510Y-49763314D01*
X178932408Y-49817000D01*
X179207592Y-49817000D01*
X179477490Y-49763314D01*
X179731727Y-49658005D01*
X179960535Y-49505120D01*
X180155120Y-49310535D01*
X180308005Y-49081727D01*
X180413314Y-48827490D01*
X180467000Y-48557592D01*
X180467000Y-48282408D01*
X180413314Y-48012510D01*
X180308005Y-47758273D01*
X180155120Y-47529465D01*
X179960535Y-47334880D01*
X179731727Y-47181995D01*
X179477490Y-47076686D01*
X179207592Y-47023000D01*
X178932408Y-47023000D01*
X178662510Y-47076686D01*
X178408273Y-47181995D01*
X178179465Y-47334880D01*
X177984880Y-47529465D01*
X177831995Y-47758273D01*
X177800000Y-47835515D01*
X177768005Y-47758273D01*
X177615120Y-47529465D01*
X177420535Y-47334880D01*
X177191727Y-47181995D01*
X176937490Y-47076686D01*
X176667592Y-47023000D01*
X176392408Y-47023000D01*
X176122510Y-47076686D01*
X175868273Y-47181995D01*
X175639465Y-47334880D01*
X175444880Y-47529465D01*
X175291995Y-47758273D01*
X175260000Y-47835515D01*
X175228005Y-47758273D01*
X175075120Y-47529465D01*
X174880535Y-47334880D01*
X174651727Y-47181995D01*
X174397490Y-47076686D01*
X174127592Y-47023000D01*
X173852408Y-47023000D01*
X173582510Y-47076686D01*
X173328273Y-47181995D01*
X173099465Y-47334880D01*
X172904880Y-47529465D01*
X172751995Y-47758273D01*
X172720000Y-47835515D01*
X172688005Y-47758273D01*
X172535120Y-47529465D01*
X172340535Y-47334880D01*
X172111727Y-47181995D01*
X171857490Y-47076686D01*
X171587592Y-47023000D01*
X171312408Y-47023000D01*
X171042510Y-47076686D01*
X170788273Y-47181995D01*
X170559465Y-47334880D01*
X170364880Y-47529465D01*
X170211995Y-47758273D01*
X170180000Y-47835515D01*
X170148005Y-47758273D01*
X169995120Y-47529465D01*
X169800535Y-47334880D01*
X169571727Y-47181995D01*
X169317490Y-47076686D01*
X169047592Y-47023000D01*
X168772408Y-47023000D01*
X168502510Y-47076686D01*
X168248273Y-47181995D01*
X168019465Y-47334880D01*
X167824880Y-47529465D01*
X167671995Y-47758273D01*
X167640000Y-47835515D01*
X167608005Y-47758273D01*
X167455120Y-47529465D01*
X167260535Y-47334880D01*
X167031727Y-47181995D01*
X166777490Y-47076686D01*
X166507592Y-47023000D01*
X166232408Y-47023000D01*
X165962510Y-47076686D01*
X165708273Y-47181995D01*
X165479465Y-47334880D01*
X165284880Y-47529465D01*
X165131995Y-47758273D01*
X165026686Y-48012510D01*
X164973000Y-48282408D01*
X114427000Y-48282408D01*
X114373314Y-48012510D01*
X114268005Y-47758273D01*
X114115120Y-47529465D01*
X113920535Y-47334880D01*
X113691727Y-47181995D01*
X113437490Y-47076686D01*
X113167592Y-47023000D01*
X112892408Y-47023000D01*
X112622510Y-47076686D01*
X112368273Y-47181995D01*
X112139465Y-47334880D01*
X111944880Y-47529465D01*
X111791995Y-47758273D01*
X111760000Y-47835515D01*
X111728005Y-47758273D01*
X111575120Y-47529465D01*
X111380535Y-47334880D01*
X111151727Y-47181995D01*
X110897490Y-47076686D01*
X110627592Y-47023000D01*
X110352408Y-47023000D01*
X110082510Y-47076686D01*
X109828273Y-47181995D01*
X109599465Y-47334880D01*
X109404880Y-47529465D01*
X109251995Y-47758273D01*
X109220000Y-47835515D01*
X109188005Y-47758273D01*
X109035120Y-47529465D01*
X108840535Y-47334880D01*
X108611727Y-47181995D01*
X108357490Y-47076686D01*
X108087592Y-47023000D01*
X107812408Y-47023000D01*
X107542510Y-47076686D01*
X107288273Y-47181995D01*
X107059465Y-47334880D01*
X106864880Y-47529465D01*
X106711995Y-47758273D01*
X106680000Y-47835515D01*
X106648005Y-47758273D01*
X106495120Y-47529465D01*
X106300535Y-47334880D01*
X106071727Y-47181995D01*
X105817490Y-47076686D01*
X105547592Y-47023000D01*
X105272408Y-47023000D01*
X105002510Y-47076686D01*
X104748273Y-47181995D01*
X104519465Y-47334880D01*
X104324880Y-47529465D01*
X104171995Y-47758273D01*
X104140000Y-47835515D01*
X104108005Y-47758273D01*
X103955120Y-47529465D01*
X103760535Y-47334880D01*
X103531727Y-47181995D01*
X103277490Y-47076686D01*
X103007592Y-47023000D01*
X102732408Y-47023000D01*
X102462510Y-47076686D01*
X102208273Y-47181995D01*
X101979465Y-47334880D01*
X101784880Y-47529465D01*
X101631995Y-47758273D01*
X101600000Y-47835515D01*
X101568005Y-47758273D01*
X101415120Y-47529465D01*
X101220535Y-47334880D01*
X100991727Y-47181995D01*
X100737490Y-47076686D01*
X100467592Y-47023000D01*
X100192408Y-47023000D01*
X99922510Y-47076686D01*
X99668273Y-47181995D01*
X99439465Y-47334880D01*
X99244880Y-47529465D01*
X99091995Y-47758273D01*
X98986686Y-48012510D01*
X98933000Y-48282408D01*
X92135000Y-48282408D01*
X92135000Y-37696064D01*
X101111000Y-37696064D01*
X101111000Y-38303935D01*
X101132776Y-38525031D01*
X101218834Y-38808724D01*
X101358583Y-39070178D01*
X101546655Y-39299345D01*
X101775821Y-39487417D01*
X102037275Y-39627166D01*
X102320968Y-39713224D01*
X102616000Y-39742282D01*
X102911031Y-39713224D01*
X103194724Y-39627166D01*
X103456178Y-39487417D01*
X103685345Y-39299345D01*
X103873417Y-39070179D01*
X103886000Y-39046637D01*
X103898583Y-39070178D01*
X104086655Y-39299345D01*
X104315821Y-39487417D01*
X104577275Y-39627166D01*
X104860968Y-39713224D01*
X105156000Y-39742282D01*
X105451031Y-39713224D01*
X105734724Y-39627166D01*
X105996178Y-39487417D01*
X106225345Y-39299345D01*
X106413417Y-39070179D01*
X106426000Y-39046637D01*
X106438583Y-39070178D01*
X106626655Y-39299345D01*
X106855821Y-39487417D01*
X107117275Y-39627166D01*
X107400968Y-39713224D01*
X107696000Y-39742282D01*
X107991031Y-39713224D01*
X108274724Y-39627166D01*
X108536178Y-39487417D01*
X108765345Y-39299345D01*
X108819066Y-39233886D01*
X108877595Y-39343387D01*
X108988038Y-39477962D01*
X109122613Y-39588405D01*
X109276149Y-39670472D01*
X109442745Y-39721008D01*
X109615999Y-39738072D01*
X110856001Y-39738072D01*
X111029255Y-39721008D01*
X111195851Y-39670472D01*
X111349387Y-39588405D01*
X111483962Y-39477962D01*
X111594405Y-39343387D01*
X111676472Y-39189851D01*
X111727008Y-39023255D01*
X111744072Y-38850001D01*
X111744072Y-37696064D01*
X167659000Y-37696064D01*
X167659000Y-38303935D01*
X167680776Y-38525031D01*
X167766834Y-38808724D01*
X167906583Y-39070178D01*
X168094655Y-39299345D01*
X168323821Y-39487417D01*
X168585275Y-39627166D01*
X168868968Y-39713224D01*
X169164000Y-39742282D01*
X169459031Y-39713224D01*
X169742724Y-39627166D01*
X170004178Y-39487417D01*
X170233345Y-39299345D01*
X170421417Y-39070179D01*
X170434000Y-39046637D01*
X170446583Y-39070178D01*
X170634655Y-39299345D01*
X170863821Y-39487417D01*
X171125275Y-39627166D01*
X171408968Y-39713224D01*
X171704000Y-39742282D01*
X171999031Y-39713224D01*
X172282724Y-39627166D01*
X172544178Y-39487417D01*
X172773345Y-39299345D01*
X172961417Y-39070179D01*
X172974000Y-39046637D01*
X172986583Y-39070178D01*
X173174655Y-39299345D01*
X173403821Y-39487417D01*
X173665275Y-39627166D01*
X173948968Y-39713224D01*
X174244000Y-39742282D01*
X174539031Y-39713224D01*
X174822724Y-39627166D01*
X175084178Y-39487417D01*
X175313345Y-39299345D01*
X175367066Y-39233886D01*
X175425595Y-39343387D01*
X175536038Y-39477962D01*
X175670613Y-39588405D01*
X175824149Y-39670472D01*
X175990745Y-39721008D01*
X176163999Y-39738072D01*
X177404001Y-39738072D01*
X177577255Y-39721008D01*
X177743851Y-39670472D01*
X177897387Y-39588405D01*
X178031962Y-39477962D01*
X178142405Y-39343387D01*
X178224472Y-39189851D01*
X178275008Y-39023255D01*
X178292072Y-38850001D01*
X178292072Y-37149999D01*
X178275008Y-36976745D01*
X178224472Y-36810149D01*
X178142405Y-36656613D01*
X178031962Y-36522038D01*
X177897387Y-36411595D01*
X177743851Y-36329528D01*
X177577255Y-36278992D01*
X177404001Y-36261928D01*
X176163999Y-36261928D01*
X175990745Y-36278992D01*
X175824149Y-36329528D01*
X175670613Y-36411595D01*
X175536038Y-36522038D01*
X175425595Y-36656613D01*
X175367066Y-36766114D01*
X175313345Y-36700655D01*
X175084179Y-36512583D01*
X174822725Y-36372834D01*
X174539032Y-36286776D01*
X174244000Y-36257718D01*
X173948969Y-36286776D01*
X173665276Y-36372834D01*
X173403822Y-36512583D01*
X173174655Y-36700655D01*
X172986583Y-36929821D01*
X172974000Y-36953362D01*
X172961417Y-36929821D01*
X172773345Y-36700655D01*
X172544179Y-36512583D01*
X172282725Y-36372834D01*
X171999032Y-36286776D01*
X171704000Y-36257718D01*
X171408969Y-36286776D01*
X171125276Y-36372834D01*
X170863822Y-36512583D01*
X170634655Y-36700655D01*
X170446583Y-36929821D01*
X170434000Y-36953362D01*
X170421417Y-36929821D01*
X170233345Y-36700655D01*
X170004179Y-36512583D01*
X169742725Y-36372834D01*
X169459032Y-36286776D01*
X169164000Y-36257718D01*
X168868969Y-36286776D01*
X168585276Y-36372834D01*
X168323822Y-36512583D01*
X168094655Y-36700655D01*
X167906583Y-36929821D01*
X167766834Y-37191275D01*
X167680776Y-37474968D01*
X167659000Y-37696064D01*
X111744072Y-37696064D01*
X111744072Y-37149999D01*
X111727008Y-36976745D01*
X111676472Y-36810149D01*
X111594405Y-36656613D01*
X111483962Y-36522038D01*
X111349387Y-36411595D01*
X111195851Y-36329528D01*
X111029255Y-36278992D01*
X110856001Y-36261928D01*
X109615999Y-36261928D01*
X109442745Y-36278992D01*
X109276149Y-36329528D01*
X109122613Y-36411595D01*
X108988038Y-36522038D01*
X108877595Y-36656613D01*
X108819066Y-36766114D01*
X108765345Y-36700655D01*
X108536179Y-36512583D01*
X108274725Y-36372834D01*
X107991032Y-36286776D01*
X107696000Y-36257718D01*
X107400969Y-36286776D01*
X107117276Y-36372834D01*
X106855822Y-36512583D01*
X106626655Y-36700655D01*
X106438583Y-36929821D01*
X106426000Y-36953362D01*
X106413417Y-36929821D01*
X106225345Y-36700655D01*
X105996179Y-36512583D01*
X105734725Y-36372834D01*
X105451032Y-36286776D01*
X105156000Y-36257718D01*
X104860969Y-36286776D01*
X104577276Y-36372834D01*
X104315822Y-36512583D01*
X104086655Y-36700655D01*
X103898583Y-36929821D01*
X103886000Y-36953362D01*
X103873417Y-36929821D01*
X103685345Y-36700655D01*
X103456179Y-36512583D01*
X103194725Y-36372834D01*
X102911032Y-36286776D01*
X102616000Y-36257718D01*
X102320969Y-36286776D01*
X102037276Y-36372834D01*
X101775822Y-36512583D01*
X101546655Y-36700655D01*
X101358583Y-36929821D01*
X101218834Y-37191275D01*
X101132776Y-37474968D01*
X101111000Y-37696064D01*
X92135000Y-37696064D01*
X92135000Y-31175000D01*
X185741001Y-31175000D01*
X185741000Y-188281000D01*
G37*
X185741000Y-188281000D02*
X92135000Y-188281000D01*
X92135000Y-179489999D01*
X98567928Y-179489999D01*
X98567928Y-181190001D01*
X98584992Y-181363255D01*
X98635528Y-181529851D01*
X98717595Y-181683387D01*
X98828038Y-181817962D01*
X98962613Y-181928405D01*
X99116149Y-182010472D01*
X99282745Y-182061008D01*
X99455999Y-182078072D01*
X100696001Y-182078072D01*
X100869255Y-182061008D01*
X101035851Y-182010472D01*
X101189387Y-181928405D01*
X101323962Y-181817962D01*
X101434405Y-181683387D01*
X101492934Y-181573886D01*
X101546655Y-181639345D01*
X101775822Y-181827417D01*
X102037276Y-181967166D01*
X102320969Y-182053224D01*
X102616000Y-182082282D01*
X102911032Y-182053224D01*
X103194725Y-181967166D01*
X103456179Y-181827417D01*
X103685345Y-181639345D01*
X103873417Y-181410179D01*
X103886000Y-181386638D01*
X103898583Y-181410179D01*
X104086655Y-181639345D01*
X104315822Y-181827417D01*
X104577276Y-181967166D01*
X104860969Y-182053224D01*
X105156000Y-182082282D01*
X105451032Y-182053224D01*
X105734725Y-181967166D01*
X105996179Y-181827417D01*
X106225345Y-181639345D01*
X106413417Y-181410179D01*
X106426000Y-181386638D01*
X106438583Y-181410179D01*
X106626655Y-181639345D01*
X106855822Y-181827417D01*
X107117276Y-181967166D01*
X107400969Y-182053224D01*
X107696000Y-182082282D01*
X107991032Y-182053224D01*
X108274725Y-181967166D01*
X108536179Y-181827417D01*
X108765345Y-181639345D01*
X108953417Y-181410179D01*
X109093166Y-181148724D01*
X109179224Y-180865031D01*
X109201000Y-180643935D01*
X109201000Y-180036064D01*
X109179224Y-179814968D01*
X109093166Y-179531275D01*
X109071104Y-179489999D01*
X167655928Y-179489999D01*
X167655928Y-181190001D01*
X167672992Y-181363255D01*
X167723528Y-181529851D01*
X167805595Y-181683387D01*
X167916038Y-181817962D01*
X168050613Y-181928405D01*
X168204149Y-182010472D01*
X168370745Y-182061008D01*
X168543999Y-182078072D01*
X169784001Y-182078072D01*
X169957255Y-182061008D01*
X170123851Y-182010472D01*
X170277387Y-181928405D01*
X170411962Y-181817962D01*
X170522405Y-181683387D01*
X170580934Y-181573886D01*
X170634655Y-181639345D01*
X170863822Y-181827417D01*
X171125276Y-181967166D01*
X171408969Y-182053224D01*
X171704000Y-182082282D01*
X171999032Y-182053224D01*
X172282725Y-181967166D01*
X172544179Y-181827417D01*
X172773345Y-181639345D01*
X172961417Y-181410179D01*
X172974000Y-181386638D01*
X172986583Y-181410179D01*
X173174655Y-181639345D01*
X173403822Y-181827417D01*
X173665276Y-181967166D01*
X173948969Y-182053224D01*
X174244000Y-182082282D01*
X174539032Y-182053224D01*
X174822725Y-181967166D01*
X175084179Y-181827417D01*
X175313345Y-181639345D01*
X175501417Y-181410179D01*
X175514000Y-181386638D01*
X175526583Y-181410179D01*
X175714655Y-181639345D01*
X175943822Y-181827417D01*
X176205276Y-181967166D01*
X176488969Y-182053224D01*
X176784000Y-182082282D01*
X177079032Y-182053224D01*
X177362725Y-181967166D01*
X177624179Y-181827417D01*
X177853345Y-181639345D01*
X178041417Y-181410179D01*
X178181166Y-181148724D01*
X178267224Y-180865031D01*
X178289000Y-180643935D01*
X178289000Y-180036064D01*
X178267224Y-179814968D01*
X178181166Y-179531275D01*
X178041417Y-179269821D01*
X177853345Y-179040655D01*
X177624178Y-178852583D01*
X177362724Y-178712834D01*
X177079031Y-178626776D01*
X176784000Y-178597718D01*
X176488968Y-178626776D01*
X176205275Y-178712834D01*
X175943821Y-178852583D01*
X175714655Y-179040655D01*
X175526583Y-179269822D01*
X175514000Y-179293363D01*
X175501417Y-179269821D01*
X175313345Y-179040655D01*
X175084178Y-178852583D01*
X174822724Y-178712834D01*
X174539031Y-178626776D01*
X174244000Y-178597718D01*
X173948968Y-178626776D01*
X173665275Y-178712834D01*
X173403821Y-178852583D01*
X173174655Y-179040655D01*
X172986583Y-179269822D01*
X172974000Y-179293363D01*
X172961417Y-179269821D01*
X172773345Y-179040655D01*
X172544178Y-178852583D01*
X172282724Y-178712834D01*
X171999031Y-178626776D01*
X171704000Y-178597718D01*
X171408968Y-178626776D01*
X171125275Y-178712834D01*
X170863821Y-178852583D01*
X170634655Y-179040655D01*
X170580935Y-179106114D01*
X170522405Y-178996613D01*
X170411962Y-178862038D01*
X170277387Y-178751595D01*
X170123851Y-178669528D01*
X169957255Y-178618992D01*
X169784001Y-178601928D01*
X168543999Y-178601928D01*
X168370745Y-178618992D01*
X168204149Y-178669528D01*
X168050613Y-178751595D01*
X167916038Y-178862038D01*
X167805595Y-178996613D01*
X167723528Y-179150149D01*
X167672992Y-179316745D01*
X167655928Y-179489999D01*
X109071104Y-179489999D01*
X108953417Y-179269821D01*
X108765345Y-179040655D01*
X108536178Y-178852583D01*
X108274724Y-178712834D01*
X107991031Y-178626776D01*
X107696000Y-178597718D01*
X107400968Y-178626776D01*
X107117275Y-178712834D01*
X106855821Y-178852583D01*
X106626655Y-179040655D01*
X106438583Y-179269822D01*
X106426000Y-179293363D01*
X106413417Y-179269821D01*
X106225345Y-179040655D01*
X105996178Y-178852583D01*
X105734724Y-178712834D01*
X105451031Y-178626776D01*
X105156000Y-178597718D01*
X104860968Y-178626776D01*
X104577275Y-178712834D01*
X104315821Y-178852583D01*
X104086655Y-179040655D01*
X103898583Y-179269822D01*
X103886000Y-179293363D01*
X103873417Y-179269821D01*
X103685345Y-179040655D01*
X103456178Y-178852583D01*
X103194724Y-178712834D01*
X102911031Y-178626776D01*
X102616000Y-178597718D01*
X102320968Y-178626776D01*
X102037275Y-178712834D01*
X101775821Y-178852583D01*
X101546655Y-179040655D01*
X101492935Y-179106114D01*
X101434405Y-178996613D01*
X101323962Y-178862038D01*
X101189387Y-178751595D01*
X101035851Y-178669528D01*
X100869255Y-178618992D01*
X100696001Y-178601928D01*
X99455999Y-178601928D01*
X99282745Y-178618992D01*
X99116149Y-178669528D01*
X98962613Y-178751595D01*
X98828038Y-178862038D01*
X98717595Y-178996613D01*
X98635528Y-179150149D01*
X98584992Y-179316745D01*
X98567928Y-179489999D01*
X92135000Y-179489999D01*
X92135000Y-169882408D01*
X96393000Y-169882408D01*
X96393000Y-170157592D01*
X96446686Y-170427490D01*
X96551995Y-170681727D01*
X96704880Y-170910535D01*
X96899465Y-171105120D01*
X97128273Y-171258005D01*
X97382510Y-171363314D01*
X97652408Y-171417000D01*
X97927592Y-171417000D01*
X98197490Y-171363314D01*
X98451727Y-171258005D01*
X98680535Y-171105120D01*
X98875120Y-170910535D01*
X99028005Y-170681727D01*
X99060000Y-170604485D01*
X99091995Y-170681727D01*
X99244880Y-170910535D01*
X99439465Y-171105120D01*
X99668273Y-171258005D01*
X99922510Y-171363314D01*
X100192408Y-171417000D01*
X100467592Y-171417000D01*
X100737490Y-171363314D01*
X100991727Y-171258005D01*
X101220535Y-171105120D01*
X101415120Y-170910535D01*
X101568005Y-170681727D01*
X101600000Y-170604485D01*
X101631995Y-170681727D01*
X101784880Y-170910535D01*
X101979465Y-171105120D01*
X102208273Y-171258005D01*
X102462510Y-171363314D01*
X102732408Y-171417000D01*
X103007592Y-171417000D01*
X103277490Y-171363314D01*
X103531727Y-171258005D01*
X103760535Y-171105120D01*
X103955120Y-170910535D01*
X104108005Y-170681727D01*
X104140000Y-170604485D01*
X104171995Y-170681727D01*
X104324880Y-170910535D01*
X104519465Y-171105120D01*
X104748273Y-171258005D01*
X105002510Y-171363314D01*
X105272408Y-171417000D01*
X105547592Y-171417000D01*
X105817490Y-171363314D01*
X106071727Y-171258005D01*
X106300535Y-171105120D01*
X106495120Y-170910535D01*
X106648005Y-170681727D01*
X106680000Y-170604485D01*
X106711995Y-170681727D01*
X106864880Y-170910535D01*
X107059465Y-171105120D01*
X107288273Y-171258005D01*
X107542510Y-171363314D01*
X107812408Y-171417000D01*
X108087592Y-171417000D01*
X108357490Y-171363314D01*
X108611727Y-171258005D01*
X108840535Y-171105120D01*
X109035120Y-170910535D01*
X109188005Y-170681727D01*
X109220000Y-170604485D01*
X109251995Y-170681727D01*
X109404880Y-170910535D01*
X109599465Y-171105120D01*
X109828273Y-171258005D01*
X110082510Y-171363314D01*
X110352408Y-171417000D01*
X110627592Y-171417000D01*
X110897490Y-171363314D01*
X111151727Y-171258005D01*
X111380535Y-171105120D01*
X111575120Y-170910535D01*
X111728005Y-170681727D01*
X111833314Y-170427490D01*
X111887000Y-170157592D01*
X111887000Y-169882408D01*
X164973000Y-169882408D01*
X164973000Y-170157592D01*
X165026686Y-170427490D01*
X165131995Y-170681727D01*
X165284880Y-170910535D01*
X165479465Y-171105120D01*
X165708273Y-171258005D01*
X165962510Y-171363314D01*
X166232408Y-171417000D01*
X166507592Y-171417000D01*
X166777490Y-171363314D01*
X167031727Y-171258005D01*
X167260535Y-171105120D01*
X167455120Y-170910535D01*
X167608005Y-170681727D01*
X167640000Y-170604485D01*
X167671995Y-170681727D01*
X167824880Y-170910535D01*
X168019465Y-171105120D01*
X168248273Y-171258005D01*
X168502510Y-171363314D01*
X168772408Y-171417000D01*
X169047592Y-171417000D01*
X169317490Y-171363314D01*
X169571727Y-171258005D01*
X169800535Y-171105120D01*
X169995120Y-170910535D01*
X170148005Y-170681727D01*
X170180000Y-170604485D01*
X170211995Y-170681727D01*
X170364880Y-170910535D01*
X170559465Y-171105120D01*
X170788273Y-171258005D01*
X171042510Y-171363314D01*
X171312408Y-171417000D01*
X171587592Y-171417000D01*
X171857490Y-171363314D01*
X172111727Y-171258005D01*
X172340535Y-171105120D01*
X172535120Y-170910535D01*
X172688005Y-170681727D01*
X172720000Y-170604485D01*
X172751995Y-170681727D01*
X172904880Y-170910535D01*
X173099465Y-171105120D01*
X173328273Y-171258005D01*
X173582510Y-171363314D01*
X173852408Y-171417000D01*
X174127592Y-171417000D01*
X174397490Y-171363314D01*
X174651727Y-171258005D01*
X174880535Y-171105120D01*
X175075120Y-170910535D01*
X175228005Y-170681727D01*
X175260000Y-170604485D01*
X175291995Y-170681727D01*
X175444880Y-170910535D01*
X175639465Y-171105120D01*
X175868273Y-171258005D01*
X176122510Y-171363314D01*
X176392408Y-171417000D01*
X176667592Y-171417000D01*
X176937490Y-171363314D01*
X177191727Y-171258005D01*
X177420535Y-171105120D01*
X177615120Y-170910535D01*
X177768005Y-170681727D01*
X177800000Y-170604485D01*
X177831995Y-170681727D01*
X177984880Y-170910535D01*
X178179465Y-171105120D01*
X178408273Y-171258005D01*
X178662510Y-171363314D01*
X178932408Y-171417000D01*
X179207592Y-171417000D01*
X179477490Y-171363314D01*
X179731727Y-171258005D01*
X179960535Y-171105120D01*
X180155120Y-170910535D01*
X180308005Y-170681727D01*
X180413314Y-170427490D01*
X180467000Y-170157592D01*
X180467000Y-169882408D01*
X180413314Y-169612510D01*
X180308005Y-169358273D01*
X180155120Y-169129465D01*
X179960535Y-168934880D01*
X179731727Y-168781995D01*
X179477490Y-168676686D01*
X179207592Y-168623000D01*
X178932408Y-168623000D01*
X178662510Y-168676686D01*
X178408273Y-168781995D01*
X178179465Y-168934880D01*
X177984880Y-169129465D01*
X177831995Y-169358273D01*
X177800000Y-169435515D01*
X177768005Y-169358273D01*
X177615120Y-169129465D01*
X177420535Y-168934880D01*
X177191727Y-168781995D01*
X176937490Y-168676686D01*
X176667592Y-168623000D01*
X176392408Y-168623000D01*
X176122510Y-168676686D01*
X175868273Y-168781995D01*
X175639465Y-168934880D01*
X175444880Y-169129465D01*
X175291995Y-169358273D01*
X175260000Y-169435515D01*
X175228005Y-169358273D01*
X175075120Y-169129465D01*
X174880535Y-168934880D01*
X174651727Y-168781995D01*
X174397490Y-168676686D01*
X174127592Y-168623000D01*
X173852408Y-168623000D01*
X173582510Y-168676686D01*
X173328273Y-168781995D01*
X173099465Y-168934880D01*
X172904880Y-169129465D01*
X172751995Y-169358273D01*
X172720000Y-169435515D01*
X172688005Y-169358273D01*
X172535120Y-169129465D01*
X172340535Y-168934880D01*
X172111727Y-168781995D01*
X171857490Y-168676686D01*
X171587592Y-168623000D01*
X171312408Y-168623000D01*
X171042510Y-168676686D01*
X170788273Y-168781995D01*
X170559465Y-168934880D01*
X170364880Y-169129465D01*
X170211995Y-169358273D01*
X170180000Y-169435515D01*
X170148005Y-169358273D01*
X169995120Y-169129465D01*
X169800535Y-168934880D01*
X169571727Y-168781995D01*
X169317490Y-168676686D01*
X169047592Y-168623000D01*
X168772408Y-168623000D01*
X168502510Y-168676686D01*
X168248273Y-168781995D01*
X168019465Y-168934880D01*
X167824880Y-169129465D01*
X167671995Y-169358273D01*
X167640000Y-169435515D01*
X167608005Y-169358273D01*
X167455120Y-169129465D01*
X167260535Y-168934880D01*
X167031727Y-168781995D01*
X166777490Y-168676686D01*
X166507592Y-168623000D01*
X166232408Y-168623000D01*
X165962510Y-168676686D01*
X165708273Y-168781995D01*
X165479465Y-168934880D01*
X165284880Y-169129465D01*
X165131995Y-169358273D01*
X165026686Y-169612510D01*
X164973000Y-169882408D01*
X111887000Y-169882408D01*
X111833314Y-169612510D01*
X111728005Y-169358273D01*
X111575120Y-169129465D01*
X111380535Y-168934880D01*
X111151727Y-168781995D01*
X110897490Y-168676686D01*
X110627592Y-168623000D01*
X110352408Y-168623000D01*
X110082510Y-168676686D01*
X109828273Y-168781995D01*
X109599465Y-168934880D01*
X109404880Y-169129465D01*
X109251995Y-169358273D01*
X109220000Y-169435515D01*
X109188005Y-169358273D01*
X109035120Y-169129465D01*
X108840535Y-168934880D01*
X108611727Y-168781995D01*
X108357490Y-168676686D01*
X108087592Y-168623000D01*
X107812408Y-168623000D01*
X107542510Y-168676686D01*
X107288273Y-168781995D01*
X107059465Y-168934880D01*
X106864880Y-169129465D01*
X106711995Y-169358273D01*
X106680000Y-169435515D01*
X106648005Y-169358273D01*
X106495120Y-169129465D01*
X106300535Y-168934880D01*
X106071727Y-168781995D01*
X105817490Y-168676686D01*
X105547592Y-168623000D01*
X105272408Y-168623000D01*
X105002510Y-168676686D01*
X104748273Y-168781995D01*
X104519465Y-168934880D01*
X104324880Y-169129465D01*
X104171995Y-169358273D01*
X104140000Y-169435515D01*
X104108005Y-169358273D01*
X103955120Y-169129465D01*
X103760535Y-168934880D01*
X103531727Y-168781995D01*
X103277490Y-168676686D01*
X103007592Y-168623000D01*
X102732408Y-168623000D01*
X102462510Y-168676686D01*
X102208273Y-168781995D01*
X101979465Y-168934880D01*
X101784880Y-169129465D01*
X101631995Y-169358273D01*
X101600000Y-169435515D01*
X101568005Y-169358273D01*
X101415120Y-169129465D01*
X101220535Y-168934880D01*
X100991727Y-168781995D01*
X100737490Y-168676686D01*
X100467592Y-168623000D01*
X100192408Y-168623000D01*
X99922510Y-168676686D01*
X99668273Y-168781995D01*
X99439465Y-168934880D01*
X99244880Y-169129465D01*
X99091995Y-169358273D01*
X99060000Y-169435515D01*
X99028005Y-169358273D01*
X98875120Y-169129465D01*
X98680535Y-168934880D01*
X98451727Y-168781995D01*
X98197490Y-168676686D01*
X97927592Y-168623000D01*
X97652408Y-168623000D01*
X97382510Y-168676686D01*
X97128273Y-168781995D01*
X96899465Y-168934880D01*
X96704880Y-169129465D01*
X96551995Y-169358273D01*
X96446686Y-169612510D01*
X96393000Y-169882408D01*
X92135000Y-169882408D01*
X92135000Y-150985565D01*
X99544040Y-150985565D01*
X99611020Y-151225656D01*
X99860048Y-151342756D01*
X100127135Y-151409023D01*
X100402017Y-151421910D01*
X100674133Y-151380922D01*
X100933023Y-151287636D01*
X101048980Y-151225656D01*
X101115960Y-150985565D01*
X100330000Y-150199605D01*
X99544040Y-150985565D01*
X92135000Y-150985565D01*
X92135000Y-150092017D01*
X98928090Y-150092017D01*
X98969078Y-150364133D01*
X99062364Y-150623023D01*
X99124344Y-150738980D01*
X99364435Y-150805960D01*
X100150395Y-150020000D01*
X100509605Y-150020000D01*
X101295565Y-150805960D01*
X101535656Y-150738980D01*
X101599485Y-150603240D01*
X101631995Y-150681727D01*
X101784880Y-150910535D01*
X101979465Y-151105120D01*
X102208273Y-151258005D01*
X102462510Y-151363314D01*
X102732408Y-151417000D01*
X103007592Y-151417000D01*
X103277490Y-151363314D01*
X103531727Y-151258005D01*
X103760535Y-151105120D01*
X103955120Y-150910535D01*
X104108005Y-150681727D01*
X104140000Y-150604485D01*
X104171995Y-150681727D01*
X104324880Y-150910535D01*
X104519465Y-151105120D01*
X104748273Y-151258005D01*
X105002510Y-151363314D01*
X105272408Y-151417000D01*
X105547592Y-151417000D01*
X105817490Y-151363314D01*
X106071727Y-151258005D01*
X106300535Y-151105120D01*
X106495120Y-150910535D01*
X106648005Y-150681727D01*
X106680000Y-150604485D01*
X106711995Y-150681727D01*
X106864880Y-150910535D01*
X107059465Y-151105120D01*
X107288273Y-151258005D01*
X107542510Y-151363314D01*
X107812408Y-151417000D01*
X108087592Y-151417000D01*
X108357490Y-151363314D01*
X108611727Y-151258005D01*
X108840535Y-151105120D01*
X108960090Y-150985565D01*
X168124040Y-150985565D01*
X168191020Y-151225656D01*
X168440048Y-151342756D01*
X168707135Y-151409023D01*
X168982017Y-151421910D01*
X169254133Y-151380922D01*
X169513023Y-151287636D01*
X169628980Y-151225656D01*
X169695960Y-150985565D01*
X168910000Y-150199605D01*
X168124040Y-150985565D01*
X108960090Y-150985565D01*
X109035120Y-150910535D01*
X109122341Y-150780000D01*
X111284678Y-150780000D01*
X111322000Y-150783676D01*
X111359322Y-150780000D01*
X111359333Y-150780000D01*
X111470986Y-150769003D01*
X111614247Y-150725546D01*
X111746276Y-150654974D01*
X111862001Y-150560001D01*
X111885804Y-150530997D01*
X112324784Y-150092017D01*
X167508090Y-150092017D01*
X167549078Y-150364133D01*
X167642364Y-150623023D01*
X167704344Y-150738980D01*
X167944435Y-150805960D01*
X168730395Y-150020000D01*
X167944435Y-149234040D01*
X167704344Y-149301020D01*
X167587244Y-149550048D01*
X167520977Y-149817135D01*
X167508090Y-150092017D01*
X112324784Y-150092017D01*
X113362366Y-149054435D01*
X168124040Y-149054435D01*
X168910000Y-149840395D01*
X169695960Y-149054435D01*
X169628980Y-148814344D01*
X169379952Y-148697244D01*
X169112865Y-148630977D01*
X168837983Y-148618090D01*
X168565867Y-148659078D01*
X168306977Y-148752364D01*
X168191020Y-148814344D01*
X168124040Y-149054435D01*
X113362366Y-149054435D01*
X150823626Y-111593176D01*
X150844000Y-111618001D01*
X150872998Y-111641799D01*
X175770000Y-136538802D01*
X175770001Y-148847658D01*
X175639465Y-148934880D01*
X175444880Y-149129465D01*
X175291995Y-149358273D01*
X175260000Y-149435515D01*
X175228005Y-149358273D01*
X175075120Y-149129465D01*
X174880535Y-148934880D01*
X174651727Y-148781995D01*
X174397490Y-148676686D01*
X174127592Y-148623000D01*
X173852408Y-148623000D01*
X173582510Y-148676686D01*
X173328273Y-148781995D01*
X173099465Y-148934880D01*
X172904880Y-149129465D01*
X172751995Y-149358273D01*
X172720000Y-149435515D01*
X172688005Y-149358273D01*
X172535120Y-149129465D01*
X172340535Y-148934880D01*
X172111727Y-148781995D01*
X171857490Y-148676686D01*
X171587592Y-148623000D01*
X171312408Y-148623000D01*
X171042510Y-148676686D01*
X170788273Y-148781995D01*
X170559465Y-148934880D01*
X170364880Y-149129465D01*
X170211995Y-149358273D01*
X170182308Y-149429943D01*
X170177636Y-149416977D01*
X170115656Y-149301020D01*
X169875565Y-149234040D01*
X169089605Y-150020000D01*
X169875565Y-150805960D01*
X170115656Y-150738980D01*
X170179485Y-150603240D01*
X170211995Y-150681727D01*
X170364880Y-150910535D01*
X170559465Y-151105120D01*
X170788273Y-151258005D01*
X171042510Y-151363314D01*
X171312408Y-151417000D01*
X171587592Y-151417000D01*
X171857490Y-151363314D01*
X172111727Y-151258005D01*
X172340535Y-151105120D01*
X172535120Y-150910535D01*
X172688005Y-150681727D01*
X172720000Y-150604485D01*
X172751995Y-150681727D01*
X172904880Y-150910535D01*
X173099465Y-151105120D01*
X173328273Y-151258005D01*
X173582510Y-151363314D01*
X173852408Y-151417000D01*
X174127592Y-151417000D01*
X174397490Y-151363314D01*
X174651727Y-151258005D01*
X174880535Y-151105120D01*
X175075120Y-150910535D01*
X175228005Y-150681727D01*
X175260000Y-150604485D01*
X175291995Y-150681727D01*
X175444880Y-150910535D01*
X175639465Y-151105120D01*
X175868273Y-151258005D01*
X176122510Y-151363314D01*
X176392408Y-151417000D01*
X176667592Y-151417000D01*
X176937490Y-151363314D01*
X177191727Y-151258005D01*
X177420535Y-151105120D01*
X177615120Y-150910535D01*
X177768005Y-150681727D01*
X177873314Y-150427490D01*
X177927000Y-150157592D01*
X177927000Y-149882408D01*
X177873314Y-149612510D01*
X177768005Y-149358273D01*
X177615120Y-149129465D01*
X177420535Y-148934880D01*
X177290000Y-148847659D01*
X177290000Y-136261322D01*
X177293676Y-136223999D01*
X177290000Y-136186676D01*
X177290000Y-136186667D01*
X177279003Y-136075014D01*
X177235546Y-135931753D01*
X177164974Y-135799724D01*
X177070001Y-135683999D01*
X177041004Y-135660202D01*
X152428520Y-111047719D01*
X152453345Y-111027345D01*
X152641417Y-110798179D01*
X152781166Y-110536724D01*
X152815604Y-110423200D01*
X152928276Y-110362974D01*
X153044001Y-110268001D01*
X153067804Y-110238997D01*
X169421004Y-93885798D01*
X169450001Y-93862001D01*
X169544974Y-93746276D01*
X169615546Y-93614247D01*
X169659003Y-93470986D01*
X169670000Y-93359333D01*
X169670000Y-93359325D01*
X169673676Y-93322000D01*
X169670000Y-93284675D01*
X169670000Y-69592341D01*
X169800535Y-69505120D01*
X169995120Y-69310535D01*
X170148005Y-69081727D01*
X170180000Y-69004485D01*
X170211995Y-69081727D01*
X170364880Y-69310535D01*
X170559465Y-69505120D01*
X170788273Y-69658005D01*
X171042510Y-69763314D01*
X171312408Y-69817000D01*
X171587592Y-69817000D01*
X171857490Y-69763314D01*
X172111727Y-69658005D01*
X172340535Y-69505120D01*
X172535120Y-69310535D01*
X172688005Y-69081727D01*
X172720000Y-69004485D01*
X172751995Y-69081727D01*
X172904880Y-69310535D01*
X173099465Y-69505120D01*
X173328273Y-69658005D01*
X173582510Y-69763314D01*
X173852408Y-69817000D01*
X174127592Y-69817000D01*
X174397490Y-69763314D01*
X174651727Y-69658005D01*
X174880535Y-69505120D01*
X175000090Y-69385565D01*
X175744040Y-69385565D01*
X175811020Y-69625656D01*
X176060048Y-69742756D01*
X176327135Y-69809023D01*
X176602017Y-69821910D01*
X176874133Y-69780922D01*
X177133023Y-69687636D01*
X177248980Y-69625656D01*
X177315960Y-69385565D01*
X176530000Y-68599605D01*
X175744040Y-69385565D01*
X175000090Y-69385565D01*
X175075120Y-69310535D01*
X175228005Y-69081727D01*
X175257692Y-69010057D01*
X175262364Y-69023023D01*
X175324344Y-69138980D01*
X175564435Y-69205960D01*
X176350395Y-68420000D01*
X176709605Y-68420000D01*
X177495565Y-69205960D01*
X177735656Y-69138980D01*
X177852756Y-68889952D01*
X177919023Y-68622865D01*
X177931910Y-68347983D01*
X177890922Y-68075867D01*
X177797636Y-67816977D01*
X177735656Y-67701020D01*
X177495565Y-67634040D01*
X176709605Y-68420000D01*
X176350395Y-68420000D01*
X175564435Y-67634040D01*
X175324344Y-67701020D01*
X175260515Y-67836760D01*
X175228005Y-67758273D01*
X175075120Y-67529465D01*
X175000090Y-67454435D01*
X175744040Y-67454435D01*
X176530000Y-68240395D01*
X177315960Y-67454435D01*
X177248980Y-67214344D01*
X176999952Y-67097244D01*
X176732865Y-67030977D01*
X176457983Y-67018090D01*
X176185867Y-67059078D01*
X175926977Y-67152364D01*
X175811020Y-67214344D01*
X175744040Y-67454435D01*
X175000090Y-67454435D01*
X174880535Y-67334880D01*
X174651727Y-67181995D01*
X174397490Y-67076686D01*
X174127592Y-67023000D01*
X173852408Y-67023000D01*
X173582510Y-67076686D01*
X173328273Y-67181995D01*
X173099465Y-67334880D01*
X172904880Y-67529465D01*
X172751995Y-67758273D01*
X172720000Y-67835515D01*
X172688005Y-67758273D01*
X172535120Y-67529465D01*
X172340535Y-67334880D01*
X172111727Y-67181995D01*
X171857490Y-67076686D01*
X171587592Y-67023000D01*
X171312408Y-67023000D01*
X171042510Y-67076686D01*
X170788273Y-67181995D01*
X170559465Y-67334880D01*
X170364880Y-67529465D01*
X170211995Y-67758273D01*
X170180000Y-67835515D01*
X170148005Y-67758273D01*
X169995120Y-67529465D01*
X169800535Y-67334880D01*
X169571727Y-67181995D01*
X169317490Y-67076686D01*
X169047592Y-67023000D01*
X168772408Y-67023000D01*
X168502510Y-67076686D01*
X168248273Y-67181995D01*
X168019465Y-67334880D01*
X167824880Y-67529465D01*
X167671995Y-67758273D01*
X167566686Y-68012510D01*
X167513000Y-68282408D01*
X167513000Y-68557592D01*
X167566686Y-68827490D01*
X167671995Y-69081727D01*
X167824880Y-69310535D01*
X168019465Y-69505120D01*
X168150001Y-69592342D01*
X168150000Y-93007198D01*
X152577392Y-108579807D01*
X152453345Y-108428655D01*
X152224178Y-108240583D01*
X152119548Y-108184657D01*
X152089546Y-108085753D01*
X152064287Y-108038498D01*
X152018974Y-107953723D01*
X151947799Y-107866997D01*
X151924001Y-107837999D01*
X151895003Y-107814201D01*
X113076805Y-68996004D01*
X113053002Y-68967000D01*
X112937277Y-68872027D01*
X112805248Y-68801455D01*
X112661987Y-68757998D01*
X112550334Y-68747001D01*
X112550323Y-68747001D01*
X112513001Y-68743325D01*
X112475679Y-68747001D01*
X111848224Y-68747001D01*
X111879023Y-68622865D01*
X111891910Y-68347983D01*
X111850922Y-68075867D01*
X111757636Y-67816977D01*
X111695656Y-67701020D01*
X111455565Y-67634040D01*
X110669605Y-68420000D01*
X110683748Y-68434143D01*
X110504143Y-68613748D01*
X110490000Y-68599605D01*
X110475858Y-68613748D01*
X110296253Y-68434143D01*
X110310395Y-68420000D01*
X109524435Y-67634040D01*
X109284344Y-67701020D01*
X109220515Y-67836760D01*
X109188005Y-67758273D01*
X109035120Y-67529465D01*
X108960090Y-67454435D01*
X109704040Y-67454435D01*
X110490000Y-68240395D01*
X111275960Y-67454435D01*
X111208980Y-67214344D01*
X110959952Y-67097244D01*
X110692865Y-67030977D01*
X110417983Y-67018090D01*
X110145867Y-67059078D01*
X109886977Y-67152364D01*
X109771020Y-67214344D01*
X109704040Y-67454435D01*
X108960090Y-67454435D01*
X108840535Y-67334880D01*
X108611727Y-67181995D01*
X108357490Y-67076686D01*
X108087592Y-67023000D01*
X107812408Y-67023000D01*
X107542510Y-67076686D01*
X107288273Y-67181995D01*
X107059465Y-67334880D01*
X106864880Y-67529465D01*
X106711995Y-67758273D01*
X106680000Y-67835515D01*
X106648005Y-67758273D01*
X106495120Y-67529465D01*
X106300535Y-67334880D01*
X106071727Y-67181995D01*
X105817490Y-67076686D01*
X105547592Y-67023000D01*
X105272408Y-67023000D01*
X105002510Y-67076686D01*
X104748273Y-67181995D01*
X104519465Y-67334880D01*
X104324880Y-67529465D01*
X104171995Y-67758273D01*
X104140000Y-67835515D01*
X104108005Y-67758273D01*
X103955120Y-67529465D01*
X103760535Y-67334880D01*
X103531727Y-67181995D01*
X103277490Y-67076686D01*
X103007592Y-67023000D01*
X102732408Y-67023000D01*
X102462510Y-67076686D01*
X102208273Y-67181995D01*
X101979465Y-67334880D01*
X101784880Y-67529465D01*
X101631995Y-67758273D01*
X101526686Y-68012510D01*
X101473000Y-68282408D01*
X101473000Y-68557592D01*
X101526686Y-68827490D01*
X101631995Y-69081727D01*
X101784880Y-69310535D01*
X101979465Y-69505120D01*
X102208273Y-69658005D01*
X102462510Y-69763314D01*
X102732408Y-69817000D01*
X103007592Y-69817000D01*
X103161570Y-69786372D01*
X103393201Y-70018003D01*
X103417000Y-70047002D01*
X103445998Y-70070800D01*
X103532725Y-70141975D01*
X103664754Y-70212547D01*
X103808015Y-70256004D01*
X103957001Y-70270678D01*
X103994334Y-70267001D01*
X112198200Y-70267001D01*
X150339480Y-108408282D01*
X150314655Y-108428655D01*
X150126583Y-108657822D01*
X150114000Y-108681363D01*
X150101417Y-108657821D01*
X149913345Y-108428655D01*
X149684178Y-108240583D01*
X149422724Y-108100834D01*
X149139031Y-108014776D01*
X148844000Y-107985718D01*
X148548968Y-108014776D01*
X148265275Y-108100834D01*
X148003821Y-108240583D01*
X147774655Y-108428655D01*
X147586583Y-108657822D01*
X147574000Y-108681363D01*
X147561417Y-108657821D01*
X147373345Y-108428655D01*
X147144178Y-108240583D01*
X146882724Y-108100834D01*
X146599031Y-108014776D01*
X146304000Y-107985718D01*
X146008968Y-108014776D01*
X145725275Y-108100834D01*
X145463821Y-108240583D01*
X145234655Y-108428655D01*
X145046583Y-108657822D01*
X145034000Y-108681363D01*
X145021417Y-108657821D01*
X144833345Y-108428655D01*
X144604178Y-108240583D01*
X144342724Y-108100834D01*
X144059031Y-108014776D01*
X143764000Y-107985718D01*
X143468968Y-108014776D01*
X143185275Y-108100834D01*
X142923821Y-108240583D01*
X142694655Y-108428655D01*
X142506583Y-108657822D01*
X142494000Y-108681363D01*
X142481417Y-108657821D01*
X142293345Y-108428655D01*
X142064178Y-108240583D01*
X141802724Y-108100834D01*
X141519031Y-108014776D01*
X141224000Y-107985718D01*
X140928968Y-108014776D01*
X140645275Y-108100834D01*
X140383821Y-108240583D01*
X140154655Y-108428655D01*
X139966583Y-108657822D01*
X139954000Y-108681363D01*
X139941417Y-108657821D01*
X139753345Y-108428655D01*
X139524178Y-108240583D01*
X139262724Y-108100834D01*
X138979031Y-108014776D01*
X138684000Y-107985718D01*
X138388968Y-108014776D01*
X138105275Y-108100834D01*
X137843821Y-108240583D01*
X137614655Y-108428655D01*
X137426583Y-108657822D01*
X137414000Y-108681363D01*
X137401417Y-108657821D01*
X137213345Y-108428655D01*
X136984178Y-108240583D01*
X136722724Y-108100834D01*
X136439031Y-108014776D01*
X136144000Y-107985718D01*
X135848968Y-108014776D01*
X135565275Y-108100834D01*
X135303821Y-108240583D01*
X135074655Y-108428655D01*
X134886583Y-108657822D01*
X134874000Y-108681363D01*
X134861417Y-108657821D01*
X134673345Y-108428655D01*
X134444178Y-108240583D01*
X134182724Y-108100834D01*
X133899031Y-108014776D01*
X133604000Y-107985718D01*
X133308968Y-108014776D01*
X133025275Y-108100834D01*
X132763821Y-108240583D01*
X132534655Y-108428655D01*
X132346583Y-108657822D01*
X132334000Y-108681363D01*
X132321417Y-108657821D01*
X132133345Y-108428655D01*
X131904178Y-108240583D01*
X131642724Y-108100834D01*
X131359031Y-108014776D01*
X131064000Y-107985718D01*
X130768968Y-108014776D01*
X130485275Y-108100834D01*
X130223821Y-108240583D01*
X129996615Y-108427047D01*
X129983502Y-108383820D01*
X129924537Y-108273506D01*
X129845185Y-108176815D01*
X129748494Y-108097463D01*
X129638180Y-108038498D01*
X129518482Y-108002188D01*
X129394000Y-107989928D01*
X128809750Y-107993000D01*
X128651000Y-108151750D01*
X128651000Y-109601000D01*
X128671000Y-109601000D01*
X128671000Y-109855000D01*
X128651000Y-109855000D01*
X128651000Y-111304250D01*
X128809750Y-111463000D01*
X129394000Y-111466072D01*
X129518482Y-111453812D01*
X129638180Y-111417502D01*
X129748494Y-111358537D01*
X129845185Y-111279185D01*
X129924537Y-111182494D01*
X129983502Y-111072180D01*
X129996615Y-111028953D01*
X130223822Y-111215417D01*
X130485276Y-111355166D01*
X130768969Y-111441224D01*
X131064000Y-111470282D01*
X131359032Y-111441224D01*
X131642725Y-111355166D01*
X131904179Y-111215417D01*
X132133345Y-111027345D01*
X132321417Y-110798179D01*
X132334000Y-110774638D01*
X132346583Y-110798179D01*
X132534655Y-111027345D01*
X132763822Y-111215417D01*
X133025276Y-111355166D01*
X133308969Y-111441224D01*
X133604000Y-111470282D01*
X133899032Y-111441224D01*
X134182725Y-111355166D01*
X134444179Y-111215417D01*
X134673345Y-111027345D01*
X134861417Y-110798179D01*
X134874000Y-110774638D01*
X134886583Y-110798179D01*
X135074655Y-111027345D01*
X135303822Y-111215417D01*
X135565276Y-111355166D01*
X135848969Y-111441224D01*
X136144000Y-111470282D01*
X136439032Y-111441224D01*
X136722725Y-111355166D01*
X136984179Y-111215417D01*
X137213345Y-111027345D01*
X137401417Y-110798179D01*
X137414000Y-110774638D01*
X137426583Y-110798179D01*
X137614655Y-111027345D01*
X137843822Y-111215417D01*
X138105276Y-111355166D01*
X138388969Y-111441224D01*
X138684000Y-111470282D01*
X138979032Y-111441224D01*
X139262725Y-111355166D01*
X139524179Y-111215417D01*
X139753345Y-111027345D01*
X139941417Y-110798179D01*
X139954000Y-110774638D01*
X139966583Y-110798179D01*
X140154655Y-111027345D01*
X140383822Y-111215417D01*
X140645276Y-111355166D01*
X140928969Y-111441224D01*
X141224000Y-111470282D01*
X141519032Y-111441224D01*
X141802725Y-111355166D01*
X142064179Y-111215417D01*
X142293345Y-111027345D01*
X142481417Y-110798179D01*
X142494000Y-110774638D01*
X142506583Y-110798179D01*
X142694655Y-111027345D01*
X142923822Y-111215417D01*
X143185276Y-111355166D01*
X143468969Y-111441224D01*
X143764000Y-111470282D01*
X144059032Y-111441224D01*
X144342725Y-111355166D01*
X144604179Y-111215417D01*
X144833345Y-111027345D01*
X145021417Y-110798179D01*
X145034000Y-110774638D01*
X145046583Y-110798179D01*
X145234655Y-111027345D01*
X145463822Y-111215417D01*
X145725276Y-111355166D01*
X146008969Y-111441224D01*
X146304000Y-111470282D01*
X146599032Y-111441224D01*
X146882725Y-111355166D01*
X147144179Y-111215417D01*
X147373345Y-111027345D01*
X147561417Y-110798179D01*
X147574000Y-110774638D01*
X147586583Y-110798179D01*
X147774655Y-111027345D01*
X148003822Y-111215417D01*
X148265276Y-111355166D01*
X148548969Y-111441224D01*
X148801138Y-111466060D01*
X111007199Y-149260000D01*
X109122341Y-149260000D01*
X109035120Y-149129465D01*
X108840535Y-148934880D01*
X108611727Y-148781995D01*
X108357490Y-148676686D01*
X108087592Y-148623000D01*
X107812408Y-148623000D01*
X107542510Y-148676686D01*
X107288273Y-148781995D01*
X107059465Y-148934880D01*
X106864880Y-149129465D01*
X106711995Y-149358273D01*
X106680000Y-149435515D01*
X106648005Y-149358273D01*
X106495120Y-149129465D01*
X106300535Y-148934880D01*
X106071727Y-148781995D01*
X105817490Y-148676686D01*
X105547592Y-148623000D01*
X105272408Y-148623000D01*
X105002510Y-148676686D01*
X104748273Y-148781995D01*
X104519465Y-148934880D01*
X104324880Y-149129465D01*
X104171995Y-149358273D01*
X104140000Y-149435515D01*
X104108005Y-149358273D01*
X103955120Y-149129465D01*
X103760535Y-148934880D01*
X103531727Y-148781995D01*
X103277490Y-148676686D01*
X103007592Y-148623000D01*
X102732408Y-148623000D01*
X102462510Y-148676686D01*
X102208273Y-148781995D01*
X101979465Y-148934880D01*
X101784880Y-149129465D01*
X101631995Y-149358273D01*
X101602308Y-149429943D01*
X101597636Y-149416977D01*
X101535656Y-149301020D01*
X101295565Y-149234040D01*
X100509605Y-150020000D01*
X100150395Y-150020000D01*
X99364435Y-149234040D01*
X99124344Y-149301020D01*
X99007244Y-149550048D01*
X98940977Y-149817135D01*
X98928090Y-150092017D01*
X92135000Y-150092017D01*
X92135000Y-149054435D01*
X99544040Y-149054435D01*
X100330000Y-149840395D01*
X101115960Y-149054435D01*
X101048980Y-148814344D01*
X100799952Y-148697244D01*
X100532865Y-148630977D01*
X100257983Y-148618090D01*
X99985867Y-148659078D01*
X99726977Y-148752364D01*
X99611020Y-148814344D01*
X99544040Y-149054435D01*
X92135000Y-149054435D01*
X92135000Y-110828000D01*
X127015928Y-110828000D01*
X127028188Y-110952482D01*
X127064498Y-111072180D01*
X127123463Y-111182494D01*
X127202815Y-111279185D01*
X127299506Y-111358537D01*
X127409820Y-111417502D01*
X127529518Y-111453812D01*
X127654000Y-111466072D01*
X128238250Y-111463000D01*
X128397000Y-111304250D01*
X128397000Y-109855000D01*
X127177750Y-109855000D01*
X127019000Y-110013750D01*
X127015928Y-110828000D01*
X92135000Y-110828000D01*
X92135000Y-108628000D01*
X127015928Y-108628000D01*
X127019000Y-109442250D01*
X127177750Y-109601000D01*
X128397000Y-109601000D01*
X128397000Y-108151750D01*
X128238250Y-107993000D01*
X127654000Y-107989928D01*
X127529518Y-108002188D01*
X127409820Y-108038498D01*
X127299506Y-108097463D01*
X127202815Y-108176815D01*
X127123463Y-108273506D01*
X127064498Y-108383820D01*
X127028188Y-108503518D01*
X127015928Y-108628000D01*
X92135000Y-108628000D01*
X92135000Y-48282408D01*
X98933000Y-48282408D01*
X98933000Y-48557592D01*
X98986686Y-48827490D01*
X99091995Y-49081727D01*
X99244880Y-49310535D01*
X99439465Y-49505120D01*
X99668273Y-49658005D01*
X99922510Y-49763314D01*
X100192408Y-49817000D01*
X100467592Y-49817000D01*
X100737490Y-49763314D01*
X100991727Y-49658005D01*
X101220535Y-49505120D01*
X101415120Y-49310535D01*
X101568005Y-49081727D01*
X101600000Y-49004485D01*
X101631995Y-49081727D01*
X101784880Y-49310535D01*
X101979465Y-49505120D01*
X102208273Y-49658005D01*
X102462510Y-49763314D01*
X102732408Y-49817000D01*
X103007592Y-49817000D01*
X103277490Y-49763314D01*
X103531727Y-49658005D01*
X103760535Y-49505120D01*
X103955120Y-49310535D01*
X104108005Y-49081727D01*
X104140000Y-49004485D01*
X104171995Y-49081727D01*
X104324880Y-49310535D01*
X104519465Y-49505120D01*
X104748273Y-49658005D01*
X105002510Y-49763314D01*
X105272408Y-49817000D01*
X105547592Y-49817000D01*
X105817490Y-49763314D01*
X106071727Y-49658005D01*
X106300535Y-49505120D01*
X106495120Y-49310535D01*
X106648005Y-49081727D01*
X106680000Y-49004485D01*
X106711995Y-49081727D01*
X106864880Y-49310535D01*
X107059465Y-49505120D01*
X107288273Y-49658005D01*
X107542510Y-49763314D01*
X107812408Y-49817000D01*
X108087592Y-49817000D01*
X108357490Y-49763314D01*
X108611727Y-49658005D01*
X108840535Y-49505120D01*
X109035120Y-49310535D01*
X109188005Y-49081727D01*
X109220000Y-49004485D01*
X109251995Y-49081727D01*
X109404880Y-49310535D01*
X109599465Y-49505120D01*
X109828273Y-49658005D01*
X110082510Y-49763314D01*
X110352408Y-49817000D01*
X110627592Y-49817000D01*
X110897490Y-49763314D01*
X111151727Y-49658005D01*
X111380535Y-49505120D01*
X111575120Y-49310535D01*
X111728005Y-49081727D01*
X111760000Y-49004485D01*
X111791995Y-49081727D01*
X111944880Y-49310535D01*
X112139465Y-49505120D01*
X112368273Y-49658005D01*
X112622510Y-49763314D01*
X112892408Y-49817000D01*
X113167592Y-49817000D01*
X113437490Y-49763314D01*
X113691727Y-49658005D01*
X113920535Y-49505120D01*
X114115120Y-49310535D01*
X114268005Y-49081727D01*
X114373314Y-48827490D01*
X114427000Y-48557592D01*
X114427000Y-48282408D01*
X164973000Y-48282408D01*
X164973000Y-48557592D01*
X165026686Y-48827490D01*
X165131995Y-49081727D01*
X165284880Y-49310535D01*
X165479465Y-49505120D01*
X165708273Y-49658005D01*
X165962510Y-49763314D01*
X166232408Y-49817000D01*
X166507592Y-49817000D01*
X166777490Y-49763314D01*
X167031727Y-49658005D01*
X167260535Y-49505120D01*
X167455120Y-49310535D01*
X167608005Y-49081727D01*
X167640000Y-49004485D01*
X167671995Y-49081727D01*
X167824880Y-49310535D01*
X168019465Y-49505120D01*
X168248273Y-49658005D01*
X168502510Y-49763314D01*
X168772408Y-49817000D01*
X169047592Y-49817000D01*
X169317490Y-49763314D01*
X169571727Y-49658005D01*
X169800535Y-49505120D01*
X169995120Y-49310535D01*
X170148005Y-49081727D01*
X170180000Y-49004485D01*
X170211995Y-49081727D01*
X170364880Y-49310535D01*
X170559465Y-49505120D01*
X170788273Y-49658005D01*
X171042510Y-49763314D01*
X171312408Y-49817000D01*
X171587592Y-49817000D01*
X171857490Y-49763314D01*
X172111727Y-49658005D01*
X172340535Y-49505120D01*
X172535120Y-49310535D01*
X172688005Y-49081727D01*
X172720000Y-49004485D01*
X172751995Y-49081727D01*
X172904880Y-49310535D01*
X173099465Y-49505120D01*
X173328273Y-49658005D01*
X173582510Y-49763314D01*
X173852408Y-49817000D01*
X174127592Y-49817000D01*
X174397490Y-49763314D01*
X174651727Y-49658005D01*
X174880535Y-49505120D01*
X175075120Y-49310535D01*
X175228005Y-49081727D01*
X175260000Y-49004485D01*
X175291995Y-49081727D01*
X175444880Y-49310535D01*
X175639465Y-49505120D01*
X175868273Y-49658005D01*
X176122510Y-49763314D01*
X176392408Y-49817000D01*
X176667592Y-49817000D01*
X176937490Y-49763314D01*
X177191727Y-49658005D01*
X177420535Y-49505120D01*
X177615120Y-49310535D01*
X177768005Y-49081727D01*
X177800000Y-49004485D01*
X177831995Y-49081727D01*
X177984880Y-49310535D01*
X178179465Y-49505120D01*
X178408273Y-49658005D01*
X178662510Y-49763314D01*
X178932408Y-49817000D01*
X179207592Y-49817000D01*
X179477490Y-49763314D01*
X179731727Y-49658005D01*
X179960535Y-49505120D01*
X180155120Y-49310535D01*
X180308005Y-49081727D01*
X180413314Y-48827490D01*
X180467000Y-48557592D01*
X180467000Y-48282408D01*
X180413314Y-48012510D01*
X180308005Y-47758273D01*
X180155120Y-47529465D01*
X179960535Y-47334880D01*
X179731727Y-47181995D01*
X179477490Y-47076686D01*
X179207592Y-47023000D01*
X178932408Y-47023000D01*
X178662510Y-47076686D01*
X178408273Y-47181995D01*
X178179465Y-47334880D01*
X177984880Y-47529465D01*
X177831995Y-47758273D01*
X177800000Y-47835515D01*
X177768005Y-47758273D01*
X177615120Y-47529465D01*
X177420535Y-47334880D01*
X177191727Y-47181995D01*
X176937490Y-47076686D01*
X176667592Y-47023000D01*
X176392408Y-47023000D01*
X176122510Y-47076686D01*
X175868273Y-47181995D01*
X175639465Y-47334880D01*
X175444880Y-47529465D01*
X175291995Y-47758273D01*
X175260000Y-47835515D01*
X175228005Y-47758273D01*
X175075120Y-47529465D01*
X174880535Y-47334880D01*
X174651727Y-47181995D01*
X174397490Y-47076686D01*
X174127592Y-47023000D01*
X173852408Y-47023000D01*
X173582510Y-47076686D01*
X173328273Y-47181995D01*
X173099465Y-47334880D01*
X172904880Y-47529465D01*
X172751995Y-47758273D01*
X172720000Y-47835515D01*
X172688005Y-47758273D01*
X172535120Y-47529465D01*
X172340535Y-47334880D01*
X172111727Y-47181995D01*
X171857490Y-47076686D01*
X171587592Y-47023000D01*
X171312408Y-47023000D01*
X171042510Y-47076686D01*
X170788273Y-47181995D01*
X170559465Y-47334880D01*
X170364880Y-47529465D01*
X170211995Y-47758273D01*
X170180000Y-47835515D01*
X170148005Y-47758273D01*
X169995120Y-47529465D01*
X169800535Y-47334880D01*
X169571727Y-47181995D01*
X169317490Y-47076686D01*
X169047592Y-47023000D01*
X168772408Y-47023000D01*
X168502510Y-47076686D01*
X168248273Y-47181995D01*
X168019465Y-47334880D01*
X167824880Y-47529465D01*
X167671995Y-47758273D01*
X167640000Y-47835515D01*
X167608005Y-47758273D01*
X167455120Y-47529465D01*
X167260535Y-47334880D01*
X167031727Y-47181995D01*
X166777490Y-47076686D01*
X166507592Y-47023000D01*
X166232408Y-47023000D01*
X165962510Y-47076686D01*
X165708273Y-47181995D01*
X165479465Y-47334880D01*
X165284880Y-47529465D01*
X165131995Y-47758273D01*
X165026686Y-48012510D01*
X164973000Y-48282408D01*
X114427000Y-48282408D01*
X114373314Y-48012510D01*
X114268005Y-47758273D01*
X114115120Y-47529465D01*
X113920535Y-47334880D01*
X113691727Y-47181995D01*
X113437490Y-47076686D01*
X113167592Y-47023000D01*
X112892408Y-47023000D01*
X112622510Y-47076686D01*
X112368273Y-47181995D01*
X112139465Y-47334880D01*
X111944880Y-47529465D01*
X111791995Y-47758273D01*
X111760000Y-47835515D01*
X111728005Y-47758273D01*
X111575120Y-47529465D01*
X111380535Y-47334880D01*
X111151727Y-47181995D01*
X110897490Y-47076686D01*
X110627592Y-47023000D01*
X110352408Y-47023000D01*
X110082510Y-47076686D01*
X109828273Y-47181995D01*
X109599465Y-47334880D01*
X109404880Y-47529465D01*
X109251995Y-47758273D01*
X109220000Y-47835515D01*
X109188005Y-47758273D01*
X109035120Y-47529465D01*
X108840535Y-47334880D01*
X108611727Y-47181995D01*
X108357490Y-47076686D01*
X108087592Y-47023000D01*
X107812408Y-47023000D01*
X107542510Y-47076686D01*
X107288273Y-47181995D01*
X107059465Y-47334880D01*
X106864880Y-47529465D01*
X106711995Y-47758273D01*
X106680000Y-47835515D01*
X106648005Y-47758273D01*
X106495120Y-47529465D01*
X106300535Y-47334880D01*
X106071727Y-47181995D01*
X105817490Y-47076686D01*
X105547592Y-47023000D01*
X105272408Y-47023000D01*
X105002510Y-47076686D01*
X104748273Y-47181995D01*
X104519465Y-47334880D01*
X104324880Y-47529465D01*
X104171995Y-47758273D01*
X104140000Y-47835515D01*
X104108005Y-47758273D01*
X103955120Y-47529465D01*
X103760535Y-47334880D01*
X103531727Y-47181995D01*
X103277490Y-47076686D01*
X103007592Y-47023000D01*
X102732408Y-47023000D01*
X102462510Y-47076686D01*
X102208273Y-47181995D01*
X101979465Y-47334880D01*
X101784880Y-47529465D01*
X101631995Y-47758273D01*
X101600000Y-47835515D01*
X101568005Y-47758273D01*
X101415120Y-47529465D01*
X101220535Y-47334880D01*
X100991727Y-47181995D01*
X100737490Y-47076686D01*
X100467592Y-47023000D01*
X100192408Y-47023000D01*
X99922510Y-47076686D01*
X99668273Y-47181995D01*
X99439465Y-47334880D01*
X99244880Y-47529465D01*
X99091995Y-47758273D01*
X98986686Y-48012510D01*
X98933000Y-48282408D01*
X92135000Y-48282408D01*
X92135000Y-37696064D01*
X101111000Y-37696064D01*
X101111000Y-38303935D01*
X101132776Y-38525031D01*
X101218834Y-38808724D01*
X101358583Y-39070178D01*
X101546655Y-39299345D01*
X101775821Y-39487417D01*
X102037275Y-39627166D01*
X102320968Y-39713224D01*
X102616000Y-39742282D01*
X102911031Y-39713224D01*
X103194724Y-39627166D01*
X103456178Y-39487417D01*
X103685345Y-39299345D01*
X103873417Y-39070179D01*
X103886000Y-39046637D01*
X103898583Y-39070178D01*
X104086655Y-39299345D01*
X104315821Y-39487417D01*
X104577275Y-39627166D01*
X104860968Y-39713224D01*
X105156000Y-39742282D01*
X105451031Y-39713224D01*
X105734724Y-39627166D01*
X105996178Y-39487417D01*
X106225345Y-39299345D01*
X106413417Y-39070179D01*
X106426000Y-39046637D01*
X106438583Y-39070178D01*
X106626655Y-39299345D01*
X106855821Y-39487417D01*
X107117275Y-39627166D01*
X107400968Y-39713224D01*
X107696000Y-39742282D01*
X107991031Y-39713224D01*
X108274724Y-39627166D01*
X108536178Y-39487417D01*
X108765345Y-39299345D01*
X108819066Y-39233886D01*
X108877595Y-39343387D01*
X108988038Y-39477962D01*
X109122613Y-39588405D01*
X109276149Y-39670472D01*
X109442745Y-39721008D01*
X109615999Y-39738072D01*
X110856001Y-39738072D01*
X111029255Y-39721008D01*
X111195851Y-39670472D01*
X111349387Y-39588405D01*
X111483962Y-39477962D01*
X111594405Y-39343387D01*
X111676472Y-39189851D01*
X111727008Y-39023255D01*
X111744072Y-38850001D01*
X111744072Y-37696064D01*
X167659000Y-37696064D01*
X167659000Y-38303935D01*
X167680776Y-38525031D01*
X167766834Y-38808724D01*
X167906583Y-39070178D01*
X168094655Y-39299345D01*
X168323821Y-39487417D01*
X168585275Y-39627166D01*
X168868968Y-39713224D01*
X169164000Y-39742282D01*
X169459031Y-39713224D01*
X169742724Y-39627166D01*
X170004178Y-39487417D01*
X170233345Y-39299345D01*
X170421417Y-39070179D01*
X170434000Y-39046637D01*
X170446583Y-39070178D01*
X170634655Y-39299345D01*
X170863821Y-39487417D01*
X171125275Y-39627166D01*
X171408968Y-39713224D01*
X171704000Y-39742282D01*
X171999031Y-39713224D01*
X172282724Y-39627166D01*
X172544178Y-39487417D01*
X172773345Y-39299345D01*
X172961417Y-39070179D01*
X172974000Y-39046637D01*
X172986583Y-39070178D01*
X173174655Y-39299345D01*
X173403821Y-39487417D01*
X173665275Y-39627166D01*
X173948968Y-39713224D01*
X174244000Y-39742282D01*
X174539031Y-39713224D01*
X174822724Y-39627166D01*
X175084178Y-39487417D01*
X175313345Y-39299345D01*
X175367066Y-39233886D01*
X175425595Y-39343387D01*
X175536038Y-39477962D01*
X175670613Y-39588405D01*
X175824149Y-39670472D01*
X175990745Y-39721008D01*
X176163999Y-39738072D01*
X177404001Y-39738072D01*
X177577255Y-39721008D01*
X177743851Y-39670472D01*
X177897387Y-39588405D01*
X178031962Y-39477962D01*
X178142405Y-39343387D01*
X178224472Y-39189851D01*
X178275008Y-39023255D01*
X178292072Y-38850001D01*
X178292072Y-37149999D01*
X178275008Y-36976745D01*
X178224472Y-36810149D01*
X178142405Y-36656613D01*
X178031962Y-36522038D01*
X177897387Y-36411595D01*
X177743851Y-36329528D01*
X177577255Y-36278992D01*
X177404001Y-36261928D01*
X176163999Y-36261928D01*
X175990745Y-36278992D01*
X175824149Y-36329528D01*
X175670613Y-36411595D01*
X175536038Y-36522038D01*
X175425595Y-36656613D01*
X175367066Y-36766114D01*
X175313345Y-36700655D01*
X175084179Y-36512583D01*
X174822725Y-36372834D01*
X174539032Y-36286776D01*
X174244000Y-36257718D01*
X173948969Y-36286776D01*
X173665276Y-36372834D01*
X173403822Y-36512583D01*
X173174655Y-36700655D01*
X172986583Y-36929821D01*
X172974000Y-36953362D01*
X172961417Y-36929821D01*
X172773345Y-36700655D01*
X172544179Y-36512583D01*
X172282725Y-36372834D01*
X171999032Y-36286776D01*
X171704000Y-36257718D01*
X171408969Y-36286776D01*
X171125276Y-36372834D01*
X170863822Y-36512583D01*
X170634655Y-36700655D01*
X170446583Y-36929821D01*
X170434000Y-36953362D01*
X170421417Y-36929821D01*
X170233345Y-36700655D01*
X170004179Y-36512583D01*
X169742725Y-36372834D01*
X169459032Y-36286776D01*
X169164000Y-36257718D01*
X168868969Y-36286776D01*
X168585276Y-36372834D01*
X168323822Y-36512583D01*
X168094655Y-36700655D01*
X167906583Y-36929821D01*
X167766834Y-37191275D01*
X167680776Y-37474968D01*
X167659000Y-37696064D01*
X111744072Y-37696064D01*
X111744072Y-37149999D01*
X111727008Y-36976745D01*
X111676472Y-36810149D01*
X111594405Y-36656613D01*
X111483962Y-36522038D01*
X111349387Y-36411595D01*
X111195851Y-36329528D01*
X111029255Y-36278992D01*
X110856001Y-36261928D01*
X109615999Y-36261928D01*
X109442745Y-36278992D01*
X109276149Y-36329528D01*
X109122613Y-36411595D01*
X108988038Y-36522038D01*
X108877595Y-36656613D01*
X108819066Y-36766114D01*
X108765345Y-36700655D01*
X108536179Y-36512583D01*
X108274725Y-36372834D01*
X107991032Y-36286776D01*
X107696000Y-36257718D01*
X107400969Y-36286776D01*
X107117276Y-36372834D01*
X106855822Y-36512583D01*
X106626655Y-36700655D01*
X106438583Y-36929821D01*
X106426000Y-36953362D01*
X106413417Y-36929821D01*
X106225345Y-36700655D01*
X105996179Y-36512583D01*
X105734725Y-36372834D01*
X105451032Y-36286776D01*
X105156000Y-36257718D01*
X104860969Y-36286776D01*
X104577276Y-36372834D01*
X104315822Y-36512583D01*
X104086655Y-36700655D01*
X103898583Y-36929821D01*
X103886000Y-36953362D01*
X103873417Y-36929821D01*
X103685345Y-36700655D01*
X103456179Y-36512583D01*
X103194725Y-36372834D01*
X102911032Y-36286776D01*
X102616000Y-36257718D01*
X102320969Y-36286776D01*
X102037276Y-36372834D01*
X101775822Y-36512583D01*
X101546655Y-36700655D01*
X101358583Y-36929821D01*
X101218834Y-37191275D01*
X101132776Y-37474968D01*
X101111000Y-37696064D01*
X92135000Y-37696064D01*
X92135000Y-31175000D01*
X185741001Y-31175000D01*
X185741000Y-188281000D01*
M02*
