G04 #@! TF.GenerationSoftware,KiCad,Pcbnew,(5.1.5-0)*
G04 #@! TF.CreationDate,2020-03-21T21:07:46+01:00*
G04 #@! TF.ProjectId,load_cells_connector_board,6c6f6164-5f63-4656-9c6c-735f636f6e6e,v01*
G04 #@! TF.SameCoordinates,Original*
G04 #@! TF.FileFunction,Soldermask,Bot*
G04 #@! TF.FilePolarity,Negative*
%FSLAX46Y46*%
G04 Gerber Fmt 4.6, Leading zero omitted, Abs format (unit mm)*
G04 Created by KiCad (PCBNEW (5.1.5-0)) date 2020-03-21 21:07:46*
%MOMM*%
%LPD*%
G04 APERTURE LIST*
%ADD10C,0.100000*%
G04 APERTURE END LIST*
D10*
G36*
X102796547Y-179202326D02*
G01*
X102970156Y-179254990D01*
X102970158Y-179254991D01*
X103130155Y-179340511D01*
X103270397Y-179455603D01*
X103349729Y-179552271D01*
X103385489Y-179595844D01*
X103471010Y-179755843D01*
X103523674Y-179929452D01*
X103537000Y-180064756D01*
X103537000Y-180615243D01*
X103523674Y-180750548D01*
X103471010Y-180924157D01*
X103385489Y-181084156D01*
X103349729Y-181127729D01*
X103270397Y-181224397D01*
X103173729Y-181303729D01*
X103130156Y-181339489D01*
X102970157Y-181425010D01*
X102796548Y-181477674D01*
X102616000Y-181495456D01*
X102435453Y-181477674D01*
X102261844Y-181425010D01*
X102101845Y-181339489D01*
X102058272Y-181303729D01*
X101961604Y-181224397D01*
X101846513Y-181084157D01*
X101846512Y-181084155D01*
X101760990Y-180924157D01*
X101708326Y-180750548D01*
X101695000Y-180615244D01*
X101695000Y-180064757D01*
X101708326Y-179929453D01*
X101760990Y-179755844D01*
X101846511Y-179595845D01*
X101846512Y-179595844D01*
X101961603Y-179455603D01*
X102087388Y-179352375D01*
X102101844Y-179340511D01*
X102261843Y-179254990D01*
X102435452Y-179202326D01*
X102616000Y-179184544D01*
X102796547Y-179202326D01*
G37*
G36*
X105336547Y-179202326D02*
G01*
X105510156Y-179254990D01*
X105510158Y-179254991D01*
X105670155Y-179340511D01*
X105810397Y-179455603D01*
X105889729Y-179552271D01*
X105925489Y-179595844D01*
X106011010Y-179755843D01*
X106063674Y-179929452D01*
X106077000Y-180064756D01*
X106077000Y-180615243D01*
X106063674Y-180750548D01*
X106011010Y-180924157D01*
X105925489Y-181084156D01*
X105889729Y-181127729D01*
X105810397Y-181224397D01*
X105713729Y-181303729D01*
X105670156Y-181339489D01*
X105510157Y-181425010D01*
X105336548Y-181477674D01*
X105156000Y-181495456D01*
X104975453Y-181477674D01*
X104801844Y-181425010D01*
X104641845Y-181339489D01*
X104598272Y-181303729D01*
X104501604Y-181224397D01*
X104386513Y-181084157D01*
X104386512Y-181084155D01*
X104300990Y-180924157D01*
X104248326Y-180750548D01*
X104235000Y-180615244D01*
X104235000Y-180064757D01*
X104248326Y-179929453D01*
X104300990Y-179755844D01*
X104386511Y-179595845D01*
X104386512Y-179595844D01*
X104501603Y-179455603D01*
X104627388Y-179352375D01*
X104641844Y-179340511D01*
X104801843Y-179254990D01*
X104975452Y-179202326D01*
X105156000Y-179184544D01*
X105336547Y-179202326D01*
G37*
G36*
X107876547Y-179202326D02*
G01*
X108050156Y-179254990D01*
X108050158Y-179254991D01*
X108210155Y-179340511D01*
X108350397Y-179455603D01*
X108429729Y-179552271D01*
X108465489Y-179595844D01*
X108551010Y-179755843D01*
X108603674Y-179929452D01*
X108617000Y-180064756D01*
X108617000Y-180615243D01*
X108603674Y-180750548D01*
X108551010Y-180924157D01*
X108465489Y-181084156D01*
X108429729Y-181127729D01*
X108350397Y-181224397D01*
X108253729Y-181303729D01*
X108210156Y-181339489D01*
X108050157Y-181425010D01*
X107876548Y-181477674D01*
X107696000Y-181495456D01*
X107515453Y-181477674D01*
X107341844Y-181425010D01*
X107181845Y-181339489D01*
X107138272Y-181303729D01*
X107041604Y-181224397D01*
X106926513Y-181084157D01*
X106926512Y-181084155D01*
X106840990Y-180924157D01*
X106788326Y-180750548D01*
X106775000Y-180615244D01*
X106775000Y-180064757D01*
X106788326Y-179929453D01*
X106840990Y-179755844D01*
X106926511Y-179595845D01*
X106926512Y-179595844D01*
X107041603Y-179455603D01*
X107167388Y-179352375D01*
X107181844Y-179340511D01*
X107341843Y-179254990D01*
X107515452Y-179202326D01*
X107696000Y-179184544D01*
X107876547Y-179202326D01*
G37*
G36*
X171884547Y-179202326D02*
G01*
X172058156Y-179254990D01*
X172058158Y-179254991D01*
X172218155Y-179340511D01*
X172358397Y-179455603D01*
X172437729Y-179552271D01*
X172473489Y-179595844D01*
X172559010Y-179755843D01*
X172611674Y-179929452D01*
X172625000Y-180064756D01*
X172625000Y-180615243D01*
X172611674Y-180750548D01*
X172559010Y-180924157D01*
X172473489Y-181084156D01*
X172437729Y-181127729D01*
X172358397Y-181224397D01*
X172261729Y-181303729D01*
X172218156Y-181339489D01*
X172058157Y-181425010D01*
X171884548Y-181477674D01*
X171704000Y-181495456D01*
X171523453Y-181477674D01*
X171349844Y-181425010D01*
X171189845Y-181339489D01*
X171146272Y-181303729D01*
X171049604Y-181224397D01*
X170934513Y-181084157D01*
X170934512Y-181084155D01*
X170848990Y-180924157D01*
X170796326Y-180750548D01*
X170783000Y-180615244D01*
X170783000Y-180064757D01*
X170796326Y-179929453D01*
X170848990Y-179755844D01*
X170934511Y-179595845D01*
X170934512Y-179595844D01*
X171049603Y-179455603D01*
X171175388Y-179352375D01*
X171189844Y-179340511D01*
X171349843Y-179254990D01*
X171523452Y-179202326D01*
X171704000Y-179184544D01*
X171884547Y-179202326D01*
G37*
G36*
X174424547Y-179202326D02*
G01*
X174598156Y-179254990D01*
X174598158Y-179254991D01*
X174758155Y-179340511D01*
X174898397Y-179455603D01*
X174977729Y-179552271D01*
X175013489Y-179595844D01*
X175099010Y-179755843D01*
X175151674Y-179929452D01*
X175165000Y-180064756D01*
X175165000Y-180615243D01*
X175151674Y-180750548D01*
X175099010Y-180924157D01*
X175013489Y-181084156D01*
X174977729Y-181127729D01*
X174898397Y-181224397D01*
X174801729Y-181303729D01*
X174758156Y-181339489D01*
X174598157Y-181425010D01*
X174424548Y-181477674D01*
X174244000Y-181495456D01*
X174063453Y-181477674D01*
X173889844Y-181425010D01*
X173729845Y-181339489D01*
X173686272Y-181303729D01*
X173589604Y-181224397D01*
X173474513Y-181084157D01*
X173474512Y-181084155D01*
X173388990Y-180924157D01*
X173336326Y-180750548D01*
X173323000Y-180615244D01*
X173323000Y-180064757D01*
X173336326Y-179929453D01*
X173388990Y-179755844D01*
X173474511Y-179595845D01*
X173474512Y-179595844D01*
X173589603Y-179455603D01*
X173715388Y-179352375D01*
X173729844Y-179340511D01*
X173889843Y-179254990D01*
X174063452Y-179202326D01*
X174244000Y-179184544D01*
X174424547Y-179202326D01*
G37*
G36*
X176964547Y-179202326D02*
G01*
X177138156Y-179254990D01*
X177138158Y-179254991D01*
X177298155Y-179340511D01*
X177438397Y-179455603D01*
X177517729Y-179552271D01*
X177553489Y-179595844D01*
X177639010Y-179755843D01*
X177691674Y-179929452D01*
X177705000Y-180064756D01*
X177705000Y-180615243D01*
X177691674Y-180750548D01*
X177639010Y-180924157D01*
X177553489Y-181084156D01*
X177517729Y-181127729D01*
X177438397Y-181224397D01*
X177341729Y-181303729D01*
X177298156Y-181339489D01*
X177138157Y-181425010D01*
X176964548Y-181477674D01*
X176784000Y-181495456D01*
X176603453Y-181477674D01*
X176429844Y-181425010D01*
X176269845Y-181339489D01*
X176226272Y-181303729D01*
X176129604Y-181224397D01*
X176014513Y-181084157D01*
X176014512Y-181084155D01*
X175928990Y-180924157D01*
X175876326Y-180750548D01*
X175863000Y-180615244D01*
X175863000Y-180064757D01*
X175876326Y-179929453D01*
X175928990Y-179755844D01*
X176014511Y-179595845D01*
X176014512Y-179595844D01*
X176129603Y-179455603D01*
X176255388Y-179352375D01*
X176269844Y-179340511D01*
X176429843Y-179254990D01*
X176603452Y-179202326D01*
X176784000Y-179184544D01*
X176964547Y-179202326D01*
G37*
G36*
X169943561Y-179192966D02*
G01*
X169976383Y-179202923D01*
X170006632Y-179219092D01*
X170033148Y-179240852D01*
X170054908Y-179267368D01*
X170071077Y-179297617D01*
X170081034Y-179330439D01*
X170085000Y-179370713D01*
X170085000Y-181309287D01*
X170081034Y-181349561D01*
X170071077Y-181382383D01*
X170054908Y-181412632D01*
X170033148Y-181439148D01*
X170006632Y-181460908D01*
X169976383Y-181477077D01*
X169943561Y-181487034D01*
X169903287Y-181491000D01*
X168424713Y-181491000D01*
X168384439Y-181487034D01*
X168351617Y-181477077D01*
X168321368Y-181460908D01*
X168294852Y-181439148D01*
X168273092Y-181412632D01*
X168256923Y-181382383D01*
X168246966Y-181349561D01*
X168243000Y-181309287D01*
X168243000Y-179370713D01*
X168246966Y-179330439D01*
X168256923Y-179297617D01*
X168273092Y-179267368D01*
X168294852Y-179240852D01*
X168321368Y-179219092D01*
X168351617Y-179202923D01*
X168384439Y-179192966D01*
X168424713Y-179189000D01*
X169903287Y-179189000D01*
X169943561Y-179192966D01*
G37*
G36*
X100855561Y-179192966D02*
G01*
X100888383Y-179202923D01*
X100918632Y-179219092D01*
X100945148Y-179240852D01*
X100966908Y-179267368D01*
X100983077Y-179297617D01*
X100993034Y-179330439D01*
X100997000Y-179370713D01*
X100997000Y-181309287D01*
X100993034Y-181349561D01*
X100983077Y-181382383D01*
X100966908Y-181412632D01*
X100945148Y-181439148D01*
X100918632Y-181460908D01*
X100888383Y-181477077D01*
X100855561Y-181487034D01*
X100815287Y-181491000D01*
X99336713Y-181491000D01*
X99296439Y-181487034D01*
X99263617Y-181477077D01*
X99233368Y-181460908D01*
X99206852Y-181439148D01*
X99185092Y-181412632D01*
X99168923Y-181382383D01*
X99158966Y-181349561D01*
X99155000Y-181309287D01*
X99155000Y-179370713D01*
X99158966Y-179330439D01*
X99168923Y-179297617D01*
X99185092Y-179267368D01*
X99206852Y-179240852D01*
X99233368Y-179219092D01*
X99263617Y-179202923D01*
X99296439Y-179192966D01*
X99336713Y-179189000D01*
X100815287Y-179189000D01*
X100855561Y-179192966D01*
G37*
G36*
X105647142Y-169238242D02*
G01*
X105795101Y-169299529D01*
X105928255Y-169388499D01*
X106041501Y-169501745D01*
X106130471Y-169634899D01*
X106191758Y-169782858D01*
X106223000Y-169939925D01*
X106223000Y-170100075D01*
X106191758Y-170257142D01*
X106130471Y-170405101D01*
X106041501Y-170538255D01*
X105928255Y-170651501D01*
X105795101Y-170740471D01*
X105647142Y-170801758D01*
X105490075Y-170833000D01*
X105329925Y-170833000D01*
X105172858Y-170801758D01*
X105024899Y-170740471D01*
X104891745Y-170651501D01*
X104778499Y-170538255D01*
X104689529Y-170405101D01*
X104628242Y-170257142D01*
X104597000Y-170100075D01*
X104597000Y-169939925D01*
X104628242Y-169782858D01*
X104689529Y-169634899D01*
X104778499Y-169501745D01*
X104891745Y-169388499D01*
X105024899Y-169299529D01*
X105172858Y-169238242D01*
X105329925Y-169207000D01*
X105490075Y-169207000D01*
X105647142Y-169238242D01*
G37*
G36*
X103107142Y-169238242D02*
G01*
X103255101Y-169299529D01*
X103388255Y-169388499D01*
X103501501Y-169501745D01*
X103590471Y-169634899D01*
X103651758Y-169782858D01*
X103683000Y-169939925D01*
X103683000Y-170100075D01*
X103651758Y-170257142D01*
X103590471Y-170405101D01*
X103501501Y-170538255D01*
X103388255Y-170651501D01*
X103255101Y-170740471D01*
X103107142Y-170801758D01*
X102950075Y-170833000D01*
X102789925Y-170833000D01*
X102632858Y-170801758D01*
X102484899Y-170740471D01*
X102351745Y-170651501D01*
X102238499Y-170538255D01*
X102149529Y-170405101D01*
X102088242Y-170257142D01*
X102057000Y-170100075D01*
X102057000Y-169939925D01*
X102088242Y-169782858D01*
X102149529Y-169634899D01*
X102238499Y-169501745D01*
X102351745Y-169388499D01*
X102484899Y-169299529D01*
X102632858Y-169238242D01*
X102789925Y-169207000D01*
X102950075Y-169207000D01*
X103107142Y-169238242D01*
G37*
G36*
X100567142Y-169238242D02*
G01*
X100715101Y-169299529D01*
X100848255Y-169388499D01*
X100961501Y-169501745D01*
X101050471Y-169634899D01*
X101111758Y-169782858D01*
X101143000Y-169939925D01*
X101143000Y-170100075D01*
X101111758Y-170257142D01*
X101050471Y-170405101D01*
X100961501Y-170538255D01*
X100848255Y-170651501D01*
X100715101Y-170740471D01*
X100567142Y-170801758D01*
X100410075Y-170833000D01*
X100249925Y-170833000D01*
X100092858Y-170801758D01*
X99944899Y-170740471D01*
X99811745Y-170651501D01*
X99698499Y-170538255D01*
X99609529Y-170405101D01*
X99548242Y-170257142D01*
X99517000Y-170100075D01*
X99517000Y-169939925D01*
X99548242Y-169782858D01*
X99609529Y-169634899D01*
X99698499Y-169501745D01*
X99811745Y-169388499D01*
X99944899Y-169299529D01*
X100092858Y-169238242D01*
X100249925Y-169207000D01*
X100410075Y-169207000D01*
X100567142Y-169238242D01*
G37*
G36*
X98027142Y-169238242D02*
G01*
X98175101Y-169299529D01*
X98308255Y-169388499D01*
X98421501Y-169501745D01*
X98510471Y-169634899D01*
X98571758Y-169782858D01*
X98603000Y-169939925D01*
X98603000Y-170100075D01*
X98571758Y-170257142D01*
X98510471Y-170405101D01*
X98421501Y-170538255D01*
X98308255Y-170651501D01*
X98175101Y-170740471D01*
X98027142Y-170801758D01*
X97870075Y-170833000D01*
X97709925Y-170833000D01*
X97552858Y-170801758D01*
X97404899Y-170740471D01*
X97271745Y-170651501D01*
X97158499Y-170538255D01*
X97069529Y-170405101D01*
X97008242Y-170257142D01*
X96977000Y-170100075D01*
X96977000Y-169939925D01*
X97008242Y-169782858D01*
X97069529Y-169634899D01*
X97158499Y-169501745D01*
X97271745Y-169388499D01*
X97404899Y-169299529D01*
X97552858Y-169238242D01*
X97709925Y-169207000D01*
X97870075Y-169207000D01*
X98027142Y-169238242D01*
G37*
G36*
X108187142Y-169238242D02*
G01*
X108335101Y-169299529D01*
X108468255Y-169388499D01*
X108581501Y-169501745D01*
X108670471Y-169634899D01*
X108731758Y-169782858D01*
X108763000Y-169939925D01*
X108763000Y-170100075D01*
X108731758Y-170257142D01*
X108670471Y-170405101D01*
X108581501Y-170538255D01*
X108468255Y-170651501D01*
X108335101Y-170740471D01*
X108187142Y-170801758D01*
X108030075Y-170833000D01*
X107869925Y-170833000D01*
X107712858Y-170801758D01*
X107564899Y-170740471D01*
X107431745Y-170651501D01*
X107318499Y-170538255D01*
X107229529Y-170405101D01*
X107168242Y-170257142D01*
X107137000Y-170100075D01*
X107137000Y-169939925D01*
X107168242Y-169782858D01*
X107229529Y-169634899D01*
X107318499Y-169501745D01*
X107431745Y-169388499D01*
X107564899Y-169299529D01*
X107712858Y-169238242D01*
X107869925Y-169207000D01*
X108030075Y-169207000D01*
X108187142Y-169238242D01*
G37*
G36*
X110727142Y-169238242D02*
G01*
X110875101Y-169299529D01*
X111008255Y-169388499D01*
X111121501Y-169501745D01*
X111210471Y-169634899D01*
X111271758Y-169782858D01*
X111303000Y-169939925D01*
X111303000Y-170100075D01*
X111271758Y-170257142D01*
X111210471Y-170405101D01*
X111121501Y-170538255D01*
X111008255Y-170651501D01*
X110875101Y-170740471D01*
X110727142Y-170801758D01*
X110570075Y-170833000D01*
X110409925Y-170833000D01*
X110252858Y-170801758D01*
X110104899Y-170740471D01*
X109971745Y-170651501D01*
X109858499Y-170538255D01*
X109769529Y-170405101D01*
X109708242Y-170257142D01*
X109677000Y-170100075D01*
X109677000Y-169939925D01*
X109708242Y-169782858D01*
X109769529Y-169634899D01*
X109858499Y-169501745D01*
X109971745Y-169388499D01*
X110104899Y-169299529D01*
X110252858Y-169238242D01*
X110409925Y-169207000D01*
X110570075Y-169207000D01*
X110727142Y-169238242D01*
G37*
G36*
X166607142Y-169238242D02*
G01*
X166755101Y-169299529D01*
X166888255Y-169388499D01*
X167001501Y-169501745D01*
X167090471Y-169634899D01*
X167151758Y-169782858D01*
X167183000Y-169939925D01*
X167183000Y-170100075D01*
X167151758Y-170257142D01*
X167090471Y-170405101D01*
X167001501Y-170538255D01*
X166888255Y-170651501D01*
X166755101Y-170740471D01*
X166607142Y-170801758D01*
X166450075Y-170833000D01*
X166289925Y-170833000D01*
X166132858Y-170801758D01*
X165984899Y-170740471D01*
X165851745Y-170651501D01*
X165738499Y-170538255D01*
X165649529Y-170405101D01*
X165588242Y-170257142D01*
X165557000Y-170100075D01*
X165557000Y-169939925D01*
X165588242Y-169782858D01*
X165649529Y-169634899D01*
X165738499Y-169501745D01*
X165851745Y-169388499D01*
X165984899Y-169299529D01*
X166132858Y-169238242D01*
X166289925Y-169207000D01*
X166450075Y-169207000D01*
X166607142Y-169238242D01*
G37*
G36*
X169147142Y-169238242D02*
G01*
X169295101Y-169299529D01*
X169428255Y-169388499D01*
X169541501Y-169501745D01*
X169630471Y-169634899D01*
X169691758Y-169782858D01*
X169723000Y-169939925D01*
X169723000Y-170100075D01*
X169691758Y-170257142D01*
X169630471Y-170405101D01*
X169541501Y-170538255D01*
X169428255Y-170651501D01*
X169295101Y-170740471D01*
X169147142Y-170801758D01*
X168990075Y-170833000D01*
X168829925Y-170833000D01*
X168672858Y-170801758D01*
X168524899Y-170740471D01*
X168391745Y-170651501D01*
X168278499Y-170538255D01*
X168189529Y-170405101D01*
X168128242Y-170257142D01*
X168097000Y-170100075D01*
X168097000Y-169939925D01*
X168128242Y-169782858D01*
X168189529Y-169634899D01*
X168278499Y-169501745D01*
X168391745Y-169388499D01*
X168524899Y-169299529D01*
X168672858Y-169238242D01*
X168829925Y-169207000D01*
X168990075Y-169207000D01*
X169147142Y-169238242D01*
G37*
G36*
X171687142Y-169238242D02*
G01*
X171835101Y-169299529D01*
X171968255Y-169388499D01*
X172081501Y-169501745D01*
X172170471Y-169634899D01*
X172231758Y-169782858D01*
X172263000Y-169939925D01*
X172263000Y-170100075D01*
X172231758Y-170257142D01*
X172170471Y-170405101D01*
X172081501Y-170538255D01*
X171968255Y-170651501D01*
X171835101Y-170740471D01*
X171687142Y-170801758D01*
X171530075Y-170833000D01*
X171369925Y-170833000D01*
X171212858Y-170801758D01*
X171064899Y-170740471D01*
X170931745Y-170651501D01*
X170818499Y-170538255D01*
X170729529Y-170405101D01*
X170668242Y-170257142D01*
X170637000Y-170100075D01*
X170637000Y-169939925D01*
X170668242Y-169782858D01*
X170729529Y-169634899D01*
X170818499Y-169501745D01*
X170931745Y-169388499D01*
X171064899Y-169299529D01*
X171212858Y-169238242D01*
X171369925Y-169207000D01*
X171530075Y-169207000D01*
X171687142Y-169238242D01*
G37*
G36*
X174227142Y-169238242D02*
G01*
X174375101Y-169299529D01*
X174508255Y-169388499D01*
X174621501Y-169501745D01*
X174710471Y-169634899D01*
X174771758Y-169782858D01*
X174803000Y-169939925D01*
X174803000Y-170100075D01*
X174771758Y-170257142D01*
X174710471Y-170405101D01*
X174621501Y-170538255D01*
X174508255Y-170651501D01*
X174375101Y-170740471D01*
X174227142Y-170801758D01*
X174070075Y-170833000D01*
X173909925Y-170833000D01*
X173752858Y-170801758D01*
X173604899Y-170740471D01*
X173471745Y-170651501D01*
X173358499Y-170538255D01*
X173269529Y-170405101D01*
X173208242Y-170257142D01*
X173177000Y-170100075D01*
X173177000Y-169939925D01*
X173208242Y-169782858D01*
X173269529Y-169634899D01*
X173358499Y-169501745D01*
X173471745Y-169388499D01*
X173604899Y-169299529D01*
X173752858Y-169238242D01*
X173909925Y-169207000D01*
X174070075Y-169207000D01*
X174227142Y-169238242D01*
G37*
G36*
X176767142Y-169238242D02*
G01*
X176915101Y-169299529D01*
X177048255Y-169388499D01*
X177161501Y-169501745D01*
X177250471Y-169634899D01*
X177311758Y-169782858D01*
X177343000Y-169939925D01*
X177343000Y-170100075D01*
X177311758Y-170257142D01*
X177250471Y-170405101D01*
X177161501Y-170538255D01*
X177048255Y-170651501D01*
X176915101Y-170740471D01*
X176767142Y-170801758D01*
X176610075Y-170833000D01*
X176449925Y-170833000D01*
X176292858Y-170801758D01*
X176144899Y-170740471D01*
X176011745Y-170651501D01*
X175898499Y-170538255D01*
X175809529Y-170405101D01*
X175748242Y-170257142D01*
X175717000Y-170100075D01*
X175717000Y-169939925D01*
X175748242Y-169782858D01*
X175809529Y-169634899D01*
X175898499Y-169501745D01*
X176011745Y-169388499D01*
X176144899Y-169299529D01*
X176292858Y-169238242D01*
X176449925Y-169207000D01*
X176610075Y-169207000D01*
X176767142Y-169238242D01*
G37*
G36*
X179307142Y-169238242D02*
G01*
X179455101Y-169299529D01*
X179588255Y-169388499D01*
X179701501Y-169501745D01*
X179790471Y-169634899D01*
X179851758Y-169782858D01*
X179883000Y-169939925D01*
X179883000Y-170100075D01*
X179851758Y-170257142D01*
X179790471Y-170405101D01*
X179701501Y-170538255D01*
X179588255Y-170651501D01*
X179455101Y-170740471D01*
X179307142Y-170801758D01*
X179150075Y-170833000D01*
X178989925Y-170833000D01*
X178832858Y-170801758D01*
X178684899Y-170740471D01*
X178551745Y-170651501D01*
X178438499Y-170538255D01*
X178349529Y-170405101D01*
X178288242Y-170257142D01*
X178257000Y-170100075D01*
X178257000Y-169939925D01*
X178288242Y-169782858D01*
X178349529Y-169634899D01*
X178438499Y-169501745D01*
X178551745Y-169388499D01*
X178684899Y-169299529D01*
X178832858Y-169238242D01*
X178989925Y-169207000D01*
X179150075Y-169207000D01*
X179307142Y-169238242D01*
G37*
G36*
X108187142Y-149238242D02*
G01*
X108335101Y-149299529D01*
X108468255Y-149388499D01*
X108581501Y-149501745D01*
X108670471Y-149634899D01*
X108731758Y-149782858D01*
X108763000Y-149939925D01*
X108763000Y-150100075D01*
X108731758Y-150257142D01*
X108670471Y-150405101D01*
X108581501Y-150538255D01*
X108468255Y-150651501D01*
X108335101Y-150740471D01*
X108187142Y-150801758D01*
X108030075Y-150833000D01*
X107869925Y-150833000D01*
X107712858Y-150801758D01*
X107564899Y-150740471D01*
X107431745Y-150651501D01*
X107318499Y-150538255D01*
X107229529Y-150405101D01*
X107168242Y-150257142D01*
X107137000Y-150100075D01*
X107137000Y-149939925D01*
X107168242Y-149782858D01*
X107229529Y-149634899D01*
X107318499Y-149501745D01*
X107431745Y-149388499D01*
X107564899Y-149299529D01*
X107712858Y-149238242D01*
X107869925Y-149207000D01*
X108030075Y-149207000D01*
X108187142Y-149238242D01*
G37*
G36*
X105647142Y-149238242D02*
G01*
X105795101Y-149299529D01*
X105928255Y-149388499D01*
X106041501Y-149501745D01*
X106130471Y-149634899D01*
X106191758Y-149782858D01*
X106223000Y-149939925D01*
X106223000Y-150100075D01*
X106191758Y-150257142D01*
X106130471Y-150405101D01*
X106041501Y-150538255D01*
X105928255Y-150651501D01*
X105795101Y-150740471D01*
X105647142Y-150801758D01*
X105490075Y-150833000D01*
X105329925Y-150833000D01*
X105172858Y-150801758D01*
X105024899Y-150740471D01*
X104891745Y-150651501D01*
X104778499Y-150538255D01*
X104689529Y-150405101D01*
X104628242Y-150257142D01*
X104597000Y-150100075D01*
X104597000Y-149939925D01*
X104628242Y-149782858D01*
X104689529Y-149634899D01*
X104778499Y-149501745D01*
X104891745Y-149388499D01*
X105024899Y-149299529D01*
X105172858Y-149238242D01*
X105329925Y-149207000D01*
X105490075Y-149207000D01*
X105647142Y-149238242D01*
G37*
G36*
X103107142Y-149238242D02*
G01*
X103255101Y-149299529D01*
X103388255Y-149388499D01*
X103501501Y-149501745D01*
X103590471Y-149634899D01*
X103651758Y-149782858D01*
X103683000Y-149939925D01*
X103683000Y-150100075D01*
X103651758Y-150257142D01*
X103590471Y-150405101D01*
X103501501Y-150538255D01*
X103388255Y-150651501D01*
X103255101Y-150740471D01*
X103107142Y-150801758D01*
X102950075Y-150833000D01*
X102789925Y-150833000D01*
X102632858Y-150801758D01*
X102484899Y-150740471D01*
X102351745Y-150651501D01*
X102238499Y-150538255D01*
X102149529Y-150405101D01*
X102088242Y-150257142D01*
X102057000Y-150100075D01*
X102057000Y-149939925D01*
X102088242Y-149782858D01*
X102149529Y-149634899D01*
X102238499Y-149501745D01*
X102351745Y-149388499D01*
X102484899Y-149299529D01*
X102632858Y-149238242D01*
X102789925Y-149207000D01*
X102950075Y-149207000D01*
X103107142Y-149238242D01*
G37*
G36*
X100567142Y-149238242D02*
G01*
X100715101Y-149299529D01*
X100848255Y-149388499D01*
X100961501Y-149501745D01*
X101050471Y-149634899D01*
X101111758Y-149782858D01*
X101143000Y-149939925D01*
X101143000Y-150100075D01*
X101111758Y-150257142D01*
X101050471Y-150405101D01*
X100961501Y-150538255D01*
X100848255Y-150651501D01*
X100715101Y-150740471D01*
X100567142Y-150801758D01*
X100410075Y-150833000D01*
X100249925Y-150833000D01*
X100092858Y-150801758D01*
X99944899Y-150740471D01*
X99811745Y-150651501D01*
X99698499Y-150538255D01*
X99609529Y-150405101D01*
X99548242Y-150257142D01*
X99517000Y-150100075D01*
X99517000Y-149939925D01*
X99548242Y-149782858D01*
X99609529Y-149634899D01*
X99698499Y-149501745D01*
X99811745Y-149388499D01*
X99944899Y-149299529D01*
X100092858Y-149238242D01*
X100249925Y-149207000D01*
X100410075Y-149207000D01*
X100567142Y-149238242D01*
G37*
G36*
X171687142Y-149238242D02*
G01*
X171835101Y-149299529D01*
X171968255Y-149388499D01*
X172081501Y-149501745D01*
X172170471Y-149634899D01*
X172231758Y-149782858D01*
X172263000Y-149939925D01*
X172263000Y-150100075D01*
X172231758Y-150257142D01*
X172170471Y-150405101D01*
X172081501Y-150538255D01*
X171968255Y-150651501D01*
X171835101Y-150740471D01*
X171687142Y-150801758D01*
X171530075Y-150833000D01*
X171369925Y-150833000D01*
X171212858Y-150801758D01*
X171064899Y-150740471D01*
X170931745Y-150651501D01*
X170818499Y-150538255D01*
X170729529Y-150405101D01*
X170668242Y-150257142D01*
X170637000Y-150100075D01*
X170637000Y-149939925D01*
X170668242Y-149782858D01*
X170729529Y-149634899D01*
X170818499Y-149501745D01*
X170931745Y-149388499D01*
X171064899Y-149299529D01*
X171212858Y-149238242D01*
X171369925Y-149207000D01*
X171530075Y-149207000D01*
X171687142Y-149238242D01*
G37*
G36*
X174227142Y-149238242D02*
G01*
X174375101Y-149299529D01*
X174508255Y-149388499D01*
X174621501Y-149501745D01*
X174710471Y-149634899D01*
X174771758Y-149782858D01*
X174803000Y-149939925D01*
X174803000Y-150100075D01*
X174771758Y-150257142D01*
X174710471Y-150405101D01*
X174621501Y-150538255D01*
X174508255Y-150651501D01*
X174375101Y-150740471D01*
X174227142Y-150801758D01*
X174070075Y-150833000D01*
X173909925Y-150833000D01*
X173752858Y-150801758D01*
X173604899Y-150740471D01*
X173471745Y-150651501D01*
X173358499Y-150538255D01*
X173269529Y-150405101D01*
X173208242Y-150257142D01*
X173177000Y-150100075D01*
X173177000Y-149939925D01*
X173208242Y-149782858D01*
X173269529Y-149634899D01*
X173358499Y-149501745D01*
X173471745Y-149388499D01*
X173604899Y-149299529D01*
X173752858Y-149238242D01*
X173909925Y-149207000D01*
X174070075Y-149207000D01*
X174227142Y-149238242D01*
G37*
G36*
X176767142Y-149238242D02*
G01*
X176915101Y-149299529D01*
X177048255Y-149388499D01*
X177161501Y-149501745D01*
X177250471Y-149634899D01*
X177311758Y-149782858D01*
X177343000Y-149939925D01*
X177343000Y-150100075D01*
X177311758Y-150257142D01*
X177250471Y-150405101D01*
X177161501Y-150538255D01*
X177048255Y-150651501D01*
X176915101Y-150740471D01*
X176767142Y-150801758D01*
X176610075Y-150833000D01*
X176449925Y-150833000D01*
X176292858Y-150801758D01*
X176144899Y-150740471D01*
X176011745Y-150651501D01*
X175898499Y-150538255D01*
X175809529Y-150405101D01*
X175748242Y-150257142D01*
X175717000Y-150100075D01*
X175717000Y-149939925D01*
X175748242Y-149782858D01*
X175809529Y-149634899D01*
X175898499Y-149501745D01*
X176011745Y-149388499D01*
X176144899Y-149299529D01*
X176292858Y-149238242D01*
X176449925Y-149207000D01*
X176610075Y-149207000D01*
X176767142Y-149238242D01*
G37*
G36*
X169147142Y-149238242D02*
G01*
X169295101Y-149299529D01*
X169428255Y-149388499D01*
X169541501Y-149501745D01*
X169630471Y-149634899D01*
X169691758Y-149782858D01*
X169723000Y-149939925D01*
X169723000Y-150100075D01*
X169691758Y-150257142D01*
X169630471Y-150405101D01*
X169541501Y-150538255D01*
X169428255Y-150651501D01*
X169295101Y-150740471D01*
X169147142Y-150801758D01*
X168990075Y-150833000D01*
X168829925Y-150833000D01*
X168672858Y-150801758D01*
X168524899Y-150740471D01*
X168391745Y-150651501D01*
X168278499Y-150538255D01*
X168189529Y-150405101D01*
X168128242Y-150257142D01*
X168097000Y-150100075D01*
X168097000Y-149939925D01*
X168128242Y-149782858D01*
X168189529Y-149634899D01*
X168278499Y-149501745D01*
X168391745Y-149388499D01*
X168524899Y-149299529D01*
X168672858Y-149238242D01*
X168829925Y-149207000D01*
X168990075Y-149207000D01*
X169147142Y-149238242D01*
G37*
G36*
X149024547Y-108590326D02*
G01*
X149198156Y-108642990D01*
X149198158Y-108642991D01*
X149358155Y-108728511D01*
X149498397Y-108843603D01*
X149577729Y-108940271D01*
X149613489Y-108983844D01*
X149699010Y-109143843D01*
X149751674Y-109317452D01*
X149765000Y-109452756D01*
X149765000Y-110003243D01*
X149751674Y-110138548D01*
X149699010Y-110312157D01*
X149613489Y-110472156D01*
X149577729Y-110515729D01*
X149498397Y-110612397D01*
X149401729Y-110691729D01*
X149358156Y-110727489D01*
X149198157Y-110813010D01*
X149024548Y-110865674D01*
X148844000Y-110883456D01*
X148663453Y-110865674D01*
X148489844Y-110813010D01*
X148329845Y-110727489D01*
X148286272Y-110691729D01*
X148189604Y-110612397D01*
X148074513Y-110472157D01*
X148074512Y-110472155D01*
X147988990Y-110312157D01*
X147936326Y-110138548D01*
X147923000Y-110003244D01*
X147923000Y-109452757D01*
X147936326Y-109317453D01*
X147988990Y-109143844D01*
X148074511Y-108983845D01*
X148074512Y-108983844D01*
X148189603Y-108843603D01*
X148315388Y-108740375D01*
X148329844Y-108728511D01*
X148489843Y-108642990D01*
X148663452Y-108590326D01*
X148844000Y-108572544D01*
X149024547Y-108590326D01*
G37*
G36*
X151564547Y-108590326D02*
G01*
X151738156Y-108642990D01*
X151738158Y-108642991D01*
X151898155Y-108728511D01*
X152038397Y-108843603D01*
X152117729Y-108940271D01*
X152153489Y-108983844D01*
X152239010Y-109143843D01*
X152291674Y-109317452D01*
X152305000Y-109452756D01*
X152305000Y-110003243D01*
X152291674Y-110138548D01*
X152239010Y-110312157D01*
X152153489Y-110472156D01*
X152117729Y-110515729D01*
X152038397Y-110612397D01*
X151941729Y-110691729D01*
X151898156Y-110727489D01*
X151738157Y-110813010D01*
X151564548Y-110865674D01*
X151384000Y-110883456D01*
X151203453Y-110865674D01*
X151029844Y-110813010D01*
X150869845Y-110727489D01*
X150826272Y-110691729D01*
X150729604Y-110612397D01*
X150614513Y-110472157D01*
X150614512Y-110472155D01*
X150528990Y-110312157D01*
X150476326Y-110138548D01*
X150463000Y-110003244D01*
X150463000Y-109452757D01*
X150476326Y-109317453D01*
X150528990Y-109143844D01*
X150614511Y-108983845D01*
X150614512Y-108983844D01*
X150729603Y-108843603D01*
X150855388Y-108740375D01*
X150869844Y-108728511D01*
X151029843Y-108642990D01*
X151203452Y-108590326D01*
X151384000Y-108572544D01*
X151564547Y-108590326D01*
G37*
G36*
X131244547Y-108590326D02*
G01*
X131418156Y-108642990D01*
X131418158Y-108642991D01*
X131578155Y-108728511D01*
X131718397Y-108843603D01*
X131797729Y-108940271D01*
X131833489Y-108983844D01*
X131919010Y-109143843D01*
X131971674Y-109317452D01*
X131985000Y-109452756D01*
X131985000Y-110003243D01*
X131971674Y-110138548D01*
X131919010Y-110312157D01*
X131833489Y-110472156D01*
X131797729Y-110515729D01*
X131718397Y-110612397D01*
X131621729Y-110691729D01*
X131578156Y-110727489D01*
X131418157Y-110813010D01*
X131244548Y-110865674D01*
X131064000Y-110883456D01*
X130883453Y-110865674D01*
X130709844Y-110813010D01*
X130549845Y-110727489D01*
X130506272Y-110691729D01*
X130409604Y-110612397D01*
X130294513Y-110472157D01*
X130294512Y-110472155D01*
X130208990Y-110312157D01*
X130156326Y-110138548D01*
X130143000Y-110003244D01*
X130143000Y-109452757D01*
X130156326Y-109317453D01*
X130208990Y-109143844D01*
X130294511Y-108983845D01*
X130294512Y-108983844D01*
X130409603Y-108843603D01*
X130535388Y-108740375D01*
X130549844Y-108728511D01*
X130709843Y-108642990D01*
X130883452Y-108590326D01*
X131064000Y-108572544D01*
X131244547Y-108590326D01*
G37*
G36*
X133784547Y-108590326D02*
G01*
X133958156Y-108642990D01*
X133958158Y-108642991D01*
X134118155Y-108728511D01*
X134258397Y-108843603D01*
X134337729Y-108940271D01*
X134373489Y-108983844D01*
X134459010Y-109143843D01*
X134511674Y-109317452D01*
X134525000Y-109452756D01*
X134525000Y-110003243D01*
X134511674Y-110138548D01*
X134459010Y-110312157D01*
X134373489Y-110472156D01*
X134337729Y-110515729D01*
X134258397Y-110612397D01*
X134161729Y-110691729D01*
X134118156Y-110727489D01*
X133958157Y-110813010D01*
X133784548Y-110865674D01*
X133604000Y-110883456D01*
X133423453Y-110865674D01*
X133249844Y-110813010D01*
X133089845Y-110727489D01*
X133046272Y-110691729D01*
X132949604Y-110612397D01*
X132834513Y-110472157D01*
X132834512Y-110472155D01*
X132748990Y-110312157D01*
X132696326Y-110138548D01*
X132683000Y-110003244D01*
X132683000Y-109452757D01*
X132696326Y-109317453D01*
X132748990Y-109143844D01*
X132834511Y-108983845D01*
X132834512Y-108983844D01*
X132949603Y-108843603D01*
X133075388Y-108740375D01*
X133089844Y-108728511D01*
X133249843Y-108642990D01*
X133423452Y-108590326D01*
X133604000Y-108572544D01*
X133784547Y-108590326D01*
G37*
G36*
X136324547Y-108590326D02*
G01*
X136498156Y-108642990D01*
X136498158Y-108642991D01*
X136658155Y-108728511D01*
X136798397Y-108843603D01*
X136877729Y-108940271D01*
X136913489Y-108983844D01*
X136999010Y-109143843D01*
X137051674Y-109317452D01*
X137065000Y-109452756D01*
X137065000Y-110003243D01*
X137051674Y-110138548D01*
X136999010Y-110312157D01*
X136913489Y-110472156D01*
X136877729Y-110515729D01*
X136798397Y-110612397D01*
X136701729Y-110691729D01*
X136658156Y-110727489D01*
X136498157Y-110813010D01*
X136324548Y-110865674D01*
X136144000Y-110883456D01*
X135963453Y-110865674D01*
X135789844Y-110813010D01*
X135629845Y-110727489D01*
X135586272Y-110691729D01*
X135489604Y-110612397D01*
X135374513Y-110472157D01*
X135374512Y-110472155D01*
X135288990Y-110312157D01*
X135236326Y-110138548D01*
X135223000Y-110003244D01*
X135223000Y-109452757D01*
X135236326Y-109317453D01*
X135288990Y-109143844D01*
X135374511Y-108983845D01*
X135374512Y-108983844D01*
X135489603Y-108843603D01*
X135615388Y-108740375D01*
X135629844Y-108728511D01*
X135789843Y-108642990D01*
X135963452Y-108590326D01*
X136144000Y-108572544D01*
X136324547Y-108590326D01*
G37*
G36*
X138864547Y-108590326D02*
G01*
X139038156Y-108642990D01*
X139038158Y-108642991D01*
X139198155Y-108728511D01*
X139338397Y-108843603D01*
X139417729Y-108940271D01*
X139453489Y-108983844D01*
X139539010Y-109143843D01*
X139591674Y-109317452D01*
X139605000Y-109452756D01*
X139605000Y-110003243D01*
X139591674Y-110138548D01*
X139539010Y-110312157D01*
X139453489Y-110472156D01*
X139417729Y-110515729D01*
X139338397Y-110612397D01*
X139241729Y-110691729D01*
X139198156Y-110727489D01*
X139038157Y-110813010D01*
X138864548Y-110865674D01*
X138684000Y-110883456D01*
X138503453Y-110865674D01*
X138329844Y-110813010D01*
X138169845Y-110727489D01*
X138126272Y-110691729D01*
X138029604Y-110612397D01*
X137914513Y-110472157D01*
X137914512Y-110472155D01*
X137828990Y-110312157D01*
X137776326Y-110138548D01*
X137763000Y-110003244D01*
X137763000Y-109452757D01*
X137776326Y-109317453D01*
X137828990Y-109143844D01*
X137914511Y-108983845D01*
X137914512Y-108983844D01*
X138029603Y-108843603D01*
X138155388Y-108740375D01*
X138169844Y-108728511D01*
X138329843Y-108642990D01*
X138503452Y-108590326D01*
X138684000Y-108572544D01*
X138864547Y-108590326D01*
G37*
G36*
X141404547Y-108590326D02*
G01*
X141578156Y-108642990D01*
X141578158Y-108642991D01*
X141738155Y-108728511D01*
X141878397Y-108843603D01*
X141957729Y-108940271D01*
X141993489Y-108983844D01*
X142079010Y-109143843D01*
X142131674Y-109317452D01*
X142145000Y-109452756D01*
X142145000Y-110003243D01*
X142131674Y-110138548D01*
X142079010Y-110312157D01*
X141993489Y-110472156D01*
X141957729Y-110515729D01*
X141878397Y-110612397D01*
X141781729Y-110691729D01*
X141738156Y-110727489D01*
X141578157Y-110813010D01*
X141404548Y-110865674D01*
X141224000Y-110883456D01*
X141043453Y-110865674D01*
X140869844Y-110813010D01*
X140709845Y-110727489D01*
X140666272Y-110691729D01*
X140569604Y-110612397D01*
X140454513Y-110472157D01*
X140454512Y-110472155D01*
X140368990Y-110312157D01*
X140316326Y-110138548D01*
X140303000Y-110003244D01*
X140303000Y-109452757D01*
X140316326Y-109317453D01*
X140368990Y-109143844D01*
X140454511Y-108983845D01*
X140454512Y-108983844D01*
X140569603Y-108843603D01*
X140695388Y-108740375D01*
X140709844Y-108728511D01*
X140869843Y-108642990D01*
X141043452Y-108590326D01*
X141224000Y-108572544D01*
X141404547Y-108590326D01*
G37*
G36*
X143944547Y-108590326D02*
G01*
X144118156Y-108642990D01*
X144118158Y-108642991D01*
X144278155Y-108728511D01*
X144418397Y-108843603D01*
X144497729Y-108940271D01*
X144533489Y-108983844D01*
X144619010Y-109143843D01*
X144671674Y-109317452D01*
X144685000Y-109452756D01*
X144685000Y-110003243D01*
X144671674Y-110138548D01*
X144619010Y-110312157D01*
X144533489Y-110472156D01*
X144497729Y-110515729D01*
X144418397Y-110612397D01*
X144321729Y-110691729D01*
X144278156Y-110727489D01*
X144118157Y-110813010D01*
X143944548Y-110865674D01*
X143764000Y-110883456D01*
X143583453Y-110865674D01*
X143409844Y-110813010D01*
X143249845Y-110727489D01*
X143206272Y-110691729D01*
X143109604Y-110612397D01*
X142994513Y-110472157D01*
X142994512Y-110472155D01*
X142908990Y-110312157D01*
X142856326Y-110138548D01*
X142843000Y-110003244D01*
X142843000Y-109452757D01*
X142856326Y-109317453D01*
X142908990Y-109143844D01*
X142994511Y-108983845D01*
X142994512Y-108983844D01*
X143109603Y-108843603D01*
X143235388Y-108740375D01*
X143249844Y-108728511D01*
X143409843Y-108642990D01*
X143583452Y-108590326D01*
X143764000Y-108572544D01*
X143944547Y-108590326D01*
G37*
G36*
X146484547Y-108590326D02*
G01*
X146658156Y-108642990D01*
X146658158Y-108642991D01*
X146818155Y-108728511D01*
X146958397Y-108843603D01*
X147037729Y-108940271D01*
X147073489Y-108983844D01*
X147159010Y-109143843D01*
X147211674Y-109317452D01*
X147225000Y-109452756D01*
X147225000Y-110003243D01*
X147211674Y-110138548D01*
X147159010Y-110312157D01*
X147073489Y-110472156D01*
X147037729Y-110515729D01*
X146958397Y-110612397D01*
X146861729Y-110691729D01*
X146818156Y-110727489D01*
X146658157Y-110813010D01*
X146484548Y-110865674D01*
X146304000Y-110883456D01*
X146123453Y-110865674D01*
X145949844Y-110813010D01*
X145789845Y-110727489D01*
X145746272Y-110691729D01*
X145649604Y-110612397D01*
X145534513Y-110472157D01*
X145534512Y-110472155D01*
X145448990Y-110312157D01*
X145396326Y-110138548D01*
X145383000Y-110003244D01*
X145383000Y-109452757D01*
X145396326Y-109317453D01*
X145448990Y-109143844D01*
X145534511Y-108983845D01*
X145534512Y-108983844D01*
X145649603Y-108843603D01*
X145775388Y-108740375D01*
X145789844Y-108728511D01*
X145949843Y-108642990D01*
X146123452Y-108590326D01*
X146304000Y-108572544D01*
X146484547Y-108590326D01*
G37*
G36*
X129303561Y-108580966D02*
G01*
X129336383Y-108590923D01*
X129366632Y-108607092D01*
X129393148Y-108628852D01*
X129414908Y-108655368D01*
X129431077Y-108685617D01*
X129441034Y-108718439D01*
X129445000Y-108758713D01*
X129445000Y-110697287D01*
X129441034Y-110737561D01*
X129431077Y-110770383D01*
X129414908Y-110800632D01*
X129393148Y-110827148D01*
X129366632Y-110848908D01*
X129336383Y-110865077D01*
X129303561Y-110875034D01*
X129263287Y-110879000D01*
X127784713Y-110879000D01*
X127744439Y-110875034D01*
X127711617Y-110865077D01*
X127681368Y-110848908D01*
X127654852Y-110827148D01*
X127633092Y-110800632D01*
X127616923Y-110770383D01*
X127606966Y-110737561D01*
X127603000Y-110697287D01*
X127603000Y-108758713D01*
X127606966Y-108718439D01*
X127616923Y-108685617D01*
X127633092Y-108655368D01*
X127654852Y-108628852D01*
X127681368Y-108607092D01*
X127711617Y-108590923D01*
X127744439Y-108580966D01*
X127784713Y-108577000D01*
X129263287Y-108577000D01*
X129303561Y-108580966D01*
G37*
G36*
X176767142Y-67638242D02*
G01*
X176915101Y-67699529D01*
X177048255Y-67788499D01*
X177161501Y-67901745D01*
X177250471Y-68034899D01*
X177311758Y-68182858D01*
X177343000Y-68339925D01*
X177343000Y-68500075D01*
X177311758Y-68657142D01*
X177250471Y-68805101D01*
X177161501Y-68938255D01*
X177048255Y-69051501D01*
X176915101Y-69140471D01*
X176767142Y-69201758D01*
X176610075Y-69233000D01*
X176449925Y-69233000D01*
X176292858Y-69201758D01*
X176144899Y-69140471D01*
X176011745Y-69051501D01*
X175898499Y-68938255D01*
X175809529Y-68805101D01*
X175748242Y-68657142D01*
X175717000Y-68500075D01*
X175717000Y-68339925D01*
X175748242Y-68182858D01*
X175809529Y-68034899D01*
X175898499Y-67901745D01*
X176011745Y-67788499D01*
X176144899Y-67699529D01*
X176292858Y-67638242D01*
X176449925Y-67607000D01*
X176610075Y-67607000D01*
X176767142Y-67638242D01*
G37*
G36*
X174227142Y-67638242D02*
G01*
X174375101Y-67699529D01*
X174508255Y-67788499D01*
X174621501Y-67901745D01*
X174710471Y-68034899D01*
X174771758Y-68182858D01*
X174803000Y-68339925D01*
X174803000Y-68500075D01*
X174771758Y-68657142D01*
X174710471Y-68805101D01*
X174621501Y-68938255D01*
X174508255Y-69051501D01*
X174375101Y-69140471D01*
X174227142Y-69201758D01*
X174070075Y-69233000D01*
X173909925Y-69233000D01*
X173752858Y-69201758D01*
X173604899Y-69140471D01*
X173471745Y-69051501D01*
X173358499Y-68938255D01*
X173269529Y-68805101D01*
X173208242Y-68657142D01*
X173177000Y-68500075D01*
X173177000Y-68339925D01*
X173208242Y-68182858D01*
X173269529Y-68034899D01*
X173358499Y-67901745D01*
X173471745Y-67788499D01*
X173604899Y-67699529D01*
X173752858Y-67638242D01*
X173909925Y-67607000D01*
X174070075Y-67607000D01*
X174227142Y-67638242D01*
G37*
G36*
X171687142Y-67638242D02*
G01*
X171835101Y-67699529D01*
X171968255Y-67788499D01*
X172081501Y-67901745D01*
X172170471Y-68034899D01*
X172231758Y-68182858D01*
X172263000Y-68339925D01*
X172263000Y-68500075D01*
X172231758Y-68657142D01*
X172170471Y-68805101D01*
X172081501Y-68938255D01*
X171968255Y-69051501D01*
X171835101Y-69140471D01*
X171687142Y-69201758D01*
X171530075Y-69233000D01*
X171369925Y-69233000D01*
X171212858Y-69201758D01*
X171064899Y-69140471D01*
X170931745Y-69051501D01*
X170818499Y-68938255D01*
X170729529Y-68805101D01*
X170668242Y-68657142D01*
X170637000Y-68500075D01*
X170637000Y-68339925D01*
X170668242Y-68182858D01*
X170729529Y-68034899D01*
X170818499Y-67901745D01*
X170931745Y-67788499D01*
X171064899Y-67699529D01*
X171212858Y-67638242D01*
X171369925Y-67607000D01*
X171530075Y-67607000D01*
X171687142Y-67638242D01*
G37*
G36*
X169147142Y-67638242D02*
G01*
X169295101Y-67699529D01*
X169428255Y-67788499D01*
X169541501Y-67901745D01*
X169630471Y-68034899D01*
X169691758Y-68182858D01*
X169723000Y-68339925D01*
X169723000Y-68500075D01*
X169691758Y-68657142D01*
X169630471Y-68805101D01*
X169541501Y-68938255D01*
X169428255Y-69051501D01*
X169295101Y-69140471D01*
X169147142Y-69201758D01*
X168990075Y-69233000D01*
X168829925Y-69233000D01*
X168672858Y-69201758D01*
X168524899Y-69140471D01*
X168391745Y-69051501D01*
X168278499Y-68938255D01*
X168189529Y-68805101D01*
X168128242Y-68657142D01*
X168097000Y-68500075D01*
X168097000Y-68339925D01*
X168128242Y-68182858D01*
X168189529Y-68034899D01*
X168278499Y-67901745D01*
X168391745Y-67788499D01*
X168524899Y-67699529D01*
X168672858Y-67638242D01*
X168829925Y-67607000D01*
X168990075Y-67607000D01*
X169147142Y-67638242D01*
G37*
G36*
X110727142Y-67638242D02*
G01*
X110875101Y-67699529D01*
X111008255Y-67788499D01*
X111121501Y-67901745D01*
X111210471Y-68034899D01*
X111271758Y-68182858D01*
X111303000Y-68339925D01*
X111303000Y-68500075D01*
X111271758Y-68657142D01*
X111210471Y-68805101D01*
X111121501Y-68938255D01*
X111008255Y-69051501D01*
X110875101Y-69140471D01*
X110727142Y-69201758D01*
X110570075Y-69233000D01*
X110409925Y-69233000D01*
X110252858Y-69201758D01*
X110104899Y-69140471D01*
X109971745Y-69051501D01*
X109858499Y-68938255D01*
X109769529Y-68805101D01*
X109708242Y-68657142D01*
X109677000Y-68500075D01*
X109677000Y-68339925D01*
X109708242Y-68182858D01*
X109769529Y-68034899D01*
X109858499Y-67901745D01*
X109971745Y-67788499D01*
X110104899Y-67699529D01*
X110252858Y-67638242D01*
X110409925Y-67607000D01*
X110570075Y-67607000D01*
X110727142Y-67638242D01*
G37*
G36*
X108187142Y-67638242D02*
G01*
X108335101Y-67699529D01*
X108468255Y-67788499D01*
X108581501Y-67901745D01*
X108670471Y-68034899D01*
X108731758Y-68182858D01*
X108763000Y-68339925D01*
X108763000Y-68500075D01*
X108731758Y-68657142D01*
X108670471Y-68805101D01*
X108581501Y-68938255D01*
X108468255Y-69051501D01*
X108335101Y-69140471D01*
X108187142Y-69201758D01*
X108030075Y-69233000D01*
X107869925Y-69233000D01*
X107712858Y-69201758D01*
X107564899Y-69140471D01*
X107431745Y-69051501D01*
X107318499Y-68938255D01*
X107229529Y-68805101D01*
X107168242Y-68657142D01*
X107137000Y-68500075D01*
X107137000Y-68339925D01*
X107168242Y-68182858D01*
X107229529Y-68034899D01*
X107318499Y-67901745D01*
X107431745Y-67788499D01*
X107564899Y-67699529D01*
X107712858Y-67638242D01*
X107869925Y-67607000D01*
X108030075Y-67607000D01*
X108187142Y-67638242D01*
G37*
G36*
X105647142Y-67638242D02*
G01*
X105795101Y-67699529D01*
X105928255Y-67788499D01*
X106041501Y-67901745D01*
X106130471Y-68034899D01*
X106191758Y-68182858D01*
X106223000Y-68339925D01*
X106223000Y-68500075D01*
X106191758Y-68657142D01*
X106130471Y-68805101D01*
X106041501Y-68938255D01*
X105928255Y-69051501D01*
X105795101Y-69140471D01*
X105647142Y-69201758D01*
X105490075Y-69233000D01*
X105329925Y-69233000D01*
X105172858Y-69201758D01*
X105024899Y-69140471D01*
X104891745Y-69051501D01*
X104778499Y-68938255D01*
X104689529Y-68805101D01*
X104628242Y-68657142D01*
X104597000Y-68500075D01*
X104597000Y-68339925D01*
X104628242Y-68182858D01*
X104689529Y-68034899D01*
X104778499Y-67901745D01*
X104891745Y-67788499D01*
X105024899Y-67699529D01*
X105172858Y-67638242D01*
X105329925Y-67607000D01*
X105490075Y-67607000D01*
X105647142Y-67638242D01*
G37*
G36*
X103107142Y-67638242D02*
G01*
X103255101Y-67699529D01*
X103388255Y-67788499D01*
X103501501Y-67901745D01*
X103590471Y-68034899D01*
X103651758Y-68182858D01*
X103683000Y-68339925D01*
X103683000Y-68500075D01*
X103651758Y-68657142D01*
X103590471Y-68805101D01*
X103501501Y-68938255D01*
X103388255Y-69051501D01*
X103255101Y-69140471D01*
X103107142Y-69201758D01*
X102950075Y-69233000D01*
X102789925Y-69233000D01*
X102632858Y-69201758D01*
X102484899Y-69140471D01*
X102351745Y-69051501D01*
X102238499Y-68938255D01*
X102149529Y-68805101D01*
X102088242Y-68657142D01*
X102057000Y-68500075D01*
X102057000Y-68339925D01*
X102088242Y-68182858D01*
X102149529Y-68034899D01*
X102238499Y-67901745D01*
X102351745Y-67788499D01*
X102484899Y-67699529D01*
X102632858Y-67638242D01*
X102789925Y-67607000D01*
X102950075Y-67607000D01*
X103107142Y-67638242D01*
G37*
G36*
X113267142Y-47638242D02*
G01*
X113415101Y-47699529D01*
X113548255Y-47788499D01*
X113661501Y-47901745D01*
X113750471Y-48034899D01*
X113811758Y-48182858D01*
X113843000Y-48339925D01*
X113843000Y-48500075D01*
X113811758Y-48657142D01*
X113750471Y-48805101D01*
X113661501Y-48938255D01*
X113548255Y-49051501D01*
X113415101Y-49140471D01*
X113267142Y-49201758D01*
X113110075Y-49233000D01*
X112949925Y-49233000D01*
X112792858Y-49201758D01*
X112644899Y-49140471D01*
X112511745Y-49051501D01*
X112398499Y-48938255D01*
X112309529Y-48805101D01*
X112248242Y-48657142D01*
X112217000Y-48500075D01*
X112217000Y-48339925D01*
X112248242Y-48182858D01*
X112309529Y-48034899D01*
X112398499Y-47901745D01*
X112511745Y-47788499D01*
X112644899Y-47699529D01*
X112792858Y-47638242D01*
X112949925Y-47607000D01*
X113110075Y-47607000D01*
X113267142Y-47638242D01*
G37*
G36*
X110727142Y-47638242D02*
G01*
X110875101Y-47699529D01*
X111008255Y-47788499D01*
X111121501Y-47901745D01*
X111210471Y-48034899D01*
X111271758Y-48182858D01*
X111303000Y-48339925D01*
X111303000Y-48500075D01*
X111271758Y-48657142D01*
X111210471Y-48805101D01*
X111121501Y-48938255D01*
X111008255Y-49051501D01*
X110875101Y-49140471D01*
X110727142Y-49201758D01*
X110570075Y-49233000D01*
X110409925Y-49233000D01*
X110252858Y-49201758D01*
X110104899Y-49140471D01*
X109971745Y-49051501D01*
X109858499Y-48938255D01*
X109769529Y-48805101D01*
X109708242Y-48657142D01*
X109677000Y-48500075D01*
X109677000Y-48339925D01*
X109708242Y-48182858D01*
X109769529Y-48034899D01*
X109858499Y-47901745D01*
X109971745Y-47788499D01*
X110104899Y-47699529D01*
X110252858Y-47638242D01*
X110409925Y-47607000D01*
X110570075Y-47607000D01*
X110727142Y-47638242D01*
G37*
G36*
X100567142Y-47638242D02*
G01*
X100715101Y-47699529D01*
X100848255Y-47788499D01*
X100961501Y-47901745D01*
X101050471Y-48034899D01*
X101111758Y-48182858D01*
X101143000Y-48339925D01*
X101143000Y-48500075D01*
X101111758Y-48657142D01*
X101050471Y-48805101D01*
X100961501Y-48938255D01*
X100848255Y-49051501D01*
X100715101Y-49140471D01*
X100567142Y-49201758D01*
X100410075Y-49233000D01*
X100249925Y-49233000D01*
X100092858Y-49201758D01*
X99944899Y-49140471D01*
X99811745Y-49051501D01*
X99698499Y-48938255D01*
X99609529Y-48805101D01*
X99548242Y-48657142D01*
X99517000Y-48500075D01*
X99517000Y-48339925D01*
X99548242Y-48182858D01*
X99609529Y-48034899D01*
X99698499Y-47901745D01*
X99811745Y-47788499D01*
X99944899Y-47699529D01*
X100092858Y-47638242D01*
X100249925Y-47607000D01*
X100410075Y-47607000D01*
X100567142Y-47638242D01*
G37*
G36*
X105647142Y-47638242D02*
G01*
X105795101Y-47699529D01*
X105928255Y-47788499D01*
X106041501Y-47901745D01*
X106130471Y-48034899D01*
X106191758Y-48182858D01*
X106223000Y-48339925D01*
X106223000Y-48500075D01*
X106191758Y-48657142D01*
X106130471Y-48805101D01*
X106041501Y-48938255D01*
X105928255Y-49051501D01*
X105795101Y-49140471D01*
X105647142Y-49201758D01*
X105490075Y-49233000D01*
X105329925Y-49233000D01*
X105172858Y-49201758D01*
X105024899Y-49140471D01*
X104891745Y-49051501D01*
X104778499Y-48938255D01*
X104689529Y-48805101D01*
X104628242Y-48657142D01*
X104597000Y-48500075D01*
X104597000Y-48339925D01*
X104628242Y-48182858D01*
X104689529Y-48034899D01*
X104778499Y-47901745D01*
X104891745Y-47788499D01*
X105024899Y-47699529D01*
X105172858Y-47638242D01*
X105329925Y-47607000D01*
X105490075Y-47607000D01*
X105647142Y-47638242D01*
G37*
G36*
X103107142Y-47638242D02*
G01*
X103255101Y-47699529D01*
X103388255Y-47788499D01*
X103501501Y-47901745D01*
X103590471Y-48034899D01*
X103651758Y-48182858D01*
X103683000Y-48339925D01*
X103683000Y-48500075D01*
X103651758Y-48657142D01*
X103590471Y-48805101D01*
X103501501Y-48938255D01*
X103388255Y-49051501D01*
X103255101Y-49140471D01*
X103107142Y-49201758D01*
X102950075Y-49233000D01*
X102789925Y-49233000D01*
X102632858Y-49201758D01*
X102484899Y-49140471D01*
X102351745Y-49051501D01*
X102238499Y-48938255D01*
X102149529Y-48805101D01*
X102088242Y-48657142D01*
X102057000Y-48500075D01*
X102057000Y-48339925D01*
X102088242Y-48182858D01*
X102149529Y-48034899D01*
X102238499Y-47901745D01*
X102351745Y-47788499D01*
X102484899Y-47699529D01*
X102632858Y-47638242D01*
X102789925Y-47607000D01*
X102950075Y-47607000D01*
X103107142Y-47638242D01*
G37*
G36*
X176767142Y-47638242D02*
G01*
X176915101Y-47699529D01*
X177048255Y-47788499D01*
X177161501Y-47901745D01*
X177250471Y-48034899D01*
X177311758Y-48182858D01*
X177343000Y-48339925D01*
X177343000Y-48500075D01*
X177311758Y-48657142D01*
X177250471Y-48805101D01*
X177161501Y-48938255D01*
X177048255Y-49051501D01*
X176915101Y-49140471D01*
X176767142Y-49201758D01*
X176610075Y-49233000D01*
X176449925Y-49233000D01*
X176292858Y-49201758D01*
X176144899Y-49140471D01*
X176011745Y-49051501D01*
X175898499Y-48938255D01*
X175809529Y-48805101D01*
X175748242Y-48657142D01*
X175717000Y-48500075D01*
X175717000Y-48339925D01*
X175748242Y-48182858D01*
X175809529Y-48034899D01*
X175898499Y-47901745D01*
X176011745Y-47788499D01*
X176144899Y-47699529D01*
X176292858Y-47638242D01*
X176449925Y-47607000D01*
X176610075Y-47607000D01*
X176767142Y-47638242D01*
G37*
G36*
X174227142Y-47638242D02*
G01*
X174375101Y-47699529D01*
X174508255Y-47788499D01*
X174621501Y-47901745D01*
X174710471Y-48034899D01*
X174771758Y-48182858D01*
X174803000Y-48339925D01*
X174803000Y-48500075D01*
X174771758Y-48657142D01*
X174710471Y-48805101D01*
X174621501Y-48938255D01*
X174508255Y-49051501D01*
X174375101Y-49140471D01*
X174227142Y-49201758D01*
X174070075Y-49233000D01*
X173909925Y-49233000D01*
X173752858Y-49201758D01*
X173604899Y-49140471D01*
X173471745Y-49051501D01*
X173358499Y-48938255D01*
X173269529Y-48805101D01*
X173208242Y-48657142D01*
X173177000Y-48500075D01*
X173177000Y-48339925D01*
X173208242Y-48182858D01*
X173269529Y-48034899D01*
X173358499Y-47901745D01*
X173471745Y-47788499D01*
X173604899Y-47699529D01*
X173752858Y-47638242D01*
X173909925Y-47607000D01*
X174070075Y-47607000D01*
X174227142Y-47638242D01*
G37*
G36*
X171687142Y-47638242D02*
G01*
X171835101Y-47699529D01*
X171968255Y-47788499D01*
X172081501Y-47901745D01*
X172170471Y-48034899D01*
X172231758Y-48182858D01*
X172263000Y-48339925D01*
X172263000Y-48500075D01*
X172231758Y-48657142D01*
X172170471Y-48805101D01*
X172081501Y-48938255D01*
X171968255Y-49051501D01*
X171835101Y-49140471D01*
X171687142Y-49201758D01*
X171530075Y-49233000D01*
X171369925Y-49233000D01*
X171212858Y-49201758D01*
X171064899Y-49140471D01*
X170931745Y-49051501D01*
X170818499Y-48938255D01*
X170729529Y-48805101D01*
X170668242Y-48657142D01*
X170637000Y-48500075D01*
X170637000Y-48339925D01*
X170668242Y-48182858D01*
X170729529Y-48034899D01*
X170818499Y-47901745D01*
X170931745Y-47788499D01*
X171064899Y-47699529D01*
X171212858Y-47638242D01*
X171369925Y-47607000D01*
X171530075Y-47607000D01*
X171687142Y-47638242D01*
G37*
G36*
X169147142Y-47638242D02*
G01*
X169295101Y-47699529D01*
X169428255Y-47788499D01*
X169541501Y-47901745D01*
X169630471Y-48034899D01*
X169691758Y-48182858D01*
X169723000Y-48339925D01*
X169723000Y-48500075D01*
X169691758Y-48657142D01*
X169630471Y-48805101D01*
X169541501Y-48938255D01*
X169428255Y-49051501D01*
X169295101Y-49140471D01*
X169147142Y-49201758D01*
X168990075Y-49233000D01*
X168829925Y-49233000D01*
X168672858Y-49201758D01*
X168524899Y-49140471D01*
X168391745Y-49051501D01*
X168278499Y-48938255D01*
X168189529Y-48805101D01*
X168128242Y-48657142D01*
X168097000Y-48500075D01*
X168097000Y-48339925D01*
X168128242Y-48182858D01*
X168189529Y-48034899D01*
X168278499Y-47901745D01*
X168391745Y-47788499D01*
X168524899Y-47699529D01*
X168672858Y-47638242D01*
X168829925Y-47607000D01*
X168990075Y-47607000D01*
X169147142Y-47638242D01*
G37*
G36*
X166607142Y-47638242D02*
G01*
X166755101Y-47699529D01*
X166888255Y-47788499D01*
X167001501Y-47901745D01*
X167090471Y-48034899D01*
X167151758Y-48182858D01*
X167183000Y-48339925D01*
X167183000Y-48500075D01*
X167151758Y-48657142D01*
X167090471Y-48805101D01*
X167001501Y-48938255D01*
X166888255Y-49051501D01*
X166755101Y-49140471D01*
X166607142Y-49201758D01*
X166450075Y-49233000D01*
X166289925Y-49233000D01*
X166132858Y-49201758D01*
X165984899Y-49140471D01*
X165851745Y-49051501D01*
X165738499Y-48938255D01*
X165649529Y-48805101D01*
X165588242Y-48657142D01*
X165557000Y-48500075D01*
X165557000Y-48339925D01*
X165588242Y-48182858D01*
X165649529Y-48034899D01*
X165738499Y-47901745D01*
X165851745Y-47788499D01*
X165984899Y-47699529D01*
X166132858Y-47638242D01*
X166289925Y-47607000D01*
X166450075Y-47607000D01*
X166607142Y-47638242D01*
G37*
G36*
X108187142Y-47638242D02*
G01*
X108335101Y-47699529D01*
X108468255Y-47788499D01*
X108581501Y-47901745D01*
X108670471Y-48034899D01*
X108731758Y-48182858D01*
X108763000Y-48339925D01*
X108763000Y-48500075D01*
X108731758Y-48657142D01*
X108670471Y-48805101D01*
X108581501Y-48938255D01*
X108468255Y-49051501D01*
X108335101Y-49140471D01*
X108187142Y-49201758D01*
X108030075Y-49233000D01*
X107869925Y-49233000D01*
X107712858Y-49201758D01*
X107564899Y-49140471D01*
X107431745Y-49051501D01*
X107318499Y-48938255D01*
X107229529Y-48805101D01*
X107168242Y-48657142D01*
X107137000Y-48500075D01*
X107137000Y-48339925D01*
X107168242Y-48182858D01*
X107229529Y-48034899D01*
X107318499Y-47901745D01*
X107431745Y-47788499D01*
X107564899Y-47699529D01*
X107712858Y-47638242D01*
X107869925Y-47607000D01*
X108030075Y-47607000D01*
X108187142Y-47638242D01*
G37*
G36*
X179307142Y-47638242D02*
G01*
X179455101Y-47699529D01*
X179588255Y-47788499D01*
X179701501Y-47901745D01*
X179790471Y-48034899D01*
X179851758Y-48182858D01*
X179883000Y-48339925D01*
X179883000Y-48500075D01*
X179851758Y-48657142D01*
X179790471Y-48805101D01*
X179701501Y-48938255D01*
X179588255Y-49051501D01*
X179455101Y-49140471D01*
X179307142Y-49201758D01*
X179150075Y-49233000D01*
X178989925Y-49233000D01*
X178832858Y-49201758D01*
X178684899Y-49140471D01*
X178551745Y-49051501D01*
X178438499Y-48938255D01*
X178349529Y-48805101D01*
X178288242Y-48657142D01*
X178257000Y-48500075D01*
X178257000Y-48339925D01*
X178288242Y-48182858D01*
X178349529Y-48034899D01*
X178438499Y-47901745D01*
X178551745Y-47788499D01*
X178684899Y-47699529D01*
X178832858Y-47638242D01*
X178989925Y-47607000D01*
X179150075Y-47607000D01*
X179307142Y-47638242D01*
G37*
G36*
X169344548Y-36862326D02*
G01*
X169518157Y-36914990D01*
X169678156Y-37000511D01*
X169692612Y-37012375D01*
X169818397Y-37115603D01*
X169897729Y-37212271D01*
X169933489Y-37255844D01*
X170019010Y-37415843D01*
X170071674Y-37589452D01*
X170085000Y-37724757D01*
X170085000Y-38275244D01*
X170071674Y-38410548D01*
X170019010Y-38584157D01*
X169933489Y-38744156D01*
X169897729Y-38787729D01*
X169818397Y-38884397D01*
X169678155Y-38999489D01*
X169518156Y-39085010D01*
X169344547Y-39137674D01*
X169164000Y-39155456D01*
X168983452Y-39137674D01*
X168809843Y-39085010D01*
X168649844Y-38999489D01*
X168606271Y-38963729D01*
X168509603Y-38884397D01*
X168394511Y-38744155D01*
X168308991Y-38584158D01*
X168308990Y-38584156D01*
X168256326Y-38410547D01*
X168243000Y-38275243D01*
X168243000Y-37724756D01*
X168256326Y-37589452D01*
X168308990Y-37415843D01*
X168394512Y-37255844D01*
X168404832Y-37243270D01*
X168509604Y-37115603D01*
X168635389Y-37012375D01*
X168649845Y-37000511D01*
X168809844Y-36914990D01*
X168983453Y-36862326D01*
X169164000Y-36844544D01*
X169344548Y-36862326D01*
G37*
G36*
X102796548Y-36862326D02*
G01*
X102970157Y-36914990D01*
X103130156Y-37000511D01*
X103144612Y-37012375D01*
X103270397Y-37115603D01*
X103349729Y-37212271D01*
X103385489Y-37255844D01*
X103471010Y-37415843D01*
X103523674Y-37589452D01*
X103537000Y-37724757D01*
X103537000Y-38275244D01*
X103523674Y-38410548D01*
X103471010Y-38584157D01*
X103385489Y-38744156D01*
X103349729Y-38787729D01*
X103270397Y-38884397D01*
X103130155Y-38999489D01*
X102970156Y-39085010D01*
X102796547Y-39137674D01*
X102616000Y-39155456D01*
X102435452Y-39137674D01*
X102261843Y-39085010D01*
X102101844Y-38999489D01*
X102058271Y-38963729D01*
X101961603Y-38884397D01*
X101846511Y-38744155D01*
X101760991Y-38584158D01*
X101760990Y-38584156D01*
X101708326Y-38410547D01*
X101695000Y-38275243D01*
X101695000Y-37724756D01*
X101708326Y-37589452D01*
X101760990Y-37415843D01*
X101846512Y-37255844D01*
X101856832Y-37243270D01*
X101961604Y-37115603D01*
X102087389Y-37012375D01*
X102101845Y-37000511D01*
X102261844Y-36914990D01*
X102435453Y-36862326D01*
X102616000Y-36844544D01*
X102796548Y-36862326D01*
G37*
G36*
X105336548Y-36862326D02*
G01*
X105510157Y-36914990D01*
X105670156Y-37000511D01*
X105684612Y-37012375D01*
X105810397Y-37115603D01*
X105889729Y-37212271D01*
X105925489Y-37255844D01*
X106011010Y-37415843D01*
X106063674Y-37589452D01*
X106077000Y-37724757D01*
X106077000Y-38275244D01*
X106063674Y-38410548D01*
X106011010Y-38584157D01*
X105925489Y-38744156D01*
X105889729Y-38787729D01*
X105810397Y-38884397D01*
X105670155Y-38999489D01*
X105510156Y-39085010D01*
X105336547Y-39137674D01*
X105156000Y-39155456D01*
X104975452Y-39137674D01*
X104801843Y-39085010D01*
X104641844Y-38999489D01*
X104598271Y-38963729D01*
X104501603Y-38884397D01*
X104386511Y-38744155D01*
X104300991Y-38584158D01*
X104300990Y-38584156D01*
X104248326Y-38410547D01*
X104235000Y-38275243D01*
X104235000Y-37724756D01*
X104248326Y-37589452D01*
X104300990Y-37415843D01*
X104386512Y-37255844D01*
X104396832Y-37243270D01*
X104501604Y-37115603D01*
X104627389Y-37012375D01*
X104641845Y-37000511D01*
X104801844Y-36914990D01*
X104975453Y-36862326D01*
X105156000Y-36844544D01*
X105336548Y-36862326D01*
G37*
G36*
X107876548Y-36862326D02*
G01*
X108050157Y-36914990D01*
X108210156Y-37000511D01*
X108224612Y-37012375D01*
X108350397Y-37115603D01*
X108429729Y-37212271D01*
X108465489Y-37255844D01*
X108551010Y-37415843D01*
X108603674Y-37589452D01*
X108617000Y-37724757D01*
X108617000Y-38275244D01*
X108603674Y-38410548D01*
X108551010Y-38584157D01*
X108465489Y-38744156D01*
X108429729Y-38787729D01*
X108350397Y-38884397D01*
X108210155Y-38999489D01*
X108050156Y-39085010D01*
X107876547Y-39137674D01*
X107696000Y-39155456D01*
X107515452Y-39137674D01*
X107341843Y-39085010D01*
X107181844Y-38999489D01*
X107138271Y-38963729D01*
X107041603Y-38884397D01*
X106926511Y-38744155D01*
X106840991Y-38584158D01*
X106840990Y-38584156D01*
X106788326Y-38410547D01*
X106775000Y-38275243D01*
X106775000Y-37724756D01*
X106788326Y-37589452D01*
X106840990Y-37415843D01*
X106926512Y-37255844D01*
X106936832Y-37243270D01*
X107041604Y-37115603D01*
X107167389Y-37012375D01*
X107181845Y-37000511D01*
X107341844Y-36914990D01*
X107515453Y-36862326D01*
X107696000Y-36844544D01*
X107876548Y-36862326D01*
G37*
G36*
X171884548Y-36862326D02*
G01*
X172058157Y-36914990D01*
X172218156Y-37000511D01*
X172232612Y-37012375D01*
X172358397Y-37115603D01*
X172437729Y-37212271D01*
X172473489Y-37255844D01*
X172559010Y-37415843D01*
X172611674Y-37589452D01*
X172625000Y-37724757D01*
X172625000Y-38275244D01*
X172611674Y-38410548D01*
X172559010Y-38584157D01*
X172473489Y-38744156D01*
X172437729Y-38787729D01*
X172358397Y-38884397D01*
X172218155Y-38999489D01*
X172058156Y-39085010D01*
X171884547Y-39137674D01*
X171704000Y-39155456D01*
X171523452Y-39137674D01*
X171349843Y-39085010D01*
X171189844Y-38999489D01*
X171146271Y-38963729D01*
X171049603Y-38884397D01*
X170934511Y-38744155D01*
X170848991Y-38584158D01*
X170848990Y-38584156D01*
X170796326Y-38410547D01*
X170783000Y-38275243D01*
X170783000Y-37724756D01*
X170796326Y-37589452D01*
X170848990Y-37415843D01*
X170934512Y-37255844D01*
X170944832Y-37243270D01*
X171049604Y-37115603D01*
X171175389Y-37012375D01*
X171189845Y-37000511D01*
X171349844Y-36914990D01*
X171523453Y-36862326D01*
X171704000Y-36844544D01*
X171884548Y-36862326D01*
G37*
G36*
X174424548Y-36862326D02*
G01*
X174598157Y-36914990D01*
X174758156Y-37000511D01*
X174772612Y-37012375D01*
X174898397Y-37115603D01*
X174977729Y-37212271D01*
X175013489Y-37255844D01*
X175099010Y-37415843D01*
X175151674Y-37589452D01*
X175165000Y-37724757D01*
X175165000Y-38275244D01*
X175151674Y-38410548D01*
X175099010Y-38584157D01*
X175013489Y-38744156D01*
X174977729Y-38787729D01*
X174898397Y-38884397D01*
X174758155Y-38999489D01*
X174598156Y-39085010D01*
X174424547Y-39137674D01*
X174244000Y-39155456D01*
X174063452Y-39137674D01*
X173889843Y-39085010D01*
X173729844Y-38999489D01*
X173686271Y-38963729D01*
X173589603Y-38884397D01*
X173474511Y-38744155D01*
X173388991Y-38584158D01*
X173388990Y-38584156D01*
X173336326Y-38410547D01*
X173323000Y-38275243D01*
X173323000Y-37724756D01*
X173336326Y-37589452D01*
X173388990Y-37415843D01*
X173474512Y-37255844D01*
X173484832Y-37243270D01*
X173589604Y-37115603D01*
X173715389Y-37012375D01*
X173729845Y-37000511D01*
X173889844Y-36914990D01*
X174063453Y-36862326D01*
X174244000Y-36844544D01*
X174424548Y-36862326D01*
G37*
G36*
X111015561Y-36852966D02*
G01*
X111048383Y-36862923D01*
X111078632Y-36879092D01*
X111105148Y-36900852D01*
X111126908Y-36927368D01*
X111143077Y-36957617D01*
X111153034Y-36990439D01*
X111157000Y-37030713D01*
X111157000Y-38969287D01*
X111153034Y-39009561D01*
X111143077Y-39042383D01*
X111126908Y-39072632D01*
X111105148Y-39099148D01*
X111078632Y-39120908D01*
X111048383Y-39137077D01*
X111015561Y-39147034D01*
X110975287Y-39151000D01*
X109496713Y-39151000D01*
X109456439Y-39147034D01*
X109423617Y-39137077D01*
X109393368Y-39120908D01*
X109366852Y-39099148D01*
X109345092Y-39072632D01*
X109328923Y-39042383D01*
X109318966Y-39009561D01*
X109315000Y-38969287D01*
X109315000Y-37030713D01*
X109318966Y-36990439D01*
X109328923Y-36957617D01*
X109345092Y-36927368D01*
X109366852Y-36900852D01*
X109393368Y-36879092D01*
X109423617Y-36862923D01*
X109456439Y-36852966D01*
X109496713Y-36849000D01*
X110975287Y-36849000D01*
X111015561Y-36852966D01*
G37*
G36*
X177563561Y-36852966D02*
G01*
X177596383Y-36862923D01*
X177626632Y-36879092D01*
X177653148Y-36900852D01*
X177674908Y-36927368D01*
X177691077Y-36957617D01*
X177701034Y-36990439D01*
X177705000Y-37030713D01*
X177705000Y-38969287D01*
X177701034Y-39009561D01*
X177691077Y-39042383D01*
X177674908Y-39072632D01*
X177653148Y-39099148D01*
X177626632Y-39120908D01*
X177596383Y-39137077D01*
X177563561Y-39147034D01*
X177523287Y-39151000D01*
X176044713Y-39151000D01*
X176004439Y-39147034D01*
X175971617Y-39137077D01*
X175941368Y-39120908D01*
X175914852Y-39099148D01*
X175893092Y-39072632D01*
X175876923Y-39042383D01*
X175866966Y-39009561D01*
X175863000Y-38969287D01*
X175863000Y-37030713D01*
X175866966Y-36990439D01*
X175876923Y-36957617D01*
X175893092Y-36927368D01*
X175914852Y-36900852D01*
X175941368Y-36879092D01*
X175971617Y-36862923D01*
X176004439Y-36852966D01*
X176044713Y-36849000D01*
X177523287Y-36849000D01*
X177563561Y-36852966D01*
G37*
M02*
