G04 #@! TF.GenerationSoftware,KiCad,Pcbnew,(5.1.5-0)*
G04 #@! TF.CreationDate,2020-03-21T20:29:53+01:00*
G04 #@! TF.ProjectId,saufanlage,73617566-616e-46c6-9167-652e6b696361,v0.1*
G04 #@! TF.SameCoordinates,Original*
G04 #@! TF.FileFunction,Paste,Bot*
G04 #@! TF.FilePolarity,Positive*
%FSLAX46Y46*%
G04 Gerber Fmt 4.6, Leading zero omitted, Abs format (unit mm)*
G04 Created by KiCad (PCBNEW (5.1.5-0)) date 2020-03-21 20:29:53*
%MOMM*%
%LPD*%
G04 APERTURE LIST*
%ADD10C,0.120000*%
%ADD11C,0.050000*%
%ADD12C,0.100000*%
%ADD13C,0.150000*%
G04 APERTURE END LIST*
D10*
X23970000Y-102108000D02*
G75*
G03X23970000Y-102108000I-4000000J0D01*
G01*
X240951000Y-46640000D02*
G75*
G03X240951000Y-46640000I-4000000J0D01*
G01*
X117507000Y-152527000D02*
G75*
G03X117507000Y-152527000I-4000000J0D01*
G01*
X100616000Y-221076000D02*
G75*
G03X100616000Y-221076000I-4000000J0D01*
G01*
X217964000Y-152527000D02*
G75*
G03X217964000Y-152527000I-4000000J0D01*
G01*
X23970000Y-152527000D02*
G75*
G03X23970000Y-152527000I-4000000J0D01*
G01*
X332518000Y-100330000D02*
G75*
G03X332518000Y-100330000I-4000000J0D01*
G01*
X218218000Y-111570000D02*
G75*
G03X218218000Y-111570000I-4000000J0D01*
G01*
X332518000Y-46640000D02*
G75*
G03X332518000Y-46640000I-4000000J0D01*
G01*
X218218000Y-221076000D02*
G75*
G03X218218000Y-221076000I-4000000J0D01*
G01*
X24224000Y-221076000D02*
G75*
G03X24224000Y-221076000I-4000000J0D01*
G01*
X24224000Y-46640000D02*
G75*
G03X24224000Y-46640000I-4000000J0D01*
G01*
D11*
X155956000Y-40640000D02*
X334518000Y-40640000D01*
X334518000Y-106680000D02*
X334518000Y-40640000D01*
X220218000Y-106680000D02*
X334518000Y-106680000D01*
X220218000Y-227076000D02*
X220218000Y-106680000D01*
X14224000Y-227076000D02*
X220218000Y-227076000D01*
X14224000Y-40640000D02*
X14224000Y-227076000D01*
X155956000Y-40640000D02*
X14224000Y-40640000D01*
D12*
X26308000Y-182360000D02*
X25508000Y-182360000D01*
X25508000Y-182360000D02*
X25508000Y-180860000D01*
X25508000Y-180860000D02*
X26308000Y-180860000D01*
X26308000Y-180860000D02*
X26308000Y-182360000D01*
X24158000Y-183910000D02*
X24158000Y-184710000D01*
X24158000Y-184710000D02*
X22658000Y-184710000D01*
X22658000Y-184710000D02*
X22658000Y-183910000D01*
X22658000Y-183910000D02*
X24158000Y-183910000D01*
X21308000Y-182360000D02*
X20508000Y-182360000D01*
X20508000Y-182360000D02*
X20508000Y-180860000D01*
X20508000Y-180860000D02*
X21308000Y-180860000D01*
X21308000Y-180860000D02*
X21308000Y-182360000D01*
D13*
G36*
X196850505Y-149301204D02*
G01*
X196874773Y-149304804D01*
X196898572Y-149310765D01*
X196921671Y-149319030D01*
X196943850Y-149329520D01*
X196964893Y-149342132D01*
X196984599Y-149356747D01*
X197002777Y-149373223D01*
X197019253Y-149391401D01*
X197033868Y-149411107D01*
X197046480Y-149432150D01*
X197056970Y-149454329D01*
X197065235Y-149477428D01*
X197071196Y-149501227D01*
X197074796Y-149525495D01*
X197076000Y-149549999D01*
X197076000Y-150450001D01*
X197074796Y-150474505D01*
X197071196Y-150498773D01*
X197065235Y-150522572D01*
X197056970Y-150545671D01*
X197046480Y-150567850D01*
X197033868Y-150588893D01*
X197019253Y-150608599D01*
X197002777Y-150626777D01*
X196984599Y-150643253D01*
X196964893Y-150657868D01*
X196943850Y-150670480D01*
X196921671Y-150680970D01*
X196898572Y-150689235D01*
X196874773Y-150695196D01*
X196850505Y-150698796D01*
X196826001Y-150700000D01*
X196175999Y-150700000D01*
X196151495Y-150698796D01*
X196127227Y-150695196D01*
X196103428Y-150689235D01*
X196080329Y-150680970D01*
X196058150Y-150670480D01*
X196037107Y-150657868D01*
X196017401Y-150643253D01*
X195999223Y-150626777D01*
X195982747Y-150608599D01*
X195968132Y-150588893D01*
X195955520Y-150567850D01*
X195945030Y-150545671D01*
X195936765Y-150522572D01*
X195930804Y-150498773D01*
X195927204Y-150474505D01*
X195926000Y-150450001D01*
X195926000Y-149549999D01*
X195927204Y-149525495D01*
X195930804Y-149501227D01*
X195936765Y-149477428D01*
X195945030Y-149454329D01*
X195955520Y-149432150D01*
X195968132Y-149411107D01*
X195982747Y-149391401D01*
X195999223Y-149373223D01*
X196017401Y-149356747D01*
X196037107Y-149342132D01*
X196058150Y-149329520D01*
X196080329Y-149319030D01*
X196103428Y-149310765D01*
X196127227Y-149304804D01*
X196151495Y-149301204D01*
X196175999Y-149300000D01*
X196826001Y-149300000D01*
X196850505Y-149301204D01*
G37*
G36*
X194800505Y-149301204D02*
G01*
X194824773Y-149304804D01*
X194848572Y-149310765D01*
X194871671Y-149319030D01*
X194893850Y-149329520D01*
X194914893Y-149342132D01*
X194934599Y-149356747D01*
X194952777Y-149373223D01*
X194969253Y-149391401D01*
X194983868Y-149411107D01*
X194996480Y-149432150D01*
X195006970Y-149454329D01*
X195015235Y-149477428D01*
X195021196Y-149501227D01*
X195024796Y-149525495D01*
X195026000Y-149549999D01*
X195026000Y-150450001D01*
X195024796Y-150474505D01*
X195021196Y-150498773D01*
X195015235Y-150522572D01*
X195006970Y-150545671D01*
X194996480Y-150567850D01*
X194983868Y-150588893D01*
X194969253Y-150608599D01*
X194952777Y-150626777D01*
X194934599Y-150643253D01*
X194914893Y-150657868D01*
X194893850Y-150670480D01*
X194871671Y-150680970D01*
X194848572Y-150689235D01*
X194824773Y-150695196D01*
X194800505Y-150698796D01*
X194776001Y-150700000D01*
X194125999Y-150700000D01*
X194101495Y-150698796D01*
X194077227Y-150695196D01*
X194053428Y-150689235D01*
X194030329Y-150680970D01*
X194008150Y-150670480D01*
X193987107Y-150657868D01*
X193967401Y-150643253D01*
X193949223Y-150626777D01*
X193932747Y-150608599D01*
X193918132Y-150588893D01*
X193905520Y-150567850D01*
X193895030Y-150545671D01*
X193886765Y-150522572D01*
X193880804Y-150498773D01*
X193877204Y-150474505D01*
X193876000Y-150450001D01*
X193876000Y-149549999D01*
X193877204Y-149525495D01*
X193880804Y-149501227D01*
X193886765Y-149477428D01*
X193895030Y-149454329D01*
X193905520Y-149432150D01*
X193918132Y-149411107D01*
X193932747Y-149391401D01*
X193949223Y-149373223D01*
X193967401Y-149356747D01*
X193987107Y-149342132D01*
X194008150Y-149329520D01*
X194030329Y-149319030D01*
X194053428Y-149310765D01*
X194077227Y-149304804D01*
X194101495Y-149301204D01*
X194125999Y-149300000D01*
X194776001Y-149300000D01*
X194800505Y-149301204D01*
G37*
G36*
X194800505Y-159301204D02*
G01*
X194824773Y-159304804D01*
X194848572Y-159310765D01*
X194871671Y-159319030D01*
X194893850Y-159329520D01*
X194914893Y-159342132D01*
X194934599Y-159356747D01*
X194952777Y-159373223D01*
X194969253Y-159391401D01*
X194983868Y-159411107D01*
X194996480Y-159432150D01*
X195006970Y-159454329D01*
X195015235Y-159477428D01*
X195021196Y-159501227D01*
X195024796Y-159525495D01*
X195026000Y-159549999D01*
X195026000Y-160450001D01*
X195024796Y-160474505D01*
X195021196Y-160498773D01*
X195015235Y-160522572D01*
X195006970Y-160545671D01*
X194996480Y-160567850D01*
X194983868Y-160588893D01*
X194969253Y-160608599D01*
X194952777Y-160626777D01*
X194934599Y-160643253D01*
X194914893Y-160657868D01*
X194893850Y-160670480D01*
X194871671Y-160680970D01*
X194848572Y-160689235D01*
X194824773Y-160695196D01*
X194800505Y-160698796D01*
X194776001Y-160700000D01*
X194125999Y-160700000D01*
X194101495Y-160698796D01*
X194077227Y-160695196D01*
X194053428Y-160689235D01*
X194030329Y-160680970D01*
X194008150Y-160670480D01*
X193987107Y-160657868D01*
X193967401Y-160643253D01*
X193949223Y-160626777D01*
X193932747Y-160608599D01*
X193918132Y-160588893D01*
X193905520Y-160567850D01*
X193895030Y-160545671D01*
X193886765Y-160522572D01*
X193880804Y-160498773D01*
X193877204Y-160474505D01*
X193876000Y-160450001D01*
X193876000Y-159549999D01*
X193877204Y-159525495D01*
X193880804Y-159501227D01*
X193886765Y-159477428D01*
X193895030Y-159454329D01*
X193905520Y-159432150D01*
X193918132Y-159411107D01*
X193932747Y-159391401D01*
X193949223Y-159373223D01*
X193967401Y-159356747D01*
X193987107Y-159342132D01*
X194008150Y-159329520D01*
X194030329Y-159319030D01*
X194053428Y-159310765D01*
X194077227Y-159304804D01*
X194101495Y-159301204D01*
X194125999Y-159300000D01*
X194776001Y-159300000D01*
X194800505Y-159301204D01*
G37*
G36*
X196850505Y-159301204D02*
G01*
X196874773Y-159304804D01*
X196898572Y-159310765D01*
X196921671Y-159319030D01*
X196943850Y-159329520D01*
X196964893Y-159342132D01*
X196984599Y-159356747D01*
X197002777Y-159373223D01*
X197019253Y-159391401D01*
X197033868Y-159411107D01*
X197046480Y-159432150D01*
X197056970Y-159454329D01*
X197065235Y-159477428D01*
X197071196Y-159501227D01*
X197074796Y-159525495D01*
X197076000Y-159549999D01*
X197076000Y-160450001D01*
X197074796Y-160474505D01*
X197071196Y-160498773D01*
X197065235Y-160522572D01*
X197056970Y-160545671D01*
X197046480Y-160567850D01*
X197033868Y-160588893D01*
X197019253Y-160608599D01*
X197002777Y-160626777D01*
X196984599Y-160643253D01*
X196964893Y-160657868D01*
X196943850Y-160670480D01*
X196921671Y-160680970D01*
X196898572Y-160689235D01*
X196874773Y-160695196D01*
X196850505Y-160698796D01*
X196826001Y-160700000D01*
X196175999Y-160700000D01*
X196151495Y-160698796D01*
X196127227Y-160695196D01*
X196103428Y-160689235D01*
X196080329Y-160680970D01*
X196058150Y-160670480D01*
X196037107Y-160657868D01*
X196017401Y-160643253D01*
X195999223Y-160626777D01*
X195982747Y-160608599D01*
X195968132Y-160588893D01*
X195955520Y-160567850D01*
X195945030Y-160545671D01*
X195936765Y-160522572D01*
X195930804Y-160498773D01*
X195927204Y-160474505D01*
X195926000Y-160450001D01*
X195926000Y-159549999D01*
X195927204Y-159525495D01*
X195930804Y-159501227D01*
X195936765Y-159477428D01*
X195945030Y-159454329D01*
X195955520Y-159432150D01*
X195968132Y-159411107D01*
X195982747Y-159391401D01*
X195999223Y-159373223D01*
X196017401Y-159356747D01*
X196037107Y-159342132D01*
X196058150Y-159329520D01*
X196080329Y-159319030D01*
X196103428Y-159310765D01*
X196127227Y-159304804D01*
X196151495Y-159301204D01*
X196175999Y-159300000D01*
X196826001Y-159300000D01*
X196850505Y-159301204D01*
G37*
G36*
X194800505Y-169301204D02*
G01*
X194824773Y-169304804D01*
X194848572Y-169310765D01*
X194871671Y-169319030D01*
X194893850Y-169329520D01*
X194914893Y-169342132D01*
X194934599Y-169356747D01*
X194952777Y-169373223D01*
X194969253Y-169391401D01*
X194983868Y-169411107D01*
X194996480Y-169432150D01*
X195006970Y-169454329D01*
X195015235Y-169477428D01*
X195021196Y-169501227D01*
X195024796Y-169525495D01*
X195026000Y-169549999D01*
X195026000Y-170450001D01*
X195024796Y-170474505D01*
X195021196Y-170498773D01*
X195015235Y-170522572D01*
X195006970Y-170545671D01*
X194996480Y-170567850D01*
X194983868Y-170588893D01*
X194969253Y-170608599D01*
X194952777Y-170626777D01*
X194934599Y-170643253D01*
X194914893Y-170657868D01*
X194893850Y-170670480D01*
X194871671Y-170680970D01*
X194848572Y-170689235D01*
X194824773Y-170695196D01*
X194800505Y-170698796D01*
X194776001Y-170700000D01*
X194125999Y-170700000D01*
X194101495Y-170698796D01*
X194077227Y-170695196D01*
X194053428Y-170689235D01*
X194030329Y-170680970D01*
X194008150Y-170670480D01*
X193987107Y-170657868D01*
X193967401Y-170643253D01*
X193949223Y-170626777D01*
X193932747Y-170608599D01*
X193918132Y-170588893D01*
X193905520Y-170567850D01*
X193895030Y-170545671D01*
X193886765Y-170522572D01*
X193880804Y-170498773D01*
X193877204Y-170474505D01*
X193876000Y-170450001D01*
X193876000Y-169549999D01*
X193877204Y-169525495D01*
X193880804Y-169501227D01*
X193886765Y-169477428D01*
X193895030Y-169454329D01*
X193905520Y-169432150D01*
X193918132Y-169411107D01*
X193932747Y-169391401D01*
X193949223Y-169373223D01*
X193967401Y-169356747D01*
X193987107Y-169342132D01*
X194008150Y-169329520D01*
X194030329Y-169319030D01*
X194053428Y-169310765D01*
X194077227Y-169304804D01*
X194101495Y-169301204D01*
X194125999Y-169300000D01*
X194776001Y-169300000D01*
X194800505Y-169301204D01*
G37*
G36*
X196850505Y-169301204D02*
G01*
X196874773Y-169304804D01*
X196898572Y-169310765D01*
X196921671Y-169319030D01*
X196943850Y-169329520D01*
X196964893Y-169342132D01*
X196984599Y-169356747D01*
X197002777Y-169373223D01*
X197019253Y-169391401D01*
X197033868Y-169411107D01*
X197046480Y-169432150D01*
X197056970Y-169454329D01*
X197065235Y-169477428D01*
X197071196Y-169501227D01*
X197074796Y-169525495D01*
X197076000Y-169549999D01*
X197076000Y-170450001D01*
X197074796Y-170474505D01*
X197071196Y-170498773D01*
X197065235Y-170522572D01*
X197056970Y-170545671D01*
X197046480Y-170567850D01*
X197033868Y-170588893D01*
X197019253Y-170608599D01*
X197002777Y-170626777D01*
X196984599Y-170643253D01*
X196964893Y-170657868D01*
X196943850Y-170670480D01*
X196921671Y-170680970D01*
X196898572Y-170689235D01*
X196874773Y-170695196D01*
X196850505Y-170698796D01*
X196826001Y-170700000D01*
X196175999Y-170700000D01*
X196151495Y-170698796D01*
X196127227Y-170695196D01*
X196103428Y-170689235D01*
X196080329Y-170680970D01*
X196058150Y-170670480D01*
X196037107Y-170657868D01*
X196017401Y-170643253D01*
X195999223Y-170626777D01*
X195982747Y-170608599D01*
X195968132Y-170588893D01*
X195955520Y-170567850D01*
X195945030Y-170545671D01*
X195936765Y-170522572D01*
X195930804Y-170498773D01*
X195927204Y-170474505D01*
X195926000Y-170450001D01*
X195926000Y-169549999D01*
X195927204Y-169525495D01*
X195930804Y-169501227D01*
X195936765Y-169477428D01*
X195945030Y-169454329D01*
X195955520Y-169432150D01*
X195968132Y-169411107D01*
X195982747Y-169391401D01*
X195999223Y-169373223D01*
X196017401Y-169356747D01*
X196037107Y-169342132D01*
X196058150Y-169329520D01*
X196080329Y-169319030D01*
X196103428Y-169310765D01*
X196127227Y-169304804D01*
X196151495Y-169301204D01*
X196175999Y-169300000D01*
X196826001Y-169300000D01*
X196850505Y-169301204D01*
G37*
G36*
X196850505Y-179301204D02*
G01*
X196874773Y-179304804D01*
X196898572Y-179310765D01*
X196921671Y-179319030D01*
X196943850Y-179329520D01*
X196964893Y-179342132D01*
X196984599Y-179356747D01*
X197002777Y-179373223D01*
X197019253Y-179391401D01*
X197033868Y-179411107D01*
X197046480Y-179432150D01*
X197056970Y-179454329D01*
X197065235Y-179477428D01*
X197071196Y-179501227D01*
X197074796Y-179525495D01*
X197076000Y-179549999D01*
X197076000Y-180450001D01*
X197074796Y-180474505D01*
X197071196Y-180498773D01*
X197065235Y-180522572D01*
X197056970Y-180545671D01*
X197046480Y-180567850D01*
X197033868Y-180588893D01*
X197019253Y-180608599D01*
X197002777Y-180626777D01*
X196984599Y-180643253D01*
X196964893Y-180657868D01*
X196943850Y-180670480D01*
X196921671Y-180680970D01*
X196898572Y-180689235D01*
X196874773Y-180695196D01*
X196850505Y-180698796D01*
X196826001Y-180700000D01*
X196175999Y-180700000D01*
X196151495Y-180698796D01*
X196127227Y-180695196D01*
X196103428Y-180689235D01*
X196080329Y-180680970D01*
X196058150Y-180670480D01*
X196037107Y-180657868D01*
X196017401Y-180643253D01*
X195999223Y-180626777D01*
X195982747Y-180608599D01*
X195968132Y-180588893D01*
X195955520Y-180567850D01*
X195945030Y-180545671D01*
X195936765Y-180522572D01*
X195930804Y-180498773D01*
X195927204Y-180474505D01*
X195926000Y-180450001D01*
X195926000Y-179549999D01*
X195927204Y-179525495D01*
X195930804Y-179501227D01*
X195936765Y-179477428D01*
X195945030Y-179454329D01*
X195955520Y-179432150D01*
X195968132Y-179411107D01*
X195982747Y-179391401D01*
X195999223Y-179373223D01*
X196017401Y-179356747D01*
X196037107Y-179342132D01*
X196058150Y-179329520D01*
X196080329Y-179319030D01*
X196103428Y-179310765D01*
X196127227Y-179304804D01*
X196151495Y-179301204D01*
X196175999Y-179300000D01*
X196826001Y-179300000D01*
X196850505Y-179301204D01*
G37*
G36*
X194800505Y-179301204D02*
G01*
X194824773Y-179304804D01*
X194848572Y-179310765D01*
X194871671Y-179319030D01*
X194893850Y-179329520D01*
X194914893Y-179342132D01*
X194934599Y-179356747D01*
X194952777Y-179373223D01*
X194969253Y-179391401D01*
X194983868Y-179411107D01*
X194996480Y-179432150D01*
X195006970Y-179454329D01*
X195015235Y-179477428D01*
X195021196Y-179501227D01*
X195024796Y-179525495D01*
X195026000Y-179549999D01*
X195026000Y-180450001D01*
X195024796Y-180474505D01*
X195021196Y-180498773D01*
X195015235Y-180522572D01*
X195006970Y-180545671D01*
X194996480Y-180567850D01*
X194983868Y-180588893D01*
X194969253Y-180608599D01*
X194952777Y-180626777D01*
X194934599Y-180643253D01*
X194914893Y-180657868D01*
X194893850Y-180670480D01*
X194871671Y-180680970D01*
X194848572Y-180689235D01*
X194824773Y-180695196D01*
X194800505Y-180698796D01*
X194776001Y-180700000D01*
X194125999Y-180700000D01*
X194101495Y-180698796D01*
X194077227Y-180695196D01*
X194053428Y-180689235D01*
X194030329Y-180680970D01*
X194008150Y-180670480D01*
X193987107Y-180657868D01*
X193967401Y-180643253D01*
X193949223Y-180626777D01*
X193932747Y-180608599D01*
X193918132Y-180588893D01*
X193905520Y-180567850D01*
X193895030Y-180545671D01*
X193886765Y-180522572D01*
X193880804Y-180498773D01*
X193877204Y-180474505D01*
X193876000Y-180450001D01*
X193876000Y-179549999D01*
X193877204Y-179525495D01*
X193880804Y-179501227D01*
X193886765Y-179477428D01*
X193895030Y-179454329D01*
X193905520Y-179432150D01*
X193918132Y-179411107D01*
X193932747Y-179391401D01*
X193949223Y-179373223D01*
X193967401Y-179356747D01*
X193987107Y-179342132D01*
X194008150Y-179329520D01*
X194030329Y-179319030D01*
X194053428Y-179310765D01*
X194077227Y-179304804D01*
X194101495Y-179301204D01*
X194125999Y-179300000D01*
X194776001Y-179300000D01*
X194800505Y-179301204D01*
G37*
G36*
X196850505Y-189301204D02*
G01*
X196874773Y-189304804D01*
X196898572Y-189310765D01*
X196921671Y-189319030D01*
X196943850Y-189329520D01*
X196964893Y-189342132D01*
X196984599Y-189356747D01*
X197002777Y-189373223D01*
X197019253Y-189391401D01*
X197033868Y-189411107D01*
X197046480Y-189432150D01*
X197056970Y-189454329D01*
X197065235Y-189477428D01*
X197071196Y-189501227D01*
X197074796Y-189525495D01*
X197076000Y-189549999D01*
X197076000Y-190450001D01*
X197074796Y-190474505D01*
X197071196Y-190498773D01*
X197065235Y-190522572D01*
X197056970Y-190545671D01*
X197046480Y-190567850D01*
X197033868Y-190588893D01*
X197019253Y-190608599D01*
X197002777Y-190626777D01*
X196984599Y-190643253D01*
X196964893Y-190657868D01*
X196943850Y-190670480D01*
X196921671Y-190680970D01*
X196898572Y-190689235D01*
X196874773Y-190695196D01*
X196850505Y-190698796D01*
X196826001Y-190700000D01*
X196175999Y-190700000D01*
X196151495Y-190698796D01*
X196127227Y-190695196D01*
X196103428Y-190689235D01*
X196080329Y-190680970D01*
X196058150Y-190670480D01*
X196037107Y-190657868D01*
X196017401Y-190643253D01*
X195999223Y-190626777D01*
X195982747Y-190608599D01*
X195968132Y-190588893D01*
X195955520Y-190567850D01*
X195945030Y-190545671D01*
X195936765Y-190522572D01*
X195930804Y-190498773D01*
X195927204Y-190474505D01*
X195926000Y-190450001D01*
X195926000Y-189549999D01*
X195927204Y-189525495D01*
X195930804Y-189501227D01*
X195936765Y-189477428D01*
X195945030Y-189454329D01*
X195955520Y-189432150D01*
X195968132Y-189411107D01*
X195982747Y-189391401D01*
X195999223Y-189373223D01*
X196017401Y-189356747D01*
X196037107Y-189342132D01*
X196058150Y-189329520D01*
X196080329Y-189319030D01*
X196103428Y-189310765D01*
X196127227Y-189304804D01*
X196151495Y-189301204D01*
X196175999Y-189300000D01*
X196826001Y-189300000D01*
X196850505Y-189301204D01*
G37*
G36*
X194800505Y-189301204D02*
G01*
X194824773Y-189304804D01*
X194848572Y-189310765D01*
X194871671Y-189319030D01*
X194893850Y-189329520D01*
X194914893Y-189342132D01*
X194934599Y-189356747D01*
X194952777Y-189373223D01*
X194969253Y-189391401D01*
X194983868Y-189411107D01*
X194996480Y-189432150D01*
X195006970Y-189454329D01*
X195015235Y-189477428D01*
X195021196Y-189501227D01*
X195024796Y-189525495D01*
X195026000Y-189549999D01*
X195026000Y-190450001D01*
X195024796Y-190474505D01*
X195021196Y-190498773D01*
X195015235Y-190522572D01*
X195006970Y-190545671D01*
X194996480Y-190567850D01*
X194983868Y-190588893D01*
X194969253Y-190608599D01*
X194952777Y-190626777D01*
X194934599Y-190643253D01*
X194914893Y-190657868D01*
X194893850Y-190670480D01*
X194871671Y-190680970D01*
X194848572Y-190689235D01*
X194824773Y-190695196D01*
X194800505Y-190698796D01*
X194776001Y-190700000D01*
X194125999Y-190700000D01*
X194101495Y-190698796D01*
X194077227Y-190695196D01*
X194053428Y-190689235D01*
X194030329Y-190680970D01*
X194008150Y-190670480D01*
X193987107Y-190657868D01*
X193967401Y-190643253D01*
X193949223Y-190626777D01*
X193932747Y-190608599D01*
X193918132Y-190588893D01*
X193905520Y-190567850D01*
X193895030Y-190545671D01*
X193886765Y-190522572D01*
X193880804Y-190498773D01*
X193877204Y-190474505D01*
X193876000Y-190450001D01*
X193876000Y-189549999D01*
X193877204Y-189525495D01*
X193880804Y-189501227D01*
X193886765Y-189477428D01*
X193895030Y-189454329D01*
X193905520Y-189432150D01*
X193918132Y-189411107D01*
X193932747Y-189391401D01*
X193949223Y-189373223D01*
X193967401Y-189356747D01*
X193987107Y-189342132D01*
X194008150Y-189329520D01*
X194030329Y-189319030D01*
X194053428Y-189310765D01*
X194077227Y-189304804D01*
X194101495Y-189301204D01*
X194125999Y-189300000D01*
X194776001Y-189300000D01*
X194800505Y-189301204D01*
G37*
G36*
X194800505Y-199301204D02*
G01*
X194824773Y-199304804D01*
X194848572Y-199310765D01*
X194871671Y-199319030D01*
X194893850Y-199329520D01*
X194914893Y-199342132D01*
X194934599Y-199356747D01*
X194952777Y-199373223D01*
X194969253Y-199391401D01*
X194983868Y-199411107D01*
X194996480Y-199432150D01*
X195006970Y-199454329D01*
X195015235Y-199477428D01*
X195021196Y-199501227D01*
X195024796Y-199525495D01*
X195026000Y-199549999D01*
X195026000Y-200450001D01*
X195024796Y-200474505D01*
X195021196Y-200498773D01*
X195015235Y-200522572D01*
X195006970Y-200545671D01*
X194996480Y-200567850D01*
X194983868Y-200588893D01*
X194969253Y-200608599D01*
X194952777Y-200626777D01*
X194934599Y-200643253D01*
X194914893Y-200657868D01*
X194893850Y-200670480D01*
X194871671Y-200680970D01*
X194848572Y-200689235D01*
X194824773Y-200695196D01*
X194800505Y-200698796D01*
X194776001Y-200700000D01*
X194125999Y-200700000D01*
X194101495Y-200698796D01*
X194077227Y-200695196D01*
X194053428Y-200689235D01*
X194030329Y-200680970D01*
X194008150Y-200670480D01*
X193987107Y-200657868D01*
X193967401Y-200643253D01*
X193949223Y-200626777D01*
X193932747Y-200608599D01*
X193918132Y-200588893D01*
X193905520Y-200567850D01*
X193895030Y-200545671D01*
X193886765Y-200522572D01*
X193880804Y-200498773D01*
X193877204Y-200474505D01*
X193876000Y-200450001D01*
X193876000Y-199549999D01*
X193877204Y-199525495D01*
X193880804Y-199501227D01*
X193886765Y-199477428D01*
X193895030Y-199454329D01*
X193905520Y-199432150D01*
X193918132Y-199411107D01*
X193932747Y-199391401D01*
X193949223Y-199373223D01*
X193967401Y-199356747D01*
X193987107Y-199342132D01*
X194008150Y-199329520D01*
X194030329Y-199319030D01*
X194053428Y-199310765D01*
X194077227Y-199304804D01*
X194101495Y-199301204D01*
X194125999Y-199300000D01*
X194776001Y-199300000D01*
X194800505Y-199301204D01*
G37*
G36*
X196850505Y-199301204D02*
G01*
X196874773Y-199304804D01*
X196898572Y-199310765D01*
X196921671Y-199319030D01*
X196943850Y-199329520D01*
X196964893Y-199342132D01*
X196984599Y-199356747D01*
X197002777Y-199373223D01*
X197019253Y-199391401D01*
X197033868Y-199411107D01*
X197046480Y-199432150D01*
X197056970Y-199454329D01*
X197065235Y-199477428D01*
X197071196Y-199501227D01*
X197074796Y-199525495D01*
X197076000Y-199549999D01*
X197076000Y-200450001D01*
X197074796Y-200474505D01*
X197071196Y-200498773D01*
X197065235Y-200522572D01*
X197056970Y-200545671D01*
X197046480Y-200567850D01*
X197033868Y-200588893D01*
X197019253Y-200608599D01*
X197002777Y-200626777D01*
X196984599Y-200643253D01*
X196964893Y-200657868D01*
X196943850Y-200670480D01*
X196921671Y-200680970D01*
X196898572Y-200689235D01*
X196874773Y-200695196D01*
X196850505Y-200698796D01*
X196826001Y-200700000D01*
X196175999Y-200700000D01*
X196151495Y-200698796D01*
X196127227Y-200695196D01*
X196103428Y-200689235D01*
X196080329Y-200680970D01*
X196058150Y-200670480D01*
X196037107Y-200657868D01*
X196017401Y-200643253D01*
X195999223Y-200626777D01*
X195982747Y-200608599D01*
X195968132Y-200588893D01*
X195955520Y-200567850D01*
X195945030Y-200545671D01*
X195936765Y-200522572D01*
X195930804Y-200498773D01*
X195927204Y-200474505D01*
X195926000Y-200450001D01*
X195926000Y-199549999D01*
X195927204Y-199525495D01*
X195930804Y-199501227D01*
X195936765Y-199477428D01*
X195945030Y-199454329D01*
X195955520Y-199432150D01*
X195968132Y-199411107D01*
X195982747Y-199391401D01*
X195999223Y-199373223D01*
X196017401Y-199356747D01*
X196037107Y-199342132D01*
X196058150Y-199329520D01*
X196080329Y-199319030D01*
X196103428Y-199310765D01*
X196127227Y-199304804D01*
X196151495Y-199301204D01*
X196175999Y-199300000D01*
X196826001Y-199300000D01*
X196850505Y-199301204D01*
G37*
G36*
X206824505Y-149301204D02*
G01*
X206848773Y-149304804D01*
X206872572Y-149310765D01*
X206895671Y-149319030D01*
X206917850Y-149329520D01*
X206938893Y-149342132D01*
X206958599Y-149356747D01*
X206976777Y-149373223D01*
X206993253Y-149391401D01*
X207007868Y-149411107D01*
X207020480Y-149432150D01*
X207030970Y-149454329D01*
X207039235Y-149477428D01*
X207045196Y-149501227D01*
X207048796Y-149525495D01*
X207050000Y-149549999D01*
X207050000Y-150450001D01*
X207048796Y-150474505D01*
X207045196Y-150498773D01*
X207039235Y-150522572D01*
X207030970Y-150545671D01*
X207020480Y-150567850D01*
X207007868Y-150588893D01*
X206993253Y-150608599D01*
X206976777Y-150626777D01*
X206958599Y-150643253D01*
X206938893Y-150657868D01*
X206917850Y-150670480D01*
X206895671Y-150680970D01*
X206872572Y-150689235D01*
X206848773Y-150695196D01*
X206824505Y-150698796D01*
X206800001Y-150700000D01*
X206149999Y-150700000D01*
X206125495Y-150698796D01*
X206101227Y-150695196D01*
X206077428Y-150689235D01*
X206054329Y-150680970D01*
X206032150Y-150670480D01*
X206011107Y-150657868D01*
X205991401Y-150643253D01*
X205973223Y-150626777D01*
X205956747Y-150608599D01*
X205942132Y-150588893D01*
X205929520Y-150567850D01*
X205919030Y-150545671D01*
X205910765Y-150522572D01*
X205904804Y-150498773D01*
X205901204Y-150474505D01*
X205900000Y-150450001D01*
X205900000Y-149549999D01*
X205901204Y-149525495D01*
X205904804Y-149501227D01*
X205910765Y-149477428D01*
X205919030Y-149454329D01*
X205929520Y-149432150D01*
X205942132Y-149411107D01*
X205956747Y-149391401D01*
X205973223Y-149373223D01*
X205991401Y-149356747D01*
X206011107Y-149342132D01*
X206032150Y-149329520D01*
X206054329Y-149319030D01*
X206077428Y-149310765D01*
X206101227Y-149304804D01*
X206125495Y-149301204D01*
X206149999Y-149300000D01*
X206800001Y-149300000D01*
X206824505Y-149301204D01*
G37*
G36*
X208874505Y-149301204D02*
G01*
X208898773Y-149304804D01*
X208922572Y-149310765D01*
X208945671Y-149319030D01*
X208967850Y-149329520D01*
X208988893Y-149342132D01*
X209008599Y-149356747D01*
X209026777Y-149373223D01*
X209043253Y-149391401D01*
X209057868Y-149411107D01*
X209070480Y-149432150D01*
X209080970Y-149454329D01*
X209089235Y-149477428D01*
X209095196Y-149501227D01*
X209098796Y-149525495D01*
X209100000Y-149549999D01*
X209100000Y-150450001D01*
X209098796Y-150474505D01*
X209095196Y-150498773D01*
X209089235Y-150522572D01*
X209080970Y-150545671D01*
X209070480Y-150567850D01*
X209057868Y-150588893D01*
X209043253Y-150608599D01*
X209026777Y-150626777D01*
X209008599Y-150643253D01*
X208988893Y-150657868D01*
X208967850Y-150670480D01*
X208945671Y-150680970D01*
X208922572Y-150689235D01*
X208898773Y-150695196D01*
X208874505Y-150698796D01*
X208850001Y-150700000D01*
X208199999Y-150700000D01*
X208175495Y-150698796D01*
X208151227Y-150695196D01*
X208127428Y-150689235D01*
X208104329Y-150680970D01*
X208082150Y-150670480D01*
X208061107Y-150657868D01*
X208041401Y-150643253D01*
X208023223Y-150626777D01*
X208006747Y-150608599D01*
X207992132Y-150588893D01*
X207979520Y-150567850D01*
X207969030Y-150545671D01*
X207960765Y-150522572D01*
X207954804Y-150498773D01*
X207951204Y-150474505D01*
X207950000Y-150450001D01*
X207950000Y-149549999D01*
X207951204Y-149525495D01*
X207954804Y-149501227D01*
X207960765Y-149477428D01*
X207969030Y-149454329D01*
X207979520Y-149432150D01*
X207992132Y-149411107D01*
X208006747Y-149391401D01*
X208023223Y-149373223D01*
X208041401Y-149356747D01*
X208061107Y-149342132D01*
X208082150Y-149329520D01*
X208104329Y-149319030D01*
X208127428Y-149310765D01*
X208151227Y-149304804D01*
X208175495Y-149301204D01*
X208199999Y-149300000D01*
X208850001Y-149300000D01*
X208874505Y-149301204D01*
G37*
G36*
X208874505Y-159301204D02*
G01*
X208898773Y-159304804D01*
X208922572Y-159310765D01*
X208945671Y-159319030D01*
X208967850Y-159329520D01*
X208988893Y-159342132D01*
X209008599Y-159356747D01*
X209026777Y-159373223D01*
X209043253Y-159391401D01*
X209057868Y-159411107D01*
X209070480Y-159432150D01*
X209080970Y-159454329D01*
X209089235Y-159477428D01*
X209095196Y-159501227D01*
X209098796Y-159525495D01*
X209100000Y-159549999D01*
X209100000Y-160450001D01*
X209098796Y-160474505D01*
X209095196Y-160498773D01*
X209089235Y-160522572D01*
X209080970Y-160545671D01*
X209070480Y-160567850D01*
X209057868Y-160588893D01*
X209043253Y-160608599D01*
X209026777Y-160626777D01*
X209008599Y-160643253D01*
X208988893Y-160657868D01*
X208967850Y-160670480D01*
X208945671Y-160680970D01*
X208922572Y-160689235D01*
X208898773Y-160695196D01*
X208874505Y-160698796D01*
X208850001Y-160700000D01*
X208199999Y-160700000D01*
X208175495Y-160698796D01*
X208151227Y-160695196D01*
X208127428Y-160689235D01*
X208104329Y-160680970D01*
X208082150Y-160670480D01*
X208061107Y-160657868D01*
X208041401Y-160643253D01*
X208023223Y-160626777D01*
X208006747Y-160608599D01*
X207992132Y-160588893D01*
X207979520Y-160567850D01*
X207969030Y-160545671D01*
X207960765Y-160522572D01*
X207954804Y-160498773D01*
X207951204Y-160474505D01*
X207950000Y-160450001D01*
X207950000Y-159549999D01*
X207951204Y-159525495D01*
X207954804Y-159501227D01*
X207960765Y-159477428D01*
X207969030Y-159454329D01*
X207979520Y-159432150D01*
X207992132Y-159411107D01*
X208006747Y-159391401D01*
X208023223Y-159373223D01*
X208041401Y-159356747D01*
X208061107Y-159342132D01*
X208082150Y-159329520D01*
X208104329Y-159319030D01*
X208127428Y-159310765D01*
X208151227Y-159304804D01*
X208175495Y-159301204D01*
X208199999Y-159300000D01*
X208850001Y-159300000D01*
X208874505Y-159301204D01*
G37*
G36*
X206824505Y-159301204D02*
G01*
X206848773Y-159304804D01*
X206872572Y-159310765D01*
X206895671Y-159319030D01*
X206917850Y-159329520D01*
X206938893Y-159342132D01*
X206958599Y-159356747D01*
X206976777Y-159373223D01*
X206993253Y-159391401D01*
X207007868Y-159411107D01*
X207020480Y-159432150D01*
X207030970Y-159454329D01*
X207039235Y-159477428D01*
X207045196Y-159501227D01*
X207048796Y-159525495D01*
X207050000Y-159549999D01*
X207050000Y-160450001D01*
X207048796Y-160474505D01*
X207045196Y-160498773D01*
X207039235Y-160522572D01*
X207030970Y-160545671D01*
X207020480Y-160567850D01*
X207007868Y-160588893D01*
X206993253Y-160608599D01*
X206976777Y-160626777D01*
X206958599Y-160643253D01*
X206938893Y-160657868D01*
X206917850Y-160670480D01*
X206895671Y-160680970D01*
X206872572Y-160689235D01*
X206848773Y-160695196D01*
X206824505Y-160698796D01*
X206800001Y-160700000D01*
X206149999Y-160700000D01*
X206125495Y-160698796D01*
X206101227Y-160695196D01*
X206077428Y-160689235D01*
X206054329Y-160680970D01*
X206032150Y-160670480D01*
X206011107Y-160657868D01*
X205991401Y-160643253D01*
X205973223Y-160626777D01*
X205956747Y-160608599D01*
X205942132Y-160588893D01*
X205929520Y-160567850D01*
X205919030Y-160545671D01*
X205910765Y-160522572D01*
X205904804Y-160498773D01*
X205901204Y-160474505D01*
X205900000Y-160450001D01*
X205900000Y-159549999D01*
X205901204Y-159525495D01*
X205904804Y-159501227D01*
X205910765Y-159477428D01*
X205919030Y-159454329D01*
X205929520Y-159432150D01*
X205942132Y-159411107D01*
X205956747Y-159391401D01*
X205973223Y-159373223D01*
X205991401Y-159356747D01*
X206011107Y-159342132D01*
X206032150Y-159329520D01*
X206054329Y-159319030D01*
X206077428Y-159310765D01*
X206101227Y-159304804D01*
X206125495Y-159301204D01*
X206149999Y-159300000D01*
X206800001Y-159300000D01*
X206824505Y-159301204D01*
G37*
G36*
X208874505Y-169301204D02*
G01*
X208898773Y-169304804D01*
X208922572Y-169310765D01*
X208945671Y-169319030D01*
X208967850Y-169329520D01*
X208988893Y-169342132D01*
X209008599Y-169356747D01*
X209026777Y-169373223D01*
X209043253Y-169391401D01*
X209057868Y-169411107D01*
X209070480Y-169432150D01*
X209080970Y-169454329D01*
X209089235Y-169477428D01*
X209095196Y-169501227D01*
X209098796Y-169525495D01*
X209100000Y-169549999D01*
X209100000Y-170450001D01*
X209098796Y-170474505D01*
X209095196Y-170498773D01*
X209089235Y-170522572D01*
X209080970Y-170545671D01*
X209070480Y-170567850D01*
X209057868Y-170588893D01*
X209043253Y-170608599D01*
X209026777Y-170626777D01*
X209008599Y-170643253D01*
X208988893Y-170657868D01*
X208967850Y-170670480D01*
X208945671Y-170680970D01*
X208922572Y-170689235D01*
X208898773Y-170695196D01*
X208874505Y-170698796D01*
X208850001Y-170700000D01*
X208199999Y-170700000D01*
X208175495Y-170698796D01*
X208151227Y-170695196D01*
X208127428Y-170689235D01*
X208104329Y-170680970D01*
X208082150Y-170670480D01*
X208061107Y-170657868D01*
X208041401Y-170643253D01*
X208023223Y-170626777D01*
X208006747Y-170608599D01*
X207992132Y-170588893D01*
X207979520Y-170567850D01*
X207969030Y-170545671D01*
X207960765Y-170522572D01*
X207954804Y-170498773D01*
X207951204Y-170474505D01*
X207950000Y-170450001D01*
X207950000Y-169549999D01*
X207951204Y-169525495D01*
X207954804Y-169501227D01*
X207960765Y-169477428D01*
X207969030Y-169454329D01*
X207979520Y-169432150D01*
X207992132Y-169411107D01*
X208006747Y-169391401D01*
X208023223Y-169373223D01*
X208041401Y-169356747D01*
X208061107Y-169342132D01*
X208082150Y-169329520D01*
X208104329Y-169319030D01*
X208127428Y-169310765D01*
X208151227Y-169304804D01*
X208175495Y-169301204D01*
X208199999Y-169300000D01*
X208850001Y-169300000D01*
X208874505Y-169301204D01*
G37*
G36*
X206824505Y-169301204D02*
G01*
X206848773Y-169304804D01*
X206872572Y-169310765D01*
X206895671Y-169319030D01*
X206917850Y-169329520D01*
X206938893Y-169342132D01*
X206958599Y-169356747D01*
X206976777Y-169373223D01*
X206993253Y-169391401D01*
X207007868Y-169411107D01*
X207020480Y-169432150D01*
X207030970Y-169454329D01*
X207039235Y-169477428D01*
X207045196Y-169501227D01*
X207048796Y-169525495D01*
X207050000Y-169549999D01*
X207050000Y-170450001D01*
X207048796Y-170474505D01*
X207045196Y-170498773D01*
X207039235Y-170522572D01*
X207030970Y-170545671D01*
X207020480Y-170567850D01*
X207007868Y-170588893D01*
X206993253Y-170608599D01*
X206976777Y-170626777D01*
X206958599Y-170643253D01*
X206938893Y-170657868D01*
X206917850Y-170670480D01*
X206895671Y-170680970D01*
X206872572Y-170689235D01*
X206848773Y-170695196D01*
X206824505Y-170698796D01*
X206800001Y-170700000D01*
X206149999Y-170700000D01*
X206125495Y-170698796D01*
X206101227Y-170695196D01*
X206077428Y-170689235D01*
X206054329Y-170680970D01*
X206032150Y-170670480D01*
X206011107Y-170657868D01*
X205991401Y-170643253D01*
X205973223Y-170626777D01*
X205956747Y-170608599D01*
X205942132Y-170588893D01*
X205929520Y-170567850D01*
X205919030Y-170545671D01*
X205910765Y-170522572D01*
X205904804Y-170498773D01*
X205901204Y-170474505D01*
X205900000Y-170450001D01*
X205900000Y-169549999D01*
X205901204Y-169525495D01*
X205904804Y-169501227D01*
X205910765Y-169477428D01*
X205919030Y-169454329D01*
X205929520Y-169432150D01*
X205942132Y-169411107D01*
X205956747Y-169391401D01*
X205973223Y-169373223D01*
X205991401Y-169356747D01*
X206011107Y-169342132D01*
X206032150Y-169329520D01*
X206054329Y-169319030D01*
X206077428Y-169310765D01*
X206101227Y-169304804D01*
X206125495Y-169301204D01*
X206149999Y-169300000D01*
X206800001Y-169300000D01*
X206824505Y-169301204D01*
G37*
G36*
X206824505Y-179301204D02*
G01*
X206848773Y-179304804D01*
X206872572Y-179310765D01*
X206895671Y-179319030D01*
X206917850Y-179329520D01*
X206938893Y-179342132D01*
X206958599Y-179356747D01*
X206976777Y-179373223D01*
X206993253Y-179391401D01*
X207007868Y-179411107D01*
X207020480Y-179432150D01*
X207030970Y-179454329D01*
X207039235Y-179477428D01*
X207045196Y-179501227D01*
X207048796Y-179525495D01*
X207050000Y-179549999D01*
X207050000Y-180450001D01*
X207048796Y-180474505D01*
X207045196Y-180498773D01*
X207039235Y-180522572D01*
X207030970Y-180545671D01*
X207020480Y-180567850D01*
X207007868Y-180588893D01*
X206993253Y-180608599D01*
X206976777Y-180626777D01*
X206958599Y-180643253D01*
X206938893Y-180657868D01*
X206917850Y-180670480D01*
X206895671Y-180680970D01*
X206872572Y-180689235D01*
X206848773Y-180695196D01*
X206824505Y-180698796D01*
X206800001Y-180700000D01*
X206149999Y-180700000D01*
X206125495Y-180698796D01*
X206101227Y-180695196D01*
X206077428Y-180689235D01*
X206054329Y-180680970D01*
X206032150Y-180670480D01*
X206011107Y-180657868D01*
X205991401Y-180643253D01*
X205973223Y-180626777D01*
X205956747Y-180608599D01*
X205942132Y-180588893D01*
X205929520Y-180567850D01*
X205919030Y-180545671D01*
X205910765Y-180522572D01*
X205904804Y-180498773D01*
X205901204Y-180474505D01*
X205900000Y-180450001D01*
X205900000Y-179549999D01*
X205901204Y-179525495D01*
X205904804Y-179501227D01*
X205910765Y-179477428D01*
X205919030Y-179454329D01*
X205929520Y-179432150D01*
X205942132Y-179411107D01*
X205956747Y-179391401D01*
X205973223Y-179373223D01*
X205991401Y-179356747D01*
X206011107Y-179342132D01*
X206032150Y-179329520D01*
X206054329Y-179319030D01*
X206077428Y-179310765D01*
X206101227Y-179304804D01*
X206125495Y-179301204D01*
X206149999Y-179300000D01*
X206800001Y-179300000D01*
X206824505Y-179301204D01*
G37*
G36*
X208874505Y-179301204D02*
G01*
X208898773Y-179304804D01*
X208922572Y-179310765D01*
X208945671Y-179319030D01*
X208967850Y-179329520D01*
X208988893Y-179342132D01*
X209008599Y-179356747D01*
X209026777Y-179373223D01*
X209043253Y-179391401D01*
X209057868Y-179411107D01*
X209070480Y-179432150D01*
X209080970Y-179454329D01*
X209089235Y-179477428D01*
X209095196Y-179501227D01*
X209098796Y-179525495D01*
X209100000Y-179549999D01*
X209100000Y-180450001D01*
X209098796Y-180474505D01*
X209095196Y-180498773D01*
X209089235Y-180522572D01*
X209080970Y-180545671D01*
X209070480Y-180567850D01*
X209057868Y-180588893D01*
X209043253Y-180608599D01*
X209026777Y-180626777D01*
X209008599Y-180643253D01*
X208988893Y-180657868D01*
X208967850Y-180670480D01*
X208945671Y-180680970D01*
X208922572Y-180689235D01*
X208898773Y-180695196D01*
X208874505Y-180698796D01*
X208850001Y-180700000D01*
X208199999Y-180700000D01*
X208175495Y-180698796D01*
X208151227Y-180695196D01*
X208127428Y-180689235D01*
X208104329Y-180680970D01*
X208082150Y-180670480D01*
X208061107Y-180657868D01*
X208041401Y-180643253D01*
X208023223Y-180626777D01*
X208006747Y-180608599D01*
X207992132Y-180588893D01*
X207979520Y-180567850D01*
X207969030Y-180545671D01*
X207960765Y-180522572D01*
X207954804Y-180498773D01*
X207951204Y-180474505D01*
X207950000Y-180450001D01*
X207950000Y-179549999D01*
X207951204Y-179525495D01*
X207954804Y-179501227D01*
X207960765Y-179477428D01*
X207969030Y-179454329D01*
X207979520Y-179432150D01*
X207992132Y-179411107D01*
X208006747Y-179391401D01*
X208023223Y-179373223D01*
X208041401Y-179356747D01*
X208061107Y-179342132D01*
X208082150Y-179329520D01*
X208104329Y-179319030D01*
X208127428Y-179310765D01*
X208151227Y-179304804D01*
X208175495Y-179301204D01*
X208199999Y-179300000D01*
X208850001Y-179300000D01*
X208874505Y-179301204D01*
G37*
G36*
X206824505Y-189301204D02*
G01*
X206848773Y-189304804D01*
X206872572Y-189310765D01*
X206895671Y-189319030D01*
X206917850Y-189329520D01*
X206938893Y-189342132D01*
X206958599Y-189356747D01*
X206976777Y-189373223D01*
X206993253Y-189391401D01*
X207007868Y-189411107D01*
X207020480Y-189432150D01*
X207030970Y-189454329D01*
X207039235Y-189477428D01*
X207045196Y-189501227D01*
X207048796Y-189525495D01*
X207050000Y-189549999D01*
X207050000Y-190450001D01*
X207048796Y-190474505D01*
X207045196Y-190498773D01*
X207039235Y-190522572D01*
X207030970Y-190545671D01*
X207020480Y-190567850D01*
X207007868Y-190588893D01*
X206993253Y-190608599D01*
X206976777Y-190626777D01*
X206958599Y-190643253D01*
X206938893Y-190657868D01*
X206917850Y-190670480D01*
X206895671Y-190680970D01*
X206872572Y-190689235D01*
X206848773Y-190695196D01*
X206824505Y-190698796D01*
X206800001Y-190700000D01*
X206149999Y-190700000D01*
X206125495Y-190698796D01*
X206101227Y-190695196D01*
X206077428Y-190689235D01*
X206054329Y-190680970D01*
X206032150Y-190670480D01*
X206011107Y-190657868D01*
X205991401Y-190643253D01*
X205973223Y-190626777D01*
X205956747Y-190608599D01*
X205942132Y-190588893D01*
X205929520Y-190567850D01*
X205919030Y-190545671D01*
X205910765Y-190522572D01*
X205904804Y-190498773D01*
X205901204Y-190474505D01*
X205900000Y-190450001D01*
X205900000Y-189549999D01*
X205901204Y-189525495D01*
X205904804Y-189501227D01*
X205910765Y-189477428D01*
X205919030Y-189454329D01*
X205929520Y-189432150D01*
X205942132Y-189411107D01*
X205956747Y-189391401D01*
X205973223Y-189373223D01*
X205991401Y-189356747D01*
X206011107Y-189342132D01*
X206032150Y-189329520D01*
X206054329Y-189319030D01*
X206077428Y-189310765D01*
X206101227Y-189304804D01*
X206125495Y-189301204D01*
X206149999Y-189300000D01*
X206800001Y-189300000D01*
X206824505Y-189301204D01*
G37*
G36*
X208874505Y-189301204D02*
G01*
X208898773Y-189304804D01*
X208922572Y-189310765D01*
X208945671Y-189319030D01*
X208967850Y-189329520D01*
X208988893Y-189342132D01*
X209008599Y-189356747D01*
X209026777Y-189373223D01*
X209043253Y-189391401D01*
X209057868Y-189411107D01*
X209070480Y-189432150D01*
X209080970Y-189454329D01*
X209089235Y-189477428D01*
X209095196Y-189501227D01*
X209098796Y-189525495D01*
X209100000Y-189549999D01*
X209100000Y-190450001D01*
X209098796Y-190474505D01*
X209095196Y-190498773D01*
X209089235Y-190522572D01*
X209080970Y-190545671D01*
X209070480Y-190567850D01*
X209057868Y-190588893D01*
X209043253Y-190608599D01*
X209026777Y-190626777D01*
X209008599Y-190643253D01*
X208988893Y-190657868D01*
X208967850Y-190670480D01*
X208945671Y-190680970D01*
X208922572Y-190689235D01*
X208898773Y-190695196D01*
X208874505Y-190698796D01*
X208850001Y-190700000D01*
X208199999Y-190700000D01*
X208175495Y-190698796D01*
X208151227Y-190695196D01*
X208127428Y-190689235D01*
X208104329Y-190680970D01*
X208082150Y-190670480D01*
X208061107Y-190657868D01*
X208041401Y-190643253D01*
X208023223Y-190626777D01*
X208006747Y-190608599D01*
X207992132Y-190588893D01*
X207979520Y-190567850D01*
X207969030Y-190545671D01*
X207960765Y-190522572D01*
X207954804Y-190498773D01*
X207951204Y-190474505D01*
X207950000Y-190450001D01*
X207950000Y-189549999D01*
X207951204Y-189525495D01*
X207954804Y-189501227D01*
X207960765Y-189477428D01*
X207969030Y-189454329D01*
X207979520Y-189432150D01*
X207992132Y-189411107D01*
X208006747Y-189391401D01*
X208023223Y-189373223D01*
X208041401Y-189356747D01*
X208061107Y-189342132D01*
X208082150Y-189329520D01*
X208104329Y-189319030D01*
X208127428Y-189310765D01*
X208151227Y-189304804D01*
X208175495Y-189301204D01*
X208199999Y-189300000D01*
X208850001Y-189300000D01*
X208874505Y-189301204D01*
G37*
G36*
X208874505Y-199301204D02*
G01*
X208898773Y-199304804D01*
X208922572Y-199310765D01*
X208945671Y-199319030D01*
X208967850Y-199329520D01*
X208988893Y-199342132D01*
X209008599Y-199356747D01*
X209026777Y-199373223D01*
X209043253Y-199391401D01*
X209057868Y-199411107D01*
X209070480Y-199432150D01*
X209080970Y-199454329D01*
X209089235Y-199477428D01*
X209095196Y-199501227D01*
X209098796Y-199525495D01*
X209100000Y-199549999D01*
X209100000Y-200450001D01*
X209098796Y-200474505D01*
X209095196Y-200498773D01*
X209089235Y-200522572D01*
X209080970Y-200545671D01*
X209070480Y-200567850D01*
X209057868Y-200588893D01*
X209043253Y-200608599D01*
X209026777Y-200626777D01*
X209008599Y-200643253D01*
X208988893Y-200657868D01*
X208967850Y-200670480D01*
X208945671Y-200680970D01*
X208922572Y-200689235D01*
X208898773Y-200695196D01*
X208874505Y-200698796D01*
X208850001Y-200700000D01*
X208199999Y-200700000D01*
X208175495Y-200698796D01*
X208151227Y-200695196D01*
X208127428Y-200689235D01*
X208104329Y-200680970D01*
X208082150Y-200670480D01*
X208061107Y-200657868D01*
X208041401Y-200643253D01*
X208023223Y-200626777D01*
X208006747Y-200608599D01*
X207992132Y-200588893D01*
X207979520Y-200567850D01*
X207969030Y-200545671D01*
X207960765Y-200522572D01*
X207954804Y-200498773D01*
X207951204Y-200474505D01*
X207950000Y-200450001D01*
X207950000Y-199549999D01*
X207951204Y-199525495D01*
X207954804Y-199501227D01*
X207960765Y-199477428D01*
X207969030Y-199454329D01*
X207979520Y-199432150D01*
X207992132Y-199411107D01*
X208006747Y-199391401D01*
X208023223Y-199373223D01*
X208041401Y-199356747D01*
X208061107Y-199342132D01*
X208082150Y-199329520D01*
X208104329Y-199319030D01*
X208127428Y-199310765D01*
X208151227Y-199304804D01*
X208175495Y-199301204D01*
X208199999Y-199300000D01*
X208850001Y-199300000D01*
X208874505Y-199301204D01*
G37*
G36*
X206824505Y-199301204D02*
G01*
X206848773Y-199304804D01*
X206872572Y-199310765D01*
X206895671Y-199319030D01*
X206917850Y-199329520D01*
X206938893Y-199342132D01*
X206958599Y-199356747D01*
X206976777Y-199373223D01*
X206993253Y-199391401D01*
X207007868Y-199411107D01*
X207020480Y-199432150D01*
X207030970Y-199454329D01*
X207039235Y-199477428D01*
X207045196Y-199501227D01*
X207048796Y-199525495D01*
X207050000Y-199549999D01*
X207050000Y-200450001D01*
X207048796Y-200474505D01*
X207045196Y-200498773D01*
X207039235Y-200522572D01*
X207030970Y-200545671D01*
X207020480Y-200567850D01*
X207007868Y-200588893D01*
X206993253Y-200608599D01*
X206976777Y-200626777D01*
X206958599Y-200643253D01*
X206938893Y-200657868D01*
X206917850Y-200670480D01*
X206895671Y-200680970D01*
X206872572Y-200689235D01*
X206848773Y-200695196D01*
X206824505Y-200698796D01*
X206800001Y-200700000D01*
X206149999Y-200700000D01*
X206125495Y-200698796D01*
X206101227Y-200695196D01*
X206077428Y-200689235D01*
X206054329Y-200680970D01*
X206032150Y-200670480D01*
X206011107Y-200657868D01*
X205991401Y-200643253D01*
X205973223Y-200626777D01*
X205956747Y-200608599D01*
X205942132Y-200588893D01*
X205929520Y-200567850D01*
X205919030Y-200545671D01*
X205910765Y-200522572D01*
X205904804Y-200498773D01*
X205901204Y-200474505D01*
X205900000Y-200450001D01*
X205900000Y-199549999D01*
X205901204Y-199525495D01*
X205904804Y-199501227D01*
X205910765Y-199477428D01*
X205919030Y-199454329D01*
X205929520Y-199432150D01*
X205942132Y-199411107D01*
X205956747Y-199391401D01*
X205973223Y-199373223D01*
X205991401Y-199356747D01*
X206011107Y-199342132D01*
X206032150Y-199329520D01*
X206054329Y-199319030D01*
X206077428Y-199310765D01*
X206101227Y-199304804D01*
X206125495Y-199301204D01*
X206149999Y-199300000D01*
X206800001Y-199300000D01*
X206824505Y-199301204D01*
G37*
G36*
X153382505Y-194743204D02*
G01*
X153406773Y-194746804D01*
X153430572Y-194752765D01*
X153453671Y-194761030D01*
X153475850Y-194771520D01*
X153496893Y-194784132D01*
X153516599Y-194798747D01*
X153534777Y-194815223D01*
X153551253Y-194833401D01*
X153565868Y-194853107D01*
X153578480Y-194874150D01*
X153588970Y-194896329D01*
X153597235Y-194919428D01*
X153603196Y-194943227D01*
X153606796Y-194967495D01*
X153608000Y-194991999D01*
X153608000Y-195642001D01*
X153606796Y-195666505D01*
X153603196Y-195690773D01*
X153597235Y-195714572D01*
X153588970Y-195737671D01*
X153578480Y-195759850D01*
X153565868Y-195780893D01*
X153551253Y-195800599D01*
X153534777Y-195818777D01*
X153516599Y-195835253D01*
X153496893Y-195849868D01*
X153475850Y-195862480D01*
X153453671Y-195872970D01*
X153430572Y-195881235D01*
X153406773Y-195887196D01*
X153382505Y-195890796D01*
X153358001Y-195892000D01*
X152457999Y-195892000D01*
X152433495Y-195890796D01*
X152409227Y-195887196D01*
X152385428Y-195881235D01*
X152362329Y-195872970D01*
X152340150Y-195862480D01*
X152319107Y-195849868D01*
X152299401Y-195835253D01*
X152281223Y-195818777D01*
X152264747Y-195800599D01*
X152250132Y-195780893D01*
X152237520Y-195759850D01*
X152227030Y-195737671D01*
X152218765Y-195714572D01*
X152212804Y-195690773D01*
X152209204Y-195666505D01*
X152208000Y-195642001D01*
X152208000Y-194991999D01*
X152209204Y-194967495D01*
X152212804Y-194943227D01*
X152218765Y-194919428D01*
X152227030Y-194896329D01*
X152237520Y-194874150D01*
X152250132Y-194853107D01*
X152264747Y-194833401D01*
X152281223Y-194815223D01*
X152299401Y-194798747D01*
X152319107Y-194784132D01*
X152340150Y-194771520D01*
X152362329Y-194761030D01*
X152385428Y-194752765D01*
X152409227Y-194746804D01*
X152433495Y-194743204D01*
X152457999Y-194742000D01*
X153358001Y-194742000D01*
X153382505Y-194743204D01*
G37*
G36*
X153382505Y-196793204D02*
G01*
X153406773Y-196796804D01*
X153430572Y-196802765D01*
X153453671Y-196811030D01*
X153475850Y-196821520D01*
X153496893Y-196834132D01*
X153516599Y-196848747D01*
X153534777Y-196865223D01*
X153551253Y-196883401D01*
X153565868Y-196903107D01*
X153578480Y-196924150D01*
X153588970Y-196946329D01*
X153597235Y-196969428D01*
X153603196Y-196993227D01*
X153606796Y-197017495D01*
X153608000Y-197041999D01*
X153608000Y-197692001D01*
X153606796Y-197716505D01*
X153603196Y-197740773D01*
X153597235Y-197764572D01*
X153588970Y-197787671D01*
X153578480Y-197809850D01*
X153565868Y-197830893D01*
X153551253Y-197850599D01*
X153534777Y-197868777D01*
X153516599Y-197885253D01*
X153496893Y-197899868D01*
X153475850Y-197912480D01*
X153453671Y-197922970D01*
X153430572Y-197931235D01*
X153406773Y-197937196D01*
X153382505Y-197940796D01*
X153358001Y-197942000D01*
X152457999Y-197942000D01*
X152433495Y-197940796D01*
X152409227Y-197937196D01*
X152385428Y-197931235D01*
X152362329Y-197922970D01*
X152340150Y-197912480D01*
X152319107Y-197899868D01*
X152299401Y-197885253D01*
X152281223Y-197868777D01*
X152264747Y-197850599D01*
X152250132Y-197830893D01*
X152237520Y-197809850D01*
X152227030Y-197787671D01*
X152218765Y-197764572D01*
X152212804Y-197740773D01*
X152209204Y-197716505D01*
X152208000Y-197692001D01*
X152208000Y-197041999D01*
X152209204Y-197017495D01*
X152212804Y-196993227D01*
X152218765Y-196969428D01*
X152227030Y-196946329D01*
X152237520Y-196924150D01*
X152250132Y-196903107D01*
X152264747Y-196883401D01*
X152281223Y-196865223D01*
X152299401Y-196848747D01*
X152319107Y-196834132D01*
X152340150Y-196821520D01*
X152362329Y-196811030D01*
X152385428Y-196802765D01*
X152409227Y-196796804D01*
X152433495Y-196793204D01*
X152457999Y-196792000D01*
X153358001Y-196792000D01*
X153382505Y-196793204D01*
G37*
G36*
X177131505Y-202499204D02*
G01*
X177155773Y-202502804D01*
X177179572Y-202508765D01*
X177202671Y-202517030D01*
X177224850Y-202527520D01*
X177245893Y-202540132D01*
X177265599Y-202554747D01*
X177283777Y-202571223D01*
X177300253Y-202589401D01*
X177314868Y-202609107D01*
X177327480Y-202630150D01*
X177337970Y-202652329D01*
X177346235Y-202675428D01*
X177352196Y-202699227D01*
X177355796Y-202723495D01*
X177357000Y-202747999D01*
X177357000Y-203398001D01*
X177355796Y-203422505D01*
X177352196Y-203446773D01*
X177346235Y-203470572D01*
X177337970Y-203493671D01*
X177327480Y-203515850D01*
X177314868Y-203536893D01*
X177300253Y-203556599D01*
X177283777Y-203574777D01*
X177265599Y-203591253D01*
X177245893Y-203605868D01*
X177224850Y-203618480D01*
X177202671Y-203628970D01*
X177179572Y-203637235D01*
X177155773Y-203643196D01*
X177131505Y-203646796D01*
X177107001Y-203648000D01*
X176206999Y-203648000D01*
X176182495Y-203646796D01*
X176158227Y-203643196D01*
X176134428Y-203637235D01*
X176111329Y-203628970D01*
X176089150Y-203618480D01*
X176068107Y-203605868D01*
X176048401Y-203591253D01*
X176030223Y-203574777D01*
X176013747Y-203556599D01*
X175999132Y-203536893D01*
X175986520Y-203515850D01*
X175976030Y-203493671D01*
X175967765Y-203470572D01*
X175961804Y-203446773D01*
X175958204Y-203422505D01*
X175957000Y-203398001D01*
X175957000Y-202747999D01*
X175958204Y-202723495D01*
X175961804Y-202699227D01*
X175967765Y-202675428D01*
X175976030Y-202652329D01*
X175986520Y-202630150D01*
X175999132Y-202609107D01*
X176013747Y-202589401D01*
X176030223Y-202571223D01*
X176048401Y-202554747D01*
X176068107Y-202540132D01*
X176089150Y-202527520D01*
X176111329Y-202517030D01*
X176134428Y-202508765D01*
X176158227Y-202502804D01*
X176182495Y-202499204D01*
X176206999Y-202498000D01*
X177107001Y-202498000D01*
X177131505Y-202499204D01*
G37*
G36*
X177131505Y-204549204D02*
G01*
X177155773Y-204552804D01*
X177179572Y-204558765D01*
X177202671Y-204567030D01*
X177224850Y-204577520D01*
X177245893Y-204590132D01*
X177265599Y-204604747D01*
X177283777Y-204621223D01*
X177300253Y-204639401D01*
X177314868Y-204659107D01*
X177327480Y-204680150D01*
X177337970Y-204702329D01*
X177346235Y-204725428D01*
X177352196Y-204749227D01*
X177355796Y-204773495D01*
X177357000Y-204797999D01*
X177357000Y-205448001D01*
X177355796Y-205472505D01*
X177352196Y-205496773D01*
X177346235Y-205520572D01*
X177337970Y-205543671D01*
X177327480Y-205565850D01*
X177314868Y-205586893D01*
X177300253Y-205606599D01*
X177283777Y-205624777D01*
X177265599Y-205641253D01*
X177245893Y-205655868D01*
X177224850Y-205668480D01*
X177202671Y-205678970D01*
X177179572Y-205687235D01*
X177155773Y-205693196D01*
X177131505Y-205696796D01*
X177107001Y-205698000D01*
X176206999Y-205698000D01*
X176182495Y-205696796D01*
X176158227Y-205693196D01*
X176134428Y-205687235D01*
X176111329Y-205678970D01*
X176089150Y-205668480D01*
X176068107Y-205655868D01*
X176048401Y-205641253D01*
X176030223Y-205624777D01*
X176013747Y-205606599D01*
X175999132Y-205586893D01*
X175986520Y-205565850D01*
X175976030Y-205543671D01*
X175967765Y-205520572D01*
X175961804Y-205496773D01*
X175958204Y-205472505D01*
X175957000Y-205448001D01*
X175957000Y-204797999D01*
X175958204Y-204773495D01*
X175961804Y-204749227D01*
X175967765Y-204725428D01*
X175976030Y-204702329D01*
X175986520Y-204680150D01*
X175999132Y-204659107D01*
X176013747Y-204639401D01*
X176030223Y-204621223D01*
X176048401Y-204604747D01*
X176068107Y-204590132D01*
X176089150Y-204577520D01*
X176111329Y-204567030D01*
X176134428Y-204558765D01*
X176158227Y-204552804D01*
X176182495Y-204549204D01*
X176206999Y-204548000D01*
X177107001Y-204548000D01*
X177131505Y-204549204D01*
G37*
G36*
X149826505Y-214201204D02*
G01*
X149850773Y-214204804D01*
X149874572Y-214210765D01*
X149897671Y-214219030D01*
X149919850Y-214229520D01*
X149940893Y-214242132D01*
X149960599Y-214256747D01*
X149978777Y-214273223D01*
X149995253Y-214291401D01*
X150009868Y-214311107D01*
X150022480Y-214332150D01*
X150032970Y-214354329D01*
X150041235Y-214377428D01*
X150047196Y-214401227D01*
X150050796Y-214425495D01*
X150052000Y-214449999D01*
X150052000Y-215100001D01*
X150050796Y-215124505D01*
X150047196Y-215148773D01*
X150041235Y-215172572D01*
X150032970Y-215195671D01*
X150022480Y-215217850D01*
X150009868Y-215238893D01*
X149995253Y-215258599D01*
X149978777Y-215276777D01*
X149960599Y-215293253D01*
X149940893Y-215307868D01*
X149919850Y-215320480D01*
X149897671Y-215330970D01*
X149874572Y-215339235D01*
X149850773Y-215345196D01*
X149826505Y-215348796D01*
X149802001Y-215350000D01*
X148901999Y-215350000D01*
X148877495Y-215348796D01*
X148853227Y-215345196D01*
X148829428Y-215339235D01*
X148806329Y-215330970D01*
X148784150Y-215320480D01*
X148763107Y-215307868D01*
X148743401Y-215293253D01*
X148725223Y-215276777D01*
X148708747Y-215258599D01*
X148694132Y-215238893D01*
X148681520Y-215217850D01*
X148671030Y-215195671D01*
X148662765Y-215172572D01*
X148656804Y-215148773D01*
X148653204Y-215124505D01*
X148652000Y-215100001D01*
X148652000Y-214449999D01*
X148653204Y-214425495D01*
X148656804Y-214401227D01*
X148662765Y-214377428D01*
X148671030Y-214354329D01*
X148681520Y-214332150D01*
X148694132Y-214311107D01*
X148708747Y-214291401D01*
X148725223Y-214273223D01*
X148743401Y-214256747D01*
X148763107Y-214242132D01*
X148784150Y-214229520D01*
X148806329Y-214219030D01*
X148829428Y-214210765D01*
X148853227Y-214204804D01*
X148877495Y-214201204D01*
X148901999Y-214200000D01*
X149802001Y-214200000D01*
X149826505Y-214201204D01*
G37*
G36*
X149826505Y-212151204D02*
G01*
X149850773Y-212154804D01*
X149874572Y-212160765D01*
X149897671Y-212169030D01*
X149919850Y-212179520D01*
X149940893Y-212192132D01*
X149960599Y-212206747D01*
X149978777Y-212223223D01*
X149995253Y-212241401D01*
X150009868Y-212261107D01*
X150022480Y-212282150D01*
X150032970Y-212304329D01*
X150041235Y-212327428D01*
X150047196Y-212351227D01*
X150050796Y-212375495D01*
X150052000Y-212399999D01*
X150052000Y-213050001D01*
X150050796Y-213074505D01*
X150047196Y-213098773D01*
X150041235Y-213122572D01*
X150032970Y-213145671D01*
X150022480Y-213167850D01*
X150009868Y-213188893D01*
X149995253Y-213208599D01*
X149978777Y-213226777D01*
X149960599Y-213243253D01*
X149940893Y-213257868D01*
X149919850Y-213270480D01*
X149897671Y-213280970D01*
X149874572Y-213289235D01*
X149850773Y-213295196D01*
X149826505Y-213298796D01*
X149802001Y-213300000D01*
X148901999Y-213300000D01*
X148877495Y-213298796D01*
X148853227Y-213295196D01*
X148829428Y-213289235D01*
X148806329Y-213280970D01*
X148784150Y-213270480D01*
X148763107Y-213257868D01*
X148743401Y-213243253D01*
X148725223Y-213226777D01*
X148708747Y-213208599D01*
X148694132Y-213188893D01*
X148681520Y-213167850D01*
X148671030Y-213145671D01*
X148662765Y-213122572D01*
X148656804Y-213098773D01*
X148653204Y-213074505D01*
X148652000Y-213050001D01*
X148652000Y-212399999D01*
X148653204Y-212375495D01*
X148656804Y-212351227D01*
X148662765Y-212327428D01*
X148671030Y-212304329D01*
X148681520Y-212282150D01*
X148694132Y-212261107D01*
X148708747Y-212241401D01*
X148725223Y-212223223D01*
X148743401Y-212206747D01*
X148763107Y-212192132D01*
X148784150Y-212179520D01*
X148806329Y-212169030D01*
X148829428Y-212160765D01*
X148853227Y-212154804D01*
X148877495Y-212151204D01*
X148901999Y-212150000D01*
X149802001Y-212150000D01*
X149826505Y-212151204D01*
G37*
G36*
X107535505Y-204168204D02*
G01*
X107559773Y-204171804D01*
X107583572Y-204177765D01*
X107606671Y-204186030D01*
X107628850Y-204196520D01*
X107649893Y-204209132D01*
X107669599Y-204223747D01*
X107687777Y-204240223D01*
X107704253Y-204258401D01*
X107718868Y-204278107D01*
X107731480Y-204299150D01*
X107741970Y-204321329D01*
X107750235Y-204344428D01*
X107756196Y-204368227D01*
X107759796Y-204392495D01*
X107761000Y-204416999D01*
X107761000Y-205067001D01*
X107759796Y-205091505D01*
X107756196Y-205115773D01*
X107750235Y-205139572D01*
X107741970Y-205162671D01*
X107731480Y-205184850D01*
X107718868Y-205205893D01*
X107704253Y-205225599D01*
X107687777Y-205243777D01*
X107669599Y-205260253D01*
X107649893Y-205274868D01*
X107628850Y-205287480D01*
X107606671Y-205297970D01*
X107583572Y-205306235D01*
X107559773Y-205312196D01*
X107535505Y-205315796D01*
X107511001Y-205317000D01*
X106610999Y-205317000D01*
X106586495Y-205315796D01*
X106562227Y-205312196D01*
X106538428Y-205306235D01*
X106515329Y-205297970D01*
X106493150Y-205287480D01*
X106472107Y-205274868D01*
X106452401Y-205260253D01*
X106434223Y-205243777D01*
X106417747Y-205225599D01*
X106403132Y-205205893D01*
X106390520Y-205184850D01*
X106380030Y-205162671D01*
X106371765Y-205139572D01*
X106365804Y-205115773D01*
X106362204Y-205091505D01*
X106361000Y-205067001D01*
X106361000Y-204416999D01*
X106362204Y-204392495D01*
X106365804Y-204368227D01*
X106371765Y-204344428D01*
X106380030Y-204321329D01*
X106390520Y-204299150D01*
X106403132Y-204278107D01*
X106417747Y-204258401D01*
X106434223Y-204240223D01*
X106452401Y-204223747D01*
X106472107Y-204209132D01*
X106493150Y-204196520D01*
X106515329Y-204186030D01*
X106538428Y-204177765D01*
X106562227Y-204171804D01*
X106586495Y-204168204D01*
X106610999Y-204167000D01*
X107511001Y-204167000D01*
X107535505Y-204168204D01*
G37*
G36*
X107535505Y-202118204D02*
G01*
X107559773Y-202121804D01*
X107583572Y-202127765D01*
X107606671Y-202136030D01*
X107628850Y-202146520D01*
X107649893Y-202159132D01*
X107669599Y-202173747D01*
X107687777Y-202190223D01*
X107704253Y-202208401D01*
X107718868Y-202228107D01*
X107731480Y-202249150D01*
X107741970Y-202271329D01*
X107750235Y-202294428D01*
X107756196Y-202318227D01*
X107759796Y-202342495D01*
X107761000Y-202366999D01*
X107761000Y-203017001D01*
X107759796Y-203041505D01*
X107756196Y-203065773D01*
X107750235Y-203089572D01*
X107741970Y-203112671D01*
X107731480Y-203134850D01*
X107718868Y-203155893D01*
X107704253Y-203175599D01*
X107687777Y-203193777D01*
X107669599Y-203210253D01*
X107649893Y-203224868D01*
X107628850Y-203237480D01*
X107606671Y-203247970D01*
X107583572Y-203256235D01*
X107559773Y-203262196D01*
X107535505Y-203265796D01*
X107511001Y-203267000D01*
X106610999Y-203267000D01*
X106586495Y-203265796D01*
X106562227Y-203262196D01*
X106538428Y-203256235D01*
X106515329Y-203247970D01*
X106493150Y-203237480D01*
X106472107Y-203224868D01*
X106452401Y-203210253D01*
X106434223Y-203193777D01*
X106417747Y-203175599D01*
X106403132Y-203155893D01*
X106390520Y-203134850D01*
X106380030Y-203112671D01*
X106371765Y-203089572D01*
X106365804Y-203065773D01*
X106362204Y-203041505D01*
X106361000Y-203017001D01*
X106361000Y-202366999D01*
X106362204Y-202342495D01*
X106365804Y-202318227D01*
X106371765Y-202294428D01*
X106380030Y-202271329D01*
X106390520Y-202249150D01*
X106403132Y-202228107D01*
X106417747Y-202208401D01*
X106434223Y-202190223D01*
X106452401Y-202173747D01*
X106472107Y-202159132D01*
X106493150Y-202146520D01*
X106515329Y-202136030D01*
X106538428Y-202127765D01*
X106562227Y-202121804D01*
X106586495Y-202118204D01*
X106610999Y-202117000D01*
X107511001Y-202117000D01*
X107535505Y-202118204D01*
G37*
G36*
X107535505Y-212151204D02*
G01*
X107559773Y-212154804D01*
X107583572Y-212160765D01*
X107606671Y-212169030D01*
X107628850Y-212179520D01*
X107649893Y-212192132D01*
X107669599Y-212206747D01*
X107687777Y-212223223D01*
X107704253Y-212241401D01*
X107718868Y-212261107D01*
X107731480Y-212282150D01*
X107741970Y-212304329D01*
X107750235Y-212327428D01*
X107756196Y-212351227D01*
X107759796Y-212375495D01*
X107761000Y-212399999D01*
X107761000Y-213050001D01*
X107759796Y-213074505D01*
X107756196Y-213098773D01*
X107750235Y-213122572D01*
X107741970Y-213145671D01*
X107731480Y-213167850D01*
X107718868Y-213188893D01*
X107704253Y-213208599D01*
X107687777Y-213226777D01*
X107669599Y-213243253D01*
X107649893Y-213257868D01*
X107628850Y-213270480D01*
X107606671Y-213280970D01*
X107583572Y-213289235D01*
X107559773Y-213295196D01*
X107535505Y-213298796D01*
X107511001Y-213300000D01*
X106610999Y-213300000D01*
X106586495Y-213298796D01*
X106562227Y-213295196D01*
X106538428Y-213289235D01*
X106515329Y-213280970D01*
X106493150Y-213270480D01*
X106472107Y-213257868D01*
X106452401Y-213243253D01*
X106434223Y-213226777D01*
X106417747Y-213208599D01*
X106403132Y-213188893D01*
X106390520Y-213167850D01*
X106380030Y-213145671D01*
X106371765Y-213122572D01*
X106365804Y-213098773D01*
X106362204Y-213074505D01*
X106361000Y-213050001D01*
X106361000Y-212399999D01*
X106362204Y-212375495D01*
X106365804Y-212351227D01*
X106371765Y-212327428D01*
X106380030Y-212304329D01*
X106390520Y-212282150D01*
X106403132Y-212261107D01*
X106417747Y-212241401D01*
X106434223Y-212223223D01*
X106452401Y-212206747D01*
X106472107Y-212192132D01*
X106493150Y-212179520D01*
X106515329Y-212169030D01*
X106538428Y-212160765D01*
X106562227Y-212154804D01*
X106586495Y-212151204D01*
X106610999Y-212150000D01*
X107511001Y-212150000D01*
X107535505Y-212151204D01*
G37*
G36*
X107535505Y-214201204D02*
G01*
X107559773Y-214204804D01*
X107583572Y-214210765D01*
X107606671Y-214219030D01*
X107628850Y-214229520D01*
X107649893Y-214242132D01*
X107669599Y-214256747D01*
X107687777Y-214273223D01*
X107704253Y-214291401D01*
X107718868Y-214311107D01*
X107731480Y-214332150D01*
X107741970Y-214354329D01*
X107750235Y-214377428D01*
X107756196Y-214401227D01*
X107759796Y-214425495D01*
X107761000Y-214449999D01*
X107761000Y-215100001D01*
X107759796Y-215124505D01*
X107756196Y-215148773D01*
X107750235Y-215172572D01*
X107741970Y-215195671D01*
X107731480Y-215217850D01*
X107718868Y-215238893D01*
X107704253Y-215258599D01*
X107687777Y-215276777D01*
X107669599Y-215293253D01*
X107649893Y-215307868D01*
X107628850Y-215320480D01*
X107606671Y-215330970D01*
X107583572Y-215339235D01*
X107559773Y-215345196D01*
X107535505Y-215348796D01*
X107511001Y-215350000D01*
X106610999Y-215350000D01*
X106586495Y-215348796D01*
X106562227Y-215345196D01*
X106538428Y-215339235D01*
X106515329Y-215330970D01*
X106493150Y-215320480D01*
X106472107Y-215307868D01*
X106452401Y-215293253D01*
X106434223Y-215276777D01*
X106417747Y-215258599D01*
X106403132Y-215238893D01*
X106390520Y-215217850D01*
X106380030Y-215195671D01*
X106371765Y-215172572D01*
X106365804Y-215148773D01*
X106362204Y-215124505D01*
X106361000Y-215100001D01*
X106361000Y-214449999D01*
X106362204Y-214425495D01*
X106365804Y-214401227D01*
X106371765Y-214377428D01*
X106380030Y-214354329D01*
X106390520Y-214332150D01*
X106403132Y-214311107D01*
X106417747Y-214291401D01*
X106434223Y-214273223D01*
X106452401Y-214256747D01*
X106472107Y-214242132D01*
X106493150Y-214229520D01*
X106515329Y-214219030D01*
X106538428Y-214210765D01*
X106562227Y-214204804D01*
X106586495Y-214201204D01*
X106610999Y-214200000D01*
X107511001Y-214200000D01*
X107535505Y-214201204D01*
G37*
G36*
X107535505Y-167184204D02*
G01*
X107559773Y-167187804D01*
X107583572Y-167193765D01*
X107606671Y-167202030D01*
X107628850Y-167212520D01*
X107649893Y-167225132D01*
X107669599Y-167239747D01*
X107687777Y-167256223D01*
X107704253Y-167274401D01*
X107718868Y-167294107D01*
X107731480Y-167315150D01*
X107741970Y-167337329D01*
X107750235Y-167360428D01*
X107756196Y-167384227D01*
X107759796Y-167408495D01*
X107761000Y-167432999D01*
X107761000Y-168083001D01*
X107759796Y-168107505D01*
X107756196Y-168131773D01*
X107750235Y-168155572D01*
X107741970Y-168178671D01*
X107731480Y-168200850D01*
X107718868Y-168221893D01*
X107704253Y-168241599D01*
X107687777Y-168259777D01*
X107669599Y-168276253D01*
X107649893Y-168290868D01*
X107628850Y-168303480D01*
X107606671Y-168313970D01*
X107583572Y-168322235D01*
X107559773Y-168328196D01*
X107535505Y-168331796D01*
X107511001Y-168333000D01*
X106610999Y-168333000D01*
X106586495Y-168331796D01*
X106562227Y-168328196D01*
X106538428Y-168322235D01*
X106515329Y-168313970D01*
X106493150Y-168303480D01*
X106472107Y-168290868D01*
X106452401Y-168276253D01*
X106434223Y-168259777D01*
X106417747Y-168241599D01*
X106403132Y-168221893D01*
X106390520Y-168200850D01*
X106380030Y-168178671D01*
X106371765Y-168155572D01*
X106365804Y-168131773D01*
X106362204Y-168107505D01*
X106361000Y-168083001D01*
X106361000Y-167432999D01*
X106362204Y-167408495D01*
X106365804Y-167384227D01*
X106371765Y-167360428D01*
X106380030Y-167337329D01*
X106390520Y-167315150D01*
X106403132Y-167294107D01*
X106417747Y-167274401D01*
X106434223Y-167256223D01*
X106452401Y-167239747D01*
X106472107Y-167225132D01*
X106493150Y-167212520D01*
X106515329Y-167202030D01*
X106538428Y-167193765D01*
X106562227Y-167187804D01*
X106586495Y-167184204D01*
X106610999Y-167183000D01*
X107511001Y-167183000D01*
X107535505Y-167184204D01*
G37*
G36*
X107535505Y-169234204D02*
G01*
X107559773Y-169237804D01*
X107583572Y-169243765D01*
X107606671Y-169252030D01*
X107628850Y-169262520D01*
X107649893Y-169275132D01*
X107669599Y-169289747D01*
X107687777Y-169306223D01*
X107704253Y-169324401D01*
X107718868Y-169344107D01*
X107731480Y-169365150D01*
X107741970Y-169387329D01*
X107750235Y-169410428D01*
X107756196Y-169434227D01*
X107759796Y-169458495D01*
X107761000Y-169482999D01*
X107761000Y-170133001D01*
X107759796Y-170157505D01*
X107756196Y-170181773D01*
X107750235Y-170205572D01*
X107741970Y-170228671D01*
X107731480Y-170250850D01*
X107718868Y-170271893D01*
X107704253Y-170291599D01*
X107687777Y-170309777D01*
X107669599Y-170326253D01*
X107649893Y-170340868D01*
X107628850Y-170353480D01*
X107606671Y-170363970D01*
X107583572Y-170372235D01*
X107559773Y-170378196D01*
X107535505Y-170381796D01*
X107511001Y-170383000D01*
X106610999Y-170383000D01*
X106586495Y-170381796D01*
X106562227Y-170378196D01*
X106538428Y-170372235D01*
X106515329Y-170363970D01*
X106493150Y-170353480D01*
X106472107Y-170340868D01*
X106452401Y-170326253D01*
X106434223Y-170309777D01*
X106417747Y-170291599D01*
X106403132Y-170271893D01*
X106390520Y-170250850D01*
X106380030Y-170228671D01*
X106371765Y-170205572D01*
X106365804Y-170181773D01*
X106362204Y-170157505D01*
X106361000Y-170133001D01*
X106361000Y-169482999D01*
X106362204Y-169458495D01*
X106365804Y-169434227D01*
X106371765Y-169410428D01*
X106380030Y-169387329D01*
X106390520Y-169365150D01*
X106403132Y-169344107D01*
X106417747Y-169324401D01*
X106434223Y-169306223D01*
X106452401Y-169289747D01*
X106472107Y-169275132D01*
X106493150Y-169262520D01*
X106515329Y-169252030D01*
X106538428Y-169243765D01*
X106562227Y-169237804D01*
X106586495Y-169234204D01*
X106610999Y-169233000D01*
X107511001Y-169233000D01*
X107535505Y-169234204D01*
G37*
G36*
X125315505Y-204041204D02*
G01*
X125339773Y-204044804D01*
X125363572Y-204050765D01*
X125386671Y-204059030D01*
X125408850Y-204069520D01*
X125429893Y-204082132D01*
X125449599Y-204096747D01*
X125467777Y-204113223D01*
X125484253Y-204131401D01*
X125498868Y-204151107D01*
X125511480Y-204172150D01*
X125521970Y-204194329D01*
X125530235Y-204217428D01*
X125536196Y-204241227D01*
X125539796Y-204265495D01*
X125541000Y-204289999D01*
X125541000Y-204940001D01*
X125539796Y-204964505D01*
X125536196Y-204988773D01*
X125530235Y-205012572D01*
X125521970Y-205035671D01*
X125511480Y-205057850D01*
X125498868Y-205078893D01*
X125484253Y-205098599D01*
X125467777Y-205116777D01*
X125449599Y-205133253D01*
X125429893Y-205147868D01*
X125408850Y-205160480D01*
X125386671Y-205170970D01*
X125363572Y-205179235D01*
X125339773Y-205185196D01*
X125315505Y-205188796D01*
X125291001Y-205190000D01*
X124390999Y-205190000D01*
X124366495Y-205188796D01*
X124342227Y-205185196D01*
X124318428Y-205179235D01*
X124295329Y-205170970D01*
X124273150Y-205160480D01*
X124252107Y-205147868D01*
X124232401Y-205133253D01*
X124214223Y-205116777D01*
X124197747Y-205098599D01*
X124183132Y-205078893D01*
X124170520Y-205057850D01*
X124160030Y-205035671D01*
X124151765Y-205012572D01*
X124145804Y-204988773D01*
X124142204Y-204964505D01*
X124141000Y-204940001D01*
X124141000Y-204289999D01*
X124142204Y-204265495D01*
X124145804Y-204241227D01*
X124151765Y-204217428D01*
X124160030Y-204194329D01*
X124170520Y-204172150D01*
X124183132Y-204151107D01*
X124197747Y-204131401D01*
X124214223Y-204113223D01*
X124232401Y-204096747D01*
X124252107Y-204082132D01*
X124273150Y-204069520D01*
X124295329Y-204059030D01*
X124318428Y-204050765D01*
X124342227Y-204044804D01*
X124366495Y-204041204D01*
X124390999Y-204040000D01*
X125291001Y-204040000D01*
X125315505Y-204041204D01*
G37*
G36*
X125315505Y-201991204D02*
G01*
X125339773Y-201994804D01*
X125363572Y-202000765D01*
X125386671Y-202009030D01*
X125408850Y-202019520D01*
X125429893Y-202032132D01*
X125449599Y-202046747D01*
X125467777Y-202063223D01*
X125484253Y-202081401D01*
X125498868Y-202101107D01*
X125511480Y-202122150D01*
X125521970Y-202144329D01*
X125530235Y-202167428D01*
X125536196Y-202191227D01*
X125539796Y-202215495D01*
X125541000Y-202239999D01*
X125541000Y-202890001D01*
X125539796Y-202914505D01*
X125536196Y-202938773D01*
X125530235Y-202962572D01*
X125521970Y-202985671D01*
X125511480Y-203007850D01*
X125498868Y-203028893D01*
X125484253Y-203048599D01*
X125467777Y-203066777D01*
X125449599Y-203083253D01*
X125429893Y-203097868D01*
X125408850Y-203110480D01*
X125386671Y-203120970D01*
X125363572Y-203129235D01*
X125339773Y-203135196D01*
X125315505Y-203138796D01*
X125291001Y-203140000D01*
X124390999Y-203140000D01*
X124366495Y-203138796D01*
X124342227Y-203135196D01*
X124318428Y-203129235D01*
X124295329Y-203120970D01*
X124273150Y-203110480D01*
X124252107Y-203097868D01*
X124232401Y-203083253D01*
X124214223Y-203066777D01*
X124197747Y-203048599D01*
X124183132Y-203028893D01*
X124170520Y-203007850D01*
X124160030Y-202985671D01*
X124151765Y-202962572D01*
X124145804Y-202938773D01*
X124142204Y-202914505D01*
X124141000Y-202890001D01*
X124141000Y-202239999D01*
X124142204Y-202215495D01*
X124145804Y-202191227D01*
X124151765Y-202167428D01*
X124160030Y-202144329D01*
X124170520Y-202122150D01*
X124183132Y-202101107D01*
X124197747Y-202081401D01*
X124214223Y-202063223D01*
X124232401Y-202046747D01*
X124252107Y-202032132D01*
X124273150Y-202019520D01*
X124295329Y-202009030D01*
X124318428Y-202000765D01*
X124342227Y-201994804D01*
X124366495Y-201991204D01*
X124390999Y-201990000D01*
X125291001Y-201990000D01*
X125315505Y-201991204D01*
G37*
G36*
X125315505Y-212151204D02*
G01*
X125339773Y-212154804D01*
X125363572Y-212160765D01*
X125386671Y-212169030D01*
X125408850Y-212179520D01*
X125429893Y-212192132D01*
X125449599Y-212206747D01*
X125467777Y-212223223D01*
X125484253Y-212241401D01*
X125498868Y-212261107D01*
X125511480Y-212282150D01*
X125521970Y-212304329D01*
X125530235Y-212327428D01*
X125536196Y-212351227D01*
X125539796Y-212375495D01*
X125541000Y-212399999D01*
X125541000Y-213050001D01*
X125539796Y-213074505D01*
X125536196Y-213098773D01*
X125530235Y-213122572D01*
X125521970Y-213145671D01*
X125511480Y-213167850D01*
X125498868Y-213188893D01*
X125484253Y-213208599D01*
X125467777Y-213226777D01*
X125449599Y-213243253D01*
X125429893Y-213257868D01*
X125408850Y-213270480D01*
X125386671Y-213280970D01*
X125363572Y-213289235D01*
X125339773Y-213295196D01*
X125315505Y-213298796D01*
X125291001Y-213300000D01*
X124390999Y-213300000D01*
X124366495Y-213298796D01*
X124342227Y-213295196D01*
X124318428Y-213289235D01*
X124295329Y-213280970D01*
X124273150Y-213270480D01*
X124252107Y-213257868D01*
X124232401Y-213243253D01*
X124214223Y-213226777D01*
X124197747Y-213208599D01*
X124183132Y-213188893D01*
X124170520Y-213167850D01*
X124160030Y-213145671D01*
X124151765Y-213122572D01*
X124145804Y-213098773D01*
X124142204Y-213074505D01*
X124141000Y-213050001D01*
X124141000Y-212399999D01*
X124142204Y-212375495D01*
X124145804Y-212351227D01*
X124151765Y-212327428D01*
X124160030Y-212304329D01*
X124170520Y-212282150D01*
X124183132Y-212261107D01*
X124197747Y-212241401D01*
X124214223Y-212223223D01*
X124232401Y-212206747D01*
X124252107Y-212192132D01*
X124273150Y-212179520D01*
X124295329Y-212169030D01*
X124318428Y-212160765D01*
X124342227Y-212154804D01*
X124366495Y-212151204D01*
X124390999Y-212150000D01*
X125291001Y-212150000D01*
X125315505Y-212151204D01*
G37*
G36*
X125315505Y-214201204D02*
G01*
X125339773Y-214204804D01*
X125363572Y-214210765D01*
X125386671Y-214219030D01*
X125408850Y-214229520D01*
X125429893Y-214242132D01*
X125449599Y-214256747D01*
X125467777Y-214273223D01*
X125484253Y-214291401D01*
X125498868Y-214311107D01*
X125511480Y-214332150D01*
X125521970Y-214354329D01*
X125530235Y-214377428D01*
X125536196Y-214401227D01*
X125539796Y-214425495D01*
X125541000Y-214449999D01*
X125541000Y-215100001D01*
X125539796Y-215124505D01*
X125536196Y-215148773D01*
X125530235Y-215172572D01*
X125521970Y-215195671D01*
X125511480Y-215217850D01*
X125498868Y-215238893D01*
X125484253Y-215258599D01*
X125467777Y-215276777D01*
X125449599Y-215293253D01*
X125429893Y-215307868D01*
X125408850Y-215320480D01*
X125386671Y-215330970D01*
X125363572Y-215339235D01*
X125339773Y-215345196D01*
X125315505Y-215348796D01*
X125291001Y-215350000D01*
X124390999Y-215350000D01*
X124366495Y-215348796D01*
X124342227Y-215345196D01*
X124318428Y-215339235D01*
X124295329Y-215330970D01*
X124273150Y-215320480D01*
X124252107Y-215307868D01*
X124232401Y-215293253D01*
X124214223Y-215276777D01*
X124197747Y-215258599D01*
X124183132Y-215238893D01*
X124170520Y-215217850D01*
X124160030Y-215195671D01*
X124151765Y-215172572D01*
X124145804Y-215148773D01*
X124142204Y-215124505D01*
X124141000Y-215100001D01*
X124141000Y-214449999D01*
X124142204Y-214425495D01*
X124145804Y-214401227D01*
X124151765Y-214377428D01*
X124160030Y-214354329D01*
X124170520Y-214332150D01*
X124183132Y-214311107D01*
X124197747Y-214291401D01*
X124214223Y-214273223D01*
X124232401Y-214256747D01*
X124252107Y-214242132D01*
X124273150Y-214229520D01*
X124295329Y-214219030D01*
X124318428Y-214210765D01*
X124342227Y-214204804D01*
X124366495Y-214201204D01*
X124390999Y-214200000D01*
X125291001Y-214200000D01*
X125315505Y-214201204D01*
G37*
G36*
X107662505Y-184347204D02*
G01*
X107686773Y-184350804D01*
X107710572Y-184356765D01*
X107733671Y-184365030D01*
X107755850Y-184375520D01*
X107776893Y-184388132D01*
X107796599Y-184402747D01*
X107814777Y-184419223D01*
X107831253Y-184437401D01*
X107845868Y-184457107D01*
X107858480Y-184478150D01*
X107868970Y-184500329D01*
X107877235Y-184523428D01*
X107883196Y-184547227D01*
X107886796Y-184571495D01*
X107888000Y-184595999D01*
X107888000Y-185246001D01*
X107886796Y-185270505D01*
X107883196Y-185294773D01*
X107877235Y-185318572D01*
X107868970Y-185341671D01*
X107858480Y-185363850D01*
X107845868Y-185384893D01*
X107831253Y-185404599D01*
X107814777Y-185422777D01*
X107796599Y-185439253D01*
X107776893Y-185453868D01*
X107755850Y-185466480D01*
X107733671Y-185476970D01*
X107710572Y-185485235D01*
X107686773Y-185491196D01*
X107662505Y-185494796D01*
X107638001Y-185496000D01*
X106737999Y-185496000D01*
X106713495Y-185494796D01*
X106689227Y-185491196D01*
X106665428Y-185485235D01*
X106642329Y-185476970D01*
X106620150Y-185466480D01*
X106599107Y-185453868D01*
X106579401Y-185439253D01*
X106561223Y-185422777D01*
X106544747Y-185404599D01*
X106530132Y-185384893D01*
X106517520Y-185363850D01*
X106507030Y-185341671D01*
X106498765Y-185318572D01*
X106492804Y-185294773D01*
X106489204Y-185270505D01*
X106488000Y-185246001D01*
X106488000Y-184595999D01*
X106489204Y-184571495D01*
X106492804Y-184547227D01*
X106498765Y-184523428D01*
X106507030Y-184500329D01*
X106517520Y-184478150D01*
X106530132Y-184457107D01*
X106544747Y-184437401D01*
X106561223Y-184419223D01*
X106579401Y-184402747D01*
X106599107Y-184388132D01*
X106620150Y-184375520D01*
X106642329Y-184365030D01*
X106665428Y-184356765D01*
X106689227Y-184350804D01*
X106713495Y-184347204D01*
X106737999Y-184346000D01*
X107638001Y-184346000D01*
X107662505Y-184347204D01*
G37*
G36*
X107662505Y-182297204D02*
G01*
X107686773Y-182300804D01*
X107710572Y-182306765D01*
X107733671Y-182315030D01*
X107755850Y-182325520D01*
X107776893Y-182338132D01*
X107796599Y-182352747D01*
X107814777Y-182369223D01*
X107831253Y-182387401D01*
X107845868Y-182407107D01*
X107858480Y-182428150D01*
X107868970Y-182450329D01*
X107877235Y-182473428D01*
X107883196Y-182497227D01*
X107886796Y-182521495D01*
X107888000Y-182545999D01*
X107888000Y-183196001D01*
X107886796Y-183220505D01*
X107883196Y-183244773D01*
X107877235Y-183268572D01*
X107868970Y-183291671D01*
X107858480Y-183313850D01*
X107845868Y-183334893D01*
X107831253Y-183354599D01*
X107814777Y-183372777D01*
X107796599Y-183389253D01*
X107776893Y-183403868D01*
X107755850Y-183416480D01*
X107733671Y-183426970D01*
X107710572Y-183435235D01*
X107686773Y-183441196D01*
X107662505Y-183444796D01*
X107638001Y-183446000D01*
X106737999Y-183446000D01*
X106713495Y-183444796D01*
X106689227Y-183441196D01*
X106665428Y-183435235D01*
X106642329Y-183426970D01*
X106620150Y-183416480D01*
X106599107Y-183403868D01*
X106579401Y-183389253D01*
X106561223Y-183372777D01*
X106544747Y-183354599D01*
X106530132Y-183334893D01*
X106517520Y-183313850D01*
X106507030Y-183291671D01*
X106498765Y-183268572D01*
X106492804Y-183244773D01*
X106489204Y-183220505D01*
X106488000Y-183196001D01*
X106488000Y-182545999D01*
X106489204Y-182521495D01*
X106492804Y-182497227D01*
X106498765Y-182473428D01*
X106507030Y-182450329D01*
X106517520Y-182428150D01*
X106530132Y-182407107D01*
X106544747Y-182387401D01*
X106561223Y-182369223D01*
X106579401Y-182352747D01*
X106599107Y-182338132D01*
X106620150Y-182325520D01*
X106642329Y-182315030D01*
X106665428Y-182306765D01*
X106689227Y-182300804D01*
X106713495Y-182297204D01*
X106737999Y-182296000D01*
X107638001Y-182296000D01*
X107662505Y-182297204D01*
G37*
G36*
X152620505Y-167184204D02*
G01*
X152644773Y-167187804D01*
X152668572Y-167193765D01*
X152691671Y-167202030D01*
X152713850Y-167212520D01*
X152734893Y-167225132D01*
X152754599Y-167239747D01*
X152772777Y-167256223D01*
X152789253Y-167274401D01*
X152803868Y-167294107D01*
X152816480Y-167315150D01*
X152826970Y-167337329D01*
X152835235Y-167360428D01*
X152841196Y-167384227D01*
X152844796Y-167408495D01*
X152846000Y-167432999D01*
X152846000Y-168083001D01*
X152844796Y-168107505D01*
X152841196Y-168131773D01*
X152835235Y-168155572D01*
X152826970Y-168178671D01*
X152816480Y-168200850D01*
X152803868Y-168221893D01*
X152789253Y-168241599D01*
X152772777Y-168259777D01*
X152754599Y-168276253D01*
X152734893Y-168290868D01*
X152713850Y-168303480D01*
X152691671Y-168313970D01*
X152668572Y-168322235D01*
X152644773Y-168328196D01*
X152620505Y-168331796D01*
X152596001Y-168333000D01*
X151695999Y-168333000D01*
X151671495Y-168331796D01*
X151647227Y-168328196D01*
X151623428Y-168322235D01*
X151600329Y-168313970D01*
X151578150Y-168303480D01*
X151557107Y-168290868D01*
X151537401Y-168276253D01*
X151519223Y-168259777D01*
X151502747Y-168241599D01*
X151488132Y-168221893D01*
X151475520Y-168200850D01*
X151465030Y-168178671D01*
X151456765Y-168155572D01*
X151450804Y-168131773D01*
X151447204Y-168107505D01*
X151446000Y-168083001D01*
X151446000Y-167432999D01*
X151447204Y-167408495D01*
X151450804Y-167384227D01*
X151456765Y-167360428D01*
X151465030Y-167337329D01*
X151475520Y-167315150D01*
X151488132Y-167294107D01*
X151502747Y-167274401D01*
X151519223Y-167256223D01*
X151537401Y-167239747D01*
X151557107Y-167225132D01*
X151578150Y-167212520D01*
X151600329Y-167202030D01*
X151623428Y-167193765D01*
X151647227Y-167187804D01*
X151671495Y-167184204D01*
X151695999Y-167183000D01*
X152596001Y-167183000D01*
X152620505Y-167184204D01*
G37*
G36*
X152620505Y-169234204D02*
G01*
X152644773Y-169237804D01*
X152668572Y-169243765D01*
X152691671Y-169252030D01*
X152713850Y-169262520D01*
X152734893Y-169275132D01*
X152754599Y-169289747D01*
X152772777Y-169306223D01*
X152789253Y-169324401D01*
X152803868Y-169344107D01*
X152816480Y-169365150D01*
X152826970Y-169387329D01*
X152835235Y-169410428D01*
X152841196Y-169434227D01*
X152844796Y-169458495D01*
X152846000Y-169482999D01*
X152846000Y-170133001D01*
X152844796Y-170157505D01*
X152841196Y-170181773D01*
X152835235Y-170205572D01*
X152826970Y-170228671D01*
X152816480Y-170250850D01*
X152803868Y-170271893D01*
X152789253Y-170291599D01*
X152772777Y-170309777D01*
X152754599Y-170326253D01*
X152734893Y-170340868D01*
X152713850Y-170353480D01*
X152691671Y-170363970D01*
X152668572Y-170372235D01*
X152644773Y-170378196D01*
X152620505Y-170381796D01*
X152596001Y-170383000D01*
X151695999Y-170383000D01*
X151671495Y-170381796D01*
X151647227Y-170378196D01*
X151623428Y-170372235D01*
X151600329Y-170363970D01*
X151578150Y-170353480D01*
X151557107Y-170340868D01*
X151537401Y-170326253D01*
X151519223Y-170309777D01*
X151502747Y-170291599D01*
X151488132Y-170271893D01*
X151475520Y-170250850D01*
X151465030Y-170228671D01*
X151456765Y-170205572D01*
X151450804Y-170181773D01*
X151447204Y-170157505D01*
X151446000Y-170133001D01*
X151446000Y-169482999D01*
X151447204Y-169458495D01*
X151450804Y-169434227D01*
X151456765Y-169410428D01*
X151465030Y-169387329D01*
X151475520Y-169365150D01*
X151488132Y-169344107D01*
X151502747Y-169324401D01*
X151519223Y-169306223D01*
X151537401Y-169289747D01*
X151557107Y-169275132D01*
X151578150Y-169262520D01*
X151600329Y-169252030D01*
X151623428Y-169243765D01*
X151647227Y-169237804D01*
X151671495Y-169234204D01*
X151695999Y-169233000D01*
X152596001Y-169233000D01*
X152620505Y-169234204D01*
G37*
G36*
X152620505Y-183839204D02*
G01*
X152644773Y-183842804D01*
X152668572Y-183848765D01*
X152691671Y-183857030D01*
X152713850Y-183867520D01*
X152734893Y-183880132D01*
X152754599Y-183894747D01*
X152772777Y-183911223D01*
X152789253Y-183929401D01*
X152803868Y-183949107D01*
X152816480Y-183970150D01*
X152826970Y-183992329D01*
X152835235Y-184015428D01*
X152841196Y-184039227D01*
X152844796Y-184063495D01*
X152846000Y-184087999D01*
X152846000Y-184738001D01*
X152844796Y-184762505D01*
X152841196Y-184786773D01*
X152835235Y-184810572D01*
X152826970Y-184833671D01*
X152816480Y-184855850D01*
X152803868Y-184876893D01*
X152789253Y-184896599D01*
X152772777Y-184914777D01*
X152754599Y-184931253D01*
X152734893Y-184945868D01*
X152713850Y-184958480D01*
X152691671Y-184968970D01*
X152668572Y-184977235D01*
X152644773Y-184983196D01*
X152620505Y-184986796D01*
X152596001Y-184988000D01*
X151695999Y-184988000D01*
X151671495Y-184986796D01*
X151647227Y-184983196D01*
X151623428Y-184977235D01*
X151600329Y-184968970D01*
X151578150Y-184958480D01*
X151557107Y-184945868D01*
X151537401Y-184931253D01*
X151519223Y-184914777D01*
X151502747Y-184896599D01*
X151488132Y-184876893D01*
X151475520Y-184855850D01*
X151465030Y-184833671D01*
X151456765Y-184810572D01*
X151450804Y-184786773D01*
X151447204Y-184762505D01*
X151446000Y-184738001D01*
X151446000Y-184087999D01*
X151447204Y-184063495D01*
X151450804Y-184039227D01*
X151456765Y-184015428D01*
X151465030Y-183992329D01*
X151475520Y-183970150D01*
X151488132Y-183949107D01*
X151502747Y-183929401D01*
X151519223Y-183911223D01*
X151537401Y-183894747D01*
X151557107Y-183880132D01*
X151578150Y-183867520D01*
X151600329Y-183857030D01*
X151623428Y-183848765D01*
X151647227Y-183842804D01*
X151671495Y-183839204D01*
X151695999Y-183838000D01*
X152596001Y-183838000D01*
X152620505Y-183839204D01*
G37*
G36*
X152620505Y-181789204D02*
G01*
X152644773Y-181792804D01*
X152668572Y-181798765D01*
X152691671Y-181807030D01*
X152713850Y-181817520D01*
X152734893Y-181830132D01*
X152754599Y-181844747D01*
X152772777Y-181861223D01*
X152789253Y-181879401D01*
X152803868Y-181899107D01*
X152816480Y-181920150D01*
X152826970Y-181942329D01*
X152835235Y-181965428D01*
X152841196Y-181989227D01*
X152844796Y-182013495D01*
X152846000Y-182037999D01*
X152846000Y-182688001D01*
X152844796Y-182712505D01*
X152841196Y-182736773D01*
X152835235Y-182760572D01*
X152826970Y-182783671D01*
X152816480Y-182805850D01*
X152803868Y-182826893D01*
X152789253Y-182846599D01*
X152772777Y-182864777D01*
X152754599Y-182881253D01*
X152734893Y-182895868D01*
X152713850Y-182908480D01*
X152691671Y-182918970D01*
X152668572Y-182927235D01*
X152644773Y-182933196D01*
X152620505Y-182936796D01*
X152596001Y-182938000D01*
X151695999Y-182938000D01*
X151671495Y-182936796D01*
X151647227Y-182933196D01*
X151623428Y-182927235D01*
X151600329Y-182918970D01*
X151578150Y-182908480D01*
X151557107Y-182895868D01*
X151537401Y-182881253D01*
X151519223Y-182864777D01*
X151502747Y-182846599D01*
X151488132Y-182826893D01*
X151475520Y-182805850D01*
X151465030Y-182783671D01*
X151456765Y-182760572D01*
X151450804Y-182736773D01*
X151447204Y-182712505D01*
X151446000Y-182688001D01*
X151446000Y-182037999D01*
X151447204Y-182013495D01*
X151450804Y-181989227D01*
X151456765Y-181965428D01*
X151465030Y-181942329D01*
X151475520Y-181920150D01*
X151488132Y-181899107D01*
X151502747Y-181879401D01*
X151519223Y-181861223D01*
X151537401Y-181844747D01*
X151557107Y-181830132D01*
X151578150Y-181817520D01*
X151600329Y-181807030D01*
X151623428Y-181798765D01*
X151647227Y-181792804D01*
X151671495Y-181789204D01*
X151695999Y-181788000D01*
X152596001Y-181788000D01*
X152620505Y-181789204D01*
G37*
M02*
