M48
; DRILL file {KiCad (5.1.5-0)} date 2020 March 21, Saturday 20:30:00
; FORMAT={-:-/ absolute / inch / decimal}
; #@! TF.CreationDate,2020-03-21T20:30:00+01:00
; #@! TF.GenerationSoftware,Kicad,Pcbnew,(5.1.5-0)
; #@! TF.FileFunction,Plated,1,2,PTH
FMAT,2
INCH
T1C0.0157
T2C0.0300
T3C0.0315
T4C0.0394
T5C0.0400
%
G90
G05
T1
X2.15Y-4.42
X2.63Y-4.8711
X3.6811Y-4.0157
X3.83Y-2.635
X4.2126Y-7.4016
X5.9449Y-2.6772
X6.0236Y-2.6772
X6.5743Y-6.0044
X7.185Y-2.0472
X7.2638Y-2.0866
X7.4113Y-3.0213
X7.415Y-2.64
X7.545Y-2.685
X7.5454Y-2.506
T2
X1.6081Y-7.3581
X1.6081Y-8.1219
X3.3719Y-7.3581
X3.3719Y-8.1219
X1.6081Y-6.1981
X1.6081Y-6.9619
X3.3719Y-6.1981
X3.3719Y-6.9619
T3
X0.8231Y-7.15
X0.9216Y-7.2563
X1.02Y-7.15
T4
X6.02Y-7.874
X6.12Y-7.874
X6.22Y-7.874
X6.32Y-7.874
X9.83Y-2.225
X9.83Y-2.325
X9.83Y-2.425
X9.83Y-2.525
X9.83Y-2.625
X9.83Y-2.725
X9.83Y-2.825
X9.83Y-2.925
X9.83Y-3.025
X9.83Y-3.125
X9.83Y-3.225
X9.83Y-3.325
X9.83Y-3.425
X9.83Y-3.525
X9.83Y-3.625
X7.9109Y-6.2992
X8.0109Y-6.2992
X7.9109Y-7.4803
X8.0109Y-7.4803
X7.0291Y-3.1378
X7.0291Y-3.2378
X7.0291Y-3.3378
X7.0291Y-3.4378
X7.0291Y-3.5378
X7.0291Y-3.6378
X7.0291Y-3.7378
X7.0291Y-3.8378
X4.22Y-7.874
X4.32Y-7.874
X4.42Y-7.874
X4.9181Y-7.874
X5.0181Y-7.874
X5.1181Y-7.874
X7.3591Y-1.7913
X7.3591Y-1.8913
X7.4591Y-1.7913
X7.4591Y-1.8913
X7.5591Y-1.7913
X7.5591Y-1.8913
X2.4606Y-5.1071
X2.4606Y-5.2071
X2.4606Y-5.3071
X2.4606Y-5.4071
X2.4606Y-5.5071
X2.4606Y-5.6071
X2.4606Y-5.7071
X2.4606Y-5.8071
X4.9181Y-8.2677
X5.0181Y-8.2677
X5.1181Y-8.2677
X5.88Y-8.2677
X5.98Y-8.2677
X6.08Y-8.2677
X6.18Y-8.2677
X6.28Y-8.2677
X6.38Y-8.2677
X6.48Y-8.2677
X3.3072Y-1.9181
X3.3072Y-2.0181
X3.3072Y-2.1181
X3.3072Y-2.2181
X3.3072Y-2.3181
X3.3072Y-2.4181
X3.3072Y-2.5181
X3.3072Y-2.6181
X3.3072Y-2.7181
X3.3072Y-2.8181
X3.3072Y-2.9181
X3.3072Y-3.0181
X3.3072Y-3.1181
X3.3072Y-3.2181
X3.3072Y-3.3181
X3.3072Y-3.4181
X3.3072Y-3.5181
X3.3072Y-3.6181
X3.3072Y-3.7181
X3.3072Y-3.8181
X3.4072Y-1.9181
X3.4072Y-2.0181
X3.4072Y-2.1181
X3.4072Y-2.2181
X3.4072Y-2.3181
X3.4072Y-2.4181
X3.4072Y-2.5181
X3.4072Y-2.6181
X3.4072Y-2.7181
X3.4072Y-2.8181
X3.4072Y-2.9181
X3.4072Y-3.0181
X3.4072Y-3.1181
X3.4072Y-3.2181
X3.4072Y-3.3181
X3.4072Y-3.4181
X3.4072Y-3.5181
X3.4072Y-3.6181
X3.4072Y-3.7181
X3.4072Y-3.8181
X4.22Y-8.2677
X4.32Y-8.2677
X4.42Y-8.2677
X7.5945Y-5.0079
X7.6945Y-5.0079
X7.7945Y-5.0079
X7.8945Y-5.0079
X7.9945Y-5.0079
X8.0945Y-5.0079
X7.9109Y-6.6929
X8.0109Y-6.6929
X4.6295Y-3.8382
X4.6295Y-3.9382
X4.6295Y-4.0382
X4.6295Y-4.1382
X4.6295Y-4.2382
X4.6295Y-4.3382
X4.6295Y-4.4382
X4.6295Y-4.5382
X7.9109Y-7.874
X8.0109Y-7.874
X1.53Y-4.58
X1.53Y-4.68
X1.63Y-4.58
X1.63Y-4.68
X1.73Y-4.58
X1.73Y-4.68
X1.83Y-4.58
X1.83Y-4.68
X1.93Y-4.58
X1.93Y-4.68
X2.03Y-4.58
X2.03Y-4.68
X2.13Y-4.58
X2.13Y-4.68
X2.23Y-4.58
X2.23Y-4.68
X3.98Y-1.9181
X3.98Y-2.025
X3.98Y-2.125
X3.98Y-2.225
X3.98Y-2.325
X3.98Y-2.425
X3.98Y-2.525
X3.98Y-2.625
X3.98Y-2.725
X3.98Y-2.825
X3.98Y-2.925
X3.98Y-3.025
X3.98Y-3.125
X3.98Y-3.225
X3.98Y-3.325
X3.98Y-3.425
X3.98Y-3.525
X3.98Y-3.625
X3.98Y-3.725
X3.98Y-3.825
X3.7Y-1.9181
X3.7Y-2.025
X3.7Y-2.125
X3.7Y-2.225
X3.7Y-2.325
X3.7Y-2.425
X3.7Y-2.525
X3.7Y-2.625
X3.7Y-2.725
X3.7Y-2.825
X3.7Y-2.925
X3.7Y-3.025
X3.7Y-3.125
X3.7Y-3.225
X3.7Y-3.325
X3.7Y-3.425
X3.7Y-3.525
X3.7Y-3.625
X3.7Y-3.725
X3.7Y-3.825
X7.83Y-2.225
X7.83Y-2.325
X7.83Y-2.425
X7.83Y-2.525
X7.83Y-2.625
X7.83Y-2.725
X7.83Y-2.825
X7.83Y-2.925
X7.83Y-3.025
X7.83Y-3.125
X7.83Y-3.225
X7.83Y-3.325
X7.83Y-3.425
X7.83Y-3.525
X7.83Y-3.625
X5.9898Y-7.0866
X6.0898Y-7.0866
X6.1898Y-7.0866
X6.2898Y-7.0866
X6.3898Y-7.0866
X6.4898Y-7.0866
X6.5898Y-7.0866
X6.6898Y-7.0866
X6.7898Y-7.0866
X6.8898Y-7.0866
X8.83Y-2.225
X8.83Y-2.325
X8.83Y-2.425
X8.83Y-2.525
X8.83Y-2.625
X8.83Y-2.725
X8.83Y-2.825
X8.83Y-2.925
X8.83Y-3.025
X8.83Y-3.125
X8.83Y-3.225
X8.83Y-3.325
X8.83Y-3.425
X8.83Y-3.525
X8.83Y-3.625
X6.96Y-7.874
X7.06Y-7.874
X7.16Y-7.874
X7.26Y-7.874
X7.0287Y-4.0382
X7.0287Y-4.1382
X7.0287Y-4.2382
X7.0287Y-4.3382
X7.0287Y-4.4382
X7.0287Y-4.5382
X7.0287Y-4.6382
X7.0287Y-4.7382
X4.6291Y-1.878
X4.6291Y-1.978
X4.6291Y-2.078
X4.6291Y-2.178
X4.6291Y-2.278
X4.6291Y-2.378
X4.6291Y-2.478
X4.6291Y-2.578
X4.6291Y-2.678
X4.6291Y-2.778
X7.9109Y-7.0866
X8.0109Y-7.0866
X1.7717Y-5.1071
X1.7717Y-5.2071
X1.7717Y-5.3071
X1.7717Y-5.4071
X1.7717Y-5.5071
X1.7717Y-5.6071
X1.7717Y-5.7071
X1.7717Y-5.8071
X3.1496Y-5.1071
X3.1496Y-5.2071
X3.1496Y-5.3071
X3.1496Y-5.4071
X3.1496Y-5.5071
X3.1496Y-5.6071
X3.1496Y-5.7071
X3.1496Y-5.8071
X7.0291Y-2.2386
X7.0291Y-2.3386
X7.0291Y-2.4386
X7.0291Y-2.5386
X7.0291Y-2.6386
X7.0291Y-2.7386
X7.0291Y-2.8386
X7.0291Y-2.9386
X12.83Y-2.225
X12.83Y-2.325
X12.83Y-2.425
X12.83Y-2.525
X12.83Y-2.625
X12.83Y-2.725
X12.83Y-2.825
X12.83Y-2.925
X12.83Y-3.025
X12.83Y-3.125
X12.83Y-3.225
X12.83Y-3.325
X12.83Y-3.425
X12.83Y-3.525
X12.83Y-3.625
X7.9109Y-5.9055
X8.0109Y-5.9055
X10.83Y-2.225
X10.83Y-2.325
X10.83Y-2.425
X10.83Y-2.525
X10.83Y-2.625
X10.83Y-2.725
X10.83Y-2.825
X10.83Y-2.925
X10.83Y-3.025
X10.83Y-3.125
X10.83Y-3.225
X10.83Y-3.325
X10.83Y-3.425
X10.83Y-3.525
X10.83Y-3.625
X4.2181Y-6.4961
X4.3181Y-6.4961
X4.4181Y-6.4961
X4.5181Y-6.4961
X4.6181Y-6.4961
X4.7181Y-6.4961
X4.8181Y-6.4961
X4.9181Y-6.4961
X5.0181Y-6.4961
X5.1181Y-6.4961
X4.8799Y-5.3
X4.8799Y-5.4
X4.9799Y-5.3
X4.9799Y-5.4
X5.0799Y-5.3
X5.0799Y-5.4
X5.1799Y-5.3
X5.1799Y-5.4
X5.2799Y-5.3
X5.2799Y-5.4
X5.3799Y-5.3
X5.3799Y-5.4
X5.4799Y-5.3
X5.4799Y-5.4
X5.5799Y-5.3
X5.5799Y-5.4
X5.6799Y-5.3
X5.6799Y-5.4
X5.7799Y-5.3
X5.7799Y-5.4
X5.8799Y-5.3
X5.8799Y-5.4
X5.9799Y-5.3
X5.9799Y-5.4
X6.0799Y-5.3
X6.0799Y-5.4
X6.1799Y-5.3
X6.1799Y-5.4
X6.2799Y-5.3
X6.2799Y-5.4
X6.3799Y-5.3
X6.3799Y-5.4
X6.4799Y-5.3
X6.4799Y-5.4
X6.5799Y-5.3
X6.5799Y-5.4
X11.83Y-2.225
X11.83Y-2.325
X11.83Y-2.425
X11.83Y-2.525
X11.83Y-2.625
X11.83Y-2.725
X11.83Y-2.825
X11.83Y-2.925
X11.83Y-3.025
X11.83Y-3.125
X11.83Y-3.225
X11.83Y-3.325
X11.83Y-3.425
X11.83Y-3.525
X11.83Y-3.625
X5.9898Y-6.4961
X6.0898Y-6.4961
X6.1898Y-6.4961
X6.2898Y-6.4961
X6.3898Y-6.4961
X6.4898Y-6.4961
X6.5898Y-6.4961
X6.6898Y-6.4961
X6.7898Y-6.4961
X6.8898Y-6.4961
X2.53Y-4.58
X2.53Y-4.68
X2.63Y-4.58
X2.63Y-4.68
X2.73Y-4.58
X2.73Y-4.68
X2.83Y-4.58
X2.83Y-4.68
X2.93Y-4.58
X2.93Y-4.68
X3.03Y-4.58
X3.03Y-4.68
X3.13Y-4.58
X3.13Y-4.68
X3.23Y-4.58
X3.23Y-4.68
X4.6291Y-2.9386
X4.6291Y-3.0386
X4.6291Y-3.1386
X4.6291Y-3.2386
X4.6291Y-3.3386
X4.6291Y-3.4386
X4.6291Y-3.5386
X4.6291Y-3.6386
X4.2181Y-7.0866
X4.3181Y-7.0866
X4.4181Y-7.0866
X4.5181Y-7.0866
X4.6181Y-7.0866
X4.7181Y-7.0866
X4.8181Y-7.0866
X4.9181Y-7.0866
X5.0181Y-7.0866
X5.1181Y-7.0866
T5
X12.03Y-2.225
X12.03Y-2.325
X12.03Y-2.425
X12.03Y-2.525
X12.03Y-2.625
X12.03Y-2.725
X12.03Y-2.825
X12.03Y-2.925
X12.03Y-3.025
X12.03Y-3.125
X12.03Y-3.225
X12.03Y-3.325
X12.03Y-3.425
X12.03Y-3.525
X12.03Y-3.625
X12.63Y-2.225
X12.63Y-2.325
X12.63Y-2.425
X12.63Y-2.525
X12.63Y-2.625
X12.63Y-2.725
X12.63Y-2.825
X12.63Y-2.925
X12.63Y-3.025
X12.63Y-3.125
X12.63Y-3.225
X12.63Y-3.325
X12.63Y-3.425
X12.63Y-3.525
X12.63Y-3.625
X8.03Y-2.225
X8.03Y-2.325
X8.03Y-2.425
X8.03Y-2.525
X8.03Y-2.625
X8.03Y-2.725
X8.03Y-2.825
X8.03Y-2.925
X8.03Y-3.025
X8.03Y-3.125
X8.03Y-3.225
X8.03Y-3.325
X8.03Y-3.425
X8.03Y-3.525
X8.03Y-3.625
X8.63Y-2.225
X8.63Y-2.325
X8.63Y-2.425
X8.63Y-2.525
X8.63Y-2.625
X8.63Y-2.725
X8.63Y-2.825
X8.63Y-2.925
X8.63Y-3.025
X8.63Y-3.125
X8.63Y-3.225
X8.63Y-3.325
X8.63Y-3.425
X8.63Y-3.525
X8.63Y-3.625
X4.8799Y-1.8786
X4.8799Y-1.9786
X4.8799Y-2.0786
X4.8799Y-2.1786
X4.8799Y-2.2786
X4.8799Y-2.3786
X4.8799Y-2.4786
X4.8799Y-2.5786
X4.8799Y-2.6786
X4.8799Y-2.7786
X4.8799Y-2.9386
X4.8799Y-3.0386
X4.8799Y-3.1386
X4.8799Y-3.2386
X4.8799Y-3.3386
X4.8799Y-3.4386
X4.8799Y-3.5386
X4.8799Y-3.6386
X4.8799Y-3.8386
X4.8799Y-3.9386
X4.8799Y-4.0386
X4.8799Y-4.1386
X4.8799Y-4.2386
X4.8799Y-4.3386
X4.8799Y-4.4386
X4.8799Y-4.5386
X4.8799Y-4.8386
X4.8799Y-4.9386
X4.9799Y-4.8386
X4.9799Y-4.9386
X5.0799Y-4.8386
X5.0799Y-4.9386
X5.1799Y-4.8386
X5.1799Y-4.9386
X5.2799Y-4.8386
X5.2799Y-4.9386
X5.3799Y-4.8386
X5.3799Y-4.9386
X5.4799Y-4.8386
X5.4799Y-4.9386
X5.5799Y-4.8386
X5.5799Y-4.9386
X5.6799Y-3.6436
X5.6799Y-3.7436
X5.6799Y-4.8386
X5.6799Y-4.9386
X5.7799Y-3.6436
X5.7799Y-3.7436
X5.7799Y-4.8386
X5.7799Y-4.9386
X5.8799Y-3.6436
X5.8799Y-3.7436
X5.8799Y-4.8386
X5.8799Y-4.9386
X5.9799Y-4.8386
X5.9799Y-4.9386
X6.0799Y-4.8386
X6.0799Y-4.9386
X6.1799Y-4.8386
X6.1799Y-4.9386
X6.2799Y-4.8386
X6.2799Y-4.9386
X6.3799Y-4.8386
X6.3799Y-4.9386
X6.4799Y-4.8386
X6.4799Y-4.9386
X6.5799Y-4.8386
X6.5799Y-4.9386
X6.7799Y-2.2386
X6.7799Y-2.3386
X6.7799Y-2.4386
X6.7799Y-2.5386
X6.7799Y-2.6386
X6.7799Y-2.7386
X6.7799Y-2.8386
X6.7799Y-2.9386
X6.7799Y-3.1386
X6.7799Y-3.2386
X6.7799Y-3.3386
X6.7799Y-3.4386
X6.7799Y-3.5386
X6.7799Y-3.6386
X6.7799Y-3.7386
X6.7799Y-3.8386
X6.7799Y-4.0386
X6.7799Y-4.1386
X6.7799Y-4.2386
X6.7799Y-4.3386
X6.7799Y-4.4386
X6.7799Y-4.5386
X6.7799Y-4.6386
X6.7799Y-4.7386
X10.03Y-2.225
X10.03Y-2.325
X10.03Y-2.425
X10.03Y-2.525
X10.03Y-2.625
X10.03Y-2.725
X10.03Y-2.825
X10.03Y-2.925
X10.03Y-3.025
X10.03Y-3.125
X10.03Y-3.225
X10.03Y-3.325
X10.03Y-3.425
X10.03Y-3.525
X10.03Y-3.625
X10.63Y-2.225
X10.63Y-2.325
X10.63Y-2.425
X10.63Y-2.525
X10.63Y-2.625
X10.63Y-2.725
X10.63Y-2.825
X10.63Y-2.925
X10.63Y-3.025
X10.63Y-3.125
X10.63Y-3.225
X10.63Y-3.325
X10.63Y-3.425
X10.63Y-3.525
X10.63Y-3.625
T0
M30
