G04 #@! TF.GenerationSoftware,KiCad,Pcbnew,(5.1.5-0)*
G04 #@! TF.CreationDate,2020-03-21T20:29:53+01:00*
G04 #@! TF.ProjectId,saufanlage,73617566-616e-46c6-9167-652e6b696361,v0.1*
G04 #@! TF.SameCoordinates,Original*
G04 #@! TF.FileFunction,Legend,Bot*
G04 #@! TF.FilePolarity,Positive*
%FSLAX46Y46*%
G04 Gerber Fmt 4.6, Leading zero omitted, Abs format (unit mm)*
G04 Created by KiCad (PCBNEW (5.1.5-0)) date 2020-03-21 20:29:53*
%MOMM*%
%LPD*%
G04 APERTURE LIST*
%ADD10C,0.120000*%
%ADD11C,0.050000*%
%ADD12C,0.150000*%
%ADD13C,0.100000*%
G04 APERTURE END LIST*
D10*
X23970000Y-102108000D02*
G75*
G03X23970000Y-102108000I-4000000J0D01*
G01*
X240951000Y-46640000D02*
G75*
G03X240951000Y-46640000I-4000000J0D01*
G01*
X117507000Y-152527000D02*
G75*
G03X117507000Y-152527000I-4000000J0D01*
G01*
X100616000Y-221076000D02*
G75*
G03X100616000Y-221076000I-4000000J0D01*
G01*
X217964000Y-152527000D02*
G75*
G03X217964000Y-152527000I-4000000J0D01*
G01*
X23970000Y-152527000D02*
G75*
G03X23970000Y-152527000I-4000000J0D01*
G01*
X332518000Y-100330000D02*
G75*
G03X332518000Y-100330000I-4000000J0D01*
G01*
X218218000Y-111570000D02*
G75*
G03X218218000Y-111570000I-4000000J0D01*
G01*
X332518000Y-46640000D02*
G75*
G03X332518000Y-46640000I-4000000J0D01*
G01*
X218218000Y-221076000D02*
G75*
G03X218218000Y-221076000I-4000000J0D01*
G01*
X24224000Y-221076000D02*
G75*
G03X24224000Y-221076000I-4000000J0D01*
G01*
X24224000Y-46640000D02*
G75*
G03X24224000Y-46640000I-4000000J0D01*
G01*
D11*
X155956000Y-40640000D02*
X334518000Y-40640000D01*
X334518000Y-106680000D02*
X334518000Y-40640000D01*
X220218000Y-106680000D02*
X334518000Y-106680000D01*
X220218000Y-227076000D02*
X220218000Y-106680000D01*
X14224000Y-227076000D02*
X220218000Y-227076000D01*
X14224000Y-40640000D02*
X14224000Y-227076000D01*
X155956000Y-40640000D02*
X14224000Y-40640000D01*
D12*
X121410000Y-28920000D02*
X174750000Y-28920000D01*
X134110000Y-127980000D02*
X122934000Y-127980000D01*
X136650000Y-130520000D02*
X134110000Y-127980000D01*
X170940000Y-130520000D02*
X136650000Y-130520000D01*
X173480000Y-127980000D02*
X170940000Y-130520000D01*
X174750000Y-127980000D02*
X173480000Y-127980000D01*
X121410000Y-126456000D02*
X122934000Y-127980000D01*
X174750000Y-28920000D02*
X174750000Y-127980000D01*
X121410000Y-28920000D02*
X121410000Y-126456000D01*
D13*
X26308000Y-182360000D02*
X25508000Y-182360000D01*
X25508000Y-182360000D02*
X25508000Y-180860000D01*
X25508000Y-180860000D02*
X26308000Y-180860000D01*
X26308000Y-180860000D02*
X26308000Y-182360000D01*
X24158000Y-183910000D02*
X24158000Y-184710000D01*
X24158000Y-184710000D02*
X22658000Y-184710000D01*
X22658000Y-184710000D02*
X22658000Y-183910000D01*
X22658000Y-183910000D02*
X24158000Y-183910000D01*
X21308000Y-182360000D02*
X20508000Y-182360000D01*
X20508000Y-182360000D02*
X20508000Y-180860000D01*
X20508000Y-180860000D02*
X21308000Y-180860000D01*
X21308000Y-180860000D02*
X21308000Y-182360000D01*
D10*
X195214748Y-149290000D02*
X195737252Y-149290000D01*
X195214748Y-150710000D02*
X195737252Y-150710000D01*
X195214748Y-160710000D02*
X195737252Y-160710000D01*
X195214748Y-159290000D02*
X195737252Y-159290000D01*
X195214748Y-170710000D02*
X195737252Y-170710000D01*
X195214748Y-169290000D02*
X195737252Y-169290000D01*
X195214748Y-179290000D02*
X195737252Y-179290000D01*
X195214748Y-180710000D02*
X195737252Y-180710000D01*
X195214748Y-189290000D02*
X195737252Y-189290000D01*
X195214748Y-190710000D02*
X195737252Y-190710000D01*
X195214748Y-200710000D02*
X195737252Y-200710000D01*
X195214748Y-199290000D02*
X195737252Y-199290000D01*
X207761252Y-150710000D02*
X207238748Y-150710000D01*
X207761252Y-149290000D02*
X207238748Y-149290000D01*
X207761252Y-159290000D02*
X207238748Y-159290000D01*
X207761252Y-160710000D02*
X207238748Y-160710000D01*
X207761252Y-169290000D02*
X207238748Y-169290000D01*
X207761252Y-170710000D02*
X207238748Y-170710000D01*
X207761252Y-180710000D02*
X207238748Y-180710000D01*
X207761252Y-179290000D02*
X207238748Y-179290000D01*
X207761252Y-190710000D02*
X207238748Y-190710000D01*
X207761252Y-189290000D02*
X207238748Y-189290000D01*
X207761252Y-199290000D02*
X207238748Y-199290000D01*
X207761252Y-200710000D02*
X207238748Y-200710000D01*
X152198000Y-196080748D02*
X152198000Y-196603252D01*
X153618000Y-196080748D02*
X153618000Y-196603252D01*
X175947000Y-204359252D02*
X175947000Y-203836748D01*
X177367000Y-204359252D02*
X177367000Y-203836748D01*
X150062000Y-214011252D02*
X150062000Y-213488748D01*
X148642000Y-214011252D02*
X148642000Y-213488748D01*
X107771000Y-203978252D02*
X107771000Y-203455748D01*
X106351000Y-203978252D02*
X106351000Y-203455748D01*
X106351000Y-214011252D02*
X106351000Y-213488748D01*
X107771000Y-214011252D02*
X107771000Y-213488748D01*
X106351000Y-169044252D02*
X106351000Y-168521748D01*
X107771000Y-169044252D02*
X107771000Y-168521748D01*
X125551000Y-203851252D02*
X125551000Y-203328748D01*
X124131000Y-203851252D02*
X124131000Y-203328748D01*
X124131000Y-214011252D02*
X124131000Y-213488748D01*
X125551000Y-214011252D02*
X125551000Y-213488748D01*
X107898000Y-184157252D02*
X107898000Y-183634748D01*
X106478000Y-184157252D02*
X106478000Y-183634748D01*
X151436000Y-169044252D02*
X151436000Y-168521748D01*
X152856000Y-169044252D02*
X152856000Y-168521748D01*
X152856000Y-183649252D02*
X152856000Y-183126748D01*
X151436000Y-183649252D02*
X151436000Y-183126748D01*
D12*
X195642666Y-152102380D02*
X195976000Y-151626190D01*
X196214095Y-152102380D02*
X196214095Y-151102380D01*
X195833142Y-151102380D01*
X195737904Y-151150000D01*
X195690285Y-151197619D01*
X195642666Y-151292857D01*
X195642666Y-151435714D01*
X195690285Y-151530952D01*
X195737904Y-151578571D01*
X195833142Y-151626190D01*
X196214095Y-151626190D01*
X194690285Y-152102380D02*
X195261714Y-152102380D01*
X194976000Y-152102380D02*
X194976000Y-151102380D01*
X195071238Y-151245238D01*
X195166476Y-151340476D01*
X195261714Y-151388095D01*
X195642666Y-162102380D02*
X195976000Y-161626190D01*
X196214095Y-162102380D02*
X196214095Y-161102380D01*
X195833142Y-161102380D01*
X195737904Y-161150000D01*
X195690285Y-161197619D01*
X195642666Y-161292857D01*
X195642666Y-161435714D01*
X195690285Y-161530952D01*
X195737904Y-161578571D01*
X195833142Y-161626190D01*
X196214095Y-161626190D01*
X195261714Y-161197619D02*
X195214095Y-161150000D01*
X195118857Y-161102380D01*
X194880761Y-161102380D01*
X194785523Y-161150000D01*
X194737904Y-161197619D01*
X194690285Y-161292857D01*
X194690285Y-161388095D01*
X194737904Y-161530952D01*
X195309333Y-162102380D01*
X194690285Y-162102380D01*
X195642666Y-172102380D02*
X195976000Y-171626190D01*
X196214095Y-172102380D02*
X196214095Y-171102380D01*
X195833142Y-171102380D01*
X195737904Y-171150000D01*
X195690285Y-171197619D01*
X195642666Y-171292857D01*
X195642666Y-171435714D01*
X195690285Y-171530952D01*
X195737904Y-171578571D01*
X195833142Y-171626190D01*
X196214095Y-171626190D01*
X195309333Y-171102380D02*
X194690285Y-171102380D01*
X195023619Y-171483333D01*
X194880761Y-171483333D01*
X194785523Y-171530952D01*
X194737904Y-171578571D01*
X194690285Y-171673809D01*
X194690285Y-171911904D01*
X194737904Y-172007142D01*
X194785523Y-172054761D01*
X194880761Y-172102380D01*
X195166476Y-172102380D01*
X195261714Y-172054761D01*
X195309333Y-172007142D01*
X195642666Y-182102380D02*
X195976000Y-181626190D01*
X196214095Y-182102380D02*
X196214095Y-181102380D01*
X195833142Y-181102380D01*
X195737904Y-181150000D01*
X195690285Y-181197619D01*
X195642666Y-181292857D01*
X195642666Y-181435714D01*
X195690285Y-181530952D01*
X195737904Y-181578571D01*
X195833142Y-181626190D01*
X196214095Y-181626190D01*
X194785523Y-181435714D02*
X194785523Y-182102380D01*
X195023619Y-181054761D02*
X195261714Y-181769047D01*
X194642666Y-181769047D01*
X195642666Y-192102380D02*
X195976000Y-191626190D01*
X196214095Y-192102380D02*
X196214095Y-191102380D01*
X195833142Y-191102380D01*
X195737904Y-191150000D01*
X195690285Y-191197619D01*
X195642666Y-191292857D01*
X195642666Y-191435714D01*
X195690285Y-191530952D01*
X195737904Y-191578571D01*
X195833142Y-191626190D01*
X196214095Y-191626190D01*
X194737904Y-191102380D02*
X195214095Y-191102380D01*
X195261714Y-191578571D01*
X195214095Y-191530952D01*
X195118857Y-191483333D01*
X194880761Y-191483333D01*
X194785523Y-191530952D01*
X194737904Y-191578571D01*
X194690285Y-191673809D01*
X194690285Y-191911904D01*
X194737904Y-192007142D01*
X194785523Y-192054761D01*
X194880761Y-192102380D01*
X195118857Y-192102380D01*
X195214095Y-192054761D01*
X195261714Y-192007142D01*
X195642666Y-202102380D02*
X195976000Y-201626190D01*
X196214095Y-202102380D02*
X196214095Y-201102380D01*
X195833142Y-201102380D01*
X195737904Y-201150000D01*
X195690285Y-201197619D01*
X195642666Y-201292857D01*
X195642666Y-201435714D01*
X195690285Y-201530952D01*
X195737904Y-201578571D01*
X195833142Y-201626190D01*
X196214095Y-201626190D01*
X194785523Y-201102380D02*
X194976000Y-201102380D01*
X195071238Y-201150000D01*
X195118857Y-201197619D01*
X195214095Y-201340476D01*
X195261714Y-201530952D01*
X195261714Y-201911904D01*
X195214095Y-202007142D01*
X195166476Y-202054761D01*
X195071238Y-202102380D01*
X194880761Y-202102380D01*
X194785523Y-202054761D01*
X194737904Y-202007142D01*
X194690285Y-201911904D01*
X194690285Y-201673809D01*
X194737904Y-201578571D01*
X194785523Y-201530952D01*
X194880761Y-201483333D01*
X195071238Y-201483333D01*
X195166476Y-201530952D01*
X195214095Y-201578571D01*
X195261714Y-201673809D01*
X208142857Y-148707142D02*
X208190476Y-148754761D01*
X208333333Y-148802380D01*
X208428571Y-148802380D01*
X208571428Y-148754761D01*
X208666666Y-148659523D01*
X208714285Y-148564285D01*
X208761904Y-148373809D01*
X208761904Y-148230952D01*
X208714285Y-148040476D01*
X208666666Y-147945238D01*
X208571428Y-147850000D01*
X208428571Y-147802380D01*
X208333333Y-147802380D01*
X208190476Y-147850000D01*
X208142857Y-147897619D01*
X207190476Y-148802380D02*
X207761904Y-148802380D01*
X207476190Y-148802380D02*
X207476190Y-147802380D01*
X207571428Y-147945238D01*
X207666666Y-148040476D01*
X207761904Y-148088095D01*
X206238095Y-148802380D02*
X206809523Y-148802380D01*
X206523809Y-148802380D02*
X206523809Y-147802380D01*
X206619047Y-147945238D01*
X206714285Y-148040476D01*
X206809523Y-148088095D01*
X208142857Y-158707142D02*
X208190476Y-158754761D01*
X208333333Y-158802380D01*
X208428571Y-158802380D01*
X208571428Y-158754761D01*
X208666666Y-158659523D01*
X208714285Y-158564285D01*
X208761904Y-158373809D01*
X208761904Y-158230952D01*
X208714285Y-158040476D01*
X208666666Y-157945238D01*
X208571428Y-157850000D01*
X208428571Y-157802380D01*
X208333333Y-157802380D01*
X208190476Y-157850000D01*
X208142857Y-157897619D01*
X207190476Y-158802380D02*
X207761904Y-158802380D01*
X207476190Y-158802380D02*
X207476190Y-157802380D01*
X207571428Y-157945238D01*
X207666666Y-158040476D01*
X207761904Y-158088095D01*
X206809523Y-157897619D02*
X206761904Y-157850000D01*
X206666666Y-157802380D01*
X206428571Y-157802380D01*
X206333333Y-157850000D01*
X206285714Y-157897619D01*
X206238095Y-157992857D01*
X206238095Y-158088095D01*
X206285714Y-158230952D01*
X206857142Y-158802380D01*
X206238095Y-158802380D01*
X208142857Y-168707142D02*
X208190476Y-168754761D01*
X208333333Y-168802380D01*
X208428571Y-168802380D01*
X208571428Y-168754761D01*
X208666666Y-168659523D01*
X208714285Y-168564285D01*
X208761904Y-168373809D01*
X208761904Y-168230952D01*
X208714285Y-168040476D01*
X208666666Y-167945238D01*
X208571428Y-167850000D01*
X208428571Y-167802380D01*
X208333333Y-167802380D01*
X208190476Y-167850000D01*
X208142857Y-167897619D01*
X207190476Y-168802380D02*
X207761904Y-168802380D01*
X207476190Y-168802380D02*
X207476190Y-167802380D01*
X207571428Y-167945238D01*
X207666666Y-168040476D01*
X207761904Y-168088095D01*
X206333333Y-168135714D02*
X206333333Y-168802380D01*
X206571428Y-167754761D02*
X206809523Y-168469047D01*
X206190476Y-168469047D01*
X208142857Y-178707142D02*
X208190476Y-178754761D01*
X208333333Y-178802380D01*
X208428571Y-178802380D01*
X208571428Y-178754761D01*
X208666666Y-178659523D01*
X208714285Y-178564285D01*
X208761904Y-178373809D01*
X208761904Y-178230952D01*
X208714285Y-178040476D01*
X208666666Y-177945238D01*
X208571428Y-177850000D01*
X208428571Y-177802380D01*
X208333333Y-177802380D01*
X208190476Y-177850000D01*
X208142857Y-177897619D01*
X207190476Y-178802380D02*
X207761904Y-178802380D01*
X207476190Y-178802380D02*
X207476190Y-177802380D01*
X207571428Y-177945238D01*
X207666666Y-178040476D01*
X207761904Y-178088095D01*
X206285714Y-177802380D02*
X206761904Y-177802380D01*
X206809523Y-178278571D01*
X206761904Y-178230952D01*
X206666666Y-178183333D01*
X206428571Y-178183333D01*
X206333333Y-178230952D01*
X206285714Y-178278571D01*
X206238095Y-178373809D01*
X206238095Y-178611904D01*
X206285714Y-178707142D01*
X206333333Y-178754761D01*
X206428571Y-178802380D01*
X206666666Y-178802380D01*
X206761904Y-178754761D01*
X206809523Y-178707142D01*
X208142857Y-188707142D02*
X208190476Y-188754761D01*
X208333333Y-188802380D01*
X208428571Y-188802380D01*
X208571428Y-188754761D01*
X208666666Y-188659523D01*
X208714285Y-188564285D01*
X208761904Y-188373809D01*
X208761904Y-188230952D01*
X208714285Y-188040476D01*
X208666666Y-187945238D01*
X208571428Y-187850000D01*
X208428571Y-187802380D01*
X208333333Y-187802380D01*
X208190476Y-187850000D01*
X208142857Y-187897619D01*
X207190476Y-188802380D02*
X207761904Y-188802380D01*
X207476190Y-188802380D02*
X207476190Y-187802380D01*
X207571428Y-187945238D01*
X207666666Y-188040476D01*
X207761904Y-188088095D01*
X206333333Y-187802380D02*
X206523809Y-187802380D01*
X206619047Y-187850000D01*
X206666666Y-187897619D01*
X206761904Y-188040476D01*
X206809523Y-188230952D01*
X206809523Y-188611904D01*
X206761904Y-188707142D01*
X206714285Y-188754761D01*
X206619047Y-188802380D01*
X206428571Y-188802380D01*
X206333333Y-188754761D01*
X206285714Y-188707142D01*
X206238095Y-188611904D01*
X206238095Y-188373809D01*
X206285714Y-188278571D01*
X206333333Y-188230952D01*
X206428571Y-188183333D01*
X206619047Y-188183333D01*
X206714285Y-188230952D01*
X206761904Y-188278571D01*
X206809523Y-188373809D01*
X208142857Y-198707142D02*
X208190476Y-198754761D01*
X208333333Y-198802380D01*
X208428571Y-198802380D01*
X208571428Y-198754761D01*
X208666666Y-198659523D01*
X208714285Y-198564285D01*
X208761904Y-198373809D01*
X208761904Y-198230952D01*
X208714285Y-198040476D01*
X208666666Y-197945238D01*
X208571428Y-197850000D01*
X208428571Y-197802380D01*
X208333333Y-197802380D01*
X208190476Y-197850000D01*
X208142857Y-197897619D01*
X207190476Y-198802380D02*
X207761904Y-198802380D01*
X207476190Y-198802380D02*
X207476190Y-197802380D01*
X207571428Y-197945238D01*
X207666666Y-198040476D01*
X207761904Y-198088095D01*
X206857142Y-197802380D02*
X206190476Y-197802380D01*
X206619047Y-198802380D01*
X151615142Y-196175333D02*
X151662761Y-196127714D01*
X151710380Y-195984857D01*
X151710380Y-195889619D01*
X151662761Y-195746761D01*
X151567523Y-195651523D01*
X151472285Y-195603904D01*
X151281809Y-195556285D01*
X151138952Y-195556285D01*
X150948476Y-195603904D01*
X150853238Y-195651523D01*
X150758000Y-195746761D01*
X150710380Y-195889619D01*
X150710380Y-195984857D01*
X150758000Y-196127714D01*
X150805619Y-196175333D01*
X151710380Y-197127714D02*
X151710380Y-196556285D01*
X151710380Y-196842000D02*
X150710380Y-196842000D01*
X150853238Y-196746761D01*
X150948476Y-196651523D01*
X150996095Y-196556285D01*
X178664142Y-203931333D02*
X178711761Y-203883714D01*
X178759380Y-203740857D01*
X178759380Y-203645619D01*
X178711761Y-203502761D01*
X178616523Y-203407523D01*
X178521285Y-203359904D01*
X178330809Y-203312285D01*
X178187952Y-203312285D01*
X177997476Y-203359904D01*
X177902238Y-203407523D01*
X177807000Y-203502761D01*
X177759380Y-203645619D01*
X177759380Y-203740857D01*
X177807000Y-203883714D01*
X177854619Y-203931333D01*
X177854619Y-204312285D02*
X177807000Y-204359904D01*
X177759380Y-204455142D01*
X177759380Y-204693238D01*
X177807000Y-204788476D01*
X177854619Y-204836095D01*
X177949857Y-204883714D01*
X178045095Y-204883714D01*
X178187952Y-204836095D01*
X178759380Y-204264666D01*
X178759380Y-204883714D01*
X151359142Y-213583333D02*
X151406761Y-213535714D01*
X151454380Y-213392857D01*
X151454380Y-213297619D01*
X151406761Y-213154761D01*
X151311523Y-213059523D01*
X151216285Y-213011904D01*
X151025809Y-212964285D01*
X150882952Y-212964285D01*
X150692476Y-213011904D01*
X150597238Y-213059523D01*
X150502000Y-213154761D01*
X150454380Y-213297619D01*
X150454380Y-213392857D01*
X150502000Y-213535714D01*
X150549619Y-213583333D01*
X150454380Y-213916666D02*
X150454380Y-214535714D01*
X150835333Y-214202380D01*
X150835333Y-214345238D01*
X150882952Y-214440476D01*
X150930571Y-214488095D01*
X151025809Y-214535714D01*
X151263904Y-214535714D01*
X151359142Y-214488095D01*
X151406761Y-214440476D01*
X151454380Y-214345238D01*
X151454380Y-214059523D01*
X151406761Y-213964285D01*
X151359142Y-213916666D01*
X109068142Y-203550333D02*
X109115761Y-203502714D01*
X109163380Y-203359857D01*
X109163380Y-203264619D01*
X109115761Y-203121761D01*
X109020523Y-203026523D01*
X108925285Y-202978904D01*
X108734809Y-202931285D01*
X108591952Y-202931285D01*
X108401476Y-202978904D01*
X108306238Y-203026523D01*
X108211000Y-203121761D01*
X108163380Y-203264619D01*
X108163380Y-203359857D01*
X108211000Y-203502714D01*
X108258619Y-203550333D01*
X108496714Y-204407476D02*
X109163380Y-204407476D01*
X108115761Y-204169380D02*
X108830047Y-203931285D01*
X108830047Y-204550333D01*
X109068142Y-213583333D02*
X109115761Y-213535714D01*
X109163380Y-213392857D01*
X109163380Y-213297619D01*
X109115761Y-213154761D01*
X109020523Y-213059523D01*
X108925285Y-213011904D01*
X108734809Y-212964285D01*
X108591952Y-212964285D01*
X108401476Y-213011904D01*
X108306238Y-213059523D01*
X108211000Y-213154761D01*
X108163380Y-213297619D01*
X108163380Y-213392857D01*
X108211000Y-213535714D01*
X108258619Y-213583333D01*
X108163380Y-214488095D02*
X108163380Y-214011904D01*
X108639571Y-213964285D01*
X108591952Y-214011904D01*
X108544333Y-214107142D01*
X108544333Y-214345238D01*
X108591952Y-214440476D01*
X108639571Y-214488095D01*
X108734809Y-214535714D01*
X108972904Y-214535714D01*
X109068142Y-214488095D01*
X109115761Y-214440476D01*
X109163380Y-214345238D01*
X109163380Y-214107142D01*
X109115761Y-214011904D01*
X109068142Y-213964285D01*
X109068142Y-168616333D02*
X109115761Y-168568714D01*
X109163380Y-168425857D01*
X109163380Y-168330619D01*
X109115761Y-168187761D01*
X109020523Y-168092523D01*
X108925285Y-168044904D01*
X108734809Y-167997285D01*
X108591952Y-167997285D01*
X108401476Y-168044904D01*
X108306238Y-168092523D01*
X108211000Y-168187761D01*
X108163380Y-168330619D01*
X108163380Y-168425857D01*
X108211000Y-168568714D01*
X108258619Y-168616333D01*
X108163380Y-169473476D02*
X108163380Y-169283000D01*
X108211000Y-169187761D01*
X108258619Y-169140142D01*
X108401476Y-169044904D01*
X108591952Y-168997285D01*
X108972904Y-168997285D01*
X109068142Y-169044904D01*
X109115761Y-169092523D01*
X109163380Y-169187761D01*
X109163380Y-169378238D01*
X109115761Y-169473476D01*
X109068142Y-169521095D01*
X108972904Y-169568714D01*
X108734809Y-169568714D01*
X108639571Y-169521095D01*
X108591952Y-169473476D01*
X108544333Y-169378238D01*
X108544333Y-169187761D01*
X108591952Y-169092523D01*
X108639571Y-169044904D01*
X108734809Y-168997285D01*
X126848142Y-203423333D02*
X126895761Y-203375714D01*
X126943380Y-203232857D01*
X126943380Y-203137619D01*
X126895761Y-202994761D01*
X126800523Y-202899523D01*
X126705285Y-202851904D01*
X126514809Y-202804285D01*
X126371952Y-202804285D01*
X126181476Y-202851904D01*
X126086238Y-202899523D01*
X125991000Y-202994761D01*
X125943380Y-203137619D01*
X125943380Y-203232857D01*
X125991000Y-203375714D01*
X126038619Y-203423333D01*
X125943380Y-203756666D02*
X125943380Y-204423333D01*
X126943380Y-203994761D01*
X126848142Y-213583333D02*
X126895761Y-213535714D01*
X126943380Y-213392857D01*
X126943380Y-213297619D01*
X126895761Y-213154761D01*
X126800523Y-213059523D01*
X126705285Y-213011904D01*
X126514809Y-212964285D01*
X126371952Y-212964285D01*
X126181476Y-213011904D01*
X126086238Y-213059523D01*
X125991000Y-213154761D01*
X125943380Y-213297619D01*
X125943380Y-213392857D01*
X125991000Y-213535714D01*
X126038619Y-213583333D01*
X126371952Y-214154761D02*
X126324333Y-214059523D01*
X126276714Y-214011904D01*
X126181476Y-213964285D01*
X126133857Y-213964285D01*
X126038619Y-214011904D01*
X125991000Y-214059523D01*
X125943380Y-214154761D01*
X125943380Y-214345238D01*
X125991000Y-214440476D01*
X126038619Y-214488095D01*
X126133857Y-214535714D01*
X126181476Y-214535714D01*
X126276714Y-214488095D01*
X126324333Y-214440476D01*
X126371952Y-214345238D01*
X126371952Y-214154761D01*
X126419571Y-214059523D01*
X126467190Y-214011904D01*
X126562428Y-213964285D01*
X126752904Y-213964285D01*
X126848142Y-214011904D01*
X126895761Y-214059523D01*
X126943380Y-214154761D01*
X126943380Y-214345238D01*
X126895761Y-214440476D01*
X126848142Y-214488095D01*
X126752904Y-214535714D01*
X126562428Y-214535714D01*
X126467190Y-214488095D01*
X126419571Y-214440476D01*
X126371952Y-214345238D01*
X109195142Y-183729333D02*
X109242761Y-183681714D01*
X109290380Y-183538857D01*
X109290380Y-183443619D01*
X109242761Y-183300761D01*
X109147523Y-183205523D01*
X109052285Y-183157904D01*
X108861809Y-183110285D01*
X108718952Y-183110285D01*
X108528476Y-183157904D01*
X108433238Y-183205523D01*
X108338000Y-183300761D01*
X108290380Y-183443619D01*
X108290380Y-183538857D01*
X108338000Y-183681714D01*
X108385619Y-183729333D01*
X109290380Y-184205523D02*
X109290380Y-184396000D01*
X109242761Y-184491238D01*
X109195142Y-184538857D01*
X109052285Y-184634095D01*
X108861809Y-184681714D01*
X108480857Y-184681714D01*
X108385619Y-184634095D01*
X108338000Y-184586476D01*
X108290380Y-184491238D01*
X108290380Y-184300761D01*
X108338000Y-184205523D01*
X108385619Y-184157904D01*
X108480857Y-184110285D01*
X108718952Y-184110285D01*
X108814190Y-184157904D01*
X108861809Y-184205523D01*
X108909428Y-184300761D01*
X108909428Y-184491238D01*
X108861809Y-184586476D01*
X108814190Y-184634095D01*
X108718952Y-184681714D01*
X154153142Y-168140142D02*
X154200761Y-168092523D01*
X154248380Y-167949666D01*
X154248380Y-167854428D01*
X154200761Y-167711571D01*
X154105523Y-167616333D01*
X154010285Y-167568714D01*
X153819809Y-167521095D01*
X153676952Y-167521095D01*
X153486476Y-167568714D01*
X153391238Y-167616333D01*
X153296000Y-167711571D01*
X153248380Y-167854428D01*
X153248380Y-167949666D01*
X153296000Y-168092523D01*
X153343619Y-168140142D01*
X154248380Y-169092523D02*
X154248380Y-168521095D01*
X154248380Y-168806809D02*
X153248380Y-168806809D01*
X153391238Y-168711571D01*
X153486476Y-168616333D01*
X153534095Y-168521095D01*
X153248380Y-169711571D02*
X153248380Y-169806809D01*
X153296000Y-169902047D01*
X153343619Y-169949666D01*
X153438857Y-169997285D01*
X153629333Y-170044904D01*
X153867428Y-170044904D01*
X154057904Y-169997285D01*
X154153142Y-169949666D01*
X154200761Y-169902047D01*
X154248380Y-169806809D01*
X154248380Y-169711571D01*
X154200761Y-169616333D01*
X154153142Y-169568714D01*
X154057904Y-169521095D01*
X153867428Y-169473476D01*
X153629333Y-169473476D01*
X153438857Y-169521095D01*
X153343619Y-169568714D01*
X153296000Y-169616333D01*
X153248380Y-169711571D01*
X154153142Y-182745142D02*
X154200761Y-182697523D01*
X154248380Y-182554666D01*
X154248380Y-182459428D01*
X154200761Y-182316571D01*
X154105523Y-182221333D01*
X154010285Y-182173714D01*
X153819809Y-182126095D01*
X153676952Y-182126095D01*
X153486476Y-182173714D01*
X153391238Y-182221333D01*
X153296000Y-182316571D01*
X153248380Y-182459428D01*
X153248380Y-182554666D01*
X153296000Y-182697523D01*
X153343619Y-182745142D01*
X154248380Y-183697523D02*
X154248380Y-183126095D01*
X154248380Y-183411809D02*
X153248380Y-183411809D01*
X153391238Y-183316571D01*
X153486476Y-183221333D01*
X153534095Y-183126095D01*
X153248380Y-184030857D02*
X153248380Y-184649904D01*
X153629333Y-184316571D01*
X153629333Y-184459428D01*
X153676952Y-184554666D01*
X153724571Y-184602285D01*
X153819809Y-184649904D01*
X154057904Y-184649904D01*
X154153142Y-184602285D01*
X154200761Y-184554666D01*
X154248380Y-184459428D01*
X154248380Y-184173714D01*
X154200761Y-184078476D01*
X154153142Y-184030857D01*
M02*
