<?xml version="1.0" encoding="UTF-8" standalone="no"?>
<svg
   xmlns:dc="http://purl.org/dc/elements/1.1/"
   xmlns:cc="http://creativecommons.org/ns#"
   xmlns:rdf="http://www.w3.org/1999/02/22-rdf-syntax-ns#"
   xmlns:svg="http://www.w3.org/2000/svg"
   xmlns="http://www.w3.org/2000/svg"
   xmlns:xlink="http://www.w3.org/1999/xlink"
   xmlns:sodipodi="http://sodipodi.sourceforge.net/DTD/sodipodi-0.dtd"
   xmlns:inkscape="http://www.inkscape.org/namespaces/inkscape"
   width="505px"
   height="330px"
   viewBox="0 0 505 330"
   version="1.1"
   id="svg2"
   inkscape:version="0.48.5 r10040"
   sodipodi:docname="blueprint-e18185785f146df5c44964b4649ad2f4.svg"
   inkscape:export-filename="/Users/andi/cernbox/basteln/saufhaengerle/picode/electronics/blueprint-e18185785f146df5c44964b4649ad2f4.png"
   inkscape:export-xdpi="300"
   inkscape:export-ydpi="300">
  <metadata
     id="metadata52">
    <rdf:RDF>
      <cc:Work
         rdf:about="">
        <dc:format>image/svg+xml</dc:format>
        <dc:type
           rdf:resource="http://purl.org/dc/dcmitype/StillImage" />
        <dc:title>Pi4 Diagram Copy</dc:title>
      </cc:Work>
    </rdf:RDF>
  </metadata>
  <sodipodi:namedview
     pagecolor="#3560b6"
     bordercolor="#666666"
     borderopacity="1"
     objecttolerance="10"
     gridtolerance="10"
     guidetolerance="10"
     inkscape:pageopacity="0"
     inkscape:pageshadow="2"
     inkscape:window-width="1099"
     inkscape:window-height="763"
     id="namedview50"
     showgrid="false"
     inkscape:zoom="0.71515152"
     inkscape:cx="252.5"
     inkscape:cy="105.97572"
     inkscape:window-x="550"
     inkscape:window-y="45"
     inkscape:window-maximized="0"
     inkscape:current-layer="svg2" />
  <!-- Generator: Sketch 51.3 (57544) - http://www.bohemiancoding.com/sketch -->
  <title
     id="title4">Pi4 Diagram Copy</title>
  <desc
     id="desc6">Created with Sketch.</desc>
  <defs
     id="defs8">
    <polygon
       id="path-1"
       points="0.0877726448 0.5133375 513.974665 0.5133375 513.974665 350.91225 0.0877726448 350.91225" />
  </defs>
  <g
     id="Designs"
     stroke="none"
     stroke-width="1"
     fill="none"
     fill-rule="evenodd"
     style="fill:none;stroke:#000000">
    <g
       id="tech-specs-copy-2"
       transform="translate(-320.000000, -235.000000)"
       style="fill:none;stroke:#000000">
      <g
         id="Group-5"
         transform="translate(159.000000, 235.000000)"
         style="fill:none;stroke:#000000">
        <g
           id="Pi4-Diagram-Copy"
           transform="translate(152.000000, 0.000000)"
           style="fill:none;stroke:#000000">
          <g
             id="Group-10"
             style="fill:none;stroke:#000000">
            <mask
               id="mask-2"
               fill="white">
              <use
                 xlink:href="#path-1"
                 id="use17" />
            </mask>
            <g
               id="Clip-2"
               style="fill:none;stroke:#000000" />
            <path
               d="M298.083216,328.610587 L298.083216,314.651025 L253.677572,314.651025 L253.677572,320.64435 C253.778511,320.701387 253.946742,320.7789 254.199819,320.8608 C254.827394,321.062625 255.253091,321.6447 255.253091,322.307212 L255.253091,322.694775 C255.253091,323.53425 254.565539,324.2187 253.721459,324.2187 L253.538599,324.207 C251.828495,324.000787 251.034153,323.057475 250.56018,322.495875 C250.517757,322.443225 250.468019,322.386187 250.421207,322.332075 C250.384635,322.456387 250.348063,322.631887 250.327583,322.86735 C250.255902,323.655637 249.604921,324.250875 248.812042,324.250875 L221.333353,324.250875 C220.540473,324.250875 219.88803,323.655637 219.816349,322.868812 C219.795868,322.630425 219.757834,322.452 219.721262,322.327687 C219.678838,322.3818 219.627638,322.441762 219.583751,322.495875 C219.109779,323.057475 218.316899,323.999325 216.609721,324.207 L216.422473,324.2187 C215.578393,324.2187 214.89084,323.532787 214.89084,322.69185 L214.89084,322.308675 C214.89084,321.646162 215.315075,321.06555 215.947038,320.859337 C216.198653,320.7789 216.365421,320.699925 216.466359,320.642887 L216.466359,314.651025 L177.741069,314.651025 L177.741069,320.64435 C177.840544,320.701387 178.010238,320.780362 178.261853,320.8608 C178.89089,321.061162 179.316588,321.6447 179.316588,322.307212 L179.316588,322.694775 C179.316588,323.53425 178.629035,324.2187 177.784955,324.2187 L177.602095,324.207 C175.890529,324.000787 175.096186,323.057475 174.622214,322.494412 C174.57979,322.443225 174.531516,322.386187 174.483241,322.332075 C174.448131,322.454925 174.41156,322.630425 174.389616,322.868812 C174.319398,323.655637 173.666955,324.250875 172.875538,324.250875 L145.395386,324.250875 C144.602507,324.250875 143.951526,323.655637 143.879845,322.868812 C143.857902,322.6275 143.82133,322.450537 143.784758,322.326225 C143.742335,322.380337 143.691134,322.441762 143.647248,322.494412 C143.173275,323.056012 142.380396,323.999325 140.673218,324.207 L140.485969,324.2187 C139.640426,324.2187 138.952874,323.532787 138.952874,322.69185 L138.952874,322.308675 C138.952874,321.646162 139.377108,321.06555 140.009071,320.859337 C140.260686,320.7789 140.428917,320.699925 140.528393,320.642887 L140.528393,314.651025 L101.602688,314.651025 L101.602688,324.250875 L50.3156686,324.250875 L50.3156686,314.651025 L28.8801259,314.651025 C18.8579527,314.651025 10.7053369,306.500512 10.7053369,296.480925 L10.7053369,19.6662375 C10.7053369,9.64665 18.8579527,1.4961375 28.8801259,1.4961375 L469.295463,1.4961375 C477.096988,1.4961375 484.077839,6.5710125 486.529622,13.9273875 L508.08512,13.9273875 L508.08512,104.877337 L487.470252,104.877337 L487.470252,128.3841 L507.100604,128.3841 C507.160582,128.341687 507.586279,127.897087 508.016365,126.569137 C508.2987,125.697487 509.10182,125.112487 510.014656,125.112487 L510.819238,125.112487 C511.419018,125.112487 511.991003,125.37135 512.391831,125.824725 C512.795585,126.281025 512.984297,126.887962 512.90969,127.490512 C512.529342,130.623188 510.839718,132.0462 509.72208,132.98805 C508.980401,133.614 508.679048,133.903575 508.679048,134.256037 C508.679048,134.896613 509.975158,135.238838 511.086945,135.338287 C512.1724,135.436275 512.991611,136.33425 512.991611,137.4282 L512.991611,194.499337 C512.991611,195.593287 512.1724,196.492725 511.086945,196.593637 C509.973695,196.693087 508.679048,197.035313 508.679048,197.675887 C508.679048,198.02835 508.980401,198.317925 509.72208,198.942412 C510.839718,199.884263 512.527879,201.305812 512.90969,204.438488 C512.984297,205.039575 512.794123,205.647975 512.390368,206.105737 C511.988077,206.559112 511.414629,206.819437 510.814849,206.819437 L510.019044,206.819437 C509.104746,206.819437 508.300163,206.231513 508.014902,205.359863 C507.584816,204.033375 507.160582,203.590237 507.045014,203.53905 L487.470252,203.547825 L487.470252,228.692588 L507.100604,228.692588 C507.160582,228.651637 507.586279,228.207038 508.016365,226.879087 C508.2987,226.007438 509.10182,225.420975 510.014656,225.420975 L510.819238,225.420975 C511.419018,225.420975 511.991003,225.679837 512.391831,226.133213 C512.795585,226.58805 512.984297,227.19645 512.90969,227.800462 C512.529342,230.931675 510.839718,232.35615 509.72208,233.296537 C508.980401,233.922487 508.679048,234.212063 508.679048,234.564525 C508.679048,235.206562 509.975158,235.548788 511.086945,235.648237 C512.1724,235.744763 512.991611,236.642737 512.991611,237.736687 L512.991611,294.809287 C512.991611,295.9047 512.170937,296.804137 511.084019,296.902125 C509.973695,297.001575 508.679048,297.3438 508.679048,297.984375 C508.679048,298.336837 508.980401,298.626412 509.72208,299.2509 C510.839718,300.194212 512.527879,301.615762 512.90969,304.748437 C512.984297,305.349525 512.794123,305.957925 512.390368,306.414225 C511.988077,306.869062 511.414629,307.129387 510.814849,307.129387 L510.019044,307.129387 C509.104746,307.129387 508.300163,306.541462 508.014902,305.669812 C507.584816,304.341862 507.160582,303.898725 507.045014,303.847537 L485.896196,303.856313 C482.977755,310.434637 476.532317,314.651025 469.295463,314.651025 L332.781205,314.651025 L332.781205,328.610587 L298.083216,328.610587"
               id="Fill-3"
               fill="#1759A9"
               mask="url(#mask-2)"
               style="fill:none;stroke:#000000" />
            <path
               d="M469.295463,0.5133375 L28.8801259,0.5133375 C18.3166881,0.5133375 9.72228329,9.105525 9.72228329,19.6662375 L9.72228329,296.480925 C9.72228329,307.0431 18.3166881,315.633825 28.8801259,315.633825 L49.3311521,315.633825 L49.3311521,325.233675 L102.587204,325.233675 L102.587204,315.633825 L139.545339,315.633825 L139.545339,319.981837 C138.597395,320.360625 137.96982,321.27615 137.96982,322.308675 L137.96982,322.69185 C137.96982,324.076837 139.097699,325.2015 140.485969,325.2015 L140.605925,325.2015 L140.794637,325.182487 C141.94007,325.04355 142.754892,324.6282 143.344432,324.17775 C143.797924,324.819787 144.546917,325.233675 145.396849,325.233675 L172.875538,325.233675 C173.722544,325.233675 174.471538,324.82125 174.92503,324.17775 C175.514569,324.629662 176.332318,325.045012 177.482139,325.18395 L177.600632,325.198575 L177.784955,325.202962 C179.171763,325.202962 180.299641,324.0783 180.299641,322.694775 L180.299641,322.307212 C180.299641,321.27615 179.67353,320.362087 178.724122,319.9833 L178.724122,315.633825 L215.481843,315.633825 L215.481843,319.9833 C214.533898,320.360625 213.907787,321.27615 213.907787,322.308675 L213.907787,322.69185 C213.907787,324.076837 215.035665,325.2015 216.422473,325.2015 L216.543892,325.2015 L216.73114,325.182487 C217.878036,325.04355 218.692859,324.6282 219.282398,324.176287 C219.73589,324.82125 220.484884,325.233675 221.333353,325.233675 L248.812042,325.233675 C249.659048,325.233675 250.408041,324.82125 250.861533,324.17775 C251.452536,324.629662 252.268821,325.045012 253.418643,325.18395 L253.535673,325.198575 L253.721459,325.202962 C255.108266,325.202962 256.236145,324.0783 256.236145,322.694775 L256.236145,322.307212 C256.236145,321.27615 255.610033,320.362087 254.662089,319.9833 L254.662089,315.633825 L297.0987,315.633825 L297.0987,329.59485 L333.765722,329.59485 L333.765722,315.633825 L469.295463,315.633825 C476.707863,315.633825 483.331771,311.440837 486.525233,304.840575 L506.601762,304.840575 C506.723181,305.049712 506.897264,305.412412 507.078661,305.97255 C507.495581,307.252237 508.676123,308.112187 510.019044,308.112187 L510.814849,308.112187 C511.695502,308.112187 512.538119,307.731937 513.126196,307.067962 C513.717198,306.401062 513.993682,305.5104 513.886892,304.628512 C513.458269,301.112662 511.591637,299.540475 510.355506,298.499175 C510.217995,298.383637 510.055616,298.246162 509.916643,298.12185 C510.182886,298.031175 510.592492,297.93465 511.173254,297.880537 C512.769254,297.738675 513.976128,296.416575 513.976128,294.809287 L513.976128,237.736687 C513.976128,236.130862 512.770717,234.810225 511.17618,234.668362 C510.592492,234.617175 510.182886,234.519187 509.916643,234.428512 C510.055616,234.302737 510.217995,234.165262 510.355506,234.049725 C511.5931,233.008425 513.459732,231.434775 513.886892,227.914537 C513.993682,227.034112 513.717198,226.146375 513.127659,225.480937 C512.541045,224.816962 511.69989,224.438175 510.819238,224.438175 L510.014656,224.438175 C508.67466,224.438175 507.494118,225.296662 507.080123,226.57635 C506.898727,227.136487 506.724644,227.499187 506.601762,227.709787 L488.453305,227.709787 L488.453305,204.530625 L506.601762,204.530625 C506.723181,204.739762 506.897264,205.103925 507.078661,205.664062 C507.495581,206.94375 508.676123,207.8037 510.019044,207.8037 L510.814849,207.8037 C511.695502,207.8037 512.538119,207.42345 513.126196,206.759475 C513.717198,206.091112 513.993682,205.201912 513.886892,204.318562 C513.458269,200.804175 511.591637,199.230525 510.355506,198.190687 C510.217995,198.073687 510.055616,197.937675 509.916643,197.813362 C510.182886,197.721225 510.592492,197.6247 511.173254,197.573512 C512.770717,197.428725 513.976128,196.108087 513.976128,194.499337 L513.976128,137.4282 C513.976128,135.820912 512.770717,134.501737 511.17618,134.358412 C510.593955,134.307225 510.182886,134.209237 509.916643,134.118562 C510.055616,133.99425 510.217995,133.856775 510.355506,133.741237 C511.5931,132.699937 513.459732,131.126287 513.886892,127.60605 C513.993682,126.725625 513.717198,125.837887 513.127659,125.170987 C512.541045,124.508475 511.69989,124.128225 510.819238,124.128225 L510.014656,124.128225 C508.67466,124.128225 507.495581,124.986712 507.080123,126.264937 C506.898727,126.826537 506.724644,127.1907 506.601762,127.399837 L488.453305,127.399837 L488.453305,105.860137 L509.068174,105.860137 L509.068174,12.9445875 L487.224488,12.9445875 C484.447947,5.5560375 477.279848,0.5133375 469.295463,0.5133375 Z M469.295463,2.4804 C477.137949,2.4804 483.739914,7.7351625 485.804034,14.91165 L507.100604,14.91165 L507.100604,103.893075 L486.485735,103.893075 L486.485735,129.3669 C498.256047,129.3669 506.715867,129.3669 507.100604,129.3669 C508.000273,129.3669 508.638088,127.84005 508.952607,126.873337 C509.103283,126.409725 509.527517,126.095287 510.014656,126.095287 L510.819238,126.095287 C511.492162,126.095287 512.015872,126.700762 511.932488,127.369125 C511.367817,132.044737 507.694532,132.201225 507.694532,134.256037 C507.694532,135.78435 509.725006,136.20555 511.000635,136.318162 C511.574083,136.36935 512.007095,136.851975 512.007095,137.4282 L512.007095,194.499337 C512.007095,195.077025 511.57262,195.561112 510.997709,195.613762 C509.72208,195.727837 507.694532,196.149037 507.694532,197.675887 C507.694532,199.729237 511.364891,199.887187 511.932488,204.55695 C512.015872,205.2297 511.489236,205.835175 510.814849,205.835175 L510.019044,205.835175 C509.52898,205.835175 509.10182,205.520737 508.951144,205.055662 C508.636625,204.08895 508.000273,202.565025 507.100604,202.565025 C506.715867,202.565025 498.256047,202.565025 486.485735,202.565025 L486.485735,229.67685 C498.256047,229.67685 506.715867,229.67685 507.100604,229.67685 C508.000273,229.67685 508.638088,228.15 508.952607,227.183287 C509.103283,226.718212 509.527517,226.403775 510.014656,226.403775 L510.819238,226.403775 C511.492162,226.403775 512.015872,227.007787 511.932488,227.679075 C511.367817,232.354687 507.694532,232.509712 507.694532,234.564525 C507.694532,236.092837 509.725006,236.514037 511.000635,236.628112 C511.574083,236.6793 512.007095,237.161925 512.007095,237.736687 L512.007095,294.809287 C512.007095,295.386975 511.57262,295.8696 510.997709,295.92225 C509.72208,296.036325 507.694532,296.457525 507.694532,297.984375 C507.694532,300.037725 511.364891,300.194212 511.932488,304.8669 C512.015872,305.538187 511.489236,306.145125 510.814849,306.145125 L510.019044,306.145125 C509.52898,306.145125 509.10182,305.830687 508.951144,305.365612 C508.636625,304.397437 508.000273,302.873512 507.100604,302.873512 C506.702701,302.873512 497.654804,302.873512 485.243752,302.873512 C482.707123,309.197362 476.527929,313.666762 469.295463,313.666762 L331.798152,313.666762 L331.798152,327.626325 L299.067733,327.626325 L299.067733,313.666762 L252.693056,313.666762 C252.693056,317.85975 252.693056,320.742337 252.693056,320.906137 C252.693056,321.339037 253.428883,321.6447 253.895541,321.7968 C254.117898,321.868462 254.268575,322.07175 254.268575,322.307212 L254.268575,322.694775 C254.268575,322.99605 254.01696,323.234437 253.721459,323.234437 C253.699515,323.234437 253.677572,323.232975 253.655629,323.23005 C251.404261,322.958025 251.329654,321.189862 250.339286,321.189862 C249.603459,321.189862 249.401582,322.168275 249.347455,322.781062 C249.322586,323.057475 249.089989,323.266612 248.812042,323.266612 L221.333353,323.266612 C221.053943,323.266612 220.821345,323.056012 220.796477,322.781062 C220.74235,322.166812 220.53901,321.189862 219.803183,321.189862 C218.815741,321.189862 218.739671,322.956562 216.489765,323.23005 C216.467822,323.232975 216.444416,323.234437 216.422473,323.234437 C216.126972,323.234437 215.875357,322.994587 215.875357,322.69185 L215.875357,322.308675 C215.875357,322.073212 216.026033,321.868462 216.251316,321.795337 C216.716511,321.6447 217.450876,321.337575 217.450876,320.906137 C217.450876,320.742337 217.450876,317.85975 217.450876,313.666762 L176.756552,313.666762 C176.756552,317.85975 176.756552,320.742337 176.756552,320.906137 C176.756552,321.339037 177.492379,321.6447 177.957574,321.7968 C178.181395,321.868462 178.332071,322.07175 178.332071,322.307212 L178.332071,322.694775 C178.332071,322.99605 178.078993,323.234437 177.784955,323.234437 C177.763012,323.234437 177.741069,323.232975 177.719125,323.23005 C175.466294,322.958025 175.39315,321.189862 174.402782,321.189862 C173.666955,321.189862 173.465078,322.168275 173.409489,322.781062 C173.38462,323.057475 173.152022,323.266612 172.875538,323.266612 L145.396849,323.266612 C145.117439,323.266612 144.884842,323.056012 144.859973,322.781062 C144.804384,322.166812 144.602507,321.189862 143.866679,321.189862 C142.877774,321.189862 142.801704,322.956562 140.553262,323.23005 C140.531319,323.232975 140.507913,323.234437 140.485969,323.234437 C140.189005,323.234437 139.93739,322.994587 139.93739,322.69185 L139.93739,322.308675 C139.93739,322.073212 140.08953,321.868462 140.31335,321.795337 C140.778545,321.6447 141.512909,321.337575 141.512909,320.906137 C141.512909,320.742337 141.512909,317.85975 141.512909,313.666762 L100.618171,313.666762 L100.618171,323.266612 L51.2987222,323.266612 L51.2987222,313.666762 L28.8801259,313.666762 C19.3860515,313.666762 11.6898534,305.974012 11.6898534,296.480925 L11.6898534,19.6662375 C11.6898534,10.1746125 19.3860515,2.4804 28.8801259,2.4804 L469.295463,2.4804 Z"
               id="Fill-4"
               fill="#FFFFFE"
               mask="url(#mask-2)"
               style="fill:none;stroke:#000000" />
            <path
               d="M410.244953,302.898375 C410.244953,302.898375 505.784014,302.898375 507.100604,302.898375 C508.000273,302.898375 508.636625,304.4223 508.951144,305.390475 C509.103283,305.85555 509.52898,306.169988 510.019044,306.169988 L510.814849,306.169988 C511.490699,306.169988 512.015872,305.56305 511.932488,304.891763 C511.364891,300.220538 507.694532,300.06405 507.694532,298.009238 C507.694532,296.482388 509.72208,296.061188 510.997709,295.947113 C511.57262,295.895925 512.007095,295.411837 512.007095,294.83415 L512.007095,237.763012 C512.007095,237.186788 511.574083,236.704162 511.000635,236.652975 C509.725006,236.5389 507.694532,236.119163 507.694532,234.59085 C507.694532,232.536037 511.367817,232.37955 511.933951,227.703937 C512.015872,227.034112 511.492162,226.4301 510.819238,226.4301 L510.014656,226.4301 C509.527517,226.4301 509.103283,226.744537 508.952607,227.206688 C508.638088,228.174862 508.000273,229.701712 507.100604,229.701712 C505.784014,229.701712 410.244953,229.701712 410.244953,229.701712 L410.244953,302.898375 Z M387.119787,103.9194 L507.100604,103.9194 L507.100604,14.937975 L387.119787,14.937975 L387.119787,103.9194 Z M371.974617,22.361625 C371.974617,31.154175 364.844553,38.2824 356.051196,38.2824 C347.254915,38.2824 340.126313,31.154175 340.126313,22.361625 C340.126313,13.569075 347.254915,6.44085 356.051196,6.44085 C364.844553,6.44085 371.974617,13.569075 371.974617,22.361625 Z M364.132131,22.361625 C364.132131,26.825175 360.512973,30.4419375 356.051196,30.4419375 C351.586495,30.4419375 347.967336,26.825175 347.967336,22.361625 C347.967336,17.898075 351.586495,14.2813125 356.051196,14.2813125 C360.512973,14.2813125 364.132131,17.898075 364.132131,22.361625 Z M47.4747607,22.361625 C47.4747607,31.154175 40.3446962,38.2824 31.5498772,38.2824 C22.7550582,38.2824 15.6249936,31.154175 15.6249936,22.361625 C15.6249936,13.569075 22.7550582,6.44085 31.5498772,6.44085 C40.3446962,6.44085 47.4747607,13.569075 47.4747607,22.361625 Z M39.6322749,22.361625 C39.6322749,26.825175 36.014579,30.4419375 31.5498772,30.4419375 C27.0866382,30.4419375 23.4674795,26.825175 23.4674795,22.361625 C23.4674795,17.898075 27.0866382,14.2813125 31.5498772,14.2813125 C36.014579,14.2813125 39.6322749,17.898075 39.6322749,22.361625 Z M47.4747607,293.838188 C47.4747607,302.630738 40.3446962,309.758962 31.5498772,309.758962 C22.7550582,309.758962 15.6249936,302.630738 15.6249936,293.838188 C15.6249936,285.044175 22.7550582,277.917413 31.5498772,277.917413 C40.3446962,277.917413 47.4747607,285.044175 47.4747607,293.838188 Z M39.6322749,293.838188 C39.6322749,298.300275 36.014579,301.917038 31.5498772,301.917038 C27.0866382,301.917038 23.4674795,298.300275 23.4674795,293.838188 C23.4674795,289.374638 27.0866382,285.756413 31.5498772,285.756413 C36.014579,285.756413 39.6322749,289.374638 39.6322749,293.838188 Z M371.974617,293.838188 C371.974617,302.630738 364.844553,309.758962 356.051196,309.758962 C347.254915,309.758962 340.126313,302.630738 340.126313,293.838188 C340.126313,285.044175 347.254915,277.917413 356.051196,277.917413 C364.844553,277.917413 371.974617,285.044175 371.974617,293.838188 Z M364.132131,293.838188 C364.132131,298.300275 360.512973,301.917038 356.051196,301.917038 C351.586495,301.917038 347.967336,298.300275 347.967336,293.838188 C347.967336,289.374638 351.586495,285.756413 356.051196,285.756413 C360.512973,285.756413 364.132131,289.374638 364.132131,293.838188 Z M333.263955,32.0419125 L331.296385,35.9775 L321.285915,35.9775 L319.318345,32.0419125 L319.318345,12.0261375 L321.285915,8.0920125 L331.296385,8.0920125 L333.263955,12.0261375 L333.263955,32.0419125 Z M325.169854,30.0763125 L327.959561,30.0763125 L327.959561,27.287325 L325.169854,27.287325 L325.169854,30.0763125 Z M325.169854,16.7821875 L327.959561,16.7821875 L327.959561,13.9946625 L325.169854,13.9946625 L325.169854,16.7821875 Z M319.318345,32.0419125 L317.350774,35.9775 L307.340304,35.9775 L305.371271,32.0419125 L305.371271,12.0261375 L307.340304,8.0920125 L317.350774,8.0920125 L319.318345,12.0261375 L319.318345,32.0419125 Z M311.222781,30.0763125 L314.012488,30.0763125 L314.012488,27.287325 L311.222781,27.287325 L311.222781,30.0763125 Z M311.222781,16.7821875 L314.012488,16.7821875 L314.012488,13.9946625 L311.222781,13.9946625 L311.222781,16.7821875 Z M369.996807,65.9485125 L368.027774,69.8841 L358.017304,69.8841 L356.051196,65.9485125 L356.051196,45.9342 L358.017304,41.9986125 L368.027774,41.9986125 L369.996807,45.9342 L369.996807,65.9485125 Z"
               id="Stroke-5"
               stroke="#FFFFFE"
               stroke-width="0.673"
               mask="url(#mask-2)"
               style="fill:none;stroke:#000000" />
            <path
               d="M361.902706,63.98145 L364.69095,63.98145 L364.69095,61.1924625 L361.902706,61.1924625 L361.902706,63.98145 Z M361.902706,50.69025 L364.69095,50.69025 L364.69095,47.9012625 L361.902706,47.9012625 L361.902706,50.69025 Z M356.051196,65.9485125 L354.082163,69.8841 L344.071693,69.8841 L342.10266,65.9485125 L342.10266,45.9342 L344.071693,41.9986125 L354.082163,41.9986125 L356.051196,45.9342 L356.051196,65.9485125 Z M347.95417,63.98145 L350.74534,63.98145 L350.74534,61.1924625 L347.95417,61.1924625 L347.95417,63.98145 Z M347.95417,50.69025 L350.74534,50.69025 L350.74534,47.9012625 L347.95417,47.9012625 L347.95417,50.69025 Z M305.371271,32.0419125 L303.403701,35.9775 L293.393231,35.9775 L291.425661,32.0419125 L291.425661,12.0261375 L293.393231,8.0920125 L303.403701,8.0920125 L305.371271,12.0261375 L305.371271,32.0419125 Z M297.277171,30.0763125 L300.066878,30.0763125 L300.066878,27.287325 L297.277171,27.287325 L297.277171,30.0763125 Z M297.277171,16.7821875 L300.066878,16.7821875 L300.066878,13.9946625 L297.277171,13.9946625 L297.277171,16.7821875 Z M291.425661,32.0419125 L289.456628,35.9775 L279.446158,35.9775 L277.480051,32.0419125 L277.480051,12.0261375 L279.446158,8.0920125 L289.456628,8.0920125 L291.425661,12.0261375 L291.425661,32.0419125 Z M283.33156,30.0763125 L286.119805,30.0763125 L286.119805,27.287325 L283.33156,27.287325 L283.33156,30.0763125 Z M283.33156,16.7821875 L286.119805,16.7821875 L286.119805,13.9946625 L283.33156,13.9946625 L283.33156,16.7821875 Z M277.480051,32.0419125 L275.511018,35.9775 L265.500547,35.9775 L263.531514,32.0419125 L263.531514,12.0261375 L265.500547,8.0920125 L275.511018,8.0920125 L277.480051,12.0261375 L277.480051,32.0419125 Z M269.383024,30.0763125 L272.174194,30.0763125 L272.174194,27.287325 L269.383024,27.287325 L269.383024,30.0763125 Z M269.383024,16.7821875 L272.174194,16.7821875 L272.174194,13.9946625 L269.383024,13.9946625 L269.383024,16.7821875 Z M263.531514,32.0419125 L261.565407,35.9775 L251.553474,35.9775 L249.585904,32.0419125 L249.585904,12.0261375 L251.553474,8.0920125 L261.565407,8.0920125 L263.531514,12.0261375 L263.531514,32.0419125 Z M255.437414,30.0763125 L258.227121,30.0763125 L258.227121,27.287325 L255.437414,27.287325 L255.437414,30.0763125 Z M255.437414,16.7821875 L258.227121,16.7821875 L258.227121,13.9946625 L255.437414,13.9946625 L255.437414,16.7821875 Z M249.585904,32.0419125 L247.618334,35.9775 L237.607864,35.9775 L235.640294,32.0419125 L235.640294,12.0261375 L237.607864,8.0920125 L247.618334,8.0920125 L249.585904,12.0261375 L249.585904,32.0419125 Z"
               id="Stroke-6"
               stroke="#FFFFFE"
               stroke-width="0.673"
               mask="url(#mask-2)"
               style="fill:none;stroke:#000000" />
            <path
               d="M241.491803,30.0763125 L244.280048,30.0763125 L244.280048,27.287325 L241.491803,27.287325 L241.491803,30.0763125 Z M241.491803,16.7821875 L244.280048,16.7821875 L244.280048,13.9946625 L241.491803,13.9946625 L241.491803,16.7821875 Z M235.640294,32.0419125 L233.671261,35.9775 L223.660791,35.9775 L221.69322,32.0419125 L221.69322,12.0261375 L223.660791,8.0920125 L233.671261,8.0920125 L235.640294,12.0261375 L235.640294,32.0419125 Z M227.54473,30.0763125 L230.334437,30.0763125 L230.334437,27.287325 L227.54473,27.287325 L227.54473,30.0763125 Z M227.54473,16.7821875 L230.334437,16.7821875 L230.334437,13.9946625 L227.54473,13.9946625 L227.54473,16.7821875 Z M221.69322,32.0419125 L219.72565,35.9775 L209.713717,35.9775 L207.746147,32.0419125 L207.746147,12.0261375 L209.713717,8.0920125 L219.72565,8.0920125 L221.69322,12.0261375 L221.69322,32.0419125 Z M213.597657,30.0763125 L216.387364,30.0763125 L216.387364,27.287325 L213.597657,27.287325 L213.597657,30.0763125 Z M213.597657,16.7821875 L216.387364,16.7821875 L216.387364,13.9946625 L213.597657,13.9946625 L213.597657,16.7821875 Z M207.746147,32.0419125 L205.778577,35.9775 L195.768107,35.9775 L193.800537,32.0419125 L193.800537,12.0261375 L195.768107,8.0920125 L205.778577,8.0920125 L207.746147,12.0261375 L207.746147,32.0419125 Z M199.652046,30.0763125 L202.441754,30.0763125 L202.441754,27.287325 L199.652046,27.287325 L199.652046,30.0763125 Z M199.652046,16.7821875 L202.441754,16.7821875 L202.441754,13.9946625 L199.652046,13.9946625 L199.652046,16.7821875 Z M193.800537,32.0419125 L191.831504,35.9775 L181.822497,35.9775 L179.853464,32.0419125 L179.853464,12.0261375 L181.822497,8.0920125 L191.831504,8.0920125 L193.800537,12.0261375 L193.800537,32.0419125 Z M185.704973,30.0763125 L188.49468,30.0763125 L188.49468,27.287325 L185.704973,27.287325 L185.704973,30.0763125 Z M185.704973,16.7821875 L188.49468,16.7821875 L188.49468,13.9946625 L185.704973,13.9946625 L185.704973,16.7821875 Z M179.853464,32.0419125 L177.885893,35.9775 L167.875423,35.9775 L165.907853,32.0419125 L165.907853,12.0261375 L167.875423,8.0920125 L177.885893,8.0920125 L179.853464,12.0261375 L179.853464,32.0419125 Z M171.759363,30.0763125 L174.547607,30.0763125 L174.547607,27.287325 L171.759363,27.287325 L171.759363,30.0763125 Z M171.759363,16.7821875 L174.547607,16.7821875 L174.547607,13.9946625 L171.759363,13.9946625 L171.759363,16.7821875 Z M165.907853,32.0419125 L163.93882,35.9775 L153.92835,35.9775 L151.96078,32.0419125 L151.96078,12.0261375 L153.92835,8.0920125 L163.93882,8.0920125 L165.907853,12.0261375 L165.907853,32.0419125 Z"
               id="Stroke-7"
               stroke="#FFFFFE"
               stroke-width="0.673"
               mask="url(#mask-2)"
               style="fill:none;stroke:#000000" />
            <path
               d="M157.81229,30.0763125 L160.601997,30.0763125 L160.601997,27.287325 L157.81229,27.287325 L157.81229,30.0763125 Z M157.81229,16.7821875 L160.601997,16.7821875 L160.601997,13.9946625 L157.81229,13.9946625 L157.81229,16.7821875 Z M151.96078,32.0419125 L149.99321,35.9775 L139.98274,35.9775 L138.013707,32.0419125 L138.013707,12.0261375 L139.98274,8.0920125 L149.99321,8.0920125 L151.96078,12.0261375 L151.96078,32.0419125 Z M143.866679,30.0763125 L146.654924,30.0763125 L146.654924,27.287325 L143.866679,27.287325 L143.866679,30.0763125 Z M143.866679,16.7821875 L146.654924,16.7821875 L146.654924,13.9946625 L143.866679,13.9946625 L143.866679,16.7821875 Z M138.013707,32.0419125 L136.046137,35.9775 L126.035666,35.9775 L124.068096,32.0419125 L124.068096,12.0261375 L126.035666,8.0920125 L136.046137,8.0920125 L138.013707,12.0261375 L138.013707,32.0419125 Z M129.919606,30.0763125 L132.709313,30.0763125 L132.709313,27.287325 L129.919606,27.287325 L129.919606,30.0763125 Z M129.919606,16.7821875 L132.709313,16.7821875 L132.709313,13.9946625 L129.919606,13.9946625 L129.919606,16.7821875 Z M124.068096,32.0419125 L122.099063,35.9775 L112.090056,35.9775 L110.121023,32.0419125 L110.121023,12.0261375 L112.090056,8.0920125 L122.099063,8.0920125 L124.068096,12.0261375 L124.068096,32.0419125 Z M115.972533,30.0763125 L118.76224,30.0763125 L118.76224,27.287325 L115.972533,27.287325 L115.972533,30.0763125 Z M115.972533,16.7821875 L118.76224,16.7821875 L118.76224,13.9946625 L115.972533,13.9946625 L115.972533,16.7821875 Z M110.121023,32.0419125 L108.153453,35.9775 L98.1429828,35.9775 L96.1754126,32.0419125 L96.1754126,12.0261375 L98.1429828,8.0920125 L108.153453,8.0920125 L110.121023,12.0261375 L110.121023,32.0419125 Z M102.026922,30.0763125 L104.81663,30.0763125 L104.81663,27.287325 L102.026922,27.287325 L102.026922,30.0763125 Z M102.026922,16.7821875 L104.81663,16.7821875 L104.81663,13.9946625 L102.026922,13.9946625 L102.026922,16.7821875 Z M96.1754126,32.0419125 L94.2063796,35.9775 L84.1959095,35.9775 L82.2283394,32.0419125 L82.2283394,12.0261375 L84.1959095,8.0920125 L94.2063796,8.0920125 L96.1754126,12.0261375 L96.1754126,32.0419125 Z M88.079849,30.0763125 L90.8695563,30.0763125 L90.8695563,27.287325 L88.079849,27.287325 L88.079849,30.0763125 Z M88.079849,16.7821875 L90.8695563,16.7821875 L90.8695563,13.9946625 L88.079849,13.9946625 L88.079849,16.7821875 Z M82.2283394,32.0419125 L80.2607693,35.9775 L70.2502991,35.9775 L68.282729,32.0419125 L68.282729,12.0261375 L70.2502991,8.0920125 L80.2607693,8.0920125 L82.2283394,12.0261375 L82.2283394,32.0419125 Z"
               id="Stroke-8"
               stroke="#FFFFFE"
               stroke-width="0.673"
               mask="url(#mask-2)"
               style="fill:none;stroke:#000000" />
            <path
               d="M74.1342387,30.0763125 L76.9239459,30.0763125 L76.9239459,27.287325 L74.1342387,27.287325 L74.1342387,30.0763125 Z M74.1342387,16.7821875 L76.9239459,16.7821875 L76.9239459,13.9946625 L74.1342387,13.9946625 L74.1342387,16.7821875 Z M68.282729,32.0419125 L66.313696,35.9775 L56.3032259,35.9775 L54.3356557,32.0419125 L54.3356557,12.0261375 L56.3032259,8.0920125 L66.313696,8.0920125 L68.282729,12.0261375 L68.282729,32.0419125 Z M60.1871654,30.0763125 L62.9768726,30.0763125 L62.9768726,27.287325 L60.1871654,27.287325 L60.1871654,30.0763125 Z M60.1871654,16.7821875 L62.9768726,16.7821875 L62.9768726,13.9946625 L60.1871654,13.9946625 L60.1871654,16.7821875 Z M322.718072,202.589887 L367.220265,202.589887 L367.220265,158.099175 L322.718072,158.099175 L322.718072,202.589887 Z"
               id="Stroke-9"
               stroke="#FFFFFE"
               stroke-width="0.673"
               mask="url(#mask-2)"
               style="fill:none;stroke:#000000" />
          </g>
          <path
             d="M326.861644,156.46988 L326.861644,158.445379 M329.091511,156.46988 L329.091511,158.445379 M331.321378,156.46988 L331.321378,158.445379 M333.551244,156.46988 L333.551244,158.445379 M335.779642,156.46988 L335.779642,158.445379 M338.009509,156.46988 L338.009509,158.445379 M340.239376,156.46988 L340.239376,158.445379 M342.469243,156.46988 L342.469243,158.445379 M344.697641,156.46988 L344.697641,158.445379 M346.927508,156.46988 L346.927508,158.445379 M349.157375,156.46988 L349.157375,158.445379 M351.387242,156.46988 L351.387242,158.445379 M353.617109,156.46988 L353.617109,158.445379 M355.845507,156.46988 L355.845507,158.445379 M358.075374,156.46988 L358.075374,158.445379 M360.303772,156.46988 L360.303772,158.445379 M362.535107,156.46988 L362.535107,158.445379 M326.861644,203.12691 L326.861644,205.10241 M329.091511,203.12691 L329.091511,205.10241 M331.321378,203.12691 L331.321378,205.10241 M333.551244,203.12691 L333.551244,205.10241 M335.779642,203.12691 L335.779642,205.10241 M338.009509,203.12691 L338.009509,205.10241 M340.239376,203.12691 L340.239376,205.10241 M342.469243,203.12691 L342.469243,205.10241 M344.697641,203.12691 L344.697641,205.10241 M346.927508,203.12691 L346.927508,205.10241 M349.157375,203.12691 L349.157375,205.10241 M351.387242,203.12691 L351.387242,205.10241 M353.617109,203.12691 L353.617109,205.10241 M355.845507,203.12691 L355.845507,205.10241 M358.075374,203.12691 L358.075374,205.10241 M360.303772,203.12691 L360.303772,205.10241 M362.535107,203.12691 L362.535107,205.10241 M369.017586,162.953042 L367.040379,162.953042 M369.017586,165.18117 L367.040379,165.18117 M369.017586,167.410767 L367.040379,167.410767 M369.017586,169.640364 L367.040379,169.640364 M369.017586,171.868492 L367.040379,171.868492 M369.017586,174.099557 L367.040379,174.099557 M369.017586,176.327685 L367.040379,176.327685 M369.017586,178.557282 L367.040379,178.557282 M369.017586,180.78541 L367.040379,180.78541 M369.017586,183.016476 L367.040379,183.016476 M369.017586,185.244604 L367.040379,185.244604 M369.017586,187.474201 L367.040379,187.474201 M369.017586,189.703798 L367.040379,189.703798 M369.017586,191.931926 L367.040379,191.931926 M369.017586,194.162991 L367.040379,194.162991 M369.017586,196.391119 L367.040379,196.391119 M369.017586,198.620716 L367.040379,198.620716 M322.353435,162.953042 L320.379165,162.953042 M322.353435,165.18117 L320.379165,165.18117 M322.353435,167.410767 L320.379165,167.410767 M322.353435,169.640364 L320.379165,169.640364 M322.353435,171.868492 L320.379165,171.868492 M322.353435,174.099557 L320.379165,174.099557 M322.353435,176.327685 L320.379165,176.327685 M322.353435,178.557282 L320.379165,178.557282 M322.353435,180.78541 L320.379165,180.78541 M322.353435,183.016476 L320.379165,183.016476 M322.353435,185.244604 L320.379165,185.244604 M322.353435,187.474201 L320.379165,187.474201 M322.353435,189.703798 L320.379165,189.703798"
             id="Stroke-11"
             stroke="#FFFFFE"
             stroke-width="0.673"
             stroke-linecap="round"
             style="fill:none;stroke:#000000" />
          <path
             d="M322.493879,191.358434 L320.379165,191.358434 M322.493879,193.671622 L320.379165,193.671622 M322.493879,195.981764 L320.379165,195.981764 M322.493879,198.293429 L320.379165,198.293429"
             id="Stroke-12"
             stroke="#FFFFFE"
             stroke-width="0.673"
             stroke-linecap="round"
             style="fill:none;stroke:#000000" />
          <polygon
             id="Stroke-13"
             stroke="#FFFFFE"
             stroke-width="0.673"
             points="322.493879 118.409639 355.271945 118.409639 355.271945 85.6355422 322.493879 85.6355422"
             style="fill:none;stroke:#000000" />
          <path
             d="M328.857833,84.9927703 L328.857833,85.9714705 L328.857833,84.9927703 Z M331.665439,84.9927703 L331.665439,85.9714705 L331.665439,84.9927703 Z M334.474514,84.9927703 L334.474514,85.9714705 L334.474514,84.9927703 Z M337.283589,84.9927703 L337.283589,85.9714705 L337.283589,84.9927703 Z M340.091195,84.9927703 L340.091195,85.9714705 L340.091195,84.9927703 Z M342.898801,84.9927703 L342.898801,85.9714705 L342.898801,84.9927703 Z M345.706407,84.9927703 L345.706407,85.9714705 L345.706407,84.9927703 Z M348.514013,84.9927703 L348.514013,85.9714705 L348.514013,84.9927703 Z M351.321619,84.9927703 L351.321619,85.9714705 L351.321619,84.9927703 Z M328.857833,119.126576 L328.857833,120.105277 L328.857833,119.126576 Z M331.665439,119.126576 L331.665439,120.105277 L331.665439,119.126576 Z M334.474514,119.126576 L334.474514,120.105277 L334.474514,119.126576 Z M337.283589,119.126576 L337.283589,120.105277 L337.283589,119.126576 Z M340.091195,119.126576 L340.091195,120.105277 L340.091195,119.126576 Z M342.898801,119.126576 L342.898801,120.105277 L342.898801,119.126576 Z M345.706407,119.126576 L345.706407,120.105277 L345.706407,119.126576 Z M348.514013,119.126576 L348.514013,120.105277 L348.514013,119.126576 Z M351.321619,119.126576 L351.321619,120.105277 L351.321619,119.126576 Z M357.827155,91.430669 L356.838395,91.430669 L357.827155,91.430669 Z M357.827155,94.2111665 L356.838395,94.2111665 L357.827155,94.2111665 Z M357.827155,96.9902098 L356.838395,96.9902098 L357.827155,96.9902098 Z M357.827155,99.7692531 L356.838395,99.7692531 L357.827155,99.7692531 Z M357.827155,102.549751 L356.838395,102.549751 L357.827155,102.549751 Z M357.827155,105.328794 L356.838395,105.328794 L357.827155,105.328794 Z M357.827155,108.107837 L356.838395,108.107837 L357.827155,108.107837 Z M357.827155,110.888335 L356.838395,110.888335 L357.827155,110.888335 Z M357.827155,113.667378 L356.838395,113.667378 L357.827155,113.667378 Z M323.341057,91.430669 L322.355236,91.430669 L323.341057,91.430669 Z M323.341057,94.2111665 L322.355236,94.2111665 L323.341057,94.2111665 Z M323.341057,96.9902098 L322.355236,96.9902098 L323.341057,96.9902098 Z M323.341057,99.7692531 L322.355236,99.7692531 L323.341057,99.7692531 Z M323.341057,102.549751 L322.355236,102.549751 L323.341057,102.549751 Z M323.341057,105.328794 L322.355236,105.328794 L323.341057,105.328794 Z M323.341057,108.107837 L322.355236,108.107837 L323.341057,108.107837 Z M323.341057,110.888335 L322.355236,110.888335 L323.341057,110.888335 Z M323.341057,113.667378 L322.355236,113.667378 L323.341057,113.667378 Z M378.533799,84.4663372 L374.572886,88.386955 L365.073158,78.9838708 L369.032602,75.063253 L378.533799,84.4663372 Z M370.510599,75.1432359 L369.811268,75.8354518 L370.510599,75.1432359 Z M372.496932,77.1079076 L371.797602,77.8001235 L372.496932,77.1079076 Z M374.481796,79.0725792 L373.782466,79.7647951 L374.481796,79.0725792 Z M376.46813,81.038705 L375.768799,81.7309209 L376.46813,81.038705 Z M378.452994,83.0048309 L377.755133,83.6955925 L378.452994,83.0048309 Z M365.850355,79.7546154 L365.151024,80.4468313 L365.850355,79.7546154 Z M367.836688,81.7207413 L367.137358,82.411503 L367.836688,81.7207413 Z M369.821552,83.6854129 L369.123691,84.3776288 L369.821552,83.6854129 Z M371.807886,85.6500845 L371.108555,86.3423004 L371.807886,85.6500845 Z M373.79275,87.6162104 L373.094889,88.3084263 L373.79275,87.6162104 Z M378.533799,102.684994 L374.572886,106.605612 L365.073158,97.2010739 L369.032602,93.2804561 L378.533799,102.684994 Z M370.510599,93.360439 L369.811268,94.0526549 L370.510599,93.360439 Z M372.496932,95.3251106 L371.797602,96.0173265 L372.496932,95.3251106 Z M374.481796,97.2912365 L373.782466,97.9819981 L374.481796,97.2912365 Z M376.46813,99.2559081 L375.768799,99.948124 L376.46813,99.2559081 Z M378.452994,101.222034 L377.755133,101.91425 L378.452994,101.222034 Z M365.850355,97.9732727 L365.151024,98.6640344 L365.850355,97.9732727 Z M367.836688,99.9379443 L367.137358,100.63016 L367.836688,99.9379443 Z M369.821552,101.902616 L369.123691,102.594832 L369.821552,101.902616 Z M371.807886,103.868742 L371.108555,104.559503 L371.807886,103.868742 Z M373.79275,105.833413 L373.094889,106.525629 L373.79275,105.833413 Z M234.73325,173.385542 L291.411334,173.385542 L291.411334,93.360439 L234.73325,93.360439 L234.73325,173.385542 Z"
             id="Stroke-14"
             stroke="#FFFFFE"
             stroke-width="0.673"
             stroke-linecap="round"
             style="fill:none;stroke:#000000" />
          <path
             d="M210.140621,173.385542 L141.123035,173.385542 C138.053127,173.385542 135.562832,170.895485 135.562832,167.824414 L135.562832,98.814872 C135.562832,95.7438011 138.053127,93.2537436 141.123035,93.2537436 L210.140621,93.2537436 C213.210529,93.2537436 215.700824,95.7438011 215.700824,98.814872 L215.700824,167.824414 C215.700824,170.895485 213.210529,173.385542 210.140621,173.385542 Z M205.168768,167.613268 L146.094887,167.613268 C143.464786,167.613268 141.3342,165.482886 141.3342,162.854492 L141.3342,103.784794 C141.3342,101.1564 143.464786,99.0245611 146.094887,99.0245611 L205.168768,99.0245611 C207.79887,99.0245611 209.929456,101.1564 209.929456,103.784794 L209.929456,162.854492 C209.929456,165.482886 207.79887,167.613268 205.168768,167.613268 Z M201.516335,163.37289 L149.747321,163.37289 C147.443433,163.37289 145.57644,161.504619 145.57644,159.200951 L145.57644,107.436878 C145.57644,105.133211 147.443433,103.266396 149.747321,103.266396 L201.516335,103.266396 C203.820222,103.266396 205.687216,105.133211 205.687216,107.436878 L205.687216,159.200951 C205.687216,161.504619 203.820222,163.37289 201.516335,163.37289 Z M48.6384211,113.421753 L109.727839,113.421753 L109.727839,41.2319277 L48.6384211,41.2319277 L48.6384211,113.421753 Z"
             id="Stroke-15"
             stroke="#FFFFFE"
             stroke-width="0.673"
             stroke-linecap="round"
             style="fill:none;stroke:#000000" />
          <path
             d="M358.471536,136.395 L365.235879,136.395 L365.235879,125.531704 L358.471536,125.531704 L358.471536,136.395 Z M340.948137,261.573025 L351.799515,261.573025 L351.799515,254.801253 L340.948137,254.801253 L340.948137,261.573025 Z M383.342512,228.620784 L394.192423,228.620784 L394.192423,221.847545 L383.342512,221.847545 L383.342512,228.620784 Z M383.342512,218.740393 L394.192423,218.740393 L394.192423,211.968621 L383.342512,211.968621 L383.342512,218.740393 Z M347.661191,222.980086 L347.661191,214.223434 C347.661191,212.977932 348.669394,211.968621 349.914995,211.968621 L362.069123,211.968621 C363.313258,211.968621 364.321462,212.977932 364.321462,214.223434 L364.321462,222.980086 C364.321462,224.22412 363.313258,225.234898 362.069123,225.234898 L349.914995,225.234898 C348.669394,225.234898 347.661191,224.22412 347.661191,222.980086 Z M340.948137,273.84026 L351.799515,273.84026 L351.799515,267.067021 L340.948137,267.067021 L340.948137,273.84026 Z M378.777753,147.045577 L402.853009,147.045577 L402.853009,108.857536 L378.777753,108.857536 L378.777753,147.045577 Z M278.084886,88.1798656 L288.937728,88.1798656 L288.937728,81.4066265 L278.084886,81.4066265 L278.084886,88.1798656 Z M348.229771,136.395 L353.260531,136.395 L353.260531,127.518052 L348.229771,127.518052 L348.229771,136.395 Z M333.713397,136.395 L338.745623,136.395 L338.745623,127.518052 L333.713397,127.518052 L333.713397,136.395 Z M391.397882,244.417674 L396.428642,244.417674 L396.428642,235.540725 L391.397882,235.540725 L391.397882,244.417674 Z M373.562351,268.538444 L378.593111,268.538444 L378.593111,259.661496 L373.562351,259.661496 L373.562351,268.538444 Z M341.31156,136.395 L344.492969,136.395 L344.492969,130.274585 L341.31156,130.274585 L341.31156,136.395 Z M359.104594,261.247346 L362.286004,261.247346 L362.286004,255.126932 L359.104594,255.126932 L359.104594,261.247346 Z M385.128849,301.310241 L388.310259,301.310241 L388.310259,295.189827 L385.128849,295.189827 L385.128849,301.310241 Z M312.699387,226.70192 L315.880797,226.70192 L315.880797,220.580038 L312.699387,220.580038 L312.699387,226.70192 Z M312.699387,237.224866 L315.880797,237.224866 L315.880797,231.105919 L312.699387,231.105919 L312.699387,237.224866 Z M330.82507,226.70192 L334.00648,226.70192 L334.00648,220.580038 L330.82507,220.580038 L330.82507,226.70192 Z M330.82507,237.224866 L334.00648,237.224866 L334.00648,231.105919 L330.82507,231.105919 L330.82507,237.224866 Z M391.011014,301.310241 L394.192423,301.310241 L394.192423,295.189827 L391.011014,295.189827 L391.011014,301.310241 Z M396.893178,301.310241 L400.074588,301.310241 L400.074588,295.189827 L396.893178,295.189827 L396.893178,301.310241 Z"
             id="Stroke-16"
             stroke="#FFFFFE"
             stroke-width="0.673"
             style="fill:none;stroke:#000000" />
          <path
             d="M359.248972,272.76506 L362.416806,272.76506 L362.416806,266.661527 L359.248972,266.661527 L359.248972,272.76506 Z M399.686635,257.471856 L402.853009,257.471856 L402.853009,251.369786 L399.686635,251.369786 L399.686635,257.471856 Z M399.686635,269.700861 L402.853009,269.700861 L402.853009,263.597329 L399.686635,263.597329 L399.686635,269.700861 Z M327.935428,133.308183 L331.100343,133.308183 L331.100343,127.206112 L327.935428,127.206112 L327.935428,133.308183 Z M171.291831,191.005802 L174.459664,191.005802 L174.459664,184.905194 L171.291831,184.905194 L171.291831,191.005802 Z M298.219662,150.170783 L304.955139,150.170783 L304.955139,139.341509 L298.219662,139.341509 L298.219662,150.170783 Z M361.986354,120.527768 L368.073964,120.527768 L368.073964,117.35241 L361.986354,117.35241 L361.986354,120.527768 Z M311.207633,169.361882 L314.662921,169.361882 L314.662921,167.630134 L311.207633,167.630134 L311.207633,169.361882 Z M311.207633,172.731769 L314.662921,172.731769 L314.662921,171.000021 L311.207633,171.000021 L311.207633,172.731769 Z M376.150407,175.775491 L379.605694,175.775491 L379.605694,174.043743 L376.150407,174.043743 L376.150407,175.775491 Z M181.435902,195.218161 L183.163545,195.218161 L183.163545,191.754666 L181.435902,191.754666 L181.435902,195.218161 Z M376.150407,179.146841 L379.605694,179.146841 L379.605694,177.415093 L376.150407,177.415093 L376.150407,179.146841 Z M376.150407,196.007978 L379.605694,196.007978 L379.605694,194.276231 L376.150407,194.276231 L376.150407,196.007978 Z M376.150407,199.379328 L379.605694,199.379328 L379.605694,197.646118 L376.150407,197.646118 L376.150407,199.379328 Z M376.150407,205.956752 L379.605694,205.956752 L379.605694,204.225004 L376.150407,204.225004 L376.150407,205.956752 Z M311.207633,176.103119 L314.662921,176.103119 L314.662921,174.371371 L311.207633,174.371371 L311.207633,176.103119 Z M311.207633,179.474469 L314.662921,179.474469 L314.662921,177.741258 L311.207633,177.741258 L311.207633,179.474469 Z M311.207633,182.844356 L314.662921,182.844356 L314.662921,181.112608 L311.207633,181.112608 L311.207633,182.844356 Z M311.207633,186.214243 L314.662921,186.214243 L314.662921,184.482496 L311.207633,184.482496 L311.207633,186.214243 Z M300.078631,209.739099 L316.634244,209.739099 L316.634244,199.379328 L300.078631,199.379328 L300.078631,209.739099 Z"
             id="Stroke-17"
             stroke="#FFFFFE"
             stroke-width="0.673"
             style="fill:none;stroke:#000000" />
          <path
             d="M300.215881,201.930723 L299.232025,201.930723 M300.215881,204.631344 L299.232025,204.631344 M300.215881,207.331965 L299.232025,207.331965 M300.215881,210.032585 L299.232025,210.032585 M317.786411,201.930723 L316.802555,201.930723 M317.786411,204.631344 L316.802555,204.631344 M317.786411,207.331965 L316.802555,207.331965 M317.786411,210.032585 L316.802555,210.032585"
             id="Stroke-18"
             stroke="#FFFFFE"
             stroke-width="0.673"
             stroke-linecap="round"
             style="fill:none;stroke:#000000" />
          <polygon
             id="Stroke-19"
             stroke="#FFFFFE"
             stroke-width="0.673"
             points="293.94524 237.876506 304.51881 237.876506 304.51881 220.960843 293.94524 220.960843"
             style="fill:none;stroke:#000000" />
          <polygon
             id="Stroke-20"
             stroke="#FFFFFE"
             stroke-width="0.582"
             points="375.361728 246.334337 385.935298 246.334337 385.935298 233.64759 375.361728 233.64759"
             style="fill:none;stroke:#000000" />
          <path
             d="M387.635418,290.737952 L395.451511,290.737952 L395.451511,274.579888 L387.635418,274.579888 L387.635418,290.737952 Z M342.583662,250.277573 L348.926526,250.277573 L348.926526,233.64759 L342.583662,233.64759 L342.583662,250.277573 Z"
             id="Stroke-21"
             stroke="#FFFFFE"
             stroke-width="0.673"
             style="fill:none;stroke:#000000" />
          <path
             d="M303.105651,220.885965 L303.105651,219.903614 M300.405104,220.885965 L300.405104,219.903614 M297.704558,220.885965 L297.704558,219.903614 M295.002597,220.885965 L295.002597,219.903614 M303.105651,238.455716 L303.105651,237.471904 M300.405104,238.455716 L300.405104,237.471904 M297.704558,238.455716 L297.704558,237.471904 M295.002597,238.455716 L295.002597,237.471904"
             id="Stroke-22"
             stroke="#FFFFFE"
             stroke-width="0.673"
             stroke-linecap="round"
             style="fill:none;stroke:#000000" />
          <path
             d="M24.9493046,97.5512622 C25.1794706,97.5512622 41.5476454,97.5512622 41.5476454,97.5512622 L41.5476454,114.364385 L33.6692243,114.364385 L33.6692243,205.479721 L41.5476454,205.479721 L41.5476454,222.500576 L24.9493046,222.500576 L24.9493046,197.606387 L19.0324256,191.703581 L19.0324256,128.140525 L24.9493046,122.237719 L24.9493046,97.5512622 Z M37.4911528,205.479721 L41.5476454,205.479721 L41.5476454,114.364385 L37.4911528,114.364385 L37.4911528,205.479721 Z M229.138803,77.3646891 L235.255062,77.3646891 L235.255062,74.1901936 L229.138803,74.1901936 L229.138803,77.3646891 Z M114.268375,46.522344 L120.384633,46.522344 L120.384633,43.3463855 L114.268375,43.3463855 L114.268375,46.522344 Z M114.268375,52.0170007 L120.384633,52.0170007 L120.384633,48.8410423 L114.268375,48.8410423 L114.268375,52.0170007 Z M229.138803,82.5067867 L232.610352,82.5067867 L232.610352,80.7747117 L229.138803,80.7747117 L229.138803,82.5067867 Z M266.154482,89.5565074 L269.62603,89.5565074 L269.62603,87.8244324 L266.154482,87.8244324 L266.154482,89.5565074 Z M257.035803,89.5565074 L260.507351,89.5565074 L260.507351,87.8244324 L257.035803,87.8244324 L257.035803,89.5565074 Z M133.644834,89.5565074 L137.116382,89.5565074 L137.116382,87.8244324 L133.644834,87.8244324 L133.644834,89.5565074 Z M122.3667,233.333359 L129.135339,233.333359 L129.135339,222.500576 L122.3667,222.500576 L122.3667,233.333359 Z M110.739651,233.333359 L117.508291,233.333359 L117.508291,222.500576 L110.739651,222.500576 L110.739651,233.333359 Z M74.2165578,226.38019 L80.9837316,226.38019 L80.9837316,215.54887 L74.2165578,215.54887 L74.2165578,226.38019 Z M27.4679364,270.562731 L34.2365762,270.562731 L34.2365762,259.731411 L27.4679364,259.731411 L27.4679364,270.562731 Z M38.1640585,272.726362 L49.7222036,272.726362 L49.7222036,257.566317 L38.1640585,257.566317 L38.1640585,272.726362 Z M38.1640585,238.242855 L49.0830165,238.242855 L49.0830165,224.430143 L38.1640585,224.430143 L38.1640585,238.242855 Z M27.4679364,235.968044 L34.7907338,235.968044 L34.7907338,226.704954 L27.4679364,226.704954 L27.4679364,235.968044 Z M86.3068702,272.726362 L97.8650153,272.726362 L97.8650153,257.566317 L86.3068702,257.566317 L86.3068702,272.726362 Z M115.838488,281.222892 L133.875,281.222892 L133.875,257.566317 L115.838488,257.566317 L115.838488,281.222892 Z M35.5603972,246.541894 L44.4313176,246.541894 L44.4313176,241.519754 L35.5603972,241.519754 L35.5603972,246.541894 Z M35.5603972,254.279178 L44.4313176,254.279178 L44.4313176,249.257038 L35.5603972,249.257038 L35.5603972,254.279178 Z"
             id="Stroke-23"
             stroke="#FFFFFE"
             stroke-width="0.673"
             style="fill:none;stroke:#000000" />
          <path
             d="M55.5654033,227.715273 L64.310533,227.715273 L64.310533,222.743077 L55.5654033,222.743077 L55.5654033,227.715273 Z M92.1258275,245.631403 L100.870957,245.631403 L100.870957,240.659206 L92.1258275,240.659206 L92.1258275,245.631403 Z M92.1258275,253.291744 L100.870957,253.291744 L100.870957,248.319547 L92.1258275,248.319547 L92.1258275,253.291744 Z M99.7145765,267.253869 L104.678341,267.253869 L104.678341,258.489884 L99.7145765,258.489884 L99.7145765,267.253869 Z M16.9177117,275.936747 L21.8814762,275.936747 L21.8814762,267.172761 L16.9177117,267.172761 L16.9177117,275.936747 Z M16.9177117,255.187638 L21.8814762,255.187638 L21.8814762,246.423652 L16.9177117,246.423652 L16.9177117,255.187638 Z M80.0055113,273.901811 L83.1421942,273.901811 L83.1421942,267.857832 L80.0055113,267.857832 L80.0055113,273.901811 Z M70.7949383,272.452009 L76.8254642,272.452009 L76.8254642,269.307634 L70.7949383,269.307634 L70.7949383,272.452009 Z M59.9365227,272.452009 L65.9670485,272.452009 L65.9670485,269.307634 L59.9365227,269.307634 L59.9365227,272.452009 Z M54.316512,261.260583 L81.8802937,261.260583 L81.8802937,233.641935 L54.316512,233.641935 L54.316512,261.260583 Z M50.4990099,218.40381 L65.0202617,218.40381 L65.0202617,209.331325 L50.4990099,209.331325 L50.4990099,218.40381 Z"
             id="Stroke-24"
             stroke="#FFFFFE"
             stroke-width="0.673"
             style="fill:none;stroke:#000000" />
          <path
             d="M57.8892496,232.590361 L57.8892496,233.550848 M60.6169064,232.590361 L60.6169064,233.550848 M63.3445632,232.590361 L63.3445632,233.550848 M66.07222,232.590361 L66.07222,233.550848 M68.8013042,232.590361 L68.8013042,233.550848 M71.528961,232.590361 L71.528961,233.550848 M74.2566178,232.590361 L74.2566178,233.550848 M76.9857019,232.590361 L76.9857019,233.550848 M57.8892496,260.765599 L57.8892496,261.724659 M60.6169064,260.765599 L60.6169064,261.724659 M63.3445632,260.765599 L63.3445632,261.724659 M66.07222,260.765599 L66.07222,261.724659 M68.8013042,260.765599 L68.8013042,261.724659 M71.528961,260.765599 L71.528961,261.724659 M74.2566178,260.765599 L74.2566178,261.724659 M76.9857019,260.765599 L76.9857019,261.724659 M82.0071026,237.611154 L81.0464992,237.611154 M82.0071026,240.33848 L81.0464992,240.33848 M82.0071026,243.065807 L81.0464992,243.065807 M82.0071026,245.79456 L81.0464992,245.79456 M82.0071026,248.521887 L81.0464992,248.521887 M82.0071026,251.249213 L81.0464992,251.249213 M82.0071026,253.977967 L81.0464992,253.977967 M82.0071026,256.705293 L81.0464992,256.705293 M53.827025,237.611154 L52.867849,237.611154 M53.827025,240.33848 L52.867849,240.33848 M53.827025,243.065807 L52.867849,243.065807 M53.827025,245.79456 L52.867849,245.79456 M53.827025,248.521887 L52.867849,248.521887 M53.827025,251.249213 L52.867849,251.249213 M53.827025,253.977967 L52.867849,253.977967 M53.827025,256.705293 L52.867849,256.705293"
             id="Stroke-25"
             stroke="#FFFFFE"
             stroke-width="0.673"
             stroke-linecap="round"
             style="fill:none;stroke:#000000" />
          <g
             id="Group-29"
             transform="translate(186.094829, 125.810241)"
             stroke="#FFFFFE"
             stroke-width="0.673"
             style="fill:none;stroke:#000000">
            <path
               d="M94.6943118,184.942669 C94.4664916,184.942669 78.159828,184.942669 78.159828,184.942669 L78.159828,168.10386 L86.0079393,168.10386 L86.0079393,76.8493206 L78.159828,76.8493206 L78.159828,59.8024616 L94.6943118,59.8024616 L94.6943118,84.7346832 L100.588427,90.6465075 L100.588427,154.306673 L94.6943118,160.218497 L94.6943118,184.942669 Z M78.159828,168.10386 L82.2007145,168.10386 L82.2007145,76.8493206 L78.159828,76.8493206 L78.159828,168.10386 Z M199.358675,81.7135725 L205.451403,81.7135725 L205.451403,78.532762 L199.358675,78.532762 L199.358675,81.7135725 Z M194.740936,139.608427 L210.841685,139.608427 L210.841685,131.718669 L194.740936,131.718669 L194.740936,139.608427 Z M132.074337,101.16179 L142.355451,101.16179 L142.355451,95.0477765 L132.074337,95.0477765 L132.074337,101.16179 Z M132.486166,111.663885 L134.215262,111.663885 L134.215262,108.192978 L132.486166,108.192978 L132.486166,111.663885 Z M136.350346,111.663885 L138.079442,111.663885 L138.079442,108.192978 L136.350346,108.192978 L136.350346,111.663885 Z M140.045121,111.663885 L141.772757,111.663885 L141.772757,108.192978 L140.045121,108.192978 L140.045121,111.663885 Z M0.9419486,158.505753 L7.29608559,158.505753 L7.29608559,152.12948 L0.9419486,152.12948 L0.9419486,158.505753 Z M12.5374089,158.505753 L18.8930063,158.505753 L18.8930063,152.12948 L12.5374089,152.12948 L12.5374089,158.505753 Z M0.186929334,181.419017 L8.05110485,181.419017 L8.05110485,165.265891 L0.186929334,165.265891 L0.186929334,181.419017 Z M301.790109,151.10535 L295.282631,147.7707 C294.888327,147.568512 294.450211,147.463022 294.006254,147.463022 L289.008815,147.463022 C288.388152,147.463022 287.884319,147.968494 287.884319,148.592642 L287.884319,149.942032 C287.884319,150.564715 288.388152,151.070187 289.008815,151.070187 L292.906584,151.070187 C293.26876,151.070187 293.629475,151.140513 293.965363,151.278236 L300.878828,154.100088 C301.214717,154.237811 301.573972,154.308138 301.937608,154.308138 L311.209595,154.308138 C311.830258,154.308138 312.334091,154.81361 312.334091,155.437758 L312.334091,161.585469 C312.334091,162.209617 311.830258,162.713624 311.209595,162.713624 L301.937608,162.713624 C301.573972,162.713624 301.214717,162.78395 300.878828,162.921673 L293.965363,165.74499 C293.629475,165.881248 293.26876,165.951575 292.906584,165.951575 L289.008815,165.951575 C288.388152,165.951575 287.884319,166.457047 287.884319,167.081195 L287.884319,168.430585 C287.884319,169.054733 288.388152,169.55874 289.008815,169.55874 L294.006254,169.55874 C294.450211,169.55874 294.888327,169.45325 295.282631,169.251061 L301.790109,165.917876 C302.185873,165.714223 302.623989,165.608733 303.066485,165.608733 L315.506049,165.608733 C316.72255,165.608733 317.70977,164.618301 317.70977,163.397842 L317.70977,153.623919 C317.70977,152.403461 316.72255,151.413029 315.506049,151.413029 L303.066485,151.413029 C302.623989,151.413029 302.185873,151.307539 301.790109,151.10535 Z M301.790109,115.640265 L295.282631,112.305615 C294.888327,112.103426 294.450211,111.997936 294.006254,111.997936 L289.008815,111.997936 C288.388152,111.997936 287.884319,112.503408 287.884319,113.127556 L287.884319,114.476947 C287.884319,115.09963 288.388152,115.605102 289.008815,115.605102 L292.906584,115.605102 C293.26876,115.605102 293.629475,115.675428 293.965363,115.813151 L300.878828,118.635003 C301.214717,118.772726 301.573972,118.843052 301.937608,118.843052 L311.209595,118.843052 C311.830258,118.843052 312.334091,119.348524 312.334091,119.972672 L312.334091,126.120384 C312.334091,126.744532 311.830258,127.248538 311.209595,127.248538 L301.937608,127.248538 C301.573972,127.248538 301.214717,127.318865 300.878828,127.456588 L293.965363,130.279905 C293.629475,130.416163 293.26876,130.486489 292.906584,130.486489 L289.008815,130.486489 C288.388152,130.486489 287.884319,130.991961 287.884319,131.616109 L287.884319,132.9655 C287.884319,133.588183 288.388152,134.093654 289.008815,134.093654 L294.006254,134.093654 C294.450211,134.093654 294.888327,133.988165 295.282631,133.785976 L301.790109,130.452791 C302.185873,130.249137 302.623989,130.143647 303.066485,130.143647 L315.506049,130.143647 C316.72255,130.143647 317.70977,129.153215 317.70977,127.932757 L317.70977,118.158834 C317.70977,116.938375 316.72255,115.947943 315.506049,115.947943 L303.066485,115.947943 C302.623989,115.947943 302.185873,115.842454 301.790109,115.640265 Z"
               id="Stroke-26"
               style="fill:none;stroke:#000000" />
            <path
               d="M224.077159,76.9533452 C224.077159,76.9533452 319.45347,76.9533452 320.767817,76.9533452 C321.665954,76.9533452 322.301222,78.4800171 322.615205,79.4484721 C322.767085,79.9158505 323.192057,80.2308548 323.681286,80.2308548 L324.475736,80.2308548 C325.150434,80.2308548 325.674712,79.6228233 325.59147,78.9503258 C325.024841,74.270681 321.360734,74.1139114 321.360734,72.0553951 C321.360734,70.525793 323.384828,70.1038338 324.658284,69.9895532 C325.232215,69.9382734 325.66595,69.4533133 325.66595,68.8745846 L325.66595,11.7005772 C325.66595,11.1233135 325.233676,10.6398186 324.661205,10.5885388 C323.387749,10.4742582 321.360734,10.0537642 321.360734,8.5226969 C321.360734,6.46271549 325.027761,6.30741106 325.592931,1.6219057 C325.674712,0.952338488 325.151894,0.347237264 324.480117,0.347237264 L323.676905,0.347237264 C323.190597,0.347237264 322.767085,0.660776397 322.616665,1.12522455 C322.302682,2.09367954 321.665954,3.6247468 320.767817,3.6247468 C319.45347,3.6247468 224.077159,3.6247468 224.077159,3.6247468 L224.077159,76.9533452 Z M320.177821,18.2731779 L320.177821,27.9738442 C320.177821,28.5452473 319.751389,29.025812 319.18622,29.0932082 L288.081471,32.7677697 C287.408233,32.8483521 286.815316,32.319438 286.815316,31.6396148 L286.815316,30.7180442 C286.815316,30.1334549 287.257813,29.6426343 287.839047,29.5869591 L312.29174,27.2031826 C313.442524,27.0903671 314.320216,26.1189819 314.320216,24.9585941 L314.320216,21.288428 C314.320216,20.1280402 313.442524,19.156655 312.29174,19.0438395 L287.839047,16.660063 C287.257813,16.6043878 286.815316,16.1150323 286.815316,15.5289779 L286.815316,14.6074073 C286.815316,13.9275841 287.408233,13.39867 288.081471,13.4777873 L319.18622,17.1538139 C319.751389,17.2212101 320.177821,17.7017748 320.177821,18.2731779 Z M320.177821,52.5251304 L320.177821,62.2257968 C320.177821,62.798665 319.751389,63.2792297 319.18622,63.3451608 L288.081471,67.0211874 C287.408233,67.1017699 286.815316,66.5728557 286.815316,65.8915674 L286.815316,64.9699968 C286.815316,64.3854075 287.257813,63.896052 287.839047,63.8389117 L312.29174,61.4551352 C313.442524,61.3437848 314.320216,60.3723996 314.320216,59.2120118 L314.320216,55.5403806 C314.320216,54.3799928 313.442524,53.4100727 312.29174,53.2972572 L287.839047,50.9134807 C287.257813,50.8563404 286.815316,50.3669849 286.815316,49.7823956 L286.815316,48.860825 C286.815316,48.1810018 287.408233,47.6520877 288.081471,47.731205 L319.18622,51.4072316 C319.751389,51.4746278 320.177821,51.9551925 320.177821,52.5251304 Z M286.815316,42.5182506 L286.815316,38.0598414 C286.815316,37.6818363 287.098631,37.3624366 287.47395,37.3170174 L308.088751,34.8819611 C308.535629,34.8292162 308.927012,35.1793837 308.927012,35.6306457 L308.927012,36.2416074 C308.927012,36.6284034 308.633475,36.9536636 308.247933,36.990292 L292.043496,38.5711739 C291.279715,38.6458958 290.698481,39.2890906 290.698481,40.0582871 L290.698481,40.519805 C290.698481,41.2890014 291.279715,41.9321962 292.043496,42.0069181 L308.247933,43.5863349 C308.633475,43.6244284 308.927012,43.9482235 308.927012,44.3364846 L308.927012,44.9474464 C308.927012,45.3987083 308.535629,45.7474107 308.088751,45.6961309 L287.47395,43.2596095 C287.098631,43.2156554 286.815316,42.8962558 286.815316,42.5182506 Z"
               id="Stroke-28"
               style="fill:none;stroke:#000000" />
          </g>
          <path
             d="M270.683387,209.184178 L269.004918,209.184178 M270.683387,214.752259 L269.004918,214.752259 M270.683387,220.31888 L269.004918,220.31888 M270.683387,225.88696 L269.004918,225.88696 M270.683387,231.453581 L269.004918,231.453581 M270.683387,237.021662 L269.004918,237.021662 M270.683387,242.588283 L269.004918,242.588283 M270.683387,248.154904 L269.004918,248.154904 M270.683387,253.721525 L269.004918,253.721525 M270.683387,259.327564 L269.004918,259.327564 M270.683387,264.894185 L269.004918,264.894185 M270.683387,270.462265 L269.004918,270.462265 M270.683387,276.028886 L269.004918,276.028886 M270.683387,281.596967 L269.004918,281.596967 M270.683387,287.163588 L269.004918,287.163588 M37.6286059,120.524096 L35.9501373,120.524096 M37.6286059,126.092177 L35.9501373,126.092177 M37.6286059,131.658798 L35.9501373,131.658798 M37.6286059,137.226879 L35.9501373,137.226879 M37.6286059,142.7935 L35.9501373,142.7935 M37.6286059,148.360121 L35.9501373,148.360121 M37.6286059,153.928202 L35.9501373,153.928202 M37.6286059,159.494823 L35.9501373,159.494823 M37.6286059,165.062904 L35.9501373,165.062904 M37.6286059,170.667482 L35.9501373,170.667482 M37.6286059,176.234103 L35.9501373,176.234103 M37.6286059,181.802184 L35.9501373,181.802184 M37.6286059,187.368805 L35.9501373,187.368805 M37.6286059,192.935426 L35.9501373,192.935426 M37.6286059,198.503507 L35.9501373,198.503507"
             id="Stroke-30"
             stroke="#FFFFFE"
             stroke-width="0.673"
             stroke-linecap="round"
             style="fill:none;stroke:#000000" />
          <path
             d="M216.939968,278.051205 C216.939968,278.051205 216.939968,320.499964 216.939968,321.137107 C216.939968,321.571189 216.205444,321.880196 215.740147,322.033228 C215.514815,322.10533 215.364106,322.312806 215.364106,322.54824 L215.364106,322.935235 C215.364106,323.263371 215.655282,323.514991 215.978648,323.476733 C218.229043,323.20157 218.305129,321.424042 219.292786,321.424042 C220.028774,321.424042 220.232158,322.40698 220.287759,323.022051 C220.31117,323.3031 220.543819,323.512048 220.823289,323.512048 L248.307956,323.512048 C248.585963,323.512048 248.818611,323.3031 248.843485,323.023523 C248.897623,322.40698 249.099544,321.424042 249.835532,321.424042 C250.826115,321.424042 250.900738,323.203041 253.152596,323.476733 C253.475963,323.514991 253.765675,323.264842 253.765675,322.936706 L253.765675,322.546769 C253.765675,322.311335 253.614966,322.10533 253.39256,322.033228 C252.925801,321.881667 252.189814,321.57266 252.189814,321.137107 C252.189814,320.499964 252.189814,278.051205 252.189814,278.051205 L216.939968,278.051205 Z M245.148916,315.477861 L240.484249,315.477861 C240.210631,315.477861 239.979446,315.270385 239.947256,314.995221 L238.179715,299.909785 C238.141672,299.58312 238.396268,299.296185 238.722561,299.296185 L239.165909,299.296185 C239.446843,299.296185 239.682417,299.511018 239.710218,299.792068 L240.8559,311.652058 C240.910038,312.211214 241.376798,312.636467 241.934275,312.636467 L243.698889,312.636467 C244.256367,312.636467 244.723126,312.211214 244.777265,311.652058 L245.92441,299.792068 C245.950747,299.511018 246.186322,299.296185 246.467255,299.296185 L246.910604,299.296185 C247.23836,299.296185 247.491492,299.58312 247.453449,299.909785 L245.685909,314.995221 C245.655182,315.270385 245.422534,315.477861 245.148916,315.477861 Z M228.682113,315.477861 L224.018908,315.477861 C223.743827,315.477861 223.512643,315.270385 223.480452,314.995221 L221.714375,299.909785 C221.674869,299.58312 221.929465,299.296185 222.255757,299.296185 L222.700569,299.296185 C222.980039,299.296185 223.217077,299.511018 223.243415,299.792068 L224.389097,311.652058 C224.443235,312.211214 224.909994,312.636467 225.467472,312.636467 L227.233549,312.636467 C227.791027,312.636467 228.257786,312.211214 228.310461,311.652058 L229.457606,299.792068 C229.483944,299.511018 229.719518,299.296185 230.000452,299.296185 L230.4438,299.296185 C230.771556,299.296185 231.024689,299.58312 230.986646,299.909785 L229.220569,314.995221 C229.188378,315.270385 228.957193,315.477861 228.682113,315.477861 Z M140.985483,278.051205 C140.985483,278.051205 140.985483,320.499964 140.985483,321.137107 C140.985483,321.571189 140.250959,321.880196 139.785662,322.033228 C139.561794,322.10533 139.409621,322.312806 139.409621,322.54824 L139.409621,322.935235 C139.409621,323.263371 139.70226,323.514991 140.025627,323.476733 C142.276021,323.20157 142.350644,321.424042 143.339765,321.424042 C144.075752,321.424042 144.277673,322.40698 144.333274,323.022051 C144.358149,323.3031 144.590797,323.512048 144.870267,323.512048 L172.354934,323.512048 C172.631478,323.512048 172.864126,323.3031 172.889,323.023523 C172.944602,322.40698 173.146523,321.424042 173.88251,321.424042 C174.873094,321.424042 174.947717,323.203041 177.199575,323.476733 C177.521478,323.514991 177.812654,323.264842 177.812654,322.936706 L177.812654,322.546769 C177.812654,322.311335 177.661944,322.10533 177.438075,322.033228 C176.972779,321.881667 176.236792,321.57266 176.236792,321.137107 C176.236792,320.499964 176.236792,278.051205 176.236792,278.051205 L140.985483,278.051205 Z M169.194431,315.477861 L164.531227,315.477861 C164.257609,315.477861 164.024961,315.270385 163.992771,314.995221 L162.226694,299.909785 C162.188651,299.58312 162.441784,299.296185 162.769539,299.296185 L163.212888,299.296185 C163.493821,299.296185 163.729396,299.511018 163.755733,299.792068 L164.902879,311.652058 C164.957017,312.211214 165.423776,312.636467 165.979791,312.636467 L167.745868,312.636467 C168.303345,312.636467 168.770105,312.211214 168.824243,311.652058 L169.969925,299.792068 C169.996263,299.511018 170.2333,299.296185 170.514234,299.296185 L170.957582,299.296185 C171.283875,299.296185 171.538471,299.58312 171.498964,299.909785 L169.732887,314.995221 C169.700697,315.270385 169.469512,315.477861 169.194431,315.477861 Z M152.729091,315.477861 L148.064423,315.477861 C147.790806,315.477861 147.559621,315.270385 147.52743,314.995221 L145.75989,299.909785 C145.721847,299.58312 145.97498,299.296185 146.302736,299.296185 L146.746084,299.296185 C147.027018,299.296185 147.262592,299.511018 147.28893,299.792068 L148.436075,311.652058 C148.490213,312.211214 148.956973,312.636467 149.51445,312.636467 L151.279064,312.636467 C151.836542,312.636467 152.303301,312.211214 152.357439,311.652058 L153.504585,299.792068 C153.530922,299.511018 153.766497,299.296185 154.04743,299.296185 L154.490778,299.296185 C154.817071,299.296185 155.071667,299.58312 155.033624,299.909785 L153.266084,314.995221 C153.233893,315.270385 153.002709,315.477861 152.729091,315.477861 Z M50.7531351,323.512048 L100.081849,323.512048 L100.081849,282.022683 L50.7531351,282.022683 L50.7531351,323.512048 Z M90.2403954,291.715208 L90.2403954,291.607792 C90.2403954,291.011849 89.759004,290.527738 89.1664098,290.527738 L85.8508085,290.527738 C85.2567511,290.527738 84.7768229,290.045098 84.7768229,289.447684 L84.7768229,289.33291 C84.7768229,288.736968 85.2567511,288.254328 85.8508085,288.254328 L89.1664098,288.254328 C89.759004,288.254328 90.2403954,287.768745 90.2403954,287.172803 L90.2403954,287.062443 C90.2403954,286.466501 89.759004,285.982389 89.1664098,285.982389 L83.4994531,285.982389 C83.0107458,285.982389 82.615683,286.379684 82.615683,286.871153 L82.615683,291.906499 C82.615683,292.397967 83.0107458,292.795262 83.4994531,292.795262 L89.1664098,292.795262 C89.759004,292.795262 90.2403954,292.311151 90.2403954,291.715208 Z"
             id="Stroke-31"
             stroke="#FFFFFE"
             stroke-width="0.673"
             style="fill:none;stroke:#000000" />
          <path
             d="M61.3267049,287.51466 L61.3267049,287.614674 C61.3267049,288.169548 61.7940035,288.620297 62.3692495,288.620297 L65.5877865,288.620297 C66.1630325,288.620297 66.6303312,289.071047 66.6303312,289.625921 L66.6303312,289.732785 C66.6303312,290.287659 66.1630325,290.738408 65.5877865,290.738408 L62.3692495,290.738408 C61.7940035,290.738408 61.3267049,291.189158 61.3267049,291.744032 L61.3267049,291.846786 C61.3267049,292.40166 61.7940035,292.85241 62.3692495,292.85241 L67.8703059,292.85241 C68.343286,292.85241 68.7282037,292.482494 68.7282037,292.024894 L68.7282037,287.336552 C68.7282037,286.878952 68.343286,286.509036 67.8703059,286.509036 L62.3692495,286.509036 C61.7940035,286.509036 61.3267049,286.959786 61.3267049,287.51466 Z"
             id="Stroke-32"
             stroke="#FFFFFE"
             stroke-width="0.673"
             style="fill:none;stroke:#000000" />
          <polygon
             id="Stroke-33"
             stroke="#FFFFFE"
             stroke-width="0.654"
             points="103.781738 234.704819 87.5984234 234.704819 85.6459154 232.75156 85.6459154 218.685187 87.5984234 216.731928 103.781738 216.731928 105.735698 218.685187 105.735698 232.75156"
             style="fill:none;stroke:#000000" />
          <path
             d="M298.297558,326.683735 L330.831299,326.683735 L330.831299,312.752587 L298.297558,312.752587 L298.297558,326.683735 Z M295.002597,312.752587 L334.124806,312.752587 L334.124806,245.277108 L295.002597,245.277108 L295.002597,312.752587 Z M334.124806,292.638917 L330.174052,292.638917 C329.742188,292.638917 329.415018,292.979628 329.351038,293.409539 C328.818843,297.009674 324.55546,296.753774 324.554006,292.638917 L319.176792,264.646478 L319.176792,257.199083 L309.950611,257.199083 L309.950611,264.646478 L304.573398,292.638917 C304.573398,296.753774 300.308561,297.009674 299.776365,293.409539 C299.712385,292.979628 299.38667,292.638917 298.953352,292.638917 L295.002597,292.638917 L334.124806,292.638917 Z M314.564429,245.277108 L322.45285,245.277108 L322.45285,259.398353 C322.45285,260.639829 323.451808,261.64734 324.687782,261.64734 L326.570824,261.64734 C327.233888,261.64734 327.747181,262.23079 327.667206,262.891741 L325.888857,277.494076 C325.727454,278.660976 325.596586,279.386267 324.766302,279.386267 C323.867677,279.29853 323.936019,278.045356 323.928748,277.208931 C323.928748,276.398828 323.968009,272.621757 323.985458,270.804142 C323.992728,270.169512 323.781886,269.55243 323.386374,269.053792 L319.176792,263.744251 L319.176792,257.199083 L309.950611,257.199083 L309.950611,263.744251 L305.741029,269.053792 C305.345518,269.55243 305.134675,270.169512 305.141945,270.804142 C305.159395,272.621757 305.200109,276.398828 305.200109,277.208931 C305.192839,278.045356 305.259727,279.29853 304.362555,279.386267 C303.532271,279.386267 303.399949,278.660976 303.238546,277.494076 L301.460197,262.891741 C301.380223,262.23079 301.893515,261.64734 302.558033,261.64734 L304.441076,261.64734 C305.675595,261.64734 306.676007,260.639829 306.676007,259.398353 L306.676007,245.277108 L314.564429,245.277108 Z M330.213312,245.277108 L330.213312,292.638917 L330.213312,245.277108 Z M298.914091,245.277108 L298.914091,292.638917 L298.914091,245.277108 Z"
             id="Stroke-34"
             stroke="#FFFFFE"
             stroke-width="0.673"
             style="fill:none;stroke:#000000" />
        </g>
      </g>
    </g>
  </g>
</svg>
